<?xml version="1.0" encoding="UTF-8" standalone="no"?>
<!DOCTYPE svg PUBLIC "-//W3C//DTD SVG 1.1//EN"
 "http://www.w3.org/Graphics/SVG/1.1/DTD/svg11.dtd">
<!-- Generated by graphviz version 7.0.4 (20221203.1631)
 -->
<!-- Pages: 1 -->
<svg width="276pt" height="114pt"
 viewBox="0.00 0.00 276.00 114.00" xmlns="http://www.w3.org/2000/svg" xmlns:xlink="http://www.w3.org/1999/xlink">
<g id="graph0" class="graph" transform="scale(1 1) rotate(0) translate(36 78)">
<polygon fill="white" stroke="none" points="-36,36 -36,-78 240,-78 240,36 -36,36"/>
<!-- Foo -->
<g id="node1" class="node">
<title>Foo</title>
<polygon fill="none" stroke="black" points="0,-21 0,-42 56,-42 56,-21 0,-21"/>
<text text-anchor="start" x="3" y="-27.8" font-family="Times,serif" font-size="14.00"> Opcode </text>
<polygon fill="none" stroke="black" points="56,-21 56,-42 122,-42 122,-21 56,-21"/>
<text text-anchor="start" x="68.5" y="-27.8" font-family="Times,serif" font-size="14.00"> Name </text>
<polygon fill="none" stroke="black" points="122,-21 122,-42 163,-42 163,-21 122,-21"/>
<text text-anchor="start" x="126.5" y="-27.8" font-family="Times,serif" font-size="14.00"> OP1 </text>
<polygon fill="none" stroke="black" points="163,-21 163,-42 204,-42 204,-21 163,-21"/>
<text text-anchor="start" x="167.5" y="-27.8" font-family="Times,serif" font-size="14.00"> OP2 </text>
<polygon fill="none" stroke="black" points="0,0 0,-21 56,-21 56,0 0,0"/>
<text text-anchor="start" x="3.5" y="-6.8" font-family="Times,serif" font-size="14.00"> 0x0055 </text>
<polygon fill="none" stroke="black" points="56,0 56,-21 122,-21 122,0 56,0"/>
<text text-anchor="start" x="59" y="-6.8" font-family="Times,serif" font-size="14.00"> APPEND </text>
<polygon fill="none" stroke="black" points="122,0 122,-21 163,-21 163,0 122,0"/>
<text text-anchor="start" x="125" y="-6.8" font-family="Times,serif" font-size="14.00"> REG </text>
<polygon fill="none" stroke="black" points="163,0 163,-21 204,-21 204,0 163,0"/>
<text text-anchor="start" x="166" y="-6.8" font-family="Times,serif" font-size="14.00"> REG </text>
</g>
</g>
</svg>
