<?xml version="1.0" encoding="UTF-8" standalone="no"?>
<!DOCTYPE svg PUBLIC "-//W3C//DTD SVG 1.1//EN"
 "http://www.w3.org/Graphics/SVG/1.1/DTD/svg11.dtd">
<!-- Generated by graphviz version 7.0.4 (20221203.1631)
 -->
<!-- Pages: 1 -->
<svg width="331pt" height="114pt"
 viewBox="0.00 0.00 331.00 114.00" xmlns="http://www.w3.org/2000/svg" xmlns:xlink="http://www.w3.org/1999/xlink">
<g id="graph0" class="graph" transform="scale(1 1) rotate(0) translate(36 78)">
<polygon fill="white" stroke="none" points="-36,36 -36,-78 295,-78 295,36 -36,36"/>
<!-- Foo -->
<g id="node1" class="node">
<title>Foo</title>
<polygon fill="none" stroke="black" points="0.5,-21 0.5,-42 56.5,-42 56.5,-21 0.5,-21"/>
<text text-anchor="start" x="3.5" y="-27.8" font-family="Times,serif" font-size="14.00"> Opcode </text>
<polygon fill="none" stroke="black" points="56.5,-21 56.5,-42 136.5,-42 136.5,-21 56.5,-21"/>
<text text-anchor="start" x="76" y="-27.8" font-family="Times,serif" font-size="14.00"> Name </text>
<polygon fill="none" stroke="black" points="136.5,-21 136.5,-42 177.5,-42 177.5,-21 136.5,-21"/>
<text text-anchor="start" x="141" y="-27.8" font-family="Times,serif" font-size="14.00"> OP1 </text>
<polygon fill="none" stroke="black" points="177.5,-21 177.5,-42 218.5,-42 218.5,-21 177.5,-21"/>
<text text-anchor="start" x="182" y="-27.8" font-family="Times,serif" font-size="14.00"> OP2 </text>
<polygon fill="none" stroke="black" points="218.5,-21 218.5,-42 259.5,-42 259.5,-21 218.5,-21"/>
<text text-anchor="start" x="223" y="-27.8" font-family="Times,serif" font-size="14.00"> OP3 </text>
<polygon fill="none" stroke="black" points="0.5,0 0.5,-21 56.5,-21 56.5,0 0.5,0"/>
<text text-anchor="start" x="4" y="-6.8" font-family="Times,serif" font-size="14.00"> 0x00bd </text>
<polygon fill="none" stroke="black" points="56.5,0 56.5,-21 136.5,-21 136.5,0 56.5,0"/>
<text text-anchor="start" x="59.5" y="-6.8" font-family="Times,serif" font-size="14.00"> LINKATTR </text>
<polygon fill="none" stroke="black" points="136.5,0 136.5,-21 177.5,-21 177.5,0 136.5,0"/>
<text text-anchor="start" x="139.5" y="-6.8" font-family="Times,serif" font-size="14.00"> REG </text>
<polygon fill="none" stroke="black" points="177.5,0 177.5,-21 218.5,-21 218.5,0 177.5,0"/>
<text text-anchor="start" x="180.5" y="-6.8" font-family="Times,serif" font-size="14.00"> REG </text>
<polygon fill="none" stroke="black" points="218.5,0 218.5,-21 259.5,-21 259.5,0 218.5,0"/>
<text text-anchor="start" x="221.5" y="-6.8" font-family="Times,serif" font-size="14.00"> REG </text>
</g>
</g>
</svg>
