<?xml version="1.0" encoding="UTF-8" standalone="no"?>
<!DOCTYPE svg PUBLIC "-//W3C//DTD SVG 1.1//EN"
 "http://www.w3.org/Graphics/SVG/1.1/DTD/svg11.dtd">
<!-- Generated by graphviz version 7.0.4 (20221203.1631)
 -->
<!-- Pages: 1 -->
<svg width="295pt" height="114pt"
 viewBox="0.00 0.00 295.00 114.00" xmlns="http://www.w3.org/2000/svg" xmlns:xlink="http://www.w3.org/1999/xlink">
<g id="graph0" class="graph" transform="scale(1 1) rotate(0) translate(36 78)">
<polygon fill="white" stroke="none" points="-36,36 -36,-78 259,-78 259,36 -36,36"/>
<!-- Foo -->
<g id="node1" class="node">
<title>Foo</title>
<polygon fill="none" stroke="black" points="0.5,-21 0.5,-42 56.5,-42 56.5,-21 0.5,-21"/>
<text text-anchor="start" x="3.5" y="-27.8" font-family="Times,serif" font-size="14.00"> Opcode </text>
<polygon fill="none" stroke="black" points="56.5,-21 56.5,-42 103.5,-42 103.5,-21 56.5,-21"/>
<text text-anchor="start" x="59.5" y="-27.8" font-family="Times,serif" font-size="14.00"> Name </text>
<polygon fill="none" stroke="black" points="103.5,-21 103.5,-42 144.5,-42 144.5,-21 103.5,-21"/>
<text text-anchor="start" x="108" y="-27.8" font-family="Times,serif" font-size="14.00"> OP1 </text>
<polygon fill="none" stroke="black" points="144.5,-21 144.5,-42 185.5,-42 185.5,-21 144.5,-21"/>
<text text-anchor="start" x="149" y="-27.8" font-family="Times,serif" font-size="14.00"> OP2 </text>
<polygon fill="none" stroke="black" points="185.5,-21 185.5,-42 223.5,-42 223.5,-21 185.5,-21"/>
<text text-anchor="start" x="188.5" y="-27.8" font-family="Times,serif" font-size="14.00"> OP3 </text>
<polygon fill="none" stroke="black" points="0.5,0 0.5,-21 56.5,-21 56.5,0 0.5,0"/>
<text text-anchor="start" x="4" y="-6.8" font-family="Times,serif" font-size="14.00"> 0x0020 </text>
<polygon fill="none" stroke="black" points="56.5,0 56.5,-21 103.5,-21 103.5,0 56.5,0"/>
<text text-anchor="start" x="61.5" y="-6.8" font-family="Times,serif" font-size="14.00"> DIVI </text>
<polygon fill="none" stroke="black" points="103.5,0 103.5,-21 144.5,-21 144.5,0 103.5,0"/>
<text text-anchor="start" x="106.5" y="-6.8" font-family="Times,serif" font-size="14.00"> REG </text>
<polygon fill="none" stroke="black" points="144.5,0 144.5,-21 185.5,-21 185.5,0 144.5,0"/>
<text text-anchor="start" x="147.5" y="-6.8" font-family="Times,serif" font-size="14.00"> REG </text>
<polygon fill="none" stroke="black" points="185.5,0 185.5,-21 223.5,-21 223.5,0 185.5,0"/>
<text text-anchor="start" x="189.5" y="-6.8" font-family="Times,serif" font-size="14.00"> INT </text>
</g>
</g>
</svg>
