<?xml version="1.0" encoding="UTF-8" standalone="no"?>
<!DOCTYPE svg PUBLIC "-//W3C//DTD SVG 1.1//EN"
 "http://www.w3.org/Graphics/SVG/1.1/DTD/svg11.dtd">
<!-- Generated by graphviz version 7.0.4 (20221203.1631)
 -->
<!-- Pages: 1 -->
<svg width="316pt" height="114pt"
 viewBox="0.00 0.00 316.00 114.00" xmlns="http://www.w3.org/2000/svg" xmlns:xlink="http://www.w3.org/1999/xlink">
<g id="graph0" class="graph" transform="scale(1 1) rotate(0) translate(36 78)">
<polygon fill="white" stroke="none" points="-36,36 -36,-78 280,-78 280,36 -36,36"/>
<!-- Foo -->
<g id="node1" class="node">
<title>Foo</title>
<polygon fill="none" stroke="black" points="0,-21 0,-42 56,-42 56,-21 0,-21"/>
<text text-anchor="start" x="3" y="-27.8" font-family="Times,serif" font-size="14.00"> Opcode </text>
<polygon fill="none" stroke="black" points="56,-21 56,-42 107,-42 107,-21 56,-21"/>
<text text-anchor="start" x="61" y="-27.8" font-family="Times,serif" font-size="14.00"> Name </text>
<polygon fill="none" stroke="black" points="107,-21 107,-42 148,-42 148,-21 107,-21"/>
<text text-anchor="start" x="111.5" y="-27.8" font-family="Times,serif" font-size="14.00"> OP1 </text>
<polygon fill="none" stroke="black" points="148,-21 148,-42 189,-42 189,-21 148,-21"/>
<text text-anchor="start" x="152.5" y="-27.8" font-family="Times,serif" font-size="14.00"> OP2 </text>
<polygon fill="none" stroke="black" points="189,-21 189,-42 244,-42 244,-21 189,-21"/>
<text text-anchor="start" x="200.5" y="-27.8" font-family="Times,serif" font-size="14.00"> OP3 </text>
<polygon fill="none" stroke="black" points="0,0 0,-21 56,-21 56,0 0,0"/>
<text text-anchor="start" x="4" y="-6.8" font-family="Times,serif" font-size="14.00"> 0x00e6 </text>
<polygon fill="none" stroke="black" points="56,0 56,-21 107,-21 107,0 56,0"/>
<text text-anchor="start" x="59" y="-6.8" font-family="Times,serif" font-size="14.00"> FPOW </text>
<polygon fill="none" stroke="black" points="107,0 107,-21 148,-21 148,0 107,0"/>
<text text-anchor="start" x="110" y="-6.8" font-family="Times,serif" font-size="14.00"> REG </text>
<polygon fill="none" stroke="black" points="148,0 148,-21 189,-21 189,0 148,0"/>
<text text-anchor="start" x="151" y="-6.8" font-family="Times,serif" font-size="14.00"> REG </text>
<polygon fill="none" stroke="black" points="189,0 189,-21 244,-21 244,0 189,0"/>
<text text-anchor="start" x="192" y="-6.8" font-family="Times,serif" font-size="14.00"> FLOAT </text>
</g>
</g>
</svg>
