<?xml version="1.0" encoding="UTF-8" standalone="no"?>
<!DOCTYPE svg PUBLIC "-//W3C//DTD SVG 1.1//EN"
 "http://www.w3.org/Graphics/SVG/1.1/DTD/svg11.dtd">
<!-- Generated by graphviz version 7.0.4 (20221203.1631)
 -->
<!-- Pages: 1 -->
<svg width="296pt" height="114pt"
 viewBox="0.00 0.00 296.00 114.00" xmlns="http://www.w3.org/2000/svg" xmlns:xlink="http://www.w3.org/1999/xlink">
<g id="graph0" class="graph" transform="scale(1 1) rotate(0) translate(36 78)">
<polygon fill="white" stroke="none" points="-36,36 -36,-78 260,-78 260,36 -36,36"/>
<!-- Foo -->
<g id="node1" class="node">
<title>Foo</title>
<polygon fill="none" stroke="black" points="0,-21 0,-42 56,-42 56,-21 0,-21"/>
<text text-anchor="start" x="3" y="-27.8" font-family="Times,serif" font-size="14.00"> Opcode </text>
<polygon fill="none" stroke="black" points="56,-21 56,-42 104,-42 104,-21 56,-21"/>
<text text-anchor="start" x="59.5" y="-27.8" font-family="Times,serif" font-size="14.00"> Name </text>
<polygon fill="none" stroke="black" points="104,-21 104,-42 145,-42 145,-21 104,-21"/>
<text text-anchor="start" x="108.5" y="-27.8" font-family="Times,serif" font-size="14.00"> OP1 </text>
<polygon fill="none" stroke="black" points="145,-21 145,-42 183,-42 183,-21 145,-21"/>
<text text-anchor="start" x="148" y="-27.8" font-family="Times,serif" font-size="14.00"> OP2 </text>
<polygon fill="none" stroke="black" points="183,-21 183,-42 224,-42 224,-21 183,-21"/>
<text text-anchor="start" x="187.5" y="-27.8" font-family="Times,serif" font-size="14.00"> OP3 </text>
<polygon fill="none" stroke="black" points="0,0 0,-21 56,-21 56,0 0,0"/>
<text text-anchor="start" x="4" y="-6.8" font-family="Times,serif" font-size="14.00"> 0x00e4 </text>
<polygon fill="none" stroke="black" points="56,0 56,-21 104,-21 104,0 56,0"/>
<text text-anchor="start" x="59" y="-6.8" font-family="Times,serif" font-size="14.00"> IPOW </text>
<polygon fill="none" stroke="black" points="104,0 104,-21 145,-21 145,0 104,0"/>
<text text-anchor="start" x="107" y="-6.8" font-family="Times,serif" font-size="14.00"> REG </text>
<polygon fill="none" stroke="black" points="145,0 145,-21 183,-21 183,0 145,0"/>
<text text-anchor="start" x="149" y="-6.8" font-family="Times,serif" font-size="14.00"> INT </text>
<polygon fill="none" stroke="black" points="183,0 183,-21 224,-21 224,0 183,0"/>
<text text-anchor="start" x="186" y="-6.8" font-family="Times,serif" font-size="14.00"> REG </text>
</g>
</g>
</svg>
