<?xml version="1.0" encoding="UTF-8" standalone="no"?>
<!DOCTYPE svg PUBLIC "-//W3C//DTD SVG 1.1//EN"
 "http://www.w3.org/Graphics/SVG/1.1/DTD/svg11.dtd">
<!-- Generated by graphviz version 7.0.4 (20221203.1631)
 -->
<!-- Pages: 1 -->
<svg width="336pt" height="114pt"
 viewBox="0.00 0.00 336.00 114.00" xmlns="http://www.w3.org/2000/svg" xmlns:xlink="http://www.w3.org/1999/xlink">
<g id="graph0" class="graph" transform="scale(1 1) rotate(0) translate(36 78)">
<polygon fill="white" stroke="none" points="-36,36 -36,-78 300,-78 300,36 -36,36"/>
<!-- Foo -->
<g id="node1" class="node">
<title>Foo</title>
<polygon fill="none" stroke="black" points="0,-21 0,-42 56,-42 56,-21 0,-21"/>
<text text-anchor="start" x="3" y="-27.8" font-family="Times,serif" font-size="14.00"> Opcode </text>
<polygon fill="none" stroke="black" points="56,-21 56,-42 147,-42 147,-21 56,-21"/>
<text text-anchor="start" x="81" y="-27.8" font-family="Times,serif" font-size="14.00"> Name </text>
<polygon fill="none" stroke="black" points="147,-21 147,-42 188,-42 188,-21 147,-21"/>
<text text-anchor="start" x="151.5" y="-27.8" font-family="Times,serif" font-size="14.00"> OP1 </text>
<polygon fill="none" stroke="black" points="188,-21 188,-42 226,-42 226,-21 188,-21"/>
<text text-anchor="start" x="191" y="-27.8" font-family="Times,serif" font-size="14.00"> OP2 </text>
<polygon fill="none" stroke="black" points="226,-21 226,-42 264,-42 264,-21 226,-21"/>
<text text-anchor="start" x="229" y="-27.8" font-family="Times,serif" font-size="14.00"> OP3 </text>
<polygon fill="none" stroke="black" points="0,0 0,-21 56,-21 56,0 0,0"/>
<text text-anchor="start" x="6" y="-6.8" font-family="Times,serif" font-size="14.00"> 0x00ff </text>
<polygon fill="none" stroke="black" points="56,0 56,-21 147,-21 147,0 56,0"/>
<text text-anchor="start" x="59" y="-6.8" font-family="Times,serif" font-size="14.00"> LOADSETTP </text>
<polygon fill="none" stroke="black" points="147,0 147,-21 188,-21 188,0 147,0"/>
<text text-anchor="start" x="150" y="-6.8" font-family="Times,serif" font-size="14.00"> REG </text>
<polygon fill="none" stroke="black" points="188,0 188,-21 226,-21 226,0 188,0"/>
<text text-anchor="start" x="192" y="-6.8" font-family="Times,serif" font-size="14.00"> INT </text>
<polygon fill="none" stroke="black" points="226,0 226,-21 264,-21 264,0 226,0"/>
<text text-anchor="start" x="230" y="-6.8" font-family="Times,serif" font-size="14.00"> INT </text>
</g>
</g>
</svg>
