<?xml version="1.0" encoding="UTF-8" standalone="no"?>
<!DOCTYPE svg PUBLIC "-//W3C//DTD SVG 1.1//EN"
 "http://www.w3.org/Graphics/SVG/1.1/DTD/svg11.dtd">
<!-- Generated by graphviz version 7.0.4 (20221203.1631)
 -->
<!-- Pages: 1 -->
<svg width="317pt" height="114pt"
 viewBox="0.00 0.00 317.00 114.00" xmlns="http://www.w3.org/2000/svg" xmlns:xlink="http://www.w3.org/1999/xlink">
<g id="graph0" class="graph" transform="scale(1 1) rotate(0) translate(36 78)">
<polygon fill="white" stroke="none" points="-36,36 -36,-78 281,-78 281,36 -36,36"/>
<!-- Foo -->
<g id="node1" class="node">
<title>Foo</title>
<polygon fill="none" stroke="black" points="0.5,-21 0.5,-42 56.5,-42 56.5,-21 0.5,-21"/>
<text text-anchor="start" x="3.5" y="-27.8" font-family="Times,serif" font-size="14.00"> Opcode </text>
<polygon fill="none" stroke="black" points="56.5,-21 56.5,-42 122.5,-42 122.5,-21 56.5,-21"/>
<text text-anchor="start" x="69" y="-27.8" font-family="Times,serif" font-size="14.00"> Name </text>
<polygon fill="none" stroke="black" points="122.5,-21 122.5,-42 163.5,-42 163.5,-21 122.5,-21"/>
<text text-anchor="start" x="127" y="-27.8" font-family="Times,serif" font-size="14.00"> OP1 </text>
<polygon fill="none" stroke="black" points="163.5,-21 163.5,-42 204.5,-42 204.5,-21 163.5,-21"/>
<text text-anchor="start" x="168" y="-27.8" font-family="Times,serif" font-size="14.00"> OP2 </text>
<polygon fill="none" stroke="black" points="204.5,-21 204.5,-42 245.5,-42 245.5,-21 204.5,-21"/>
<text text-anchor="start" x="209" y="-27.8" font-family="Times,serif" font-size="14.00"> OP3 </text>
<polygon fill="none" stroke="black" points="0.5,0 0.5,-21 56.5,-21 56.5,0 0.5,0"/>
<text text-anchor="start" x="5.5" y="-6.8" font-family="Times,serif" font-size="14.00"> 0x00df </text>
<polygon fill="none" stroke="black" points="56.5,0 56.5,-21 122.5,-21 122.5,0 56.5,0"/>
<text text-anchor="start" x="59.5" y="-6.8" font-family="Times,serif" font-size="14.00"> PADSTR </text>
<polygon fill="none" stroke="black" points="122.5,0 122.5,-21 163.5,-21 163.5,0 122.5,0"/>
<text text-anchor="start" x="125.5" y="-6.8" font-family="Times,serif" font-size="14.00"> REG </text>
<polygon fill="none" stroke="black" points="163.5,0 163.5,-21 204.5,-21 204.5,0 163.5,0"/>
<text text-anchor="start" x="166.5" y="-6.8" font-family="Times,serif" font-size="14.00"> REG </text>
<polygon fill="none" stroke="black" points="204.5,0 204.5,-21 245.5,-21 245.5,0 204.5,0"/>
<text text-anchor="start" x="207.5" y="-6.8" font-family="Times,serif" font-size="14.00"> REG </text>
</g>
</g>
</svg>
