<?xml version="1.0" encoding="UTF-8" standalone="no"?>
<!DOCTYPE svg PUBLIC "-//W3C//DTD SVG 1.1//EN"
 "http://www.w3.org/Graphics/SVG/1.1/DTD/svg11.dtd">
<!-- Generated by graphviz version 7.0.4 (20221203.1631)
 -->
<!-- Pages: 1 -->
<svg width="349pt" height="114pt"
 viewBox="0.00 0.00 349.00 114.00" xmlns="http://www.w3.org/2000/svg" xmlns:xlink="http://www.w3.org/1999/xlink">
<g id="graph0" class="graph" transform="scale(1 1) rotate(0) translate(36 78)">
<polygon fill="white" stroke="none" points="-36,36 -36,-78 313,-78 313,36 -36,36"/>
<!-- Foo -->
<g id="node1" class="node">
<title>Foo</title>
<polygon fill="none" stroke="black" points="0.5,-21 0.5,-42 56.5,-42 56.5,-21 0.5,-21"/>
<text text-anchor="start" x="3.5" y="-27.8" font-family="Times,serif" font-size="14.00"> Opcode </text>
<polygon fill="none" stroke="black" points="56.5,-21 56.5,-42 168.5,-42 168.5,-21 56.5,-21"/>
<text text-anchor="start" x="92" y="-27.8" font-family="Times,serif" font-size="14.00"> Name </text>
<polygon fill="none" stroke="black" points="168.5,-21 168.5,-42 236.5,-42 236.5,-21 168.5,-21"/>
<text text-anchor="start" x="186.5" y="-27.8" font-family="Times,serif" font-size="14.00"> OP1 </text>
<polygon fill="none" stroke="black" points="236.5,-21 236.5,-42 277.5,-42 277.5,-21 236.5,-21"/>
<text text-anchor="start" x="241" y="-27.8" font-family="Times,serif" font-size="14.00"> OP2 </text>
<polygon fill="none" stroke="black" points="0.5,0 0.5,-21 56.5,-21 56.5,0 0.5,0"/>
<text text-anchor="start" x="4" y="-6.8" font-family="Times,serif" font-size="14.00"> 0x0007 </text>
<polygon fill="none" stroke="black" points="56.5,0 56.5,-21 168.5,-21 168.5,0 56.5,0"/>
<text text-anchor="start" x="59.5" y="-6.8" font-family="Times,serif" font-size="14.00"> METADECODEI </text>
<polygon fill="none" stroke="black" points="168.5,0 168.5,-21 236.5,-21 236.5,0 168.5,0"/>
<text text-anchor="start" x="171.5" y="-6.8" font-family="Times,serif" font-size="14.00"> inst &#160;REG </text>
<polygon fill="none" stroke="black" points="236.5,0 236.5,-21 277.5,-21 277.5,0 236.5,0"/>
<text text-anchor="start" x="239.5" y="-6.8" font-family="Times,serif" font-size="14.00"> REG </text>
</g>
</g>
</svg>
