<?xml version="1.0" encoding="UTF-8" standalone="no"?>
<!DOCTYPE svg PUBLIC "-//W3C//DTD SVG 1.1//EN"
 "http://www.w3.org/Graphics/SVG/1.1/DTD/svg11.dtd">
<!-- Generated by graphviz version 7.0.4 (20221203.1631)
 -->
<!-- Pages: 1 -->
<svg width="322pt" height="114pt"
 viewBox="0.00 0.00 322.00 114.00" xmlns="http://www.w3.org/2000/svg" xmlns:xlink="http://www.w3.org/1999/xlink">
<g id="graph0" class="graph" transform="scale(1 1) rotate(0) translate(36 78)">
<polygon fill="white" stroke="none" points="-36,36 -36,-78 286,-78 286,36 -36,36"/>
<!-- Foo -->
<g id="node1" class="node">
<title>Foo</title>
<polygon fill="none" stroke="black" points="0,-21 0,-42 56,-42 56,-21 0,-21"/>
<text text-anchor="start" x="3" y="-27.8" font-family="Times,serif" font-size="14.00"> Opcode </text>
<polygon fill="none" stroke="black" points="56,-21 56,-42 105,-42 105,-21 56,-21"/>
<text text-anchor="start" x="60" y="-27.8" font-family="Times,serif" font-size="14.00"> Name </text>
<polygon fill="none" stroke="black" points="105,-21 105,-42 146,-42 146,-21 105,-21"/>
<text text-anchor="start" x="109.5" y="-27.8" font-family="Times,serif" font-size="14.00"> OP1 </text>
<polygon fill="none" stroke="black" points="146,-21 146,-42 187,-42 187,-21 146,-21"/>
<text text-anchor="start" x="150.5" y="-27.8" font-family="Times,serif" font-size="14.00"> OP2 </text>
<polygon fill="none" stroke="black" points="187,-21 187,-42 250,-42 250,-21 187,-21"/>
<text text-anchor="start" x="202.5" y="-27.8" font-family="Times,serif" font-size="14.00"> OP3 </text>
<polygon fill="none" stroke="black" points="0,0 0,-21 56,-21 56,0 0,0"/>
<text text-anchor="start" x="3.5" y="-6.8" font-family="Times,serif" font-size="14.00"> 0x0087 </text>
<polygon fill="none" stroke="black" points="56,0 56,-21 105,-21 105,0 56,0"/>
<text text-anchor="start" x="59" y="-6.8" font-family="Times,serif" font-size="14.00"> RSEQ </text>
<polygon fill="none" stroke="black" points="105,0 105,-21 146,-21 146,0 105,0"/>
<text text-anchor="start" x="108" y="-6.8" font-family="Times,serif" font-size="14.00"> REG </text>
<polygon fill="none" stroke="black" points="146,0 146,-21 187,-21 187,0 146,0"/>
<text text-anchor="start" x="149" y="-6.8" font-family="Times,serif" font-size="14.00"> REG </text>
<polygon fill="none" stroke="black" points="187,0 187,-21 250,-21 250,0 187,0"/>
<text text-anchor="start" x="190" y="-6.8" font-family="Times,serif" font-size="14.00"> STRING </text>
</g>
</g>
</svg>
