<?xml version="1.0" encoding="UTF-8" standalone="no"?>
<!DOCTYPE svg PUBLIC "-//W3C//DTD SVG 1.1//EN"
 "http://www.w3.org/Graphics/SVG/1.1/DTD/svg11.dtd">
<!-- Generated by graphviz version 7.0.4 (20221203.1631)
 -->
<!-- Pages: 1 -->
<svg width="340pt" height="114pt"
 viewBox="0.00 0.00 340.00 114.00" xmlns="http://www.w3.org/2000/svg" xmlns:xlink="http://www.w3.org/1999/xlink">
<g id="graph0" class="graph" transform="scale(1 1) rotate(0) translate(36 78)">
<polygon fill="white" stroke="none" points="-36,36 -36,-78 304,-78 304,36 -36,36"/>
<!-- Foo -->
<g id="node1" class="node">
<title>Foo</title>
<polygon fill="none" stroke="black" points="0,-21 0,-42 56,-42 56,-21 0,-21"/>
<text text-anchor="start" x="3" y="-27.8" font-family="Times,serif" font-size="14.00"> Opcode </text>
<polygon fill="none" stroke="black" points="56,-21 56,-42 166,-42 166,-21 56,-21"/>
<text text-anchor="start" x="90.5" y="-27.8" font-family="Times,serif" font-size="14.00"> Name </text>
<polygon fill="none" stroke="black" points="166,-21 166,-42 227,-42 227,-21 166,-21"/>
<text text-anchor="start" x="180.5" y="-27.8" font-family="Times,serif" font-size="14.00"> OP1 </text>
<polygon fill="none" stroke="black" points="227,-21 227,-42 268,-42 268,-21 227,-21"/>
<text text-anchor="start" x="231.5" y="-27.8" font-family="Times,serif" font-size="14.00"> OP2 </text>
<polygon fill="none" stroke="black" points="0,0 0,-21 56,-21 56,0 0,0"/>
<text text-anchor="start" x="3.5" y="-6.8" font-family="Times,serif" font-size="14.00"> 0x000d </text>
<polygon fill="none" stroke="black" points="56,0 56,-21 166,-21 166,0 56,0"/>
<text text-anchor="start" x="59" y="-6.8" font-family="Times,serif" font-size="14.00"> METALINKPRE </text>
<polygon fill="none" stroke="black" points="166,0 166,-21 227,-21 227,0 166,0"/>
<text text-anchor="start" x="169" y="-6.8" font-family="Times,serif" font-size="14.00"> eg &#160;REG </text>
<polygon fill="none" stroke="black" points="227,0 227,-21 268,-21 268,0 227,0"/>
<text text-anchor="start" x="230" y="-6.8" font-family="Times,serif" font-size="14.00"> REG </text>
</g>
</g>
</svg>
