<?xml version="1.0" encoding="UTF-8" standalone="no"?>
<!DOCTYPE svg PUBLIC "-//W3C//DTD SVG 1.1//EN"
 "http://www.w3.org/Graphics/SVG/1.1/DTD/svg11.dtd">
<!-- Generated by graphviz version 7.0.4 (20221203.1631)
 -->
<!-- Pages: 1 -->
<svg width="384pt" height="114pt"
 viewBox="0.00 0.00 384.00 114.00" xmlns="http://www.w3.org/2000/svg" xmlns:xlink="http://www.w3.org/1999/xlink">
<g id="graph0" class="graph" transform="scale(1 1) rotate(0) translate(36 78)">
<polygon fill="white" stroke="none" points="-36,36 -36,-78 348,-78 348,36 -36,36"/>
<!-- Foo -->
<g id="node1" class="node">
<title>Foo</title>
<polygon fill="none" stroke="black" points="0,-21 0,-42 56,-42 56,-21 0,-21"/>
<text text-anchor="start" x="3" y="-27.8" font-family="Times,serif" font-size="14.00"> Opcode </text>
<polygon fill="none" stroke="black" points="56,-21 56,-42 172,-42 172,-21 56,-21"/>
<text text-anchor="start" x="93.5" y="-27.8" font-family="Times,serif" font-size="14.00"> Name </text>
<polygon fill="none" stroke="black" points="172,-21 172,-42 230,-42 230,-21 172,-21"/>
<text text-anchor="start" x="185" y="-27.8" font-family="Times,serif" font-size="14.00"> OP1 </text>
<polygon fill="none" stroke="black" points="230,-21 230,-42 271,-42 271,-21 230,-21"/>
<text text-anchor="start" x="234.5" y="-27.8" font-family="Times,serif" font-size="14.00"> OP2 </text>
<polygon fill="none" stroke="black" points="271,-21 271,-42 312,-42 312,-21 271,-21"/>
<text text-anchor="start" x="275.5" y="-27.8" font-family="Times,serif" font-size="14.00"> OP3 </text>
<polygon fill="none" stroke="black" points="0,0 0,-21 56,-21 56,0 0,0"/>
<text text-anchor="start" x="4" y="-6.8" font-family="Times,serif" font-size="14.00"> 0x000c </text>
<polygon fill="none" stroke="black" points="56,0 56,-21 172,-21 172,0 56,0"/>
<text text-anchor="start" x="59" y="-6.8" font-family="Times,serif" font-size="14.00"> METALOADDAT </text>
<polygon fill="none" stroke="black" points="172,0 172,-21 230,-21 230,0 172,0"/>
<text text-anchor="start" x="175" y="-6.8" font-family="Times,serif" font-size="14.00"> ta &#160;REG </text>
<polygon fill="none" stroke="black" points="230,0 230,-21 271,-21 271,0 230,0"/>
<text text-anchor="start" x="233" y="-6.8" font-family="Times,serif" font-size="14.00"> REG </text>
<polygon fill="none" stroke="black" points="271,0 271,-21 312,-21 312,0 271,0"/>
<text text-anchor="start" x="274" y="-6.8" font-family="Times,serif" font-size="14.00"> REG </text>
</g>
</g>
</svg>
