<?xml version="1.0" encoding="UTF-8" standalone="no"?>
<!DOCTYPE svg PUBLIC "-//W3C//DTD SVG 1.1//EN"
 "http://www.w3.org/Graphics/SVG/1.1/DTD/svg11.dtd">
<!-- Generated by graphviz version 7.0.4 (20221203.1631)
 -->
<!-- Pages: 1 -->
<svg width="299pt" height="114pt"
 viewBox="0.00 0.00 299.00 114.00" xmlns="http://www.w3.org/2000/svg" xmlns:xlink="http://www.w3.org/1999/xlink">
<g id="graph0" class="graph" transform="scale(1 1) rotate(0) translate(36 78)">
<polygon fill="white" stroke="none" points="-36,36 -36,-78 263,-78 263,36 -36,36"/>
<!-- Foo -->
<g id="node1" class="node">
<title>Foo</title>
<polygon fill="none" stroke="black" points="0.5,-21 0.5,-42 56.5,-42 56.5,-21 0.5,-21"/>
<text text-anchor="start" x="3.5" y="-27.8" font-family="Times,serif" font-size="14.00"> Opcode </text>
<polygon fill="none" stroke="black" points="56.5,-21 56.5,-42 107.5,-42 107.5,-21 56.5,-21"/>
<text text-anchor="start" x="61.5" y="-27.8" font-family="Times,serif" font-size="14.00"> Name </text>
<polygon fill="none" stroke="black" points="107.5,-21 107.5,-42 148.5,-42 148.5,-21 107.5,-21"/>
<text text-anchor="start" x="112" y="-27.8" font-family="Times,serif" font-size="14.00"> OP1 </text>
<polygon fill="none" stroke="black" points="148.5,-21 148.5,-42 189.5,-42 189.5,-21 148.5,-21"/>
<text text-anchor="start" x="153" y="-27.8" font-family="Times,serif" font-size="14.00"> OP2 </text>
<polygon fill="none" stroke="black" points="189.5,-21 189.5,-42 227.5,-42 227.5,-21 189.5,-21"/>
<text text-anchor="start" x="192.5" y="-27.8" font-family="Times,serif" font-size="14.00"> OP3 </text>
<polygon fill="none" stroke="black" points="0.5,0 0.5,-21 56.5,-21 56.5,0 0.5,0"/>
<text text-anchor="start" x="4" y="-6.8" font-family="Times,serif" font-size="14.00"> 0x0022 </text>
<polygon fill="none" stroke="black" points="56.5,0 56.5,-21 107.5,-21 107.5,0 56.5,0"/>
<text text-anchor="start" x="59.5" y="-6.8" font-family="Times,serif" font-size="14.00"> IMOD </text>
<polygon fill="none" stroke="black" points="107.5,0 107.5,-21 148.5,-21 148.5,0 107.5,0"/>
<text text-anchor="start" x="110.5" y="-6.8" font-family="Times,serif" font-size="14.00"> REG </text>
<polygon fill="none" stroke="black" points="148.5,0 148.5,-21 189.5,-21 189.5,0 148.5,0"/>
<text text-anchor="start" x="151.5" y="-6.8" font-family="Times,serif" font-size="14.00"> REG </text>
<polygon fill="none" stroke="black" points="189.5,0 189.5,-21 227.5,-21 227.5,0 189.5,0"/>
<text text-anchor="start" x="193.5" y="-6.8" font-family="Times,serif" font-size="14.00"> INT </text>
</g>
</g>
</svg>
