<?xml version="1.0" encoding="UTF-8" standalone="no"?>
<!DOCTYPE svg PUBLIC "-//W3C//DTD SVG 1.1//EN"
 "http://www.w3.org/Graphics/SVG/1.1/DTD/svg11.dtd">
<!-- Generated by graphviz version 7.0.4 (20221203.1631)
 -->
<!-- Pages: 1 -->
<svg width="318pt" height="114pt"
 viewBox="0.00 0.00 318.00 114.00" xmlns="http://www.w3.org/2000/svg" xmlns:xlink="http://www.w3.org/1999/xlink">
<g id="graph0" class="graph" transform="scale(1 1) rotate(0) translate(36 78)">
<polygon fill="white" stroke="none" points="-36,36 -36,-78 282,-78 282,36 -36,36"/>
<!-- Foo -->
<g id="node1" class="node">
<title>Foo</title>
<polygon fill="none" stroke="black" points="0,-21 0,-42 56,-42 56,-21 0,-21"/>
<text text-anchor="start" x="3" y="-27.8" font-family="Times,serif" font-size="14.00"> Opcode </text>
<polygon fill="none" stroke="black" points="56,-21 56,-42 123,-42 123,-21 56,-21"/>
<text text-anchor="start" x="69" y="-27.8" font-family="Times,serif" font-size="14.00"> Name </text>
<polygon fill="none" stroke="black" points="123,-21 123,-42 164,-42 164,-21 123,-21"/>
<text text-anchor="start" x="127.5" y="-27.8" font-family="Times,serif" font-size="14.00"> OP1 </text>
<polygon fill="none" stroke="black" points="164,-21 164,-42 205,-42 205,-21 164,-21"/>
<text text-anchor="start" x="168.5" y="-27.8" font-family="Times,serif" font-size="14.00"> OP2 </text>
<polygon fill="none" stroke="black" points="205,-21 205,-42 246,-42 246,-21 205,-21"/>
<text text-anchor="start" x="209.5" y="-27.8" font-family="Times,serif" font-size="14.00"> OP3 </text>
<polygon fill="none" stroke="black" points="0,0 0,-21 56,-21 56,0 0,0"/>
<text text-anchor="start" x="5" y="-6.8" font-family="Times,serif" font-size="14.00"> 0x004f </text>
<polygon fill="none" stroke="black" points="56,0 56,-21 123,-21 123,0 56,0"/>
<text text-anchor="start" x="59" y="-6.8" font-family="Times,serif" font-size="14.00"> CONCAT </text>
<polygon fill="none" stroke="black" points="123,0 123,-21 164,-21 164,0 123,0"/>
<text text-anchor="start" x="126" y="-6.8" font-family="Times,serif" font-size="14.00"> REG </text>
<polygon fill="none" stroke="black" points="164,0 164,-21 205,-21 205,0 164,0"/>
<text text-anchor="start" x="167" y="-6.8" font-family="Times,serif" font-size="14.00"> REG </text>
<polygon fill="none" stroke="black" points="205,0 205,-21 246,-21 246,0 205,0"/>
<text text-anchor="start" x="208" y="-6.8" font-family="Times,serif" font-size="14.00"> REG </text>
</g>
</g>
</svg>
