<?xml version="1.0" encoding="UTF-8" standalone="no"?>
<!DOCTYPE svg PUBLIC "-//W3C//DTD SVG 1.1//EN"
 "http://www.w3.org/Graphics/SVG/1.1/DTD/svg11.dtd">
<!-- Generated by graphviz version 7.0.4 (20221203.1631)
 -->
<!-- Pages: 1 -->
<svg width="348pt" height="114pt"
 viewBox="0.00 0.00 348.00 114.00" xmlns="http://www.w3.org/2000/svg" xmlns:xlink="http://www.w3.org/1999/xlink">
<g id="graph0" class="graph" transform="scale(1 1) rotate(0) translate(36 78)">
<polygon fill="white" stroke="none" points="-36,36 -36,-78 312,-78 312,36 -36,36"/>
<!-- Foo -->
<g id="node1" class="node">
<title>Foo</title>
<polygon fill="none" stroke="black" points="0,-21 0,-42 56,-42 56,-21 0,-21"/>
<text text-anchor="start" x="3" y="-27.8" font-family="Times,serif" font-size="14.00"> Opcode </text>
<polygon fill="none" stroke="black" points="56,-21 56,-42 131,-42 131,-21 56,-21"/>
<text text-anchor="start" x="73" y="-27.8" font-family="Times,serif" font-size="14.00"> Name </text>
<polygon fill="none" stroke="black" points="131,-21 131,-42 172,-42 172,-21 131,-21"/>
<text text-anchor="start" x="135.5" y="-27.8" font-family="Times,serif" font-size="14.00"> OP1 </text>
<polygon fill="none" stroke="black" points="172,-21 172,-42 235,-42 235,-21 172,-21"/>
<text text-anchor="start" x="187.5" y="-27.8" font-family="Times,serif" font-size="14.00"> OP2 </text>
<polygon fill="none" stroke="black" points="235,-21 235,-42 276,-42 276,-21 235,-21"/>
<text text-anchor="start" x="239.5" y="-27.8" font-family="Times,serif" font-size="14.00"> OP3 </text>
<polygon fill="none" stroke="black" points="0,0 0,-21 56,-21 56,0 0,0"/>
<text text-anchor="start" x="4" y="-6.8" font-family="Times,serif" font-size="14.00"> 0x004e </text>
<polygon fill="none" stroke="black" points="56,0 56,-21 131,-21 131,0 56,0"/>
<text text-anchor="start" x="59" y="-6.8" font-family="Times,serif" font-size="14.00"> SCONCAT </text>
<polygon fill="none" stroke="black" points="131,0 131,-21 172,-21 172,0 131,0"/>
<text text-anchor="start" x="134" y="-6.8" font-family="Times,serif" font-size="14.00"> REG </text>
<polygon fill="none" stroke="black" points="172,0 172,-21 235,-21 235,0 172,0"/>
<text text-anchor="start" x="175" y="-6.8" font-family="Times,serif" font-size="14.00"> STRING </text>
<polygon fill="none" stroke="black" points="235,0 235,-21 276,-21 276,0 235,0"/>
<text text-anchor="start" x="238" y="-6.8" font-family="Times,serif" font-size="14.00"> REG </text>
</g>
</g>
</svg>
