<?xml version="1.0" encoding="UTF-8" standalone="no"?>
<!DOCTYPE svg PUBLIC "-//W3C//DTD SVG 1.1//EN"
 "http://www.w3.org/Graphics/SVG/1.1/DTD/svg11.dtd">
<!-- Generated by graphviz version 7.0.4 (20221203.1631)
 -->
<!-- Pages: 1 -->
<svg width="364pt" height="114pt"
 viewBox="0.00 0.00 364.00 114.00" xmlns="http://www.w3.org/2000/svg" xmlns:xlink="http://www.w3.org/1999/xlink">
<g id="graph0" class="graph" transform="scale(1 1) rotate(0) translate(36 78)">
<polygon fill="white" stroke="none" points="-36,36 -36,-78 328,-78 328,36 -36,36"/>
<!-- Foo -->
<g id="node1" class="node">
<title>Foo</title>
<polygon fill="none" stroke="black" points="0,-21 0,-42 56,-42 56,-21 0,-21"/>
<text text-anchor="start" x="3" y="-27.8" font-family="Times,serif" font-size="14.00"> Opcode </text>
<polygon fill="none" stroke="black" points="56,-21 56,-42 179,-42 179,-21 56,-21"/>
<text text-anchor="start" x="97" y="-27.8" font-family="Times,serif" font-size="14.00"> Name </text>
<polygon fill="none" stroke="black" points="179,-21 179,-42 251,-42 251,-21 179,-21"/>
<text text-anchor="start" x="199" y="-27.8" font-family="Times,serif" font-size="14.00"> OP1 </text>
<polygon fill="none" stroke="black" points="251,-21 251,-42 292,-42 292,-21 251,-21"/>
<text text-anchor="start" x="255.5" y="-27.8" font-family="Times,serif" font-size="14.00"> OP2 </text>
<polygon fill="none" stroke="black" points="0,0 0,-21 56,-21 56,0 0,0"/>
<text text-anchor="start" x="3.5" y="-6.8" font-family="Times,serif" font-size="14.00"> 0x0003 </text>
<polygon fill="none" stroke="black" points="56,0 56,-21 179,-21 179,0 56,0"/>
<text text-anchor="start" x="59" y="-6.8" font-family="Times,serif" font-size="14.00"> METALOADMOD </text>
<polygon fill="none" stroke="black" points="179,0 179,-21 251,-21 251,0 179,0"/>
<text text-anchor="start" x="182" y="-6.8" font-family="Times,serif" font-size="14.00"> dule &#160;REG </text>
<polygon fill="none" stroke="black" points="251,0 251,-21 292,-21 292,0 251,0"/>
<text text-anchor="start" x="254" y="-6.8" font-family="Times,serif" font-size="14.00"> REG </text>
</g>
</g>
</svg>
