<?xml version="1.0" encoding="UTF-8" standalone="no"?>
<!DOCTYPE svg PUBLIC "-//W3C//DTD SVG 1.1//EN"
 "http://www.w3.org/Graphics/SVG/1.1/DTD/svg11.dtd">
<!-- Generated by graphviz version 7.0.4 (20221203.1631)
 -->
<!-- Pages: 1 -->
<svg width="407pt" height="114pt"
 viewBox="0.00 0.00 407.00 114.00" xmlns="http://www.w3.org/2000/svg" xmlns:xlink="http://www.w3.org/1999/xlink">
<g id="graph0" class="graph" transform="scale(1 1) rotate(0) translate(36 78)">
<polygon fill="white" stroke="none" points="-36,36 -36,-78 371,-78 371,36 -36,36"/>
<!-- Foo -->
<g id="node1" class="node">
<title>Foo</title>
<polygon fill="none" stroke="black" points="0.5,-21 0.5,-42 56.5,-42 56.5,-21 0.5,-21"/>
<text text-anchor="start" x="3.5" y="-27.8" font-family="Times,serif" font-size="14.00"> Opcode </text>
<polygon fill="none" stroke="black" points="56.5,-21 56.5,-42 168.5,-42 168.5,-21 56.5,-21"/>
<text text-anchor="start" x="92" y="-27.8" font-family="Times,serif" font-size="14.00"> Name </text>
<polygon fill="none" stroke="black" points="168.5,-21 168.5,-42 253.5,-42 253.5,-21 168.5,-21"/>
<text text-anchor="start" x="195" y="-27.8" font-family="Times,serif" font-size="14.00"> OP1 </text>
<polygon fill="none" stroke="black" points="253.5,-21 253.5,-42 294.5,-42 294.5,-21 253.5,-21"/>
<text text-anchor="start" x="258" y="-27.8" font-family="Times,serif" font-size="14.00"> OP2 </text>
<polygon fill="none" stroke="black" points="294.5,-21 294.5,-42 335.5,-42 335.5,-21 294.5,-21"/>
<text text-anchor="start" x="299" y="-27.8" font-family="Times,serif" font-size="14.00"> OP3 </text>
<polygon fill="none" stroke="black" points="0.5,0 0.5,-21 56.5,-21 56.5,0 0.5,0"/>
<text text-anchor="start" x="4" y="-6.8" font-family="Times,serif" font-size="14.00"> 0x0008 </text>
<polygon fill="none" stroke="black" points="56.5,0 56.5,-21 168.5,-21 168.5,0 56.5,0"/>
<text text-anchor="start" x="59.5" y="-6.8" font-family="Times,serif" font-size="14.00"> METALOADIOP </text>
<polygon fill="none" stroke="black" points="168.5,0 168.5,-21 253.5,-21 253.5,0 168.5,0"/>
<text text-anchor="start" x="171.5" y="-6.8" font-family="Times,serif" font-size="14.00"> perand &#160;REG </text>
<polygon fill="none" stroke="black" points="253.5,0 253.5,-21 294.5,-21 294.5,0 253.5,0"/>
<text text-anchor="start" x="256.5" y="-6.8" font-family="Times,serif" font-size="14.00"> REG </text>
<polygon fill="none" stroke="black" points="294.5,0 294.5,-21 335.5,-21 335.5,0 294.5,0"/>
<text text-anchor="start" x="297.5" y="-6.8" font-family="Times,serif" font-size="14.00"> REG </text>
</g>
</g>
</svg>
