<?xml version="1.0" encoding="UTF-8" standalone="no"?>
<!DOCTYPE svg PUBLIC "-//W3C//DTD SVG 1.1//EN"
 "http://www.w3.org/Graphics/SVG/1.1/DTD/svg11.dtd">
<!-- Generated by graphviz version 7.0.4 (20221203.1631)
 -->
<!-- Pages: 1 -->
<svg width="410pt" height="114pt"
 viewBox="0.00 0.00 410.00 114.00" xmlns="http://www.w3.org/2000/svg" xmlns:xlink="http://www.w3.org/1999/xlink">
<g id="graph0" class="graph" transform="scale(1 1) rotate(0) translate(36 78)">
<polygon fill="white" stroke="none" points="-36,36 -36,-78 374,-78 374,36 -36,36"/>
<!-- Foo -->
<g id="node1" class="node">
<title>Foo</title>
<polygon fill="none" stroke="black" points="0,-21 0,-42 56,-42 56,-21 0,-21"/>
<text text-anchor="start" x="3" y="-27.8" font-family="Times,serif" font-size="14.00"> Opcode </text>
<polygon fill="none" stroke="black" points="56,-21 56,-42 171,-42 171,-21 56,-21"/>
<text text-anchor="start" x="93" y="-27.8" font-family="Times,serif" font-size="14.00"> Name </text>
<polygon fill="none" stroke="black" points="171,-21 171,-42 256,-42 256,-21 171,-21"/>
<text text-anchor="start" x="197.5" y="-27.8" font-family="Times,serif" font-size="14.00"> OP1 </text>
<polygon fill="none" stroke="black" points="256,-21 256,-42 297,-42 297,-21 256,-21"/>
<text text-anchor="start" x="260.5" y="-27.8" font-family="Times,serif" font-size="14.00"> OP2 </text>
<polygon fill="none" stroke="black" points="297,-21 297,-42 338,-42 338,-21 297,-21"/>
<text text-anchor="start" x="301.5" y="-27.8" font-family="Times,serif" font-size="14.00"> OP3 </text>
<polygon fill="none" stroke="black" points="0,0 0,-21 56,-21 56,0 0,0"/>
<text text-anchor="start" x="4" y="-6.8" font-family="Times,serif" font-size="14.00"> 0x000a </text>
<polygon fill="none" stroke="black" points="56,0 56,-21 171,-21 171,0 56,0"/>
<text text-anchor="start" x="59" y="-6.8" font-family="Times,serif" font-size="14.00"> METALOADSOP </text>
<polygon fill="none" stroke="black" points="171,0 171,-21 256,-21 256,0 171,0"/>
<text text-anchor="start" x="174" y="-6.8" font-family="Times,serif" font-size="14.00"> perand &#160;REG </text>
<polygon fill="none" stroke="black" points="256,0 256,-21 297,-21 297,0 256,0"/>
<text text-anchor="start" x="259" y="-6.8" font-family="Times,serif" font-size="14.00"> REG </text>
<polygon fill="none" stroke="black" points="297,0 297,-21 338,-21 338,0 297,0"/>
<text text-anchor="start" x="300" y="-6.8" font-family="Times,serif" font-size="14.00"> REG </text>
</g>
</g>
</svg>
