<?xml version="1.0" encoding="UTF-8" standalone="no"?>
<!DOCTYPE svg PUBLIC "-//W3C//DTD SVG 1.1//EN"
 "http://www.w3.org/Graphics/SVG/1.1/DTD/svg11.dtd">
<!-- Generated by graphviz version 7.0.4 (20221203.1631)
 -->
<!-- Pages: 1 -->
<svg width="254pt" height="114pt"
 viewBox="0.00 0.00 254.00 114.00" xmlns="http://www.w3.org/2000/svg" xmlns:xlink="http://www.w3.org/1999/xlink">
<g id="graph0" class="graph" transform="scale(1 1) rotate(0) translate(36 78)">
<polygon fill="white" stroke="none" points="-36,36 -36,-78 218,-78 218,36 -36,36"/>
<!-- Foo -->
<g id="node1" class="node">
<title>Foo</title>
<polygon fill="none" stroke="black" points="0,-21 0,-42 56,-42 56,-21 0,-21"/>
<text text-anchor="start" x="3" y="-27.8" font-family="Times,serif" font-size="14.00"> Opcode </text>
<polygon fill="none" stroke="black" points="56,-21 56,-42 103,-42 103,-21 56,-21"/>
<text text-anchor="start" x="59" y="-27.8" font-family="Times,serif" font-size="14.00"> Name </text>
<polygon fill="none" stroke="black" points="103,-21 103,-42 141,-42 141,-21 103,-21"/>
<text text-anchor="start" x="106" y="-27.8" font-family="Times,serif" font-size="14.00"> OP1 </text>
<polygon fill="none" stroke="black" points="141,-21 141,-42 182,-42 182,-21 141,-21"/>
<text text-anchor="start" x="145.5" y="-27.8" font-family="Times,serif" font-size="14.00"> OP2 </text>
<polygon fill="none" stroke="black" points="0,0 0,-21 56,-21 56,0 0,0"/>
<text text-anchor="start" x="4" y="-6.8" font-family="Times,serif" font-size="14.00"> 0x00eb </text>
<polygon fill="none" stroke="black" points="56,0 56,-21 103,-21 103,0 56,0"/>
<text text-anchor="start" x="62.5" y="-6.8" font-family="Times,serif" font-size="14.00"> BCF </text>
<polygon fill="none" stroke="black" points="103,0 103,-21 141,-21 141,0 103,0"/>
<text text-anchor="start" x="111" y="-6.8" font-family="Times,serif" font-size="14.00"> ID </text>
<polygon fill="none" stroke="black" points="141,0 141,-21 182,-21 182,0 141,0"/>
<text text-anchor="start" x="144" y="-6.8" font-family="Times,serif" font-size="14.00"> REG </text>
</g>
</g>
</svg>
