<?xml version="1.0" encoding="UTF-8" standalone="no"?>
<!DOCTYPE svg PUBLIC "-//W3C//DTD SVG 1.1//EN"
 "http://www.w3.org/Graphics/SVG/1.1/DTD/svg11.dtd">
<!-- Generated by graphviz version 7.0.4 (20221203.1631)
 -->
<!-- Pages: 1 -->
<svg width="361pt" height="114pt"
 viewBox="0.00 0.00 361.00 114.00" xmlns="http://www.w3.org/2000/svg" xmlns:xlink="http://www.w3.org/1999/xlink">
<g id="graph0" class="graph" transform="scale(1 1) rotate(0) translate(36 78)">
<polygon fill="white" stroke="none" points="-36,36 -36,-78 325,-78 325,36 -36,36"/>
<!-- Foo -->
<g id="node1" class="node">
<title>Foo</title>
<polygon fill="none" stroke="black" points="0.5,-21 0.5,-42 56.5,-42 56.5,-21 0.5,-21"/>
<text text-anchor="start" x="3.5" y="-27.8" font-family="Times,serif" font-size="14.00"> Opcode </text>
<polygon fill="none" stroke="black" points="56.5,-21 56.5,-42 147.5,-42 147.5,-21 56.5,-21"/>
<text text-anchor="start" x="81.5" y="-27.8" font-family="Times,serif" font-size="14.00"> Name </text>
<polygon fill="none" stroke="black" points="147.5,-21 147.5,-42 188.5,-42 188.5,-21 147.5,-21"/>
<text text-anchor="start" x="152" y="-27.8" font-family="Times,serif" font-size="14.00"> OP1 </text>
<polygon fill="none" stroke="black" points="188.5,-21 188.5,-42 251.5,-42 251.5,-21 188.5,-21"/>
<text text-anchor="start" x="204" y="-27.8" font-family="Times,serif" font-size="14.00"> OP2 </text>
<polygon fill="none" stroke="black" points="251.5,-21 251.5,-42 289.5,-42 289.5,-21 251.5,-21"/>
<text text-anchor="start" x="254.5" y="-27.8" font-family="Times,serif" font-size="14.00"> OP3 </text>
<polygon fill="none" stroke="black" points="0.5,0 0.5,-21 56.5,-21 56.5,0 0.5,0"/>
<text text-anchor="start" x="4" y="-6.8" font-family="Times,serif" font-size="14.00"> 0x0101 </text>
<polygon fill="none" stroke="black" points="56.5,0 56.5,-21 147.5,-21 147.5,0 56.5,0"/>
<text text-anchor="start" x="59.5" y="-6.8" font-family="Times,serif" font-size="14.00"> LOADSETTP </text>
<polygon fill="none" stroke="black" points="147.5,0 147.5,-21 188.5,-21 188.5,0 147.5,0"/>
<text text-anchor="start" x="150.5" y="-6.8" font-family="Times,serif" font-size="14.00"> REG </text>
<polygon fill="none" stroke="black" points="188.5,0 188.5,-21 251.5,-21 251.5,0 188.5,0"/>
<text text-anchor="start" x="191.5" y="-6.8" font-family="Times,serif" font-size="14.00"> STRING </text>
<polygon fill="none" stroke="black" points="251.5,0 251.5,-21 289.5,-21 289.5,0 251.5,0"/>
<text text-anchor="start" x="255.5" y="-6.8" font-family="Times,serif" font-size="14.00"> INT </text>
</g>
</g>
</svg>
