<?xml version="1.0" encoding="UTF-8" standalone="no"?>
<!DOCTYPE svg PUBLIC "-//W3C//DTD SVG 1.1//EN"
 "http://www.w3.org/Graphics/SVG/1.1/DTD/svg11.dtd">
<!-- Generated by graphviz version 7.0.4 (20221203.1631)
 -->
<!-- Pages: 1 -->
<svg width="315pt" height="135pt"
 viewBox="0.00 0.00 315.00 135.00" xmlns="http://www.w3.org/2000/svg" xmlns:xlink="http://www.w3.org/1999/xlink">
<g id="graph0" class="graph" transform="scale(1 1) rotate(0) translate(36 99)">
<polygon fill="white" stroke="none" points="-36,36 -36,-99 279,-99 279,36 -36,36"/>
<!-- Foo -->
<g id="node1" class="node">
<title>Foo</title>
<polygon fill="none" stroke="black" points="0.5,-41.5 0.5,-62.5 56.5,-62.5 56.5,-41.5 0.5,-41.5"/>
<text text-anchor="start" x="3.5" y="-48.3" font-family="Times,serif" font-size="14.00"> Opcode </text>
<polygon fill="none" stroke="black" points="56.5,-41.5 56.5,-62.5 106.5,-62.5 106.5,-41.5 56.5,-41.5"/>
<text text-anchor="start" x="61" y="-48.3" font-family="Times,serif" font-size="14.00"> Name </text>
<polygon fill="none" stroke="black" points="106.5,-41.5 106.5,-62.5 147.5,-62.5 147.5,-41.5 106.5,-41.5"/>
<text text-anchor="start" x="111" y="-48.3" font-family="Times,serif" font-size="14.00"> OP1 </text>
<polygon fill="none" stroke="black" points="147.5,-41.5 147.5,-62.5 188.5,-62.5 188.5,-41.5 147.5,-41.5"/>
<text text-anchor="start" x="152" y="-48.3" font-family="Times,serif" font-size="14.00"> OP2 </text>
<polygon fill="none" stroke="black" points="188.5,-41.5 188.5,-62.5 243.5,-62.5 243.5,-41.5 188.5,-41.5"/>
<text text-anchor="start" x="200" y="-48.3" font-family="Times,serif" font-size="14.00"> OP3 </text>
<polygon fill="none" stroke="black" points="0.5,-20.5 0.5,-41.5 56.5,-41.5 56.5,-20.5 0.5,-20.5"/>
<text text-anchor="start" x="4" y="-27.3" font-family="Times,serif" font-size="14.00"> 0x0027 </text>
<polygon fill="none" stroke="black" points="56.5,-20.5 56.5,-41.5 106.5,-41.5 106.5,-20.5 56.5,-20.5"/>
<text text-anchor="start" x="59.5" y="-27.3" font-family="Times,serif" font-size="14.00"> ADDF </text>
<polygon fill="none" stroke="black" points="106.5,-20.5 106.5,-41.5 147.5,-41.5 147.5,-20.5 106.5,-20.5"/>
<text text-anchor="start" x="109.5" y="-27.3" font-family="Times,serif" font-size="14.00"> REG </text>
<polygon fill="none" stroke="black" points="147.5,-20.5 147.5,-41.5 188.5,-41.5 188.5,-20.5 147.5,-20.5"/>
<text text-anchor="start" x="150.5" y="-27.3" font-family="Times,serif" font-size="14.00"> REG </text>
<polygon fill="none" stroke="black" points="188.5,-20.5 188.5,-41.5 243.5,-41.5 243.5,-20.5 188.5,-20.5"/>
<text text-anchor="start" x="191.5" y="-27.3" font-family="Times,serif" font-size="14.00"> FLOAT </text>
<polygon fill="none" stroke="black" points="0.5,0.5 0.5,-20.5 56.5,-20.5 56.5,0.5 0.5,0.5"/>
<text text-anchor="start" x="4" y="-6.3" font-family="Times,serif" font-size="14.00"> 0x0026 </text>
<polygon fill="none" stroke="black" points="56.5,0.5 56.5,-20.5 106.5,-20.5 106.5,0.5 56.5,0.5"/>
<text text-anchor="start" x="59.5" y="-6.3" font-family="Times,serif" font-size="14.00"> ADDF </text>
<polygon fill="none" stroke="black" points="106.5,0.5 106.5,-20.5 147.5,-20.5 147.5,0.5 106.5,0.5"/>
<text text-anchor="start" x="109.5" y="-6.3" font-family="Times,serif" font-size="14.00"> REG </text>
<polygon fill="none" stroke="black" points="147.5,0.5 147.5,-20.5 188.5,-20.5 188.5,0.5 147.5,0.5"/>
<text text-anchor="start" x="150.5" y="-6.3" font-family="Times,serif" font-size="14.00"> REG </text>
<polygon fill="none" stroke="black" points="188.5,0.5 188.5,-20.5 243.5,-20.5 243.5,0.5 188.5,0.5"/>
<text text-anchor="start" x="198.5" y="-6.3" font-family="Times,serif" font-size="14.00"> REG </text>
</g>
</g>
</svg>
