<?xml version="1.0" encoding="UTF-8" standalone="no"?>
<!DOCTYPE svg PUBLIC "-//W3C//DTD SVG 1.1//EN"
 "http://www.w3.org/Graphics/SVG/1.1/DTD/svg11.dtd">
<!-- Generated by graphviz version 12.1.2 (20240928.0832)
 -->
<!-- Pages: 1 -->
<svg width="255pt" height="138pt"
 viewBox="0.00 0.00 255.00 138.00" xmlns="http://www.w3.org/2000/svg" xmlns:xlink="http://www.w3.org/1999/xlink">
<g id="graph0" class="graph" transform="scale(1 1) rotate(0) translate(36 102)">
<polygon fill="white" stroke="none" points="-36,36 -36,-102 219,-102 219,36 -36,36"/>
<!-- Foo -->
<g id="node1" class="node">
<title>Foo</title>
<polygon fill="none" stroke="black" points="0,-44 0,-66 49,-66 49,-44 0,-44"/>
<text text-anchor="start" x="4.25" y="-49.7" font-family="Times,serif" font-size="14.00"> Name </text>
<polygon fill="none" stroke="black" points="49,-44 49,-66 89,-66 89,-44 49,-44"/>
<text text-anchor="start" x="53.25" y="-49.7" font-family="Times,serif" font-size="14.00"> OP1 </text>
<polygon fill="none" stroke="black" points="89,-44 89,-66 129,-66 129,-44 89,-44"/>
<text text-anchor="start" x="93.25" y="-49.7" font-family="Times,serif" font-size="14.00"> OP2 </text>
<polygon fill="none" stroke="black" points="129,-44 129,-66 183,-66 183,-44 129,-44"/>
<text text-anchor="start" x="140.25" y="-49.7" font-family="Times,serif" font-size="14.00"> OP3 </text>
<polygon fill="none" stroke="black" points="0,-22 0,-44 49,-44 49,-22 0,-22"/>
<text text-anchor="start" x="2.75" y="-27.7" font-family="Times,serif" font-size="14.00"> ADDF </text>
<polygon fill="none" stroke="black" points="49,-22 49,-44 89,-44 89,-22 49,-22"/>
<text text-anchor="start" x="51.75" y="-27.7" font-family="Times,serif" font-size="14.00"> REG </text>
<polygon fill="none" stroke="black" points="89,-22 89,-44 129,-44 129,-22 89,-22"/>
<text text-anchor="start" x="91.75" y="-27.7" font-family="Times,serif" font-size="14.00"> REG </text>
<polygon fill="none" stroke="black" points="129,-22 129,-44 183,-44 183,-22 129,-22"/>
<text text-anchor="start" x="131.62" y="-27.7" font-family="Times,serif" font-size="14.00"> FLOAT </text>
<polygon fill="none" stroke="black" points="0,0 0,-22 49,-22 49,0 0,0"/>
<text text-anchor="start" x="2.75" y="-5.7" font-family="Times,serif" font-size="14.00"> ADDF </text>
<polygon fill="none" stroke="black" points="49,0 49,-22 89,-22 89,0 49,0"/>
<text text-anchor="start" x="51.75" y="-5.7" font-family="Times,serif" font-size="14.00"> REG </text>
<polygon fill="none" stroke="black" points="89,0 89,-22 129,-22 129,0 89,0"/>
<text text-anchor="start" x="91.75" y="-5.7" font-family="Times,serif" font-size="14.00"> REG </text>
<polygon fill="none" stroke="black" points="129,0 129,-22 183,-22 183,0 129,0"/>
<text text-anchor="start" x="138.75" y="-5.7" font-family="Times,serif" font-size="14.00"> REG </text>
</g>
</g>
</svg>
