<?xml version="1.0" encoding="UTF-8" standalone="no"?>
<!DOCTYPE svg PUBLIC "-//W3C//DTD SVG 1.1//EN"
 "http://www.w3.org/Graphics/SVG/1.1/DTD/svg11.dtd">
<!-- Generated by graphviz version 12.2.1 (20241206.2353)
 -->
<!-- Pages: 1 -->
<svg width="257pt" height="140pt"
 viewBox="0.00 0.00 257.25 139.50" xmlns="http://www.w3.org/2000/svg" xmlns:xlink="http://www.w3.org/1999/xlink">
<g id="graph0" class="graph" transform="scale(1 1) rotate(0) translate(36 103.5)">
<polygon fill="white" stroke="none" points="-36,36 -36,-103.5 221.25,-103.5 221.25,36 -36,36"/>
<!-- Foo -->
<g id="node1" class="node">
<title>Foo</title>
<polygon fill="none" stroke="black" points="0,-45 0,-67.5 49.5,-67.5 49.5,-45 0,-45"/>
<text text-anchor="start" x="4.5" y="-51.2" font-family="Times,serif" font-size="14.00"> Name </text>
<polygon fill="none" stroke="black" points="49.5,-45 49.5,-67.5 90,-67.5 90,-45 49.5,-45"/>
<text text-anchor="start" x="54" y="-51.2" font-family="Times,serif" font-size="14.00"> OP1 </text>
<polygon fill="none" stroke="black" points="90,-45 90,-67.5 130.5,-67.5 130.5,-45 90,-45"/>
<text text-anchor="start" x="94.5" y="-51.2" font-family="Times,serif" font-size="14.00"> OP2 </text>
<polygon fill="none" stroke="black" points="130.5,-45 130.5,-67.5 185.25,-67.5 185.25,-45 130.5,-45"/>
<text text-anchor="start" x="142.12" y="-51.2" font-family="Times,serif" font-size="14.00"> OP3 </text>
<polygon fill="none" stroke="black" points="0,-22.5 0,-45 49.5,-45 49.5,-22.5 0,-22.5"/>
<text text-anchor="start" x="3" y="-28.7" font-family="Times,serif" font-size="14.00"> ADDF </text>
<polygon fill="none" stroke="black" points="49.5,-22.5 49.5,-45 90,-45 90,-22.5 49.5,-22.5"/>
<text text-anchor="start" x="52.5" y="-28.7" font-family="Times,serif" font-size="14.00"> REG </text>
<polygon fill="none" stroke="black" points="90,-22.5 90,-45 130.5,-45 130.5,-22.5 90,-22.5"/>
<text text-anchor="start" x="93" y="-28.7" font-family="Times,serif" font-size="14.00"> REG </text>
<polygon fill="none" stroke="black" points="130.5,-22.5 130.5,-45 185.25,-45 185.25,-22.5 130.5,-22.5"/>
<text text-anchor="start" x="133.5" y="-28.7" font-family="Times,serif" font-size="14.00"> FLOAT </text>
<polygon fill="none" stroke="black" points="0,0 0,-22.5 49.5,-22.5 49.5,0 0,0"/>
<text text-anchor="start" x="3" y="-6.2" font-family="Times,serif" font-size="14.00"> ADDF </text>
<polygon fill="none" stroke="black" points="49.5,0 49.5,-22.5 90,-22.5 90,0 49.5,0"/>
<text text-anchor="start" x="52.5" y="-6.2" font-family="Times,serif" font-size="14.00"> REG </text>
<polygon fill="none" stroke="black" points="90,0 90,-22.5 130.5,-22.5 130.5,0 90,0"/>
<text text-anchor="start" x="93" y="-6.2" font-family="Times,serif" font-size="14.00"> REG </text>
<polygon fill="none" stroke="black" points="130.5,0 130.5,-22.5 185.25,-22.5 185.25,0 130.5,0"/>
<text text-anchor="start" x="140.62" y="-6.2" font-family="Times,serif" font-size="14.00"> REG </text>
</g>
</g>
</svg>
