<?xml version="1.0" encoding="UTF-8" standalone="no"?>
<!DOCTYPE svg PUBLIC "-//W3C//DTD SVG 1.1//EN"
 "http://www.w3.org/Graphics/SVG/1.1/DTD/svg11.dtd">
<!-- Generated by graphviz version 12.2.1 (20241206.2353)
 -->
<!-- Pages: 1 -->
<svg width="205pt" height="140pt"
 viewBox="0.00 0.00 204.75 139.50" xmlns="http://www.w3.org/2000/svg" xmlns:xlink="http://www.w3.org/1999/xlink">
<g id="graph0" class="graph" transform="scale(1 1) rotate(0) translate(36 103.5)">
<polygon fill="white" stroke="none" points="-36,36 -36,-103.5 168.75,-103.5 168.75,36 -36,36"/>
<!-- Foo -->
<g id="node1" class="node">
<title>Foo</title>
<polygon fill="none" stroke="black" points="0,-45 0,-67.5 51.75,-67.5 51.75,-45 0,-45"/>
<text text-anchor="start" x="5.62" y="-51.2" font-family="Times,serif" font-size="14.00"> Name </text>
<polygon fill="none" stroke="black" points="51.75,-45 51.75,-67.5 92.25,-67.5 92.25,-45 51.75,-45"/>
<text text-anchor="start" x="56.25" y="-51.2" font-family="Times,serif" font-size="14.00"> OP1 </text>
<polygon fill="none" stroke="black" points="92.25,-45 92.25,-67.5 132.75,-67.5 132.75,-45 92.25,-45"/>
<text text-anchor="start" x="96.75" y="-51.2" font-family="Times,serif" font-size="14.00"> OP2 </text>
<polygon fill="none" stroke="black" points="0,-22.5 0,-45 51.75,-45 51.75,-22.5 0,-22.5"/>
<text text-anchor="start" x="3" y="-28.7" font-family="Times,serif" font-size="14.00"> AMAP </text>
<polygon fill="none" stroke="black" points="51.75,-22.5 51.75,-45 92.25,-45 92.25,-22.5 51.75,-22.5"/>
<text text-anchor="start" x="54.75" y="-28.7" font-family="Times,serif" font-size="14.00"> REG </text>
<polygon fill="none" stroke="black" points="92.25,-22.5 92.25,-45 132.75,-45 132.75,-22.5 92.25,-22.5"/>
<text text-anchor="start" x="95.25" y="-28.7" font-family="Times,serif" font-size="14.00"> REG </text>
<polygon fill="none" stroke="black" points="0,0 0,-22.5 51.75,-22.5 51.75,0 0,0"/>
<text text-anchor="start" x="3" y="-6.2" font-family="Times,serif" font-size="14.00"> AMAP </text>
<polygon fill="none" stroke="black" points="51.75,0 51.75,-22.5 92.25,-22.5 92.25,0 51.75,0"/>
<text text-anchor="start" x="54.75" y="-6.2" font-family="Times,serif" font-size="14.00"> REG </text>
<polygon fill="none" stroke="black" points="92.25,0 92.25,-22.5 132.75,-22.5 132.75,0 92.25,0"/>
<text text-anchor="start" x="97.88" y="-6.2" font-family="Times,serif" font-size="14.00"> INT </text>
</g>
</g>
</svg>
