<?xml version="1.0" encoding="UTF-8" standalone="no"?>
<!DOCTYPE svg PUBLIC "-//W3C//DTD SVG 1.1//EN"
 "http://www.w3.org/Graphics/SVG/1.1/DTD/svg11.dtd">
<!-- Generated by graphviz version 12.1.2 (20240928.0832)
 -->
<!-- Pages: 1 -->
<svg width="203pt" height="138pt"
 viewBox="0.00 0.00 203.00 138.00" xmlns="http://www.w3.org/2000/svg" xmlns:xlink="http://www.w3.org/1999/xlink">
<g id="graph0" class="graph" transform="scale(1 1) rotate(0) translate(36 102)">
<polygon fill="white" stroke="none" points="-36,36 -36,-102 167,-102 167,36 -36,36"/>
<!-- Foo -->
<g id="node1" class="node">
<title>Foo</title>
<polygon fill="none" stroke="black" points="0,-44 0,-66 51,-66 51,-44 0,-44"/>
<text text-anchor="start" x="5.25" y="-49.7" font-family="Times,serif" font-size="14.00"> Name </text>
<polygon fill="none" stroke="black" points="51,-44 51,-66 91,-66 91,-44 51,-44"/>
<text text-anchor="start" x="55.25" y="-49.7" font-family="Times,serif" font-size="14.00"> OP1 </text>
<polygon fill="none" stroke="black" points="91,-44 91,-66 131,-66 131,-44 91,-44"/>
<text text-anchor="start" x="95.25" y="-49.7" font-family="Times,serif" font-size="14.00"> OP2 </text>
<polygon fill="none" stroke="black" points="0,-22 0,-44 51,-44 51,-22 0,-22"/>
<text text-anchor="start" x="2.62" y="-27.7" font-family="Times,serif" font-size="14.00"> AMAP </text>
<polygon fill="none" stroke="black" points="51,-22 51,-44 91,-44 91,-22 51,-22"/>
<text text-anchor="start" x="53.75" y="-27.7" font-family="Times,serif" font-size="14.00"> REG </text>
<polygon fill="none" stroke="black" points="91,-22 91,-44 131,-44 131,-22 91,-22"/>
<text text-anchor="start" x="93.75" y="-27.7" font-family="Times,serif" font-size="14.00"> REG </text>
<polygon fill="none" stroke="black" points="0,0 0,-22 51,-22 51,0 0,0"/>
<text text-anchor="start" x="2.62" y="-5.7" font-family="Times,serif" font-size="14.00"> AMAP </text>
<polygon fill="none" stroke="black" points="51,0 51,-22 91,-22 91,0 51,0"/>
<text text-anchor="start" x="53.75" y="-5.7" font-family="Times,serif" font-size="14.00"> REG </text>
<polygon fill="none" stroke="black" points="91,0 91,-22 131,-22 131,0 91,0"/>
<text text-anchor="start" x="96.38" y="-5.7" font-family="Times,serif" font-size="14.00"> INT </text>
</g>
</g>
</svg>
