<?xml version="1.0" encoding="UTF-8" standalone="no"?>
<!DOCTYPE svg PUBLIC "-//W3C//DTD SVG 1.1//EN"
 "http://www.w3.org/Graphics/SVG/1.1/DTD/svg11.dtd">
<!-- Generated by graphviz version 7.0.4 (20221203.1631)
 -->
<!-- Pages: 1 -->
<svg width="220pt" height="114pt"
 viewBox="0.00 0.00 220.00 114.00" xmlns="http://www.w3.org/2000/svg" xmlns:xlink="http://www.w3.org/1999/xlink">
<g id="graph0" class="graph" transform="scale(1 1) rotate(0) translate(36 78)">
<polygon fill="white" stroke="none" points="-36,36 -36,-78 184,-78 184,36 -36,36"/>
<!-- Foo -->
<g id="node1" class="node">
<title>Foo</title>
<polygon fill="none" stroke="black" points="0,-21 0,-42 66,-42 66,-21 0,-21"/>
<text text-anchor="start" x="12.5" y="-27.8" font-family="Times,serif" font-size="14.00"> Name </text>
<polygon fill="none" stroke="black" points="66,-21 66,-42 107,-42 107,-21 66,-21"/>
<text text-anchor="start" x="70.5" y="-27.8" font-family="Times,serif" font-size="14.00"> OP1 </text>
<polygon fill="none" stroke="black" points="107,-21 107,-42 148,-42 148,-21 107,-21"/>
<text text-anchor="start" x="111.5" y="-27.8" font-family="Times,serif" font-size="14.00"> OP2 </text>
<polygon fill="none" stroke="black" points="0,0 0,-21 66,-21 66,0 0,0"/>
<text text-anchor="start" x="3" y="-6.8" font-family="Times,serif" font-size="14.00"> APPEND </text>
<polygon fill="none" stroke="black" points="66,0 66,-21 107,-21 107,0 66,0"/>
<text text-anchor="start" x="69" y="-6.8" font-family="Times,serif" font-size="14.00"> REG </text>
<polygon fill="none" stroke="black" points="107,0 107,-21 148,-21 148,0 107,0"/>
<text text-anchor="start" x="110" y="-6.8" font-family="Times,serif" font-size="14.00"> REG </text>
</g>
</g>
</svg>
