<?xml version="1.0" encoding="UTF-8" standalone="no"?>
<!DOCTYPE svg PUBLIC "-//W3C//DTD SVG 1.1//EN"
 "http://www.w3.org/Graphics/SVG/1.1/DTD/svg11.dtd">
<!-- Generated by graphviz version 7.0.4 (20221203.1631)
 -->
<!-- Pages: 1 -->
<svg width="276pt" height="135pt"
 viewBox="0.00 0.00 276.00 135.00" xmlns="http://www.w3.org/2000/svg" xmlns:xlink="http://www.w3.org/1999/xlink">
<g id="graph0" class="graph" transform="scale(1 1) rotate(0) translate(36 99)">
<polygon fill="white" stroke="none" points="-36,36 -36,-99 240,-99 240,36 -36,36"/>
<!-- Foo -->
<g id="node1" class="node">
<title>Foo</title>
<polygon fill="none" stroke="black" points="0,-41.5 0,-62.5 56,-62.5 56,-41.5 0,-41.5"/>
<text text-anchor="start" x="3" y="-48.3" font-family="Times,serif" font-size="14.00"> Opcode </text>
<polygon fill="none" stroke="black" points="56,-41.5 56,-62.5 122,-62.5 122,-41.5 56,-41.5"/>
<text text-anchor="start" x="68.5" y="-48.3" font-family="Times,serif" font-size="14.00"> Name </text>
<polygon fill="none" stroke="black" points="122,-41.5 122,-62.5 163,-62.5 163,-41.5 122,-41.5"/>
<text text-anchor="start" x="126.5" y="-48.3" font-family="Times,serif" font-size="14.00"> OP1 </text>
<polygon fill="none" stroke="black" points="163,-41.5 163,-62.5 204,-62.5 204,-41.5 163,-41.5"/>
<text text-anchor="start" x="167.5" y="-48.3" font-family="Times,serif" font-size="14.00"> OP2 </text>
<polygon fill="none" stroke="black" points="0,-20.5 0,-41.5 56,-41.5 56,-20.5 0,-20.5"/>
<text text-anchor="start" x="3.5" y="-27.3" font-family="Times,serif" font-size="14.00"> 0x0052 </text>
<polygon fill="none" stroke="black" points="56,-20.5 56,-41.5 122,-41.5 122,-20.5 56,-20.5"/>
<text text-anchor="start" x="59" y="-27.3" font-family="Times,serif" font-size="14.00"> APPEND </text>
<polygon fill="none" stroke="black" points="122,-20.5 122,-41.5 163,-41.5 163,-20.5 122,-20.5"/>
<text text-anchor="start" x="125" y="-27.3" font-family="Times,serif" font-size="14.00"> REG </text>
<polygon fill="none" stroke="black" points="163,-20.5 163,-41.5 204,-41.5 204,-20.5 163,-20.5"/>
<text text-anchor="start" x="166" y="-27.3" font-family="Times,serif" font-size="14.00"> REG </text>
<polygon fill="none" stroke="black" points="0,0.5 0,-20.5 56,-20.5 56,0.5 0,0.5"/>
<text text-anchor="start" x="3.5" y="-6.3" font-family="Times,serif" font-size="14.00"> 0x0055 </text>
<polygon fill="none" stroke="black" points="56,0.5 56,-20.5 122,-20.5 122,0.5 56,0.5"/>
<text text-anchor="start" x="59" y="-6.3" font-family="Times,serif" font-size="14.00"> APPEND </text>
<polygon fill="none" stroke="black" points="122,0.5 122,-20.5 163,-20.5 163,0.5 122,0.5"/>
<text text-anchor="start" x="125" y="-6.3" font-family="Times,serif" font-size="14.00"> REG </text>
<polygon fill="none" stroke="black" points="163,0.5 163,-20.5 204,-20.5 204,0.5 163,0.5"/>
<text text-anchor="start" x="166" y="-6.3" font-family="Times,serif" font-size="14.00"> REG </text>
</g>
</g>
</svg>
