<?xml version="1.0" encoding="UTF-8" standalone="no"?>
<!DOCTYPE svg PUBLIC "-//W3C//DTD SVG 1.1//EN"
 "http://www.w3.org/Graphics/SVG/1.1/DTD/svg11.dtd">
<!-- Generated by graphviz version 14.1.4 (20260321.0153)
 -->
<!-- Pages: 1 -->
<svg width="275pt" height="162pt"
 viewBox="0.00 0.00 275.00 162.00" xmlns="http://www.w3.org/2000/svg" xmlns:xlink="http://www.w3.org/1999/xlink">
<g id="graph0" class="graph" transform="scale(1 1) rotate(0) translate(36 126)">
<polygon fill="white" stroke="none" points="-36,36 -36,-126 239.25,-126 239.25,36 -36,36"/>
<!-- Foo -->
<g id="node1" class="node">
<title>Foo</title>
<polygon fill="none" stroke="black" points="0,-67.5 0,-90 57.75,-90 57.75,-67.5 0,-67.5"/>
<text xml:space="preserve" text-anchor="start" x="8.62" y="-74.25" font-family="Times,serif" font-size="14.00"> Name </text>
<polygon fill="none" stroke="black" points="57.75,-67.5 57.75,-90 98.25,-90 98.25,-67.5 57.75,-67.5"/>
<text xml:space="preserve" text-anchor="start" x="62.25" y="-74.25" font-family="Times,serif" font-size="14.00"> OP1 </text>
<polygon fill="none" stroke="black" points="98.25,-67.5 98.25,-90 162.75,-90 162.75,-67.5 98.25,-67.5"/>
<text xml:space="preserve" text-anchor="start" x="114.75" y="-74.25" font-family="Times,serif" font-size="14.00"> OP2 </text>
<polygon fill="none" stroke="black" points="162.75,-67.5 162.75,-90 203.25,-90 203.25,-67.5 162.75,-67.5"/>
<text xml:space="preserve" text-anchor="start" x="167.25" y="-74.25" font-family="Times,serif" font-size="14.00"> OP3 </text>
<polygon fill="none" stroke="black" points="0,-45 0,-67.5 57.75,-67.5 57.75,-45 0,-45"/>
<text xml:space="preserve" text-anchor="start" x="3" y="-51.75" font-family="Times,serif" font-size="14.00"> BCOPY </text>
<polygon fill="none" stroke="black" points="57.75,-45 57.75,-67.5 98.25,-67.5 98.25,-45 57.75,-45"/>
<text xml:space="preserve" text-anchor="start" x="60.75" y="-51.75" font-family="Times,serif" font-size="14.00"> REG </text>
<polygon fill="none" stroke="black" points="98.25,-45 98.25,-67.5 162.75,-67.5 162.75,-45 98.25,-45"/>
<text xml:space="preserve" text-anchor="start" x="113.25" y="-51.75" font-family="Times,serif" font-size="14.00"> REG </text>
<polygon fill="none" stroke="black" points="0,-22.5 0,-45 57.75,-45 57.75,-22.5 0,-22.5"/>
<text xml:space="preserve" text-anchor="start" x="3" y="-29.25" font-family="Times,serif" font-size="14.00"> BCOPY </text>
<polygon fill="none" stroke="black" points="57.75,-22.5 57.75,-45 98.25,-45 98.25,-22.5 57.75,-22.5"/>
<text xml:space="preserve" text-anchor="start" x="60.75" y="-29.25" font-family="Times,serif" font-size="14.00"> REG </text>
<polygon fill="none" stroke="black" points="98.25,-22.5 98.25,-45 162.75,-45 162.75,-22.5 98.25,-22.5"/>
<text xml:space="preserve" text-anchor="start" x="113.25" y="-29.25" font-family="Times,serif" font-size="14.00"> REG </text>
<polygon fill="none" stroke="black" points="162.75,-22.5 162.75,-45 203.25,-45 203.25,-22.5 162.75,-22.5"/>
<text xml:space="preserve" text-anchor="start" x="165.75" y="-29.25" font-family="Times,serif" font-size="14.00"> REG </text>
<polygon fill="none" stroke="black" points="0,0 0,-22.5 57.75,-22.5 57.75,0 0,0"/>
<text xml:space="preserve" text-anchor="start" x="3" y="-6.75" font-family="Times,serif" font-size="14.00"> BCOPY </text>
<polygon fill="none" stroke="black" points="57.75,0 57.75,-22.5 98.25,-22.5 98.25,0 57.75,0"/>
<text xml:space="preserve" text-anchor="start" x="60.75" y="-6.75" font-family="Times,serif" font-size="14.00"> REG </text>
<polygon fill="none" stroke="black" points="98.25,0 98.25,-22.5 162.75,-22.5 162.75,0 98.25,0"/>
<text xml:space="preserve" text-anchor="start" x="101.25" y="-6.75" font-family="Times,serif" font-size="14.00"> BINARY </text>
<polygon fill="none" stroke="black" points="162.75,0 162.75,-22.5 203.25,-22.5 203.25,0 162.75,0"/>
<text xml:space="preserve" text-anchor="start" x="165.75" y="-6.75" font-family="Times,serif" font-size="14.00"> REG </text>
</g>
</g>
</svg>
