<?xml version="1.0" encoding="UTF-8" standalone="no"?>
<!DOCTYPE svg PUBLIC "-//W3C//DTD SVG 1.1//EN"
 "http://www.w3.org/Graphics/SVG/1.1/DTD/svg11.dtd">
<!-- Generated by graphviz version 7.0.4 (20221203.1631)
 -->
<!-- Pages: 1 -->
<svg width="255pt" height="135pt"
 viewBox="0.00 0.00 255.00 135.00" xmlns="http://www.w3.org/2000/svg" xmlns:xlink="http://www.w3.org/1999/xlink">
<g id="graph0" class="graph" transform="scale(1 1) rotate(0) translate(36 99)">
<polygon fill="white" stroke="none" points="-36,36 -36,-99 219,-99 219,36 -36,36"/>
<!-- Foo -->
<g id="node1" class="node">
<title>Foo</title>
<polygon fill="none" stroke="black" points="0.5,-41.5 0.5,-62.5 63.5,-62.5 63.5,-41.5 0.5,-41.5"/>
<text text-anchor="start" x="11.5" y="-48.3" font-family="Times,serif" font-size="14.00"> Name </text>
<polygon fill="none" stroke="black" points="63.5,-41.5 63.5,-62.5 101.5,-62.5 101.5,-41.5 63.5,-41.5"/>
<text text-anchor="start" x="66.5" y="-48.3" font-family="Times,serif" font-size="14.00"> OP1 </text>
<polygon fill="none" stroke="black" points="101.5,-41.5 101.5,-62.5 142.5,-62.5 142.5,-41.5 101.5,-41.5"/>
<text text-anchor="start" x="106" y="-48.3" font-family="Times,serif" font-size="14.00"> OP2 </text>
<polygon fill="none" stroke="black" points="142.5,-41.5 142.5,-62.5 183.5,-62.5 183.5,-41.5 142.5,-41.5"/>
<text text-anchor="start" x="147" y="-48.3" font-family="Times,serif" font-size="14.00"> OP3 </text>
<polygon fill="none" stroke="black" points="0.5,-20.5 0.5,-41.5 63.5,-41.5 63.5,-20.5 0.5,-20.5"/>
<text text-anchor="start" x="3.5" y="-27.3" font-family="Times,serif" font-size="14.00"> BCTNM </text>
<polygon fill="none" stroke="black" points="63.5,-20.5 63.5,-41.5 101.5,-41.5 101.5,-20.5 63.5,-20.5"/>
<text text-anchor="start" x="71.5" y="-27.3" font-family="Times,serif" font-size="14.00"> ID </text>
<polygon fill="none" stroke="black" points="101.5,-20.5 101.5,-41.5 142.5,-41.5 142.5,-20.5 101.5,-20.5"/>
<text text-anchor="start" x="104.5" y="-27.3" font-family="Times,serif" font-size="14.00"> REG </text>
<polygon fill="none" stroke="black" points="0.5,0.5 0.5,-20.5 63.5,-20.5 63.5,0.5 0.5,0.5"/>
<text text-anchor="start" x="3.5" y="-6.3" font-family="Times,serif" font-size="14.00"> BCTNM </text>
<polygon fill="none" stroke="black" points="63.5,0.5 63.5,-20.5 101.5,-20.5 101.5,0.5 63.5,0.5"/>
<text text-anchor="start" x="71.5" y="-6.3" font-family="Times,serif" font-size="14.00"> ID </text>
<polygon fill="none" stroke="black" points="101.5,0.5 101.5,-20.5 142.5,-20.5 142.5,0.5 101.5,0.5"/>
<text text-anchor="start" x="104.5" y="-6.3" font-family="Times,serif" font-size="14.00"> REG </text>
<polygon fill="none" stroke="black" points="142.5,0.5 142.5,-20.5 183.5,-20.5 183.5,0.5 142.5,0.5"/>
<text text-anchor="start" x="145.5" y="-6.3" font-family="Times,serif" font-size="14.00"> REG </text>
</g>
</g>
</svg>
