<?xml version="1.0" encoding="UTF-8" standalone="no"?>
<!DOCTYPE svg PUBLIC "-//W3C//DTD SVG 1.1//EN"
 "http://www.w3.org/Graphics/SVG/1.1/DTD/svg11.dtd">
<!-- Generated by graphviz version 12.1.2 (20240928.0832)
 -->
<!-- Pages: 1 -->
<svg width="251pt" height="138pt"
 viewBox="0.00 0.00 251.00 138.00" xmlns="http://www.w3.org/2000/svg" xmlns:xlink="http://www.w3.org/1999/xlink">
<g id="graph0" class="graph" transform="scale(1 1) rotate(0) translate(36 102)">
<polygon fill="white" stroke="none" points="-36,36 -36,-102 215,-102 215,36 -36,36"/>
<!-- Foo -->
<g id="node1" class="node">
<title>Foo</title>
<polygon fill="none" stroke="black" points="0,-44 0,-66 62,-66 62,-44 0,-44"/>
<text text-anchor="start" x="10.75" y="-49.7" font-family="Times,serif" font-size="14.00"> Name </text>
<polygon fill="none" stroke="black" points="62,-44 62,-66 99,-66 99,-44 62,-44"/>
<text text-anchor="start" x="64.75" y="-49.7" font-family="Times,serif" font-size="14.00"> OP1 </text>
<polygon fill="none" stroke="black" points="99,-44 99,-66 139,-66 139,-44 99,-44"/>
<text text-anchor="start" x="103.25" y="-49.7" font-family="Times,serif" font-size="14.00"> OP2 </text>
<polygon fill="none" stroke="black" points="139,-44 139,-66 179,-66 179,-44 139,-44"/>
<text text-anchor="start" x="143.25" y="-49.7" font-family="Times,serif" font-size="14.00"> OP3 </text>
<polygon fill="none" stroke="black" points="0,-22 0,-44 62,-44 62,-22 0,-22"/>
<text text-anchor="start" x="2.88" y="-27.7" font-family="Times,serif" font-size="14.00"> BCTNM </text>
<polygon fill="none" stroke="black" points="62,-22 62,-44 99,-44 99,-22 62,-22"/>
<text text-anchor="start" x="69.62" y="-27.7" font-family="Times,serif" font-size="14.00"> ID </text>
<polygon fill="none" stroke="black" points="99,-22 99,-44 139,-44 139,-22 99,-22"/>
<text text-anchor="start" x="101.75" y="-27.7" font-family="Times,serif" font-size="14.00"> REG </text>
<polygon fill="none" stroke="black" points="0,0 0,-22 62,-22 62,0 0,0"/>
<text text-anchor="start" x="2.88" y="-5.7" font-family="Times,serif" font-size="14.00"> BCTNM </text>
<polygon fill="none" stroke="black" points="62,0 62,-22 99,-22 99,0 62,0"/>
<text text-anchor="start" x="69.62" y="-5.7" font-family="Times,serif" font-size="14.00"> ID </text>
<polygon fill="none" stroke="black" points="99,0 99,-22 139,-22 139,0 99,0"/>
<text text-anchor="start" x="101.75" y="-5.7" font-family="Times,serif" font-size="14.00"> REG </text>
<polygon fill="none" stroke="black" points="139,0 139,-22 179,-22 179,0 139,0"/>
<text text-anchor="start" x="141.75" y="-5.7" font-family="Times,serif" font-size="14.00"> REG </text>
</g>
</g>
</svg>
