<?xml version="1.0" encoding="UTF-8" standalone="no"?>
<!DOCTYPE svg PUBLIC "-//W3C//DTD SVG 1.1//EN"
 "http://www.w3.org/Graphics/SVG/1.1/DTD/svg11.dtd">
<!-- Generated by graphviz version 7.0.4 (20221203.1631)
 -->
<!-- Pages: 1 -->
<svg width="311pt" height="135pt"
 viewBox="0.00 0.00 311.00 135.00" xmlns="http://www.w3.org/2000/svg" xmlns:xlink="http://www.w3.org/1999/xlink">
<g id="graph0" class="graph" transform="scale(1 1) rotate(0) translate(36 99)">
<polygon fill="white" stroke="none" points="-36,36 -36,-99 275,-99 275,36 -36,36"/>
<!-- Foo -->
<g id="node1" class="node">
<title>Foo</title>
<polygon fill="none" stroke="black" points="0.5,-41.5 0.5,-62.5 56.5,-62.5 56.5,-41.5 0.5,-41.5"/>
<text text-anchor="start" x="3.5" y="-48.3" font-family="Times,serif" font-size="14.00"> Opcode </text>
<polygon fill="none" stroke="black" points="56.5,-41.5 56.5,-62.5 119.5,-62.5 119.5,-41.5 56.5,-41.5"/>
<text text-anchor="start" x="67.5" y="-48.3" font-family="Times,serif" font-size="14.00"> Name </text>
<polygon fill="none" stroke="black" points="119.5,-41.5 119.5,-62.5 157.5,-62.5 157.5,-41.5 119.5,-41.5"/>
<text text-anchor="start" x="122.5" y="-48.3" font-family="Times,serif" font-size="14.00"> OP1 </text>
<polygon fill="none" stroke="black" points="157.5,-41.5 157.5,-62.5 198.5,-62.5 198.5,-41.5 157.5,-41.5"/>
<text text-anchor="start" x="162" y="-48.3" font-family="Times,serif" font-size="14.00"> OP2 </text>
<polygon fill="none" stroke="black" points="198.5,-41.5 198.5,-62.5 239.5,-62.5 239.5,-41.5 198.5,-41.5"/>
<text text-anchor="start" x="203" y="-48.3" font-family="Times,serif" font-size="14.00"> OP3 </text>
<polygon fill="none" stroke="black" points="0.5,-20.5 0.5,-41.5 56.5,-41.5 56.5,-20.5 0.5,-20.5"/>
<text text-anchor="start" x="4.5" y="-27.3" font-family="Times,serif" font-size="14.00"> 0x00e9 </text>
<polygon fill="none" stroke="black" points="56.5,-20.5 56.5,-41.5 119.5,-41.5 119.5,-20.5 56.5,-20.5"/>
<text text-anchor="start" x="59.5" y="-27.3" font-family="Times,serif" font-size="14.00"> BCTNM </text>
<polygon fill="none" stroke="black" points="119.5,-20.5 119.5,-41.5 157.5,-41.5 157.5,-20.5 119.5,-20.5"/>
<text text-anchor="start" x="127.5" y="-27.3" font-family="Times,serif" font-size="14.00"> ID </text>
<polygon fill="none" stroke="black" points="157.5,-20.5 157.5,-41.5 198.5,-41.5 198.5,-20.5 157.5,-20.5"/>
<text text-anchor="start" x="160.5" y="-27.3" font-family="Times,serif" font-size="14.00"> REG </text>
<polygon fill="none" stroke="black" points="0.5,0.5 0.5,-20.5 56.5,-20.5 56.5,0.5 0.5,0.5"/>
<text text-anchor="start" x="5" y="-6.3" font-family="Times,serif" font-size="14.00"> 0x00ea </text>
<polygon fill="none" stroke="black" points="56.5,0.5 56.5,-20.5 119.5,-20.5 119.5,0.5 56.5,0.5"/>
<text text-anchor="start" x="59.5" y="-6.3" font-family="Times,serif" font-size="14.00"> BCTNM </text>
<polygon fill="none" stroke="black" points="119.5,0.5 119.5,-20.5 157.5,-20.5 157.5,0.5 119.5,0.5"/>
<text text-anchor="start" x="127.5" y="-6.3" font-family="Times,serif" font-size="14.00"> ID </text>
<polygon fill="none" stroke="black" points="157.5,0.5 157.5,-20.5 198.5,-20.5 198.5,0.5 157.5,0.5"/>
<text text-anchor="start" x="160.5" y="-6.3" font-family="Times,serif" font-size="14.00"> REG </text>
<polygon fill="none" stroke="black" points="198.5,0.5 198.5,-20.5 239.5,-20.5 239.5,0.5 198.5,0.5"/>
<text text-anchor="start" x="201.5" y="-6.3" font-family="Times,serif" font-size="14.00"> REG </text>
</g>
</g>
</svg>
