<?xml version="1.0" encoding="UTF-8" standalone="no"?>
<!DOCTYPE svg PUBLIC "-//W3C//DTD SVG 1.1//EN"
 "http://www.w3.org/Graphics/SVG/1.1/DTD/svg11.dtd">
<!-- Generated by graphviz version 14.1.4 (20260321.0153)
 -->
<!-- Pages: 1 -->
<svg width="290pt" height="140pt"
 viewBox="0.00 0.00 290.00 140.00" xmlns="http://www.w3.org/2000/svg" xmlns:xlink="http://www.w3.org/1999/xlink">
<g id="graph0" class="graph" transform="scale(1 1) rotate(0) translate(36 103.5)">
<polygon fill="white" stroke="none" points="-36,36 -36,-103.5 253.5,-103.5 253.5,36 -36,36"/>
<!-- Foo -->
<g id="node1" class="node">
<title>Foo</title>
<polygon fill="none" stroke="black" points="0,-45 0,-67.5 72,-67.5 72,-45 0,-45"/>
<text xml:space="preserve" text-anchor="start" x="15.75" y="-51.75" font-family="Times,serif" font-size="14.00"> Name </text>
<polygon fill="none" stroke="black" points="72,-45 72,-67.5 112.5,-67.5 112.5,-45 72,-45"/>
<text xml:space="preserve" text-anchor="start" x="76.5" y="-51.75" font-family="Times,serif" font-size="14.00"> OP1 </text>
<polygon fill="none" stroke="black" points="112.5,-45 112.5,-67.5 177,-67.5 177,-45 112.5,-45"/>
<text xml:space="preserve" text-anchor="start" x="129" y="-51.75" font-family="Times,serif" font-size="14.00"> OP2 </text>
<polygon fill="none" stroke="black" points="177,-45 177,-67.5 217.5,-67.5 217.5,-45 177,-45"/>
<text xml:space="preserve" text-anchor="start" x="181.5" y="-51.75" font-family="Times,serif" font-size="14.00"> OP3 </text>
<polygon fill="none" stroke="black" points="0,-22.5 0,-45 72,-45 72,-22.5 0,-22.5"/>
<text xml:space="preserve" text-anchor="start" x="3" y="-29.25" font-family="Times,serif" font-size="14.00"> BGETU16 </text>
<polygon fill="none" stroke="black" points="72,-22.5 72,-45 112.5,-45 112.5,-22.5 72,-22.5"/>
<text xml:space="preserve" text-anchor="start" x="75" y="-29.25" font-family="Times,serif" font-size="14.00"> REG </text>
<polygon fill="none" stroke="black" points="112.5,-22.5 112.5,-45 177,-45 177,-22.5 112.5,-22.5"/>
<text xml:space="preserve" text-anchor="start" x="127.5" y="-29.25" font-family="Times,serif" font-size="14.00"> REG </text>
<polygon fill="none" stroke="black" points="177,-22.5 177,-45 217.5,-45 217.5,-22.5 177,-22.5"/>
<text xml:space="preserve" text-anchor="start" x="180" y="-29.25" font-family="Times,serif" font-size="14.00"> REG </text>
<polygon fill="none" stroke="black" points="0,0 0,-22.5 72,-22.5 72,0 0,0"/>
<text xml:space="preserve" text-anchor="start" x="3" y="-6.75" font-family="Times,serif" font-size="14.00"> BGETU16 </text>
<polygon fill="none" stroke="black" points="72,0 72,-22.5 112.5,-22.5 112.5,0 72,0"/>
<text xml:space="preserve" text-anchor="start" x="75" y="-6.75" font-family="Times,serif" font-size="14.00"> REG </text>
<polygon fill="none" stroke="black" points="112.5,0 112.5,-22.5 177,-22.5 177,0 112.5,0"/>
<text xml:space="preserve" text-anchor="start" x="115.5" y="-6.75" font-family="Times,serif" font-size="14.00"> BINARY </text>
<polygon fill="none" stroke="black" points="177,0 177,-22.5 217.5,-22.5 217.5,0 177,0"/>
<text xml:space="preserve" text-anchor="start" x="180" y="-6.75" font-family="Times,serif" font-size="14.00"> REG </text>
</g>
</g>
</svg>
