<?xml version="1.0" encoding="UTF-8" standalone="no"?>
<!DOCTYPE svg PUBLIC "-//W3C//DTD SVG 1.1//EN"
 "http://www.w3.org/Graphics/SVG/1.1/DTD/svg11.dtd">
<!-- Generated by graphviz version 7.0.4 (20221203.1631)
 -->
<!-- Pages: 1 -->
<svg width="239pt" height="135pt"
 viewBox="0.00 0.00 239.00 135.00" xmlns="http://www.w3.org/2000/svg" xmlns:xlink="http://www.w3.org/1999/xlink">
<g id="graph0" class="graph" transform="scale(1 1) rotate(0) translate(36 99)">
<polygon fill="white" stroke="none" points="-36,36 -36,-99 203,-99 203,36 -36,36"/>
<!-- Foo -->
<g id="node1" class="node">
<title>Foo</title>
<polygon fill="none" stroke="black" points="0.5,-41.5 0.5,-62.5 47.5,-62.5 47.5,-41.5 0.5,-41.5"/>
<text text-anchor="start" x="3.5" y="-48.3" font-family="Times,serif" font-size="14.00"> Name </text>
<polygon fill="none" stroke="black" points="47.5,-41.5 47.5,-62.5 85.5,-62.5 85.5,-41.5 47.5,-41.5"/>
<text text-anchor="start" x="50.5" y="-48.3" font-family="Times,serif" font-size="14.00"> OP1 </text>
<polygon fill="none" stroke="black" points="85.5,-41.5 85.5,-62.5 126.5,-62.5 126.5,-41.5 85.5,-41.5"/>
<text text-anchor="start" x="90" y="-48.3" font-family="Times,serif" font-size="14.00"> OP2 </text>
<polygon fill="none" stroke="black" points="126.5,-41.5 126.5,-62.5 167.5,-62.5 167.5,-41.5 126.5,-41.5"/>
<text text-anchor="start" x="131" y="-48.3" font-family="Times,serif" font-size="14.00"> OP3 </text>
<polygon fill="none" stroke="black" points="0.5,-20.5 0.5,-41.5 47.5,-41.5 47.5,-20.5 0.5,-20.5"/>
<text text-anchor="start" x="7" y="-27.3" font-family="Times,serif" font-size="14.00"> BGT </text>
<polygon fill="none" stroke="black" points="47.5,-20.5 47.5,-41.5 85.5,-41.5 85.5,-20.5 47.5,-20.5"/>
<text text-anchor="start" x="55.5" y="-27.3" font-family="Times,serif" font-size="14.00"> ID </text>
<polygon fill="none" stroke="black" points="85.5,-20.5 85.5,-41.5 126.5,-41.5 126.5,-20.5 85.5,-20.5"/>
<text text-anchor="start" x="88.5" y="-27.3" font-family="Times,serif" font-size="14.00"> REG </text>
<polygon fill="none" stroke="black" points="126.5,-20.5 126.5,-41.5 167.5,-41.5 167.5,-20.5 126.5,-20.5"/>
<text text-anchor="start" x="129.5" y="-27.3" font-family="Times,serif" font-size="14.00"> REG </text>
<polygon fill="none" stroke="black" points="0.5,0.5 0.5,-20.5 47.5,-20.5 47.5,0.5 0.5,0.5"/>
<text text-anchor="start" x="7" y="-6.3" font-family="Times,serif" font-size="14.00"> BGT </text>
<polygon fill="none" stroke="black" points="47.5,0.5 47.5,-20.5 85.5,-20.5 85.5,0.5 47.5,0.5"/>
<text text-anchor="start" x="55.5" y="-6.3" font-family="Times,serif" font-size="14.00"> ID </text>
<polygon fill="none" stroke="black" points="85.5,0.5 85.5,-20.5 126.5,-20.5 126.5,0.5 85.5,0.5"/>
<text text-anchor="start" x="88.5" y="-6.3" font-family="Times,serif" font-size="14.00"> REG </text>
<polygon fill="none" stroke="black" points="126.5,0.5 126.5,-20.5 167.5,-20.5 167.5,0.5 126.5,0.5"/>
<text text-anchor="start" x="132" y="-6.3" font-family="Times,serif" font-size="14.00"> INT </text>
</g>
</g>
</svg>
