<?xml version="1.0" encoding="UTF-8" standalone="no"?>
<!DOCTYPE svg PUBLIC "-//W3C//DTD SVG 1.1//EN"
 "http://www.w3.org/Graphics/SVG/1.1/DTD/svg11.dtd">
<!-- Generated by graphviz version 12.2.1 (20241206.2353)
 -->
<!-- Pages: 1 -->
<svg width="237pt" height="140pt"
 viewBox="0.00 0.00 237.00 139.50" xmlns="http://www.w3.org/2000/svg" xmlns:xlink="http://www.w3.org/1999/xlink">
<g id="graph0" class="graph" transform="scale(1 1) rotate(0) translate(36 103.5)">
<polygon fill="white" stroke="none" points="-36,36 -36,-103.5 201,-103.5 201,36 -36,36"/>
<!-- Foo -->
<g id="node1" class="node">
<title>Foo</title>
<polygon fill="none" stroke="black" points="0,-45 0,-67.5 46.5,-67.5 46.5,-45 0,-45"/>
<text text-anchor="start" x="3" y="-51.2" font-family="Times,serif" font-size="14.00"> Name </text>
<polygon fill="none" stroke="black" points="46.5,-45 46.5,-67.5 84,-67.5 84,-45 46.5,-45"/>
<text text-anchor="start" x="49.5" y="-51.2" font-family="Times,serif" font-size="14.00"> OP1 </text>
<polygon fill="none" stroke="black" points="84,-45 84,-67.5 124.5,-67.5 124.5,-45 84,-45"/>
<text text-anchor="start" x="88.5" y="-51.2" font-family="Times,serif" font-size="14.00"> OP2 </text>
<polygon fill="none" stroke="black" points="124.5,-45 124.5,-67.5 165,-67.5 165,-45 124.5,-45"/>
<text text-anchor="start" x="129" y="-51.2" font-family="Times,serif" font-size="14.00"> OP3 </text>
<polygon fill="none" stroke="black" points="0,-22.5 0,-45 46.5,-45 46.5,-22.5 0,-22.5"/>
<text text-anchor="start" x="6.75" y="-28.7" font-family="Times,serif" font-size="14.00"> BLE </text>
<polygon fill="none" stroke="black" points="46.5,-22.5 46.5,-45 84,-45 84,-22.5 46.5,-22.5"/>
<text text-anchor="start" x="54.38" y="-28.7" font-family="Times,serif" font-size="14.00"> ID </text>
<polygon fill="none" stroke="black" points="84,-22.5 84,-45 124.5,-45 124.5,-22.5 84,-22.5"/>
<text text-anchor="start" x="87" y="-28.7" font-family="Times,serif" font-size="14.00"> REG </text>
<polygon fill="none" stroke="black" points="124.5,-22.5 124.5,-45 165,-45 165,-22.5 124.5,-22.5"/>
<text text-anchor="start" x="127.5" y="-28.7" font-family="Times,serif" font-size="14.00"> REG </text>
<polygon fill="none" stroke="black" points="0,0 0,-22.5 46.5,-22.5 46.5,0 0,0"/>
<text text-anchor="start" x="6.75" y="-6.2" font-family="Times,serif" font-size="14.00"> BLE </text>
<polygon fill="none" stroke="black" points="46.5,0 46.5,-22.5 84,-22.5 84,0 46.5,0"/>
<text text-anchor="start" x="54.38" y="-6.2" font-family="Times,serif" font-size="14.00"> ID </text>
<polygon fill="none" stroke="black" points="84,0 84,-22.5 124.5,-22.5 124.5,0 84,0"/>
<text text-anchor="start" x="87" y="-6.2" font-family="Times,serif" font-size="14.00"> REG </text>
<polygon fill="none" stroke="black" points="124.5,0 124.5,-22.5 165,-22.5 165,0 124.5,0"/>
<text text-anchor="start" x="130.12" y="-6.2" font-family="Times,serif" font-size="14.00"> INT </text>
</g>
</g>
</svg>
