<?xml version="1.0" encoding="UTF-8" standalone="no"?>
<!DOCTYPE svg PUBLIC "-//W3C//DTD SVG 1.1//EN"
 "http://www.w3.org/Graphics/SVG/1.1/DTD/svg11.dtd">
<!-- Generated by graphviz version 7.0.4 (20221203.1631)
 -->
<!-- Pages: 1 -->
<svg width="295pt" height="135pt"
 viewBox="0.00 0.00 295.00 135.00" xmlns="http://www.w3.org/2000/svg" xmlns:xlink="http://www.w3.org/1999/xlink">
<g id="graph0" class="graph" transform="scale(1 1) rotate(0) translate(36 99)">
<polygon fill="white" stroke="none" points="-36,36 -36,-99 259,-99 259,36 -36,36"/>
<!-- Foo -->
<g id="node1" class="node">
<title>Foo</title>
<polygon fill="none" stroke="black" points="0.5,-41.5 0.5,-62.5 56.5,-62.5 56.5,-41.5 0.5,-41.5"/>
<text text-anchor="start" x="3.5" y="-48.3" font-family="Times,serif" font-size="14.00"> Opcode </text>
<polygon fill="none" stroke="black" points="56.5,-41.5 56.5,-62.5 103.5,-62.5 103.5,-41.5 56.5,-41.5"/>
<text text-anchor="start" x="59.5" y="-48.3" font-family="Times,serif" font-size="14.00"> Name </text>
<polygon fill="none" stroke="black" points="103.5,-41.5 103.5,-62.5 141.5,-62.5 141.5,-41.5 103.5,-41.5"/>
<text text-anchor="start" x="106.5" y="-48.3" font-family="Times,serif" font-size="14.00"> OP1 </text>
<polygon fill="none" stroke="black" points="141.5,-41.5 141.5,-62.5 182.5,-62.5 182.5,-41.5 141.5,-41.5"/>
<text text-anchor="start" x="146" y="-48.3" font-family="Times,serif" font-size="14.00"> OP2 </text>
<polygon fill="none" stroke="black" points="182.5,-41.5 182.5,-62.5 223.5,-62.5 223.5,-41.5 182.5,-41.5"/>
<text text-anchor="start" x="187" y="-48.3" font-family="Times,serif" font-size="14.00"> OP3 </text>
<polygon fill="none" stroke="black" points="0.5,-20.5 0.5,-41.5 56.5,-41.5 56.5,-20.5 0.5,-20.5"/>
<text text-anchor="start" x="5.5" y="-27.3" font-family="Times,serif" font-size="14.00"> 0x00f1 </text>
<polygon fill="none" stroke="black" points="56.5,-20.5 56.5,-41.5 103.5,-41.5 103.5,-20.5 56.5,-20.5"/>
<text text-anchor="start" x="64" y="-27.3" font-family="Times,serif" font-size="14.00"> BLT </text>
<polygon fill="none" stroke="black" points="103.5,-20.5 103.5,-41.5 141.5,-41.5 141.5,-20.5 103.5,-20.5"/>
<text text-anchor="start" x="111.5" y="-27.3" font-family="Times,serif" font-size="14.00"> ID </text>
<polygon fill="none" stroke="black" points="141.5,-20.5 141.5,-41.5 182.5,-41.5 182.5,-20.5 141.5,-20.5"/>
<text text-anchor="start" x="144.5" y="-27.3" font-family="Times,serif" font-size="14.00"> REG </text>
<polygon fill="none" stroke="black" points="182.5,-20.5 182.5,-41.5 223.5,-41.5 223.5,-20.5 182.5,-20.5"/>
<text text-anchor="start" x="185.5" y="-27.3" font-family="Times,serif" font-size="14.00"> REG </text>
<polygon fill="none" stroke="black" points="0.5,0.5 0.5,-20.5 56.5,-20.5 56.5,0.5 0.5,0.5"/>
<text text-anchor="start" x="5.5" y="-6.3" font-family="Times,serif" font-size="14.00"> 0x00f2 </text>
<polygon fill="none" stroke="black" points="56.5,0.5 56.5,-20.5 103.5,-20.5 103.5,0.5 56.5,0.5"/>
<text text-anchor="start" x="64" y="-6.3" font-family="Times,serif" font-size="14.00"> BLT </text>
<polygon fill="none" stroke="black" points="103.5,0.5 103.5,-20.5 141.5,-20.5 141.5,0.5 103.5,0.5"/>
<text text-anchor="start" x="111.5" y="-6.3" font-family="Times,serif" font-size="14.00"> ID </text>
<polygon fill="none" stroke="black" points="141.5,0.5 141.5,-20.5 182.5,-20.5 182.5,0.5 141.5,0.5"/>
<text text-anchor="start" x="144.5" y="-6.3" font-family="Times,serif" font-size="14.00"> REG </text>
<polygon fill="none" stroke="black" points="182.5,0.5 182.5,-20.5 223.5,-20.5 223.5,0.5 182.5,0.5"/>
<text text-anchor="start" x="188" y="-6.3" font-family="Times,serif" font-size="14.00"> INT </text>
</g>
</g>
</svg>
