<?xml version="1.0" encoding="UTF-8" standalone="no"?>
<!DOCTYPE svg PUBLIC "-//W3C//DTD SVG 1.1//EN"
 "http://www.w3.org/Graphics/SVG/1.1/DTD/svg11.dtd">
<!-- Generated by graphviz version 12.1.2 (20240928.0832)
 -->
<!-- Pages: 1 -->
<svg width="235pt" height="138pt"
 viewBox="0.00 0.00 235.00 138.00" xmlns="http://www.w3.org/2000/svg" xmlns:xlink="http://www.w3.org/1999/xlink">
<g id="graph0" class="graph" transform="scale(1 1) rotate(0) translate(36 102)">
<polygon fill="white" stroke="none" points="-36,36 -36,-102 199,-102 199,36 -36,36"/>
<!-- Foo -->
<g id="node1" class="node">
<title>Foo</title>
<polygon fill="none" stroke="black" points="0,-44 0,-66 46,-66 46,-44 0,-44"/>
<text text-anchor="start" x="2.75" y="-49.7" font-family="Times,serif" font-size="14.00"> Name </text>
<polygon fill="none" stroke="black" points="46,-44 46,-66 83,-66 83,-44 46,-44"/>
<text text-anchor="start" x="48.75" y="-49.7" font-family="Times,serif" font-size="14.00"> OP1 </text>
<polygon fill="none" stroke="black" points="83,-44 83,-66 123,-66 123,-44 83,-44"/>
<text text-anchor="start" x="87.25" y="-49.7" font-family="Times,serif" font-size="14.00"> OP2 </text>
<polygon fill="none" stroke="black" points="123,-44 123,-66 163,-66 163,-44 123,-44"/>
<text text-anchor="start" x="127.25" y="-49.7" font-family="Times,serif" font-size="14.00"> OP3 </text>
<polygon fill="none" stroke="black" points="0,-22 0,-44 46,-44 46,-22 0,-22"/>
<text text-anchor="start" x="5.75" y="-27.7" font-family="Times,serif" font-size="14.00"> BNE </text>
<polygon fill="none" stroke="black" points="46,-22 46,-44 83,-44 83,-22 46,-22"/>
<text text-anchor="start" x="53.62" y="-27.7" font-family="Times,serif" font-size="14.00"> ID </text>
<polygon fill="none" stroke="black" points="83,-22 83,-44 123,-44 123,-22 83,-22"/>
<text text-anchor="start" x="85.75" y="-27.7" font-family="Times,serif" font-size="14.00"> REG </text>
<polygon fill="none" stroke="black" points="123,-22 123,-44 163,-44 163,-22 123,-22"/>
<text text-anchor="start" x="125.75" y="-27.7" font-family="Times,serif" font-size="14.00"> REG </text>
<polygon fill="none" stroke="black" points="0,0 0,-22 46,-22 46,0 0,0"/>
<text text-anchor="start" x="5.75" y="-5.7" font-family="Times,serif" font-size="14.00"> BNE </text>
<polygon fill="none" stroke="black" points="46,0 46,-22 83,-22 83,0 46,0"/>
<text text-anchor="start" x="53.62" y="-5.7" font-family="Times,serif" font-size="14.00"> ID </text>
<polygon fill="none" stroke="black" points="83,0 83,-22 123,-22 123,0 83,0"/>
<text text-anchor="start" x="85.75" y="-5.7" font-family="Times,serif" font-size="14.00"> REG </text>
<polygon fill="none" stroke="black" points="123,0 123,-22 163,-22 163,0 123,0"/>
<text text-anchor="start" x="128.38" y="-5.7" font-family="Times,serif" font-size="14.00"> INT </text>
</g>
</g>
</svg>
