<?xml version="1.0" encoding="UTF-8" standalone="no"?>
<!DOCTYPE svg PUBLIC "-//W3C//DTD SVG 1.1//EN"
 "http://www.w3.org/Graphics/SVG/1.1/DTD/svg11.dtd">
<!-- Generated by graphviz version 12.1.2 (20240928.0832)
 -->
<!-- Pages: 1 -->
<svg width="195pt" height="116pt"
 viewBox="0.00 0.00 195.00 116.00" xmlns="http://www.w3.org/2000/svg" xmlns:xlink="http://www.w3.org/1999/xlink">
<g id="graph0" class="graph" transform="scale(1 1) rotate(0) translate(36 80)">
<polygon fill="white" stroke="none" points="-36,36 -36,-80 159,-80 159,36 -36,36"/>
<!-- Foo -->
<g id="node1" class="node">
<title>Foo</title>
<polygon fill="none" stroke="black" points="0,-22 0,-44 49,-44 49,-22 0,-22"/>
<text text-anchor="start" x="4.25" y="-27.7" font-family="Times,serif" font-size="14.00"> Name </text>
<polygon fill="none" stroke="black" points="49,-22 49,-44 123,-44 123,-22 49,-22"/>
<text text-anchor="start" x="70.25" y="-27.7" font-family="Times,serif" font-size="14.00"> OP1 </text>
<polygon fill="none" stroke="black" points="0,0 0,-22 49,-22 49,0 0,0"/>
<text text-anchor="start" x="2.75" y="-5.7" font-family="Times,serif" font-size="14.00"> BPON </text>
<polygon fill="none" stroke="black" points="49,0 49,-22 123,-22 123,0 49,0"/>
<text text-anchor="start" x="51.88" y="-5.7" font-family="Times,serif" font-size="14.00"> no operand </text>
</g>
</g>
</svg>
