<?xml version="1.0" encoding="UTF-8" standalone="no"?>
<!DOCTYPE svg PUBLIC "-//W3C//DTD SVG 1.1//EN"
 "http://www.w3.org/Graphics/SVG/1.1/DTD/svg11.dtd">
<!-- Generated by graphviz version 12.1.2 (20240928.0832)
 -->
<!-- Pages: 1 -->
<svg width="155pt" height="116pt"
 viewBox="0.00 0.00 155.00 116.00" xmlns="http://www.w3.org/2000/svg" xmlns:xlink="http://www.w3.org/1999/xlink">
<g id="graph0" class="graph" transform="scale(1 1) rotate(0) translate(36 80)">
<polygon fill="white" stroke="none" points="-36,36 -36,-80 119,-80 119,36 -36,36"/>
<!-- Foo -->
<g id="node1" class="node">
<title>Foo</title>
<polygon fill="none" stroke="black" points="0,-22 0,-44 46,-44 46,-22 0,-22"/>
<text text-anchor="start" x="2.75" y="-27.7" font-family="Times,serif" font-size="14.00"> Name </text>
<polygon fill="none" stroke="black" points="46,-22 46,-44 83,-44 83,-22 46,-22"/>
<text text-anchor="start" x="48.75" y="-27.7" font-family="Times,serif" font-size="14.00"> OP1 </text>
<polygon fill="none" stroke="black" points="0,0 0,-22 46,-22 46,0 0,0"/>
<text text-anchor="start" x="10.25" y="-5.7" font-family="Times,serif" font-size="14.00"> BR </text>
<polygon fill="none" stroke="black" points="46,0 46,-22 83,-22 83,0 46,0"/>
<text text-anchor="start" x="53.62" y="-5.7" font-family="Times,serif" font-size="14.00"> ID </text>
</g>
</g>
</svg>
