<?xml version="1.0" encoding="UTF-8" standalone="no"?>
<!DOCTYPE svg PUBLIC "-//W3C//DTD SVG 1.1//EN"
 "http://www.w3.org/Graphics/SVG/1.1/DTD/svg11.dtd">
<!-- Generated by graphviz version 7.0.4 (20221203.1631)
 -->
<!-- Pages: 1 -->
<svg width="198pt" height="114pt"
 viewBox="0.00 0.00 198.00 114.00" xmlns="http://www.w3.org/2000/svg" xmlns:xlink="http://www.w3.org/1999/xlink">
<g id="graph0" class="graph" transform="scale(1 1) rotate(0) translate(36 78)">
<polygon fill="white" stroke="none" points="-36,36 -36,-78 162,-78 162,36 -36,36"/>
<!-- Foo -->
<g id="node1" class="node">
<title>Foo</title>
<polygon fill="none" stroke="black" points="0,-21 0,-42 47,-42 47,-21 0,-21"/>
<text text-anchor="start" x="3" y="-27.8" font-family="Times,serif" font-size="14.00"> Name </text>
<polygon fill="none" stroke="black" points="47,-21 47,-42 85,-42 85,-21 47,-21"/>
<text text-anchor="start" x="50" y="-27.8" font-family="Times,serif" font-size="14.00"> OP1 </text>
<polygon fill="none" stroke="black" points="85,-21 85,-42 126,-42 126,-21 85,-21"/>
<text text-anchor="start" x="89.5" y="-27.8" font-family="Times,serif" font-size="14.00"> OP2 </text>
<polygon fill="none" stroke="black" points="0,0 0,-21 47,-21 47,0 0,0"/>
<text text-anchor="start" x="6.5" y="-6.8" font-family="Times,serif" font-size="14.00"> BRF </text>
<polygon fill="none" stroke="black" points="47,0 47,-21 85,-21 85,0 47,0"/>
<text text-anchor="start" x="55" y="-6.8" font-family="Times,serif" font-size="14.00"> ID </text>
<polygon fill="none" stroke="black" points="85,0 85,-21 126,-21 126,0 85,0"/>
<text text-anchor="start" x="88" y="-6.8" font-family="Times,serif" font-size="14.00"> REG </text>
</g>
</g>
</svg>
