<?xml version="1.0" encoding="UTF-8" standalone="no"?>
<!DOCTYPE svg PUBLIC "-//W3C//DTD SVG 1.1//EN"
 "http://www.w3.org/Graphics/SVG/1.1/DTD/svg11.dtd">
<!-- Generated by graphviz version 12.1.2 (20240928.0832)
 -->
<!-- Pages: 1 -->
<svg width="233pt" height="116pt"
 viewBox="0.00 0.00 233.00 116.00" xmlns="http://www.w3.org/2000/svg" xmlns:xlink="http://www.w3.org/1999/xlink">
<g id="graph0" class="graph" transform="scale(1 1) rotate(0) translate(36 80)">
<polygon fill="white" stroke="none" points="-36,36 -36,-80 197,-80 197,36 -36,36"/>
<!-- Foo -->
<g id="node1" class="node">
<title>Foo</title>
<polygon fill="none" stroke="black" points="0,-22 0,-44 47,-44 47,-22 0,-22"/>
<text text-anchor="start" x="3.25" y="-27.7" font-family="Times,serif" font-size="14.00"> Name </text>
<polygon fill="none" stroke="black" points="47,-22 47,-44 84,-44 84,-22 47,-22"/>
<text text-anchor="start" x="49.75" y="-27.7" font-family="Times,serif" font-size="14.00"> OP1 </text>
<polygon fill="none" stroke="black" points="84,-22 84,-44 121,-44 121,-22 84,-22"/>
<text text-anchor="start" x="86.75" y="-27.7" font-family="Times,serif" font-size="14.00"> OP2 </text>
<polygon fill="none" stroke="black" points="121,-22 121,-44 161,-44 161,-22 121,-22"/>
<text text-anchor="start" x="125.25" y="-27.7" font-family="Times,serif" font-size="14.00"> OP3 </text>
<polygon fill="none" stroke="black" points="0,0 0,-22 47,-22 47,0 0,0"/>
<text text-anchor="start" x="2.88" y="-5.7" font-family="Times,serif" font-size="14.00"> BRTF </text>
<polygon fill="none" stroke="black" points="47,0 47,-22 84,-22 84,0 47,0"/>
<text text-anchor="start" x="54.62" y="-5.7" font-family="Times,serif" font-size="14.00"> ID </text>
<polygon fill="none" stroke="black" points="84,0 84,-22 121,-22 121,0 84,0"/>
<text text-anchor="start" x="91.62" y="-5.7" font-family="Times,serif" font-size="14.00"> ID </text>
<polygon fill="none" stroke="black" points="121,0 121,-22 161,-22 161,0 121,0"/>
<text text-anchor="start" x="123.75" y="-5.7" font-family="Times,serif" font-size="14.00"> REG </text>
</g>
</g>
</svg>
