<?xml version="1.0" encoding="UTF-8" standalone="no"?>
<!DOCTYPE svg PUBLIC "-//W3C//DTD SVG 1.1//EN"
 "http://www.w3.org/Graphics/SVG/1.1/DTD/svg11.dtd">
<!-- Generated by graphviz version 12.2.1 (20241206.2353)
 -->
<!-- Pages: 1 -->
<svg width="235pt" height="117pt"
 viewBox="0.00 0.00 234.75 117.00" xmlns="http://www.w3.org/2000/svg" xmlns:xlink="http://www.w3.org/1999/xlink">
<g id="graph0" class="graph" transform="scale(1 1) rotate(0) translate(36 81)">
<polygon fill="white" stroke="none" points="-36,36 -36,-81 198.75,-81 198.75,36 -36,36"/>
<!-- Foo -->
<g id="node1" class="node">
<title>Foo</title>
<polygon fill="none" stroke="black" points="0,-22.5 0,-45 47.25,-45 47.25,-22.5 0,-22.5"/>
<text text-anchor="start" x="3.38" y="-28.7" font-family="Times,serif" font-size="14.00"> Name </text>
<polygon fill="none" stroke="black" points="47.25,-22.5 47.25,-45 84.75,-45 84.75,-22.5 47.25,-22.5"/>
<text text-anchor="start" x="50.25" y="-28.7" font-family="Times,serif" font-size="14.00"> OP1 </text>
<polygon fill="none" stroke="black" points="84.75,-22.5 84.75,-45 122.25,-45 122.25,-22.5 84.75,-22.5"/>
<text text-anchor="start" x="87.75" y="-28.7" font-family="Times,serif" font-size="14.00"> OP2 </text>
<polygon fill="none" stroke="black" points="122.25,-22.5 122.25,-45 162.75,-45 162.75,-22.5 122.25,-22.5"/>
<text text-anchor="start" x="126.75" y="-28.7" font-family="Times,serif" font-size="14.00"> OP3 </text>
<polygon fill="none" stroke="black" points="0,0 0,-22.5 47.25,-22.5 47.25,0 0,0"/>
<text text-anchor="start" x="3" y="-6.2" font-family="Times,serif" font-size="14.00"> BRTF </text>
<polygon fill="none" stroke="black" points="47.25,0 47.25,-22.5 84.75,-22.5 84.75,0 47.25,0"/>
<text text-anchor="start" x="55.12" y="-6.2" font-family="Times,serif" font-size="14.00"> ID </text>
<polygon fill="none" stroke="black" points="84.75,0 84.75,-22.5 122.25,-22.5 122.25,0 84.75,0"/>
<text text-anchor="start" x="92.62" y="-6.2" font-family="Times,serif" font-size="14.00"> ID </text>
<polygon fill="none" stroke="black" points="122.25,0 122.25,-22.5 162.75,-22.5 162.75,0 122.25,0"/>
<text text-anchor="start" x="125.25" y="-6.2" font-family="Times,serif" font-size="14.00"> REG </text>
</g>
</g>
</svg>
