<?xml version="1.0" encoding="UTF-8" standalone="no"?>
<!DOCTYPE svg PUBLIC "-//W3C//DTD SVG 1.1//EN"
 "http://www.w3.org/Graphics/SVG/1.1/DTD/svg11.dtd">
<!-- Generated by graphviz version 12.2.1 (20241206.2353)
 -->
<!-- Pages: 1 -->
<svg width="272pt" height="117pt"
 viewBox="0.00 0.00 271.50 117.00" xmlns="http://www.w3.org/2000/svg" xmlns:xlink="http://www.w3.org/1999/xlink">
<g id="graph0" class="graph" transform="scale(1 1) rotate(0) translate(36 81)">
<polygon fill="white" stroke="none" points="-36,36 -36,-81 235.5,-81 235.5,36 -36,36"/>
<!-- Foo -->
<g id="node1" class="node">
<title>Foo</title>
<polygon fill="none" stroke="black" points="0,-22.5 0,-45 84,-45 84,-22.5 0,-22.5"/>
<text text-anchor="start" x="21.75" y="-28.7" font-family="Times,serif" font-size="14.00"> Name </text>
<polygon fill="none" stroke="black" points="84,-22.5 84,-45 121.5,-45 121.5,-22.5 84,-22.5"/>
<text text-anchor="start" x="87" y="-28.7" font-family="Times,serif" font-size="14.00"> OP1 </text>
<polygon fill="none" stroke="black" points="121.5,-22.5 121.5,-45 162,-45 162,-22.5 121.5,-22.5"/>
<text text-anchor="start" x="126" y="-28.7" font-family="Times,serif" font-size="14.00"> OP2 </text>
<polygon fill="none" stroke="black" points="162,-22.5 162,-45 199.5,-45 199.5,-22.5 162,-22.5"/>
<text text-anchor="start" x="165" y="-28.7" font-family="Times,serif" font-size="14.00"> OP3 </text>
<polygon fill="none" stroke="black" points="0,0 0,-22.5 84,-22.5 84,0 0,0"/>
<text text-anchor="start" x="3" y="-6.2" font-family="Times,serif" font-size="14.00"> BRTPANDT </text>
<polygon fill="none" stroke="black" points="84,0 84,-22.5 121.5,-22.5 121.5,0 84,0"/>
<text text-anchor="start" x="91.88" y="-6.2" font-family="Times,serif" font-size="14.00"> ID </text>
<polygon fill="none" stroke="black" points="121.5,0 121.5,-22.5 162,-22.5 162,0 121.5,0"/>
<text text-anchor="start" x="124.5" y="-6.2" font-family="Times,serif" font-size="14.00"> REG </text>
<polygon fill="none" stroke="black" points="162,0 162,-22.5 199.5,-22.5 199.5,0 162,0"/>
<text text-anchor="start" x="166.12" y="-6.2" font-family="Times,serif" font-size="14.00"> INT </text>
</g>
</g>
</svg>
