<?xml version="1.0" encoding="UTF-8" standalone="no"?>
<!DOCTYPE svg PUBLIC "-//W3C//DTD SVG 1.1//EN"
 "http://www.w3.org/Graphics/SVG/1.1/DTD/svg11.dtd">
<!-- Generated by graphviz version 7.0.4 (20221203.1631)
 -->
<!-- Pages: 1 -->
<svg width="318pt" height="156pt"
 viewBox="0.00 0.00 318.00 156.00" xmlns="http://www.w3.org/2000/svg" xmlns:xlink="http://www.w3.org/1999/xlink">
<g id="graph0" class="graph" transform="scale(1 1) rotate(0) translate(36 120)">
<polygon fill="white" stroke="none" points="-36,36 -36,-120 282,-120 282,36 -36,36"/>
<!-- Foo -->
<g id="node1" class="node">
<title>Foo</title>
<polygon fill="none" stroke="black" points="0,-63 0,-84 56,-84 56,-63 0,-63"/>
<text text-anchor="start" x="3" y="-69.8" font-family="Times,serif" font-size="14.00"> Opcode </text>
<polygon fill="none" stroke="black" points="56,-63 56,-84 105,-84 105,-63 56,-63"/>
<text text-anchor="start" x="60" y="-69.8" font-family="Times,serif" font-size="14.00"> Name </text>
<polygon fill="none" stroke="black" points="105,-63 105,-84 155,-84 155,-63 105,-63"/>
<text text-anchor="start" x="114" y="-69.8" font-family="Times,serif" font-size="14.00"> OP1 </text>
<polygon fill="none" stroke="black" points="155,-63 155,-84 205,-84 205,-63 155,-63"/>
<text text-anchor="start" x="164" y="-69.8" font-family="Times,serif" font-size="14.00"> OP2 </text>
<polygon fill="none" stroke="black" points="0,-42 0,-63 56,-63 56,-42 0,-42"/>
<text text-anchor="start" x="4" y="-48.8" font-family="Times,serif" font-size="14.00"> 0x00ab </text>
<polygon fill="none" stroke="black" points="56,-42 56,-63 105,-63 105,-42 56,-42"/>
<text text-anchor="start" x="59" y="-48.8" font-family="Times,serif" font-size="14.00"> CALL </text>
<polygon fill="none" stroke="black" points="105,-42 105,-63 155,-63 155,-42 105,-42"/>
<text text-anchor="start" x="112.5" y="-48.8" font-family="Times,serif" font-size="14.00"> REG </text>
<polygon fill="none" stroke="black" points="155,-42 155,-63 205,-63 205,-42 155,-42"/>
<text text-anchor="start" x="158" y="-48.8" font-family="Times,serif" font-size="14.00"> FUNC </text>
<polygon fill="none" stroke="black" points="205,-42 205,-63 246,-63 246,-42 205,-42"/>
<text text-anchor="start" x="208" y="-48.8" font-family="Times,serif" font-size="14.00"> REG </text>
<polygon fill="none" stroke="black" points="0,-21 0,-42 56,-42 56,-21 0,-21"/>
<text text-anchor="start" x="4" y="-27.8" font-family="Times,serif" font-size="14.00"> 0x00a9 </text>
<polygon fill="none" stroke="black" points="56,-21 56,-42 105,-42 105,-21 56,-21"/>
<text text-anchor="start" x="59" y="-27.8" font-family="Times,serif" font-size="14.00"> CALL </text>
<polygon fill="none" stroke="black" points="105,-21 105,-42 155,-42 155,-21 105,-21"/>
<text text-anchor="start" x="108" y="-27.8" font-family="Times,serif" font-size="14.00"> FUNC </text>
<polygon fill="none" stroke="black" points="0,0 0,-21 56,-21 56,0 0,0"/>
<text text-anchor="start" x="4.5" y="-6.8" font-family="Times,serif" font-size="14.00"> 0x00aa </text>
<polygon fill="none" stroke="black" points="56,0 56,-21 105,-21 105,0 56,0"/>
<text text-anchor="start" x="59" y="-6.8" font-family="Times,serif" font-size="14.00"> CALL </text>
<polygon fill="none" stroke="black" points="105,0 105,-21 155,-21 155,0 105,0"/>
<text text-anchor="start" x="112.5" y="-6.8" font-family="Times,serif" font-size="14.00"> REG </text>
<polygon fill="none" stroke="black" points="155,0 155,-21 205,-21 205,0 155,0"/>
<text text-anchor="start" x="158" y="-6.8" font-family="Times,serif" font-size="14.00"> FUNC </text>
</g>
</g>
</svg>
