<?xml version="1.0" encoding="UTF-8" standalone="no"?>
<!DOCTYPE svg PUBLIC "-//W3C//DTD SVG 1.1//EN"
 "http://www.w3.org/Graphics/SVG/1.1/DTD/svg11.dtd">
<!-- Generated by graphviz version 12.1.2 (20240928.0832)
 -->
<!-- Pages: 1 -->
<svg width="258pt" height="160pt"
 viewBox="0.00 0.00 258.00 160.00" xmlns="http://www.w3.org/2000/svg" xmlns:xlink="http://www.w3.org/1999/xlink">
<g id="graph0" class="graph" transform="scale(1 1) rotate(0) translate(36 124)">
<polygon fill="white" stroke="none" points="-36,36 -36,-124 222,-124 222,36 -36,36"/>
<!-- Foo -->
<g id="node1" class="node">
<title>Foo</title>
<polygon fill="none" stroke="black" points="0,-66 0,-88 48,-88 48,-66 0,-66"/>
<text text-anchor="start" x="3.75" y="-71.7" font-family="Times,serif" font-size="14.00"> Name </text>
<polygon fill="none" stroke="black" points="48,-66 48,-88 97,-88 97,-66 48,-66"/>
<text text-anchor="start" x="56.75" y="-71.7" font-family="Times,serif" font-size="14.00"> OP1 </text>
<polygon fill="none" stroke="black" points="97,-66 97,-88 146,-88 146,-66 97,-66"/>
<text text-anchor="start" x="105.75" y="-71.7" font-family="Times,serif" font-size="14.00"> OP2 </text>
<polygon fill="none" stroke="black" points="146,-66 146,-88 186,-88 186,-66 146,-66"/>
<text text-anchor="start" x="150.25" y="-71.7" font-family="Times,serif" font-size="14.00"> OP3 </text>
<polygon fill="none" stroke="black" points="0,-44 0,-66 48,-66 48,-44 0,-44"/>
<text text-anchor="start" x="3" y="-49.7" font-family="Times,serif" font-size="14.00"> CALL </text>
<polygon fill="none" stroke="black" points="48,-44 48,-66 97,-66 97,-44 48,-44"/>
<text text-anchor="start" x="55.25" y="-49.7" font-family="Times,serif" font-size="14.00"> REG </text>
<polygon fill="none" stroke="black" points="97,-44 97,-66 146,-66 146,-44 97,-44"/>
<text text-anchor="start" x="99.75" y="-49.7" font-family="Times,serif" font-size="14.00"> FUNC </text>
<polygon fill="none" stroke="black" points="146,-44 146,-66 186,-66 186,-44 146,-44"/>
<text text-anchor="start" x="148.75" y="-49.7" font-family="Times,serif" font-size="14.00"> REG </text>
<polygon fill="none" stroke="black" points="0,-22 0,-44 48,-44 48,-22 0,-22"/>
<text text-anchor="start" x="3" y="-27.7" font-family="Times,serif" font-size="14.00"> CALL </text>
<polygon fill="none" stroke="black" points="48,-22 48,-44 97,-44 97,-22 48,-22"/>
<text text-anchor="start" x="50.75" y="-27.7" font-family="Times,serif" font-size="14.00"> FUNC </text>
<polygon fill="none" stroke="black" points="0,0 0,-22 48,-22 48,0 0,0"/>
<text text-anchor="start" x="3" y="-5.7" font-family="Times,serif" font-size="14.00"> CALL </text>
<polygon fill="none" stroke="black" points="48,0 48,-22 97,-22 97,0 48,0"/>
<text text-anchor="start" x="55.25" y="-5.7" font-family="Times,serif" font-size="14.00"> REG </text>
<polygon fill="none" stroke="black" points="97,0 97,-22 146,-22 146,0 97,0"/>
<text text-anchor="start" x="99.75" y="-5.7" font-family="Times,serif" font-size="14.00"> FUNC </text>
</g>
</g>
</svg>
