<?xml version="1.0" encoding="UTF-8" standalone="no"?>
<!DOCTYPE svg PUBLIC "-//W3C//DTD SVG 1.1//EN"
 "http://www.w3.org/Graphics/SVG/1.1/DTD/svg11.dtd">
<!-- Generated by graphviz version 14.1.4 (20260321.0153)
 -->
<!-- Pages: 1 -->
<svg width="260pt" height="162pt"
 viewBox="0.00 0.00 260.00 162.00" xmlns="http://www.w3.org/2000/svg" xmlns:xlink="http://www.w3.org/1999/xlink">
<g id="graph0" class="graph" transform="scale(1 1) rotate(0) translate(36 126)">
<polygon fill="white" stroke="none" points="-36,36 -36,-126 223.5,-126 223.5,36 -36,36"/>
<!-- Foo -->
<g id="node1" class="node">
<title>Foo</title>
<polygon fill="none" stroke="black" points="0,-67.5 0,-90 48,-90 48,-67.5 0,-67.5"/>
<text xml:space="preserve" text-anchor="start" x="3.75" y="-74.25" font-family="Times,serif" font-size="14.00"> Name </text>
<polygon fill="none" stroke="black" points="48,-67.5 48,-90 97.5,-90 97.5,-67.5 48,-67.5"/>
<text xml:space="preserve" text-anchor="start" x="57" y="-74.25" font-family="Times,serif" font-size="14.00"> OP1 </text>
<polygon fill="none" stroke="black" points="97.5,-67.5 97.5,-90 147,-90 147,-67.5 97.5,-67.5"/>
<text xml:space="preserve" text-anchor="start" x="106.5" y="-74.25" font-family="Times,serif" font-size="14.00"> OP2 </text>
<polygon fill="none" stroke="black" points="147,-67.5 147,-90 187.5,-90 187.5,-67.5 147,-67.5"/>
<text xml:space="preserve" text-anchor="start" x="151.5" y="-74.25" font-family="Times,serif" font-size="14.00"> OP3 </text>
<polygon fill="none" stroke="black" points="0,-45 0,-67.5 48,-67.5 48,-45 0,-45"/>
<text xml:space="preserve" text-anchor="start" x="3" y="-51.75" font-family="Times,serif" font-size="14.00"> CALL </text>
<polygon fill="none" stroke="black" points="48,-45 48,-67.5 97.5,-67.5 97.5,-45 48,-45"/>
<text xml:space="preserve" text-anchor="start" x="55.5" y="-51.75" font-family="Times,serif" font-size="14.00"> REG </text>
<polygon fill="none" stroke="black" points="97.5,-45 97.5,-67.5 147,-67.5 147,-45 97.5,-45"/>
<text xml:space="preserve" text-anchor="start" x="100.5" y="-51.75" font-family="Times,serif" font-size="14.00"> FUNC </text>
<polygon fill="none" stroke="black" points="147,-45 147,-67.5 187.5,-67.5 187.5,-45 147,-45"/>
<text xml:space="preserve" text-anchor="start" x="150" y="-51.75" font-family="Times,serif" font-size="14.00"> REG </text>
<polygon fill="none" stroke="black" points="0,-22.5 0,-45 48,-45 48,-22.5 0,-22.5"/>
<text xml:space="preserve" text-anchor="start" x="3" y="-29.25" font-family="Times,serif" font-size="14.00"> CALL </text>
<polygon fill="none" stroke="black" points="48,-22.5 48,-45 97.5,-45 97.5,-22.5 48,-22.5"/>
<text xml:space="preserve" text-anchor="start" x="51" y="-29.25" font-family="Times,serif" font-size="14.00"> FUNC </text>
<polygon fill="none" stroke="black" points="0,0 0,-22.5 48,-22.5 48,0 0,0"/>
<text xml:space="preserve" text-anchor="start" x="3" y="-6.75" font-family="Times,serif" font-size="14.00"> CALL </text>
<polygon fill="none" stroke="black" points="48,0 48,-22.5 97.5,-22.5 97.5,0 48,0"/>
<text xml:space="preserve" text-anchor="start" x="55.5" y="-6.75" font-family="Times,serif" font-size="14.00"> REG </text>
<polygon fill="none" stroke="black" points="97.5,0 97.5,-22.5 147,-22.5 147,0 97.5,0"/>
<text xml:space="preserve" text-anchor="start" x="100.5" y="-6.75" font-family="Times,serif" font-size="14.00"> FUNC </text>
</g>
</g>
</svg>
