<?xml version="1.0" encoding="UTF-8" standalone="no"?>
<!DOCTYPE svg PUBLIC "-//W3C//DTD SVG 1.1//EN"
 "http://www.w3.org/Graphics/SVG/1.1/DTD/svg11.dtd">
<!-- Generated by graphviz version 7.0.4 (20221203.1631)
 -->
<!-- Pages: 1 -->
<svg width="262pt" height="156pt"
 viewBox="0.00 0.00 262.00 156.00" xmlns="http://www.w3.org/2000/svg" xmlns:xlink="http://www.w3.org/1999/xlink">
<g id="graph0" class="graph" transform="scale(1 1) rotate(0) translate(36 120)">
<polygon fill="white" stroke="none" points="-36,36 -36,-120 226,-120 226,36 -36,36"/>
<!-- Foo -->
<g id="node1" class="node">
<title>Foo</title>
<polygon fill="none" stroke="black" points="0,-63 0,-84 49,-84 49,-63 0,-63"/>
<text text-anchor="start" x="4" y="-69.8" font-family="Times,serif" font-size="14.00"> Name </text>
<polygon fill="none" stroke="black" points="49,-63 49,-84 99,-84 99,-63 49,-63"/>
<text text-anchor="start" x="58" y="-69.8" font-family="Times,serif" font-size="14.00"> OP1 </text>
<polygon fill="none" stroke="black" points="99,-63 99,-84 149,-84 149,-63 99,-63"/>
<text text-anchor="start" x="108" y="-69.8" font-family="Times,serif" font-size="14.00"> OP2 </text>
<polygon fill="none" stroke="black" points="0,-42 0,-63 49,-63 49,-42 0,-42"/>
<text text-anchor="start" x="3" y="-48.8" font-family="Times,serif" font-size="14.00"> CALL </text>
<polygon fill="none" stroke="black" points="49,-42 49,-63 99,-63 99,-42 49,-42"/>
<text text-anchor="start" x="56.5" y="-48.8" font-family="Times,serif" font-size="14.00"> REG </text>
<polygon fill="none" stroke="black" points="99,-42 99,-63 149,-63 149,-42 99,-42"/>
<text text-anchor="start" x="102" y="-48.8" font-family="Times,serif" font-size="14.00"> FUNC </text>
<polygon fill="none" stroke="black" points="149,-42 149,-63 190,-63 190,-42 149,-42"/>
<text text-anchor="start" x="152" y="-48.8" font-family="Times,serif" font-size="14.00"> REG </text>
<polygon fill="none" stroke="black" points="0,-21 0,-42 49,-42 49,-21 0,-21"/>
<text text-anchor="start" x="3" y="-27.8" font-family="Times,serif" font-size="14.00"> CALL </text>
<polygon fill="none" stroke="black" points="49,-21 49,-42 99,-42 99,-21 49,-21"/>
<text text-anchor="start" x="52" y="-27.8" font-family="Times,serif" font-size="14.00"> FUNC </text>
<polygon fill="none" stroke="black" points="0,0 0,-21 49,-21 49,0 0,0"/>
<text text-anchor="start" x="3" y="-6.8" font-family="Times,serif" font-size="14.00"> CALL </text>
<polygon fill="none" stroke="black" points="49,0 49,-21 99,-21 99,0 49,0"/>
<text text-anchor="start" x="56.5" y="-6.8" font-family="Times,serif" font-size="14.00"> REG </text>
<polygon fill="none" stroke="black" points="99,0 99,-21 149,-21 149,0 99,0"/>
<text text-anchor="start" x="102" y="-6.8" font-family="Times,serif" font-size="14.00"> FUNC </text>
</g>
</g>
</svg>
