<?xml version="1.0" encoding="UTF-8" standalone="no"?>
<!DOCTYPE svg PUBLIC "-//W3C//DTD SVG 1.1//EN"
 "http://www.w3.org/Graphics/SVG/1.1/DTD/svg11.dtd">
<!-- Generated by graphviz version 12.1.2 (20240928.0832)
 -->
<!-- Pages: 1 -->
<svg width="280pt" height="116pt"
 viewBox="0.00 0.00 280.00 116.00" xmlns="http://www.w3.org/2000/svg" xmlns:xlink="http://www.w3.org/1999/xlink">
<g id="graph0" class="graph" transform="scale(1 1) rotate(0) translate(36 80)">
<polygon fill="white" stroke="none" points="-36,36 -36,-80 244,-80 244,36 -36,36"/>
<!-- Foo -->
<g id="node1" class="node">
<title>Foo</title>
<polygon fill="none" stroke="black" points="0,-22 0,-44 88,-44 88,-22 0,-22"/>
<text text-anchor="start" x="23.75" y="-27.7" font-family="Times,serif" font-size="14.00"> Name </text>
<polygon fill="none" stroke="black" points="88,-22 88,-44 128,-44 128,-22 88,-22"/>
<text text-anchor="start" x="92.25" y="-27.7" font-family="Times,serif" font-size="14.00"> OP1 </text>
<polygon fill="none" stroke="black" points="128,-22 128,-44 168,-44 168,-22 128,-22"/>
<text text-anchor="start" x="132.25" y="-27.7" font-family="Times,serif" font-size="14.00"> OP2 </text>
<polygon fill="none" stroke="black" points="168,-22 168,-44 208,-44 208,-22 168,-22"/>
<text text-anchor="start" x="172.25" y="-27.7" font-family="Times,serif" font-size="14.00"> OP3 </text>
<polygon fill="none" stroke="black" points="0,0 0,-22 88,-22 88,0 0,0"/>
<text text-anchor="start" x="2.75" y="-5.7" font-family="Times,serif" font-size="14.00"> CONCCHAR </text>
<polygon fill="none" stroke="black" points="88,0 88,-22 128,-22 128,0 88,0"/>
<text text-anchor="start" x="90.75" y="-5.7" font-family="Times,serif" font-size="14.00"> REG </text>
<polygon fill="none" stroke="black" points="128,0 128,-22 168,-22 168,0 128,0"/>
<text text-anchor="start" x="130.75" y="-5.7" font-family="Times,serif" font-size="14.00"> REG </text>
<polygon fill="none" stroke="black" points="168,0 168,-22 208,-22 208,0 168,0"/>
<text text-anchor="start" x="170.75" y="-5.7" font-family="Times,serif" font-size="14.00"> REG </text>
</g>
</g>
</svg>
