<?xml version="1.0" encoding="UTF-8" standalone="no"?>
<!DOCTYPE svg PUBLIC "-//W3C//DTD SVG 1.1//EN"
 "http://www.w3.org/Graphics/SVG/1.1/DTD/svg11.dtd">
<!-- Generated by graphviz version 12.2.1 (20241206.2353)
 -->
<!-- Pages: 1 -->
<svg width="304pt" height="162pt"
 viewBox="0.00 0.00 303.75 162.00" xmlns="http://www.w3.org/2000/svg" xmlns:xlink="http://www.w3.org/1999/xlink">
<g id="graph0" class="graph" transform="scale(1 1) rotate(0) translate(36 126)">
<polygon fill="white" stroke="none" points="-36,36 -36,-126 267.75,-126 267.75,36 -36,36"/>
<!-- Foo -->
<g id="node1" class="node">
<title>Foo</title>
<polygon fill="none" stroke="black" points="0,-67.5 0,-90 66.75,-90 66.75,-67.5 0,-67.5"/>
<text text-anchor="start" x="13.12" y="-73.7" font-family="Times,serif" font-size="14.00"> Name </text>
<polygon fill="none" stroke="black" points="66.75,-67.5 66.75,-90 107.25,-90 107.25,-67.5 66.75,-67.5"/>
<text text-anchor="start" x="71.25" y="-73.7" font-family="Times,serif" font-size="14.00"> OP1 </text>
<polygon fill="none" stroke="black" points="107.25,-67.5 107.25,-90 169.5,-90 169.5,-67.5 107.25,-67.5"/>
<text text-anchor="start" x="122.62" y="-73.7" font-family="Times,serif" font-size="14.00"> OP2 </text>
<polygon fill="none" stroke="black" points="169.5,-67.5 169.5,-90 231.75,-90 231.75,-67.5 169.5,-67.5"/>
<text text-anchor="start" x="184.88" y="-73.7" font-family="Times,serif" font-size="14.00"> OP3 </text>
<polygon fill="none" stroke="black" points="0,-45 0,-67.5 66.75,-67.5 66.75,-45 0,-45"/>
<text text-anchor="start" x="3" y="-51.2" font-family="Times,serif" font-size="14.00"> CONCAT </text>
<polygon fill="none" stroke="black" points="66.75,-45 66.75,-67.5 107.25,-67.5 107.25,-45 66.75,-45"/>
<text text-anchor="start" x="69.75" y="-51.2" font-family="Times,serif" font-size="14.00"> REG </text>
<polygon fill="none" stroke="black" points="107.25,-45 107.25,-67.5 169.5,-67.5 169.5,-45 107.25,-45"/>
<text text-anchor="start" x="121.12" y="-51.2" font-family="Times,serif" font-size="14.00"> REG </text>
<polygon fill="none" stroke="black" points="169.5,-45 169.5,-67.5 231.75,-67.5 231.75,-45 169.5,-45"/>
<text text-anchor="start" x="183.38" y="-51.2" font-family="Times,serif" font-size="14.00"> REG </text>
<polygon fill="none" stroke="black" points="0,-22.5 0,-45 66.75,-45 66.75,-22.5 0,-22.5"/>
<text text-anchor="start" x="3" y="-28.7" font-family="Times,serif" font-size="14.00"> CONCAT </text>
<polygon fill="none" stroke="black" points="66.75,-22.5 66.75,-45 107.25,-45 107.25,-22.5 66.75,-22.5"/>
<text text-anchor="start" x="69.75" y="-28.7" font-family="Times,serif" font-size="14.00"> REG </text>
<polygon fill="none" stroke="black" points="107.25,-22.5 107.25,-45 169.5,-45 169.5,-22.5 107.25,-22.5"/>
<text text-anchor="start" x="121.12" y="-28.7" font-family="Times,serif" font-size="14.00"> REG </text>
<polygon fill="none" stroke="black" points="169.5,-22.5 169.5,-45 231.75,-45 231.75,-22.5 169.5,-22.5"/>
<text text-anchor="start" x="172.5" y="-28.7" font-family="Times,serif" font-size="14.00"> STRING </text>
<polygon fill="none" stroke="black" points="0,0 0,-22.5 66.75,-22.5 66.75,0 0,0"/>
<text text-anchor="start" x="3" y="-6.2" font-family="Times,serif" font-size="14.00"> CONCAT </text>
<polygon fill="none" stroke="black" points="66.75,0 66.75,-22.5 107.25,-22.5 107.25,0 66.75,0"/>
<text text-anchor="start" x="69.75" y="-6.2" font-family="Times,serif" font-size="14.00"> REG </text>
<polygon fill="none" stroke="black" points="107.25,0 107.25,-22.5 169.5,-22.5 169.5,0 107.25,0"/>
<text text-anchor="start" x="110.25" y="-6.2" font-family="Times,serif" font-size="14.00"> STRING </text>
<polygon fill="none" stroke="black" points="169.5,0 169.5,-22.5 231.75,-22.5 231.75,0 169.5,0"/>
<text text-anchor="start" x="183.38" y="-6.2" font-family="Times,serif" font-size="14.00"> REG </text>
</g>
</g>
</svg>
