<?xml version="1.0" encoding="UTF-8" standalone="no"?>
<!DOCTYPE svg PUBLIC "-//W3C//DTD SVG 1.1//EN"
 "http://www.w3.org/Graphics/SVG/1.1/DTD/svg11.dtd">
<!-- Generated by graphviz version 7.0.4 (20221203.1631)
 -->
<!-- Pages: 1 -->
<svg width="362pt" height="156pt"
 viewBox="0.00 0.00 362.00 156.00" xmlns="http://www.w3.org/2000/svg" xmlns:xlink="http://www.w3.org/1999/xlink">
<g id="graph0" class="graph" transform="scale(1 1) rotate(0) translate(36 120)">
<polygon fill="white" stroke="none" points="-36,36 -36,-120 326,-120 326,36 -36,36"/>
<!-- Foo -->
<g id="node1" class="node">
<title>Foo</title>
<polygon fill="none" stroke="black" points="0,-63 0,-84 56,-84 56,-63 0,-63"/>
<text text-anchor="start" x="3" y="-69.8" font-family="Times,serif" font-size="14.00"> Opcode </text>
<polygon fill="none" stroke="black" points="56,-63 56,-84 123,-84 123,-63 56,-63"/>
<text text-anchor="start" x="69" y="-69.8" font-family="Times,serif" font-size="14.00"> Name </text>
<polygon fill="none" stroke="black" points="123,-63 123,-84 164,-84 164,-63 123,-63"/>
<text text-anchor="start" x="127.5" y="-69.8" font-family="Times,serif" font-size="14.00"> OP1 </text>
<polygon fill="none" stroke="black" points="164,-63 164,-84 227,-84 227,-63 164,-63"/>
<text text-anchor="start" x="179.5" y="-69.8" font-family="Times,serif" font-size="14.00"> OP2 </text>
<polygon fill="none" stroke="black" points="227,-63 227,-84 290,-84 290,-63 227,-63"/>
<text text-anchor="start" x="242.5" y="-69.8" font-family="Times,serif" font-size="14.00"> OP3 </text>
<polygon fill="none" stroke="black" points="0,-42 0,-63 56,-63 56,-42 0,-42"/>
<text text-anchor="start" x="5" y="-48.8" font-family="Times,serif" font-size="14.00"> 0x004f </text>
<polygon fill="none" stroke="black" points="56,-42 56,-63 123,-63 123,-42 56,-42"/>
<text text-anchor="start" x="59" y="-48.8" font-family="Times,serif" font-size="14.00"> CONCAT </text>
<polygon fill="none" stroke="black" points="123,-42 123,-63 164,-63 164,-42 123,-42"/>
<text text-anchor="start" x="126" y="-48.8" font-family="Times,serif" font-size="14.00"> REG </text>
<polygon fill="none" stroke="black" points="164,-42 164,-63 227,-63 227,-42 164,-42"/>
<text text-anchor="start" x="178" y="-48.8" font-family="Times,serif" font-size="14.00"> REG </text>
<polygon fill="none" stroke="black" points="227,-42 227,-63 290,-63 290,-42 227,-42"/>
<text text-anchor="start" x="241" y="-48.8" font-family="Times,serif" font-size="14.00"> REG </text>
<polygon fill="none" stroke="black" points="0,-21 0,-42 56,-42 56,-21 0,-21"/>
<text text-anchor="start" x="3.5" y="-27.8" font-family="Times,serif" font-size="14.00"> 0x0050 </text>
<polygon fill="none" stroke="black" points="56,-21 56,-42 123,-42 123,-21 56,-21"/>
<text text-anchor="start" x="59" y="-27.8" font-family="Times,serif" font-size="14.00"> CONCAT </text>
<polygon fill="none" stroke="black" points="123,-21 123,-42 164,-42 164,-21 123,-21"/>
<text text-anchor="start" x="126" y="-27.8" font-family="Times,serif" font-size="14.00"> REG </text>
<polygon fill="none" stroke="black" points="164,-21 164,-42 227,-42 227,-21 164,-21"/>
<text text-anchor="start" x="178" y="-27.8" font-family="Times,serif" font-size="14.00"> REG </text>
<polygon fill="none" stroke="black" points="227,-21 227,-42 290,-42 290,-21 227,-21"/>
<text text-anchor="start" x="230" y="-27.8" font-family="Times,serif" font-size="14.00"> STRING </text>
<polygon fill="none" stroke="black" points="0,0 0,-21 56,-21 56,0 0,0"/>
<text text-anchor="start" x="3.5" y="-6.8" font-family="Times,serif" font-size="14.00"> 0x0051 </text>
<polygon fill="none" stroke="black" points="56,0 56,-21 123,-21 123,0 56,0"/>
<text text-anchor="start" x="59" y="-6.8" font-family="Times,serif" font-size="14.00"> CONCAT </text>
<polygon fill="none" stroke="black" points="123,0 123,-21 164,-21 164,0 123,0"/>
<text text-anchor="start" x="126" y="-6.8" font-family="Times,serif" font-size="14.00"> REG </text>
<polygon fill="none" stroke="black" points="164,0 164,-21 227,-21 227,0 164,0"/>
<text text-anchor="start" x="167" y="-6.8" font-family="Times,serif" font-size="14.00"> STRING </text>
<polygon fill="none" stroke="black" points="227,0 227,-21 290,-21 290,0 227,0"/>
<text text-anchor="start" x="241" y="-6.8" font-family="Times,serif" font-size="14.00"> REG </text>
</g>
</g>
</svg>
