<?xml version="1.0" encoding="UTF-8" standalone="no"?>
<!DOCTYPE svg PUBLIC "-//W3C//DTD SVG 1.1//EN"
 "http://www.w3.org/Graphics/SVG/1.1/DTD/svg11.dtd">
<!-- Generated by graphviz version 7.0.4 (20221203.1631)
 -->
<!-- Pages: 1 -->
<svg width="306pt" height="156pt"
 viewBox="0.00 0.00 306.00 156.00" xmlns="http://www.w3.org/2000/svg" xmlns:xlink="http://www.w3.org/1999/xlink">
<g id="graph0" class="graph" transform="scale(1 1) rotate(0) translate(36 120)">
<polygon fill="white" stroke="none" points="-36,36 -36,-120 270,-120 270,36 -36,36"/>
<!-- Foo -->
<g id="node1" class="node">
<title>Foo</title>
<polygon fill="none" stroke="black" points="0,-63 0,-84 67,-84 67,-63 0,-63"/>
<text text-anchor="start" x="13" y="-69.8" font-family="Times,serif" font-size="14.00"> Name </text>
<polygon fill="none" stroke="black" points="67,-63 67,-84 108,-84 108,-63 67,-63"/>
<text text-anchor="start" x="71.5" y="-69.8" font-family="Times,serif" font-size="14.00"> OP1 </text>
<polygon fill="none" stroke="black" points="108,-63 108,-84 171,-84 171,-63 108,-63"/>
<text text-anchor="start" x="123.5" y="-69.8" font-family="Times,serif" font-size="14.00"> OP2 </text>
<polygon fill="none" stroke="black" points="171,-63 171,-84 234,-84 234,-63 171,-63"/>
<text text-anchor="start" x="186.5" y="-69.8" font-family="Times,serif" font-size="14.00"> OP3 </text>
<polygon fill="none" stroke="black" points="0,-42 0,-63 67,-63 67,-42 0,-42"/>
<text text-anchor="start" x="3" y="-48.8" font-family="Times,serif" font-size="14.00"> CONCAT </text>
<polygon fill="none" stroke="black" points="67,-42 67,-63 108,-63 108,-42 67,-42"/>
<text text-anchor="start" x="70" y="-48.8" font-family="Times,serif" font-size="14.00"> REG </text>
<polygon fill="none" stroke="black" points="108,-42 108,-63 171,-63 171,-42 108,-42"/>
<text text-anchor="start" x="122" y="-48.8" font-family="Times,serif" font-size="14.00"> REG </text>
<polygon fill="none" stroke="black" points="171,-42 171,-63 234,-63 234,-42 171,-42"/>
<text text-anchor="start" x="185" y="-48.8" font-family="Times,serif" font-size="14.00"> REG </text>
<polygon fill="none" stroke="black" points="0,-21 0,-42 67,-42 67,-21 0,-21"/>
<text text-anchor="start" x="3" y="-27.8" font-family="Times,serif" font-size="14.00"> CONCAT </text>
<polygon fill="none" stroke="black" points="67,-21 67,-42 108,-42 108,-21 67,-21"/>
<text text-anchor="start" x="70" y="-27.8" font-family="Times,serif" font-size="14.00"> REG </text>
<polygon fill="none" stroke="black" points="108,-21 108,-42 171,-42 171,-21 108,-21"/>
<text text-anchor="start" x="122" y="-27.8" font-family="Times,serif" font-size="14.00"> REG </text>
<polygon fill="none" stroke="black" points="171,-21 171,-42 234,-42 234,-21 171,-21"/>
<text text-anchor="start" x="174" y="-27.8" font-family="Times,serif" font-size="14.00"> STRING </text>
<polygon fill="none" stroke="black" points="0,0 0,-21 67,-21 67,0 0,0"/>
<text text-anchor="start" x="3" y="-6.8" font-family="Times,serif" font-size="14.00"> CONCAT </text>
<polygon fill="none" stroke="black" points="67,0 67,-21 108,-21 108,0 67,0"/>
<text text-anchor="start" x="70" y="-6.8" font-family="Times,serif" font-size="14.00"> REG </text>
<polygon fill="none" stroke="black" points="108,0 108,-21 171,-21 171,0 108,0"/>
<text text-anchor="start" x="111" y="-6.8" font-family="Times,serif" font-size="14.00"> STRING </text>
<polygon fill="none" stroke="black" points="171,0 171,-21 234,-21 234,0 171,0"/>
<text text-anchor="start" x="185" y="-6.8" font-family="Times,serif" font-size="14.00"> REG </text>
</g>
</g>
</svg>
