<?xml version="1.0" encoding="UTF-8" standalone="no"?>
<!DOCTYPE svg PUBLIC "-//W3C//DTD SVG 1.1//EN"
 "http://www.w3.org/Graphics/SVG/1.1/DTD/svg11.dtd">
<!-- Generated by graphviz version 12.1.2 (20240928.0832)
 -->
<!-- Pages: 1 -->
<svg width="302pt" height="160pt"
 viewBox="0.00 0.00 302.00 160.00" xmlns="http://www.w3.org/2000/svg" xmlns:xlink="http://www.w3.org/1999/xlink">
<g id="graph0" class="graph" transform="scale(1 1) rotate(0) translate(36 124)">
<polygon fill="white" stroke="none" points="-36,36 -36,-124 266,-124 266,36 -36,36"/>
<!-- Foo -->
<g id="node1" class="node">
<title>Foo</title>
<polygon fill="none" stroke="black" points="0,-66 0,-88 66,-88 66,-66 0,-66"/>
<text text-anchor="start" x="12.75" y="-71.7" font-family="Times,serif" font-size="14.00"> Name </text>
<polygon fill="none" stroke="black" points="66,-66 66,-88 106,-88 106,-66 66,-66"/>
<text text-anchor="start" x="70.25" y="-71.7" font-family="Times,serif" font-size="14.00"> OP1 </text>
<polygon fill="none" stroke="black" points="106,-66 106,-88 168,-88 168,-66 106,-66"/>
<text text-anchor="start" x="121.25" y="-71.7" font-family="Times,serif" font-size="14.00"> OP2 </text>
<polygon fill="none" stroke="black" points="168,-66 168,-88 230,-88 230,-66 168,-66"/>
<text text-anchor="start" x="183.25" y="-71.7" font-family="Times,serif" font-size="14.00"> OP3 </text>
<polygon fill="none" stroke="black" points="0,-44 0,-66 66,-66 66,-44 0,-44"/>
<text text-anchor="start" x="2.62" y="-49.7" font-family="Times,serif" font-size="14.00"> CONCAT </text>
<polygon fill="none" stroke="black" points="66,-44 66,-66 106,-66 106,-44 66,-44"/>
<text text-anchor="start" x="68.75" y="-49.7" font-family="Times,serif" font-size="14.00"> REG </text>
<polygon fill="none" stroke="black" points="106,-44 106,-66 168,-66 168,-44 106,-44"/>
<text text-anchor="start" x="119.75" y="-49.7" font-family="Times,serif" font-size="14.00"> REG </text>
<polygon fill="none" stroke="black" points="168,-44 168,-66 230,-66 230,-44 168,-44"/>
<text text-anchor="start" x="181.75" y="-49.7" font-family="Times,serif" font-size="14.00"> REG </text>
<polygon fill="none" stroke="black" points="0,-22 0,-44 66,-44 66,-22 0,-22"/>
<text text-anchor="start" x="2.62" y="-27.7" font-family="Times,serif" font-size="14.00"> CONCAT </text>
<polygon fill="none" stroke="black" points="66,-22 66,-44 106,-44 106,-22 66,-22"/>
<text text-anchor="start" x="68.75" y="-27.7" font-family="Times,serif" font-size="14.00"> REG </text>
<polygon fill="none" stroke="black" points="106,-22 106,-44 168,-44 168,-22 106,-22"/>
<text text-anchor="start" x="119.75" y="-27.7" font-family="Times,serif" font-size="14.00"> REG </text>
<polygon fill="none" stroke="black" points="168,-22 168,-44 230,-44 230,-22 168,-22"/>
<text text-anchor="start" x="170.88" y="-27.7" font-family="Times,serif" font-size="14.00"> STRING </text>
<polygon fill="none" stroke="black" points="0,0 0,-22 66,-22 66,0 0,0"/>
<text text-anchor="start" x="2.62" y="-5.7" font-family="Times,serif" font-size="14.00"> CONCAT </text>
<polygon fill="none" stroke="black" points="66,0 66,-22 106,-22 106,0 66,0"/>
<text text-anchor="start" x="68.75" y="-5.7" font-family="Times,serif" font-size="14.00"> REG </text>
<polygon fill="none" stroke="black" points="106,0 106,-22 168,-22 168,0 106,0"/>
<text text-anchor="start" x="108.88" y="-5.7" font-family="Times,serif" font-size="14.00"> STRING </text>
<polygon fill="none" stroke="black" points="168,0 168,-22 230,-22 230,0 168,0"/>
<text text-anchor="start" x="181.75" y="-5.7" font-family="Times,serif" font-size="14.00"> REG </text>
</g>
</g>
</svg>
