<?xml version="1.0" encoding="UTF-8" standalone="no"?>
<!DOCTYPE svg PUBLIC "-//W3C//DTD SVG 1.1//EN"
 "http://www.w3.org/Graphics/SVG/1.1/DTD/svg11.dtd">
<!-- Generated by graphviz version 7.0.4 (20221203.1631)
 -->
<!-- Pages: 1 -->
<svg width="284pt" height="114pt"
 viewBox="0.00 0.00 284.00 114.00" xmlns="http://www.w3.org/2000/svg" xmlns:xlink="http://www.w3.org/1999/xlink">
<g id="graph0" class="graph" transform="scale(1 1) rotate(0) translate(36 78)">
<polygon fill="white" stroke="none" points="-36,36 -36,-78 248,-78 248,36 -36,36"/>
<!-- Foo -->
<g id="node1" class="node">
<title>Foo</title>
<polygon fill="none" stroke="black" points="0,-21 0,-42 89,-42 89,-21 0,-21"/>
<text text-anchor="start" x="24" y="-27.8" font-family="Times,serif" font-size="14.00"> Name </text>
<polygon fill="none" stroke="black" points="89,-21 89,-42 130,-42 130,-21 89,-21"/>
<text text-anchor="start" x="93.5" y="-27.8" font-family="Times,serif" font-size="14.00"> OP1 </text>
<polygon fill="none" stroke="black" points="130,-21 130,-42 171,-42 171,-21 130,-21"/>
<text text-anchor="start" x="134.5" y="-27.8" font-family="Times,serif" font-size="14.00"> OP2 </text>
<polygon fill="none" stroke="black" points="171,-21 171,-42 212,-42 212,-21 171,-21"/>
<text text-anchor="start" x="175.5" y="-27.8" font-family="Times,serif" font-size="14.00"> OP3 </text>
<polygon fill="none" stroke="black" points="0,0 0,-21 89,-21 89,0 0,0"/>
<text text-anchor="start" x="3" y="-6.8" font-family="Times,serif" font-size="14.00"> CONCCHAR </text>
<polygon fill="none" stroke="black" points="89,0 89,-21 130,-21 130,0 89,0"/>
<text text-anchor="start" x="92" y="-6.8" font-family="Times,serif" font-size="14.00"> REG </text>
<polygon fill="none" stroke="black" points="130,0 130,-21 171,-21 171,0 130,0"/>
<text text-anchor="start" x="133" y="-6.8" font-family="Times,serif" font-size="14.00"> REG </text>
<polygon fill="none" stroke="black" points="171,0 171,-21 212,-21 212,0 171,0"/>
<text text-anchor="start" x="174" y="-6.8" font-family="Times,serif" font-size="14.00"> REG </text>
</g>
</g>
</svg>
