<?xml version="1.0" encoding="UTF-8" standalone="no"?>
<!DOCTYPE svg PUBLIC "-//W3C//DTD SVG 1.1//EN"
 "http://www.w3.org/Graphics/SVG/1.1/DTD/svg11.dtd">
<!-- Generated by graphviz version 12.2.1 (20241206.2353)
 -->
<!-- Pages: 1 -->
<svg width="202pt" height="117pt"
 viewBox="0.00 0.00 201.75 117.00" xmlns="http://www.w3.org/2000/svg" xmlns:xlink="http://www.w3.org/1999/xlink">
<g id="graph0" class="graph" transform="scale(1 1) rotate(0) translate(36 81)">
<polygon fill="white" stroke="none" points="-36,36 -36,-81 165.75,-81 165.75,36 -36,36"/>
<!-- Foo -->
<g id="node1" class="node">
<title>Foo</title>
<polygon fill="none" stroke="black" points="0,-22.5 0,-45 48.75,-45 48.75,-22.5 0,-22.5"/>
<text text-anchor="start" x="4.12" y="-28.7" font-family="Times,serif" font-size="14.00"> Name </text>
<polygon fill="none" stroke="black" points="48.75,-22.5 48.75,-45 89.25,-45 89.25,-22.5 48.75,-22.5"/>
<text text-anchor="start" x="53.25" y="-28.7" font-family="Times,serif" font-size="14.00"> OP1 </text>
<polygon fill="none" stroke="black" points="89.25,-22.5 89.25,-45 129.75,-45 129.75,-22.5 89.25,-22.5"/>
<text text-anchor="start" x="93.75" y="-28.7" font-family="Times,serif" font-size="14.00"> OP2 </text>
<polygon fill="none" stroke="black" points="0,0 0,-22.5 48.75,-22.5 48.75,0 0,0"/>
<text text-anchor="start" x="3" y="-6.2" font-family="Times,serif" font-size="14.00"> COPY </text>
<polygon fill="none" stroke="black" points="48.75,0 48.75,-22.5 89.25,-22.5 89.25,0 48.75,0"/>
<text text-anchor="start" x="51.75" y="-6.2" font-family="Times,serif" font-size="14.00"> REG </text>
<polygon fill="none" stroke="black" points="89.25,0 89.25,-22.5 129.75,-22.5 129.75,0 89.25,0"/>
<text text-anchor="start" x="92.25" y="-6.2" font-family="Times,serif" font-size="14.00"> REG </text>
</g>
</g>
</svg>
