<?xml version="1.0" encoding="UTF-8" standalone="no"?>
<!DOCTYPE svg PUBLIC "-//W3C//DTD SVG 1.1//EN"
 "http://www.w3.org/Graphics/SVG/1.1/DTD/svg11.dtd">
<!-- Generated by graphviz version 12.1.2 (20240928.0832)
 -->
<!-- Pages: 1 -->
<svg width="249pt" height="116pt"
 viewBox="0.00 0.00 249.00 116.00" xmlns="http://www.w3.org/2000/svg" xmlns:xlink="http://www.w3.org/1999/xlink">
<g id="graph0" class="graph" transform="scale(1 1) rotate(0) translate(36 80)">
<polygon fill="white" stroke="none" points="-36,36 -36,-80 213,-80 213,36 -36,36"/>
<!-- Foo -->
<g id="node1" class="node">
<title>Foo</title>
<polygon fill="none" stroke="black" points="0,-22 0,-44 57,-44 57,-22 0,-22"/>
<text text-anchor="start" x="8.25" y="-27.7" font-family="Times,serif" font-size="14.00"> Name </text>
<polygon fill="none" stroke="black" points="57,-22 57,-44 97,-44 97,-22 57,-22"/>
<text text-anchor="start" x="61.25" y="-27.7" font-family="Times,serif" font-size="14.00"> OP1 </text>
<polygon fill="none" stroke="black" points="97,-22 97,-44 137,-44 137,-22 97,-22"/>
<text text-anchor="start" x="101.25" y="-27.7" font-family="Times,serif" font-size="14.00"> OP2 </text>
<polygon fill="none" stroke="black" points="137,-22 137,-44 177,-44 177,-22 137,-22"/>
<text text-anchor="start" x="141.25" y="-27.7" font-family="Times,serif" font-size="14.00"> OP3 </text>
<polygon fill="none" stroke="black" points="0,0 0,-22 57,-22 57,0 0,0"/>
<text text-anchor="start" x="2.62" y="-5.7" font-family="Times,serif" font-size="14.00"> DCALL </text>
<polygon fill="none" stroke="black" points="57,0 57,-22 97,-22 97,0 57,0"/>
<text text-anchor="start" x="59.75" y="-5.7" font-family="Times,serif" font-size="14.00"> REG </text>
<polygon fill="none" stroke="black" points="97,0 97,-22 137,-22 137,0 97,0"/>
<text text-anchor="start" x="99.75" y="-5.7" font-family="Times,serif" font-size="14.00"> REG </text>
<polygon fill="none" stroke="black" points="137,0 137,-22 177,-22 177,0 137,0"/>
<text text-anchor="start" x="139.75" y="-5.7" font-family="Times,serif" font-size="14.00"> REG </text>
</g>
</g>
</svg>
