<?xml version="1.0" encoding="UTF-8" standalone="no"?>
<!DOCTYPE svg PUBLIC "-//W3C//DTD SVG 1.1//EN"
 "http://www.w3.org/Graphics/SVG/1.1/DTD/svg11.dtd">
<!-- Generated by graphviz version 7.0.4 (20221203.1631)
 -->
<!-- Pages: 1 -->
<svg width="253pt" height="114pt"
 viewBox="0.00 0.00 253.00 114.00" xmlns="http://www.w3.org/2000/svg" xmlns:xlink="http://www.w3.org/1999/xlink">
<g id="graph0" class="graph" transform="scale(1 1) rotate(0) translate(36 78)">
<polygon fill="white" stroke="none" points="-36,36 -36,-78 217,-78 217,36 -36,36"/>
<!-- Foo -->
<g id="node1" class="node">
<title>Foo</title>
<polygon fill="none" stroke="black" points="0.5,-21 0.5,-42 58.5,-42 58.5,-21 0.5,-21"/>
<text text-anchor="start" x="9" y="-27.8" font-family="Times,serif" font-size="14.00"> Name </text>
<polygon fill="none" stroke="black" points="58.5,-21 58.5,-42 99.5,-42 99.5,-21 58.5,-21"/>
<text text-anchor="start" x="63" y="-27.8" font-family="Times,serif" font-size="14.00"> OP1 </text>
<polygon fill="none" stroke="black" points="99.5,-21 99.5,-42 140.5,-42 140.5,-21 99.5,-21"/>
<text text-anchor="start" x="104" y="-27.8" font-family="Times,serif" font-size="14.00"> OP2 </text>
<polygon fill="none" stroke="black" points="140.5,-21 140.5,-42 181.5,-42 181.5,-21 140.5,-21"/>
<text text-anchor="start" x="145" y="-27.8" font-family="Times,serif" font-size="14.00"> OP3 </text>
<polygon fill="none" stroke="black" points="0.5,0 0.5,-21 58.5,-21 58.5,0 0.5,0"/>
<text text-anchor="start" x="3.5" y="-6.8" font-family="Times,serif" font-size="14.00"> DCALL </text>
<polygon fill="none" stroke="black" points="58.5,0 58.5,-21 99.5,-21 99.5,0 58.5,0"/>
<text text-anchor="start" x="61.5" y="-6.8" font-family="Times,serif" font-size="14.00"> REG </text>
<polygon fill="none" stroke="black" points="99.5,0 99.5,-21 140.5,-21 140.5,0 99.5,0"/>
<text text-anchor="start" x="102.5" y="-6.8" font-family="Times,serif" font-size="14.00"> REG </text>
<polygon fill="none" stroke="black" points="140.5,0 140.5,-21 181.5,-21 181.5,0 140.5,0"/>
<text text-anchor="start" x="143.5" y="-6.8" font-family="Times,serif" font-size="14.00"> REG </text>
</g>
</g>
</svg>
