<?xml version="1.0" encoding="UTF-8" standalone="no"?>
<!DOCTYPE svg PUBLIC "-//W3C//DTD SVG 1.1//EN"
 "http://www.w3.org/Graphics/SVG/1.1/DTD/svg11.dtd">
<!-- Generated by graphviz version 12.2.1 (20241206.2353)
 -->
<!-- Pages: 1 -->
<svg width="212pt" height="117pt"
 viewBox="0.00 0.00 211.50 117.00" xmlns="http://www.w3.org/2000/svg" xmlns:xlink="http://www.w3.org/1999/xlink">
<g id="graph0" class="graph" transform="scale(1 1) rotate(0) translate(36 81)">
<polygon fill="white" stroke="none" points="-36,36 -36,-81 175.5,-81 175.5,36 -36,36"/>
<!-- Foo -->
<g id="node1" class="node">
<title>Foo</title>
<polygon fill="none" stroke="black" points="0,-22.5 0,-45 58.5,-45 58.5,-22.5 0,-22.5"/>
<text text-anchor="start" x="9" y="-28.7" font-family="Times,serif" font-size="14.00"> Name </text>
<polygon fill="none" stroke="black" points="58.5,-22.5 58.5,-45 99,-45 99,-22.5 58.5,-22.5"/>
<text text-anchor="start" x="63" y="-28.7" font-family="Times,serif" font-size="14.00"> OP1 </text>
<polygon fill="none" stroke="black" points="99,-22.5 99,-45 139.5,-45 139.5,-22.5 99,-22.5"/>
<text text-anchor="start" x="103.5" y="-28.7" font-family="Times,serif" font-size="14.00"> OP2 </text>
<polygon fill="none" stroke="black" points="0,0 0,-22.5 58.5,-22.5 58.5,0 0,0"/>
<text text-anchor="start" x="3" y="-6.2" font-family="Times,serif" font-size="14.00"> DCOPY </text>
<polygon fill="none" stroke="black" points="58.5,0 58.5,-22.5 99,-22.5 99,0 58.5,0"/>
<text text-anchor="start" x="61.5" y="-6.2" font-family="Times,serif" font-size="14.00"> REG </text>
<polygon fill="none" stroke="black" points="99,0 99,-22.5 139.5,-22.5 139.5,0 99,0"/>
<text text-anchor="start" x="102" y="-6.2" font-family="Times,serif" font-size="14.00"> REG </text>
</g>
</g>
</svg>
