<?xml version="1.0" encoding="UTF-8" standalone="no"?>
<!DOCTYPE svg PUBLIC "-//W3C//DTD SVG 1.1//EN"
 "http://www.w3.org/Graphics/SVG/1.1/DTD/svg11.dtd">
<!-- Generated by graphviz version 12.2.1 (20241206.2353)
 -->
<!-- Pages: 1 -->
<svg width="272pt" height="117pt"
 viewBox="0.00 0.00 272.25 117.00" xmlns="http://www.w3.org/2000/svg" xmlns:xlink="http://www.w3.org/1999/xlink">
<g id="graph0" class="graph" transform="scale(1 1) rotate(0) translate(36 81)">
<polygon fill="white" stroke="none" points="-36,36 -36,-81 236.25,-81 236.25,36 -36,36"/>
<!-- Foo -->
<g id="node1" class="node">
<title>Foo</title>
<polygon fill="none" stroke="black" points="0,-22.5 0,-45 78.75,-45 78.75,-22.5 0,-22.5"/>
<text text-anchor="start" x="19.12" y="-28.7" font-family="Times,serif" font-size="14.00"> Name </text>
<polygon fill="none" stroke="black" points="78.75,-22.5 78.75,-45 119.25,-45 119.25,-22.5 78.75,-22.5"/>
<text text-anchor="start" x="83.25" y="-28.7" font-family="Times,serif" font-size="14.00"> OP1 </text>
<polygon fill="none" stroke="black" points="119.25,-22.5 119.25,-45 159.75,-45 159.75,-22.5 119.25,-22.5"/>
<text text-anchor="start" x="123.75" y="-28.7" font-family="Times,serif" font-size="14.00"> OP2 </text>
<polygon fill="none" stroke="black" points="159.75,-22.5 159.75,-45 200.25,-45 200.25,-22.5 159.75,-22.5"/>
<text text-anchor="start" x="164.25" y="-28.7" font-family="Times,serif" font-size="14.00"> OP3 </text>
<polygon fill="none" stroke="black" points="0,0 0,-22.5 78.75,-22.5 78.75,0 0,0"/>
<text text-anchor="start" x="3" y="-6.2" font-family="Times,serif" font-size="14.00"> DECPLNM </text>
<polygon fill="none" stroke="black" points="78.75,0 78.75,-22.5 119.25,-22.5 119.25,0 78.75,0"/>
<text text-anchor="start" x="81.75" y="-6.2" font-family="Times,serif" font-size="14.00"> REG </text>
<polygon fill="none" stroke="black" points="119.25,0 119.25,-22.5 159.75,-22.5 159.75,0 119.25,0"/>
<text text-anchor="start" x="122.25" y="-6.2" font-family="Times,serif" font-size="14.00"> REG </text>
<polygon fill="none" stroke="black" points="159.75,0 159.75,-22.5 200.25,-22.5 200.25,0 159.75,0"/>
<text text-anchor="start" x="162.75" y="-6.2" font-family="Times,serif" font-size="14.00"> REG </text>
</g>
</g>
</svg>
