<?xml version="1.0" encoding="UTF-8" standalone="no"?>
<!DOCTYPE svg PUBLIC "-//W3C//DTD SVG 1.1//EN"
 "http://www.w3.org/Graphics/SVG/1.1/DTD/svg11.dtd">
<!-- Generated by graphviz version 12.1.2 (20240928.0832)
 -->
<!-- Pages: 1 -->
<svg width="248pt" height="116pt"
 viewBox="0.00 0.00 248.00 116.00" xmlns="http://www.w3.org/2000/svg" xmlns:xlink="http://www.w3.org/1999/xlink">
<g id="graph0" class="graph" transform="scale(1 1) rotate(0) translate(36 80)">
<polygon fill="white" stroke="none" points="-36,36 -36,-80 212,-80 212,36 -36,36"/>
<!-- Foo -->
<g id="node1" class="node">
<title>Foo</title>
<polygon fill="none" stroke="black" points="0,-22 0,-44 59,-44 59,-22 0,-22"/>
<text text-anchor="start" x="9.25" y="-27.7" font-family="Times,serif" font-size="14.00"> Name </text>
<polygon fill="none" stroke="black" points="59,-22 59,-44 96,-44 96,-22 59,-22"/>
<text text-anchor="start" x="61.75" y="-27.7" font-family="Times,serif" font-size="14.00"> OP1 </text>
<polygon fill="none" stroke="black" points="96,-22 96,-44 136,-44 136,-22 96,-22"/>
<text text-anchor="start" x="100.25" y="-27.7" font-family="Times,serif" font-size="14.00"> OP2 </text>
<polygon fill="none" stroke="black" points="136,-22 136,-44 176,-44 176,-22 136,-22"/>
<text text-anchor="start" x="140.25" y="-27.7" font-family="Times,serif" font-size="14.00"> OP3 </text>
<polygon fill="none" stroke="black" points="0,0 0,-22 59,-22 59,0 0,0"/>
<text text-anchor="start" x="2.88" y="-5.7" font-family="Times,serif" font-size="14.00"> DEQBR </text>
<polygon fill="none" stroke="black" points="59,0 59,-22 96,-22 96,0 59,0"/>
<text text-anchor="start" x="66.62" y="-5.7" font-family="Times,serif" font-size="14.00"> ID </text>
<polygon fill="none" stroke="black" points="96,0 96,-22 136,-22 136,0 96,0"/>
<text text-anchor="start" x="98.75" y="-5.7" font-family="Times,serif" font-size="14.00"> REG </text>
<polygon fill="none" stroke="black" points="136,0 136,-22 176,-22 176,0 136,0"/>
<text text-anchor="start" x="138.75" y="-5.7" font-family="Times,serif" font-size="14.00"> REG </text>
</g>
</g>
</svg>
