<?xml version="1.0" encoding="UTF-8" standalone="no"?>
<!DOCTYPE svg PUBLIC "-//W3C//DTD SVG 1.1//EN"
 "http://www.w3.org/Graphics/SVG/1.1/DTD/svg11.dtd">
<!-- Generated by graphviz version 12.1.2 (20240928.0832)
 -->
<!-- Pages: 1 -->
<svg width="270pt" height="116pt"
 viewBox="0.00 0.00 270.00 116.00" xmlns="http://www.w3.org/2000/svg" xmlns:xlink="http://www.w3.org/1999/xlink">
<g id="graph0" class="graph" transform="scale(1 1) rotate(0) translate(36 80)">
<polygon fill="white" stroke="none" points="-36,36 -36,-80 234,-80 234,36 -36,36"/>
<!-- Foo -->
<g id="node1" class="node">
<title>Foo</title>
<polygon fill="none" stroke="black" points="0,-22 0,-44 78,-44 78,-22 0,-22"/>
<text text-anchor="start" x="18.75" y="-27.7" font-family="Times,serif" font-size="14.00"> Name </text>
<polygon fill="none" stroke="black" points="78,-22 78,-44 118,-44 118,-22 78,-22"/>
<text text-anchor="start" x="82.25" y="-27.7" font-family="Times,serif" font-size="14.00"> OP1 </text>
<polygon fill="none" stroke="black" points="118,-22 118,-44 158,-44 158,-22 118,-22"/>
<text text-anchor="start" x="122.25" y="-27.7" font-family="Times,serif" font-size="14.00"> OP2 </text>
<polygon fill="none" stroke="black" points="158,-22 158,-44 198,-44 198,-22 158,-22"/>
<text text-anchor="start" x="162.25" y="-27.7" font-family="Times,serif" font-size="14.00"> OP3 </text>
<polygon fill="none" stroke="black" points="0,0 0,-22 78,-22 78,0 0,0"/>
<text text-anchor="start" x="3" y="-5.7" font-family="Times,serif" font-size="14.00"> DFORMAT </text>
<polygon fill="none" stroke="black" points="78,0 78,-22 118,-22 118,0 78,0"/>
<text text-anchor="start" x="80.75" y="-5.7" font-family="Times,serif" font-size="14.00"> REG </text>
<polygon fill="none" stroke="black" points="118,0 118,-22 158,-22 158,0 118,0"/>
<text text-anchor="start" x="120.75" y="-5.7" font-family="Times,serif" font-size="14.00"> REG </text>
<polygon fill="none" stroke="black" points="158,0 158,-22 198,-22 198,0 158,0"/>
<text text-anchor="start" x="160.75" y="-5.7" font-family="Times,serif" font-size="14.00"> REG </text>
</g>
</g>
</svg>
