<?xml version="1.0" encoding="UTF-8" standalone="no"?>
<!DOCTYPE svg PUBLIC "-//W3C//DTD SVG 1.1//EN"
 "http://www.w3.org/Graphics/SVG/1.1/DTD/svg11.dtd">
<!-- Generated by graphviz version 12.2.1 (20241206.2353)
 -->
<!-- Pages: 1 -->
<svg width="272pt" height="117pt"
 viewBox="0.00 0.00 271.50 117.00" xmlns="http://www.w3.org/2000/svg" xmlns:xlink="http://www.w3.org/1999/xlink">
<g id="graph0" class="graph" transform="scale(1 1) rotate(0) translate(36 81)">
<polygon fill="white" stroke="none" points="-36,36 -36,-81 235.5,-81 235.5,36 -36,36"/>
<!-- Foo -->
<g id="node1" class="node">
<title>Foo</title>
<polygon fill="none" stroke="black" points="0,-22.5 0,-45 78,-45 78,-22.5 0,-22.5"/>
<text text-anchor="start" x="18.75" y="-28.7" font-family="Times,serif" font-size="14.00"> Name </text>
<polygon fill="none" stroke="black" points="78,-22.5 78,-45 118.5,-45 118.5,-22.5 78,-22.5"/>
<text text-anchor="start" x="82.5" y="-28.7" font-family="Times,serif" font-size="14.00"> OP1 </text>
<polygon fill="none" stroke="black" points="118.5,-22.5 118.5,-45 159,-45 159,-22.5 118.5,-22.5"/>
<text text-anchor="start" x="123" y="-28.7" font-family="Times,serif" font-size="14.00"> OP2 </text>
<polygon fill="none" stroke="black" points="159,-22.5 159,-45 199.5,-45 199.5,-22.5 159,-22.5"/>
<text text-anchor="start" x="163.5" y="-28.7" font-family="Times,serif" font-size="14.00"> OP3 </text>
<polygon fill="none" stroke="black" points="0,0 0,-22.5 78,-22.5 78,0 0,0"/>
<text text-anchor="start" x="3" y="-6.2" font-family="Times,serif" font-size="14.00"> DFORMAT </text>
<polygon fill="none" stroke="black" points="78,0 78,-22.5 118.5,-22.5 118.5,0 78,0"/>
<text text-anchor="start" x="81" y="-6.2" font-family="Times,serif" font-size="14.00"> REG </text>
<polygon fill="none" stroke="black" points="118.5,0 118.5,-22.5 159,-22.5 159,0 118.5,0"/>
<text text-anchor="start" x="121.5" y="-6.2" font-family="Times,serif" font-size="14.00"> REG </text>
<polygon fill="none" stroke="black" points="159,0 159,-22.5 199.5,-22.5 199.5,0 159,0"/>
<text text-anchor="start" x="162" y="-6.2" font-family="Times,serif" font-size="14.00"> REG </text>
</g>
</g>
</svg>
