<?xml version="1.0" encoding="UTF-8" standalone="no"?>
<!DOCTYPE svg PUBLIC "-//W3C//DTD SVG 1.1//EN"
 "http://www.w3.org/Graphics/SVG/1.1/DTD/svg11.dtd">
<!-- Generated by graphviz version 12.1.2 (20240928.0832)
 -->
<!-- Pages: 1 -->
<svg width="269pt" height="160pt"
 viewBox="0.00 0.00 269.00 160.00" xmlns="http://www.w3.org/2000/svg" xmlns:xlink="http://www.w3.org/1999/xlink">
<g id="graph0" class="graph" transform="scale(1 1) rotate(0) translate(36 124)">
<polygon fill="white" stroke="none" points="-36,36 -36,-124 233,-124 233,36 -36,36"/>
<!-- Foo -->
<g id="node1" class="node">
<title>Foo</title>
<polygon fill="none" stroke="black" points="0,-66 0,-88 49,-88 49,-66 0,-66"/>
<text text-anchor="start" x="4.25" y="-71.7" font-family="Times,serif" font-size="14.00"> Name </text>
<polygon fill="none" stroke="black" points="49,-66 49,-88 89,-88 89,-66 49,-66"/>
<text text-anchor="start" x="53.25" y="-71.7" font-family="Times,serif" font-size="14.00"> OP1 </text>
<polygon fill="none" stroke="black" points="89,-66 89,-88 143,-88 143,-66 89,-66"/>
<text text-anchor="start" x="100.25" y="-71.7" font-family="Times,serif" font-size="14.00"> OP2 </text>
<polygon fill="none" stroke="black" points="143,-66 143,-88 197,-88 197,-66 143,-66"/>
<text text-anchor="start" x="154.25" y="-71.7" font-family="Times,serif" font-size="14.00"> OP3 </text>
<polygon fill="none" stroke="black" points="0,-44 0,-66 49,-66 49,-44 0,-44"/>
<text text-anchor="start" x="2.75" y="-49.7" font-family="Times,serif" font-size="14.00"> DGTE </text>
<polygon fill="none" stroke="black" points="49,-44 49,-66 89,-66 89,-44 49,-44"/>
<text text-anchor="start" x="51.75" y="-49.7" font-family="Times,serif" font-size="14.00"> REG </text>
<polygon fill="none" stroke="black" points="89,-44 89,-66 143,-66 143,-44 89,-44"/>
<text text-anchor="start" x="98.75" y="-49.7" font-family="Times,serif" font-size="14.00"> REG </text>
<polygon fill="none" stroke="black" points="143,-44 143,-66 197,-66 197,-44 143,-44"/>
<text text-anchor="start" x="152.75" y="-49.7" font-family="Times,serif" font-size="14.00"> REG </text>
<polygon fill="none" stroke="black" points="0,-22 0,-44 49,-44 49,-22 0,-22"/>
<text text-anchor="start" x="2.75" y="-27.7" font-family="Times,serif" font-size="14.00"> DGTE </text>
<polygon fill="none" stroke="black" points="49,-22 49,-44 89,-44 89,-22 49,-22"/>
<text text-anchor="start" x="51.75" y="-27.7" font-family="Times,serif" font-size="14.00"> REG </text>
<polygon fill="none" stroke="black" points="89,-22 89,-44 143,-44 143,-22 89,-22"/>
<text text-anchor="start" x="98.75" y="-27.7" font-family="Times,serif" font-size="14.00"> REG </text>
<polygon fill="none" stroke="black" points="143,-22 143,-44 197,-44 197,-22 143,-22"/>
<text text-anchor="start" x="145.62" y="-27.7" font-family="Times,serif" font-size="14.00"> FLOAT </text>
<polygon fill="none" stroke="black" points="0,0 0,-22 49,-22 49,0 0,0"/>
<text text-anchor="start" x="2.75" y="-5.7" font-family="Times,serif" font-size="14.00"> DGTE </text>
<polygon fill="none" stroke="black" points="49,0 49,-22 89,-22 89,0 49,0"/>
<text text-anchor="start" x="51.75" y="-5.7" font-family="Times,serif" font-size="14.00"> REG </text>
<polygon fill="none" stroke="black" points="89,0 89,-22 143,-22 143,0 89,0"/>
<text text-anchor="start" x="91.62" y="-5.7" font-family="Times,serif" font-size="14.00"> FLOAT </text>
<polygon fill="none" stroke="black" points="143,0 143,-22 197,-22 197,0 143,0"/>
<text text-anchor="start" x="152.75" y="-5.7" font-family="Times,serif" font-size="14.00"> REG </text>
</g>
</g>
</svg>
