<?xml version="1.0" encoding="UTF-8" standalone="no"?>
<!DOCTYPE svg PUBLIC "-//W3C//DTD SVG 1.1//EN"
 "http://www.w3.org/Graphics/SVG/1.1/DTD/svg11.dtd">
<!-- Generated by graphviz version 7.0.4 (20221203.1631)
 -->
<!-- Pages: 1 -->
<svg width="282pt" height="114pt"
 viewBox="0.00 0.00 282.00 114.00" xmlns="http://www.w3.org/2000/svg" xmlns:xlink="http://www.w3.org/1999/xlink">
<g id="graph0" class="graph" transform="scale(1 1) rotate(0) translate(36 78)">
<polygon fill="white" stroke="none" points="-36,36 -36,-78 246,-78 246,36 -36,36"/>
<!-- Foo -->
<g id="node1" class="node">
<title>Foo</title>
<polygon fill="none" stroke="black" points="0,-21 0,-42 87,-42 87,-21 0,-21"/>
<text text-anchor="start" x="23" y="-27.8" font-family="Times,serif" font-size="14.00"> Name </text>
<polygon fill="none" stroke="black" points="87,-21 87,-42 128,-42 128,-21 87,-21"/>
<text text-anchor="start" x="91.5" y="-27.8" font-family="Times,serif" font-size="14.00"> OP1 </text>
<polygon fill="none" stroke="black" points="128,-21 128,-42 169,-42 169,-21 128,-21"/>
<text text-anchor="start" x="132.5" y="-27.8" font-family="Times,serif" font-size="14.00"> OP2 </text>
<polygon fill="none" stroke="black" points="169,-21 169,-42 210,-42 210,-21 169,-21"/>
<text text-anchor="start" x="173.5" y="-27.8" font-family="Times,serif" font-size="14.00"> OP3 </text>
<polygon fill="none" stroke="black" points="0,0 0,-21 87,-21 87,0 0,0"/>
<text text-anchor="start" x="3" y="-6.8" font-family="Times,serif" font-size="14.00"> DLLPARMS </text>
<polygon fill="none" stroke="black" points="87,0 87,-21 128,-21 128,0 87,0"/>
<text text-anchor="start" x="90" y="-6.8" font-family="Times,serif" font-size="14.00"> REG </text>
<polygon fill="none" stroke="black" points="128,0 128,-21 169,-21 169,0 128,0"/>
<text text-anchor="start" x="131" y="-6.8" font-family="Times,serif" font-size="14.00"> REG </text>
<polygon fill="none" stroke="black" points="169,0 169,-21 210,-21 210,0 169,0"/>
<text text-anchor="start" x="172" y="-6.8" font-family="Times,serif" font-size="14.00"> REG </text>
</g>
</g>
</svg>
