<?xml version="1.0" encoding="UTF-8" standalone="no"?>
<!DOCTYPE svg PUBLIC "-//W3C//DTD SVG 1.1//EN"
 "http://www.w3.org/Graphics/SVG/1.1/DTD/svg11.dtd">
<!-- Generated by graphviz version 12.2.1 (20241206.2353)
 -->
<!-- Pages: 1 -->
<svg width="269pt" height="162pt"
 viewBox="0.00 0.00 268.50 162.00" xmlns="http://www.w3.org/2000/svg" xmlns:xlink="http://www.w3.org/1999/xlink">
<g id="graph0" class="graph" transform="scale(1 1) rotate(0) translate(36 126)">
<polygon fill="white" stroke="none" points="-36,36 -36,-126 232.5,-126 232.5,36 -36,36"/>
<!-- Foo -->
<g id="node1" class="node">
<title>Foo</title>
<polygon fill="none" stroke="black" points="0,-67.5 0,-90 46.5,-90 46.5,-67.5 0,-67.5"/>
<text text-anchor="start" x="3" y="-73.7" font-family="Times,serif" font-size="14.00"> Name </text>
<polygon fill="none" stroke="black" points="46.5,-67.5 46.5,-90 87,-90 87,-67.5 46.5,-67.5"/>
<text text-anchor="start" x="51" y="-73.7" font-family="Times,serif" font-size="14.00"> OP1 </text>
<polygon fill="none" stroke="black" points="87,-67.5 87,-90 141.75,-90 141.75,-67.5 87,-67.5"/>
<text text-anchor="start" x="98.62" y="-73.7" font-family="Times,serif" font-size="14.00"> OP2 </text>
<polygon fill="none" stroke="black" points="141.75,-67.5 141.75,-90 196.5,-90 196.5,-67.5 141.75,-67.5"/>
<text text-anchor="start" x="153.38" y="-73.7" font-family="Times,serif" font-size="14.00"> OP3 </text>
<polygon fill="none" stroke="black" points="0,-45 0,-67.5 46.5,-67.5 46.5,-45 0,-45"/>
<text text-anchor="start" x="7.12" y="-51.2" font-family="Times,serif" font-size="14.00"> DLT </text>
<polygon fill="none" stroke="black" points="46.5,-45 46.5,-67.5 87,-67.5 87,-45 46.5,-45"/>
<text text-anchor="start" x="49.5" y="-51.2" font-family="Times,serif" font-size="14.00"> REG </text>
<polygon fill="none" stroke="black" points="87,-45 87,-67.5 141.75,-67.5 141.75,-45 87,-45"/>
<text text-anchor="start" x="97.12" y="-51.2" font-family="Times,serif" font-size="14.00"> REG </text>
<polygon fill="none" stroke="black" points="141.75,-45 141.75,-67.5 196.5,-67.5 196.5,-45 141.75,-45"/>
<text text-anchor="start" x="151.88" y="-51.2" font-family="Times,serif" font-size="14.00"> REG </text>
<polygon fill="none" stroke="black" points="0,-22.5 0,-45 46.5,-45 46.5,-22.5 0,-22.5"/>
<text text-anchor="start" x="7.12" y="-28.7" font-family="Times,serif" font-size="14.00"> DLT </text>
<polygon fill="none" stroke="black" points="46.5,-22.5 46.5,-45 87,-45 87,-22.5 46.5,-22.5"/>
<text text-anchor="start" x="49.5" y="-28.7" font-family="Times,serif" font-size="14.00"> REG </text>
<polygon fill="none" stroke="black" points="87,-22.5 87,-45 141.75,-45 141.75,-22.5 87,-22.5"/>
<text text-anchor="start" x="97.12" y="-28.7" font-family="Times,serif" font-size="14.00"> REG </text>
<polygon fill="none" stroke="black" points="141.75,-22.5 141.75,-45 196.5,-45 196.5,-22.5 141.75,-22.5"/>
<text text-anchor="start" x="144.75" y="-28.7" font-family="Times,serif" font-size="14.00"> FLOAT </text>
<polygon fill="none" stroke="black" points="0,0 0,-22.5 46.5,-22.5 46.5,0 0,0"/>
<text text-anchor="start" x="7.12" y="-6.2" font-family="Times,serif" font-size="14.00"> DLT </text>
<polygon fill="none" stroke="black" points="46.5,0 46.5,-22.5 87,-22.5 87,0 46.5,0"/>
<text text-anchor="start" x="49.5" y="-6.2" font-family="Times,serif" font-size="14.00"> REG </text>
<polygon fill="none" stroke="black" points="87,0 87,-22.5 141.75,-22.5 141.75,0 87,0"/>
<text text-anchor="start" x="90" y="-6.2" font-family="Times,serif" font-size="14.00"> FLOAT </text>
<polygon fill="none" stroke="black" points="141.75,0 141.75,-22.5 196.5,-22.5 196.5,0 141.75,0"/>
<text text-anchor="start" x="151.88" y="-6.2" font-family="Times,serif" font-size="14.00"> REG </text>
</g>
</g>
</svg>
