<?xml version="1.0" encoding="UTF-8" standalone="no"?>
<!DOCTYPE svg PUBLIC "-//W3C//DTD SVG 1.1//EN"
 "http://www.w3.org/Graphics/SVG/1.1/DTD/svg11.dtd">
<!-- Generated by graphviz version 12.2.1 (20241206.2353)
 -->
<!-- Pages: 1 -->
<svg width="248pt" height="117pt"
 viewBox="0.00 0.00 248.25 117.00" xmlns="http://www.w3.org/2000/svg" xmlns:xlink="http://www.w3.org/1999/xlink">
<g id="graph0" class="graph" transform="scale(1 1) rotate(0) translate(36 81)">
<polygon fill="white" stroke="none" points="-36,36 -36,-81 212.25,-81 212.25,36 -36,36"/>
<!-- Foo -->
<g id="node1" class="node">
<title>Foo</title>
<polygon fill="none" stroke="black" points="0,-22.5 0,-45 57.75,-45 57.75,-22.5 0,-22.5"/>
<text text-anchor="start" x="8.62" y="-28.7" font-family="Times,serif" font-size="14.00"> Name </text>
<polygon fill="none" stroke="black" points="57.75,-22.5 57.75,-45 95.25,-45 95.25,-22.5 57.75,-22.5"/>
<text text-anchor="start" x="60.75" y="-28.7" font-family="Times,serif" font-size="14.00"> OP1 </text>
<polygon fill="none" stroke="black" points="95.25,-22.5 95.25,-45 135.75,-45 135.75,-22.5 95.25,-22.5"/>
<text text-anchor="start" x="99.75" y="-28.7" font-family="Times,serif" font-size="14.00"> OP2 </text>
<polygon fill="none" stroke="black" points="135.75,-22.5 135.75,-45 176.25,-45 176.25,-22.5 135.75,-22.5"/>
<text text-anchor="start" x="140.25" y="-28.7" font-family="Times,serif" font-size="14.00"> OP3 </text>
<polygon fill="none" stroke="black" points="0,0 0,-22.5 57.75,-22.5 57.75,0 0,0"/>
<text text-anchor="start" x="3" y="-6.2" font-family="Times,serif" font-size="14.00"> DLTBR </text>
<polygon fill="none" stroke="black" points="57.75,0 57.75,-22.5 95.25,-22.5 95.25,0 57.75,0"/>
<text text-anchor="start" x="65.62" y="-6.2" font-family="Times,serif" font-size="14.00"> ID </text>
<polygon fill="none" stroke="black" points="95.25,0 95.25,-22.5 135.75,-22.5 135.75,0 95.25,0"/>
<text text-anchor="start" x="98.25" y="-6.2" font-family="Times,serif" font-size="14.00"> REG </text>
<polygon fill="none" stroke="black" points="135.75,0 135.75,-22.5 176.25,-22.5 176.25,0 135.75,0"/>
<text text-anchor="start" x="138.75" y="-6.2" font-family="Times,serif" font-size="14.00"> REG </text>
</g>
</g>
</svg>
