<?xml version="1.0" encoding="UTF-8" standalone="no"?>
<!DOCTYPE svg PUBLIC "-//W3C//DTD SVG 1.1//EN"
 "http://www.w3.org/Graphics/SVG/1.1/DTD/svg11.dtd">
<!-- Generated by graphviz version 12.1.2 (20240928.0832)
 -->
<!-- Pages: 1 -->
<svg width="268pt" height="160pt"
 viewBox="0.00 0.00 268.00 160.00" xmlns="http://www.w3.org/2000/svg" xmlns:xlink="http://www.w3.org/1999/xlink">
<g id="graph0" class="graph" transform="scale(1 1) rotate(0) translate(36 124)">
<polygon fill="white" stroke="none" points="-36,36 -36,-124 232,-124 232,36 -36,36"/>
<!-- Foo -->
<g id="node1" class="node">
<title>Foo</title>
<polygon fill="none" stroke="black" points="0,-66 0,-88 48,-88 48,-66 0,-66"/>
<text text-anchor="start" x="3.75" y="-71.7" font-family="Times,serif" font-size="14.00"> Name </text>
<polygon fill="none" stroke="black" points="48,-66 48,-88 88,-88 88,-66 48,-66"/>
<text text-anchor="start" x="52.25" y="-71.7" font-family="Times,serif" font-size="14.00"> OP1 </text>
<polygon fill="none" stroke="black" points="88,-66 88,-88 142,-88 142,-66 88,-66"/>
<text text-anchor="start" x="99.25" y="-71.7" font-family="Times,serif" font-size="14.00"> OP2 </text>
<polygon fill="none" stroke="black" points="142,-66 142,-88 196,-88 196,-66 142,-66"/>
<text text-anchor="start" x="153.25" y="-71.7" font-family="Times,serif" font-size="14.00"> OP3 </text>
<polygon fill="none" stroke="black" points="0,-44 0,-66 48,-66 48,-44 0,-44"/>
<text text-anchor="start" x="3" y="-49.7" font-family="Times,serif" font-size="14.00"> DLTE </text>
<polygon fill="none" stroke="black" points="48,-44 48,-66 88,-66 88,-44 48,-44"/>
<text text-anchor="start" x="50.75" y="-49.7" font-family="Times,serif" font-size="14.00"> REG </text>
<polygon fill="none" stroke="black" points="88,-44 88,-66 142,-66 142,-44 88,-44"/>
<text text-anchor="start" x="97.75" y="-49.7" font-family="Times,serif" font-size="14.00"> REG </text>
<polygon fill="none" stroke="black" points="142,-44 142,-66 196,-66 196,-44 142,-44"/>
<text text-anchor="start" x="151.75" y="-49.7" font-family="Times,serif" font-size="14.00"> REG </text>
<polygon fill="none" stroke="black" points="0,-22 0,-44 48,-44 48,-22 0,-22"/>
<text text-anchor="start" x="3" y="-27.7" font-family="Times,serif" font-size="14.00"> DLTE </text>
<polygon fill="none" stroke="black" points="48,-22 48,-44 88,-44 88,-22 48,-22"/>
<text text-anchor="start" x="50.75" y="-27.7" font-family="Times,serif" font-size="14.00"> REG </text>
<polygon fill="none" stroke="black" points="88,-22 88,-44 142,-44 142,-22 88,-22"/>
<text text-anchor="start" x="97.75" y="-27.7" font-family="Times,serif" font-size="14.00"> REG </text>
<polygon fill="none" stroke="black" points="142,-22 142,-44 196,-44 196,-22 142,-22"/>
<text text-anchor="start" x="144.62" y="-27.7" font-family="Times,serif" font-size="14.00"> FLOAT </text>
<polygon fill="none" stroke="black" points="0,0 0,-22 48,-22 48,0 0,0"/>
<text text-anchor="start" x="3" y="-5.7" font-family="Times,serif" font-size="14.00"> DLTE </text>
<polygon fill="none" stroke="black" points="48,0 48,-22 88,-22 88,0 48,0"/>
<text text-anchor="start" x="50.75" y="-5.7" font-family="Times,serif" font-size="14.00"> REG </text>
<polygon fill="none" stroke="black" points="88,0 88,-22 142,-22 142,0 88,0"/>
<text text-anchor="start" x="90.62" y="-5.7" font-family="Times,serif" font-size="14.00"> FLOAT </text>
<polygon fill="none" stroke="black" points="142,0 142,-22 196,-22 196,0 142,0"/>
<text text-anchor="start" x="151.75" y="-5.7" font-family="Times,serif" font-size="14.00"> REG </text>
</g>
</g>
</svg>
