<?xml version="1.0" encoding="UTF-8" standalone="no"?>
<!DOCTYPE svg PUBLIC "-//W3C//DTD SVG 1.1//EN"
 "http://www.w3.org/Graphics/SVG/1.1/DTD/svg11.dtd">
<!-- Generated by graphviz version 12.2.1 (20241206.2353)
 -->
<!-- Pages: 1 -->
<svg width="311pt" height="162pt"
 viewBox="0.00 0.00 310.50 162.00" xmlns="http://www.w3.org/2000/svg" xmlns:xlink="http://www.w3.org/1999/xlink">
<g id="graph0" class="graph" transform="scale(1 1) rotate(0) translate(36 126)">
<polygon fill="white" stroke="none" points="-36,36 -36,-126 274.5,-126 274.5,36 -36,36"/>
<!-- Foo -->
<g id="node1" class="node">
<title>Foo</title>
<polygon fill="none" stroke="black" points="0,-67.5 0,-90 48,-90 48,-67.5 0,-67.5"/>
<text text-anchor="start" x="3.75" y="-73.7" font-family="Times,serif" font-size="14.00"> Name </text>
<polygon fill="none" stroke="black" points="48,-67.5 48,-90 88.5,-90 88.5,-67.5 48,-67.5"/>
<text text-anchor="start" x="52.5" y="-73.7" font-family="Times,serif" font-size="14.00"> OP1 </text>
<polygon fill="none" stroke="black" points="88.5,-67.5 88.5,-90 163.5,-90 163.5,-67.5 88.5,-67.5"/>
<text text-anchor="start" x="110.25" y="-73.7" font-family="Times,serif" font-size="14.00"> OP2 </text>
<polygon fill="none" stroke="black" points="163.5,-67.5 163.5,-90 238.5,-90 238.5,-67.5 163.5,-67.5"/>
<text text-anchor="start" x="185.25" y="-73.7" font-family="Times,serif" font-size="14.00"> OP3 </text>
<polygon fill="none" stroke="black" points="0,-45 0,-67.5 48,-67.5 48,-45 0,-45"/>
<text text-anchor="start" x="3" y="-51.2" font-family="Times,serif" font-size="14.00"> DLTE </text>
<polygon fill="none" stroke="black" points="48,-45 48,-67.5 88.5,-67.5 88.5,-45 48,-45"/>
<text text-anchor="start" x="51" y="-51.2" font-family="Times,serif" font-size="14.00"> REG </text>
<polygon fill="none" stroke="black" points="88.5,-45 88.5,-67.5 163.5,-67.5 163.5,-45 88.5,-45"/>
<text text-anchor="start" x="108.75" y="-51.2" font-family="Times,serif" font-size="14.00"> REG </text>
<polygon fill="none" stroke="black" points="163.5,-45 163.5,-67.5 238.5,-67.5 238.5,-45 163.5,-45"/>
<text text-anchor="start" x="183.75" y="-51.2" font-family="Times,serif" font-size="14.00"> REG </text>
<polygon fill="none" stroke="black" points="0,-22.5 0,-45 48,-45 48,-22.5 0,-22.5"/>
<text text-anchor="start" x="3" y="-28.7" font-family="Times,serif" font-size="14.00"> DLTE </text>
<polygon fill="none" stroke="black" points="48,-22.5 48,-45 88.5,-45 88.5,-22.5 48,-22.5"/>
<text text-anchor="start" x="51" y="-28.7" font-family="Times,serif" font-size="14.00"> REG </text>
<polygon fill="none" stroke="black" points="88.5,-22.5 88.5,-45 163.5,-45 163.5,-22.5 88.5,-22.5"/>
<text text-anchor="start" x="108.75" y="-28.7" font-family="Times,serif" font-size="14.00"> REG </text>
<polygon fill="none" stroke="black" points="163.5,-22.5 163.5,-45 238.5,-45 238.5,-22.5 163.5,-22.5"/>
<text text-anchor="start" x="166.5" y="-28.7" font-family="Times,serif" font-size="14.00"> DECIMAL </text>
<polygon fill="none" stroke="black" points="0,0 0,-22.5 48,-22.5 48,0 0,0"/>
<text text-anchor="start" x="3" y="-6.2" font-family="Times,serif" font-size="14.00"> DLTE </text>
<polygon fill="none" stroke="black" points="48,0 48,-22.5 88.5,-22.5 88.5,0 48,0"/>
<text text-anchor="start" x="51" y="-6.2" font-family="Times,serif" font-size="14.00"> REG </text>
<polygon fill="none" stroke="black" points="88.5,0 88.5,-22.5 163.5,-22.5 163.5,0 88.5,0"/>
<text text-anchor="start" x="91.5" y="-6.2" font-family="Times,serif" font-size="14.00"> DECIMAL </text>
<polygon fill="none" stroke="black" points="163.5,0 163.5,-22.5 238.5,-22.5 238.5,0 163.5,0"/>
<text text-anchor="start" x="183.75" y="-6.2" font-family="Times,serif" font-size="14.00"> REG </text>
</g>
</g>
</svg>
