<?xml version="1.0" encoding="UTF-8" standalone="no"?>
<!DOCTYPE svg PUBLIC "-//W3C//DTD SVG 1.1//EN"
 "http://www.w3.org/Graphics/SVG/1.1/DTD/svg11.dtd">
<!-- Generated by graphviz version 14.1.4 (20260321.0153)
 -->
<!-- Pages: 1 -->
<svg width="318pt" height="162pt"
 viewBox="0.00 0.00 318.00 162.00" xmlns="http://www.w3.org/2000/svg" xmlns:xlink="http://www.w3.org/1999/xlink">
<g id="graph0" class="graph" transform="scale(1 1) rotate(0) translate(36 126)">
<polygon fill="white" stroke="none" points="-36,36 -36,-126 282,-126 282,36 -36,36"/>
<!-- Foo -->
<g id="node1" class="node">
<title>Foo</title>
<polygon fill="none" stroke="black" points="0,-67.5 0,-90 55.5,-90 55.5,-67.5 0,-67.5"/>
<text xml:space="preserve" text-anchor="start" x="7.5" y="-74.25" font-family="Times,serif" font-size="14.00"> Name </text>
<polygon fill="none" stroke="black" points="55.5,-67.5 55.5,-90 96,-90 96,-67.5 55.5,-67.5"/>
<text xml:space="preserve" text-anchor="start" x="60" y="-74.25" font-family="Times,serif" font-size="14.00"> OP1 </text>
<polygon fill="none" stroke="black" points="96,-67.5 96,-90 171,-90 171,-67.5 96,-67.5"/>
<text xml:space="preserve" text-anchor="start" x="117.75" y="-74.25" font-family="Times,serif" font-size="14.00"> OP2 </text>
<polygon fill="none" stroke="black" points="171,-67.5 171,-90 246,-90 246,-67.5 171,-67.5"/>
<text xml:space="preserve" text-anchor="start" x="192.75" y="-74.25" font-family="Times,serif" font-size="14.00"> OP3 </text>
<polygon fill="none" stroke="black" points="0,-45 0,-67.5 55.5,-67.5 55.5,-45 0,-45"/>
<text xml:space="preserve" text-anchor="start" x="3" y="-51.75" font-family="Times,serif" font-size="14.00"> DMOD </text>
<polygon fill="none" stroke="black" points="55.5,-45 55.5,-67.5 96,-67.5 96,-45 55.5,-45"/>
<text xml:space="preserve" text-anchor="start" x="58.5" y="-51.75" font-family="Times,serif" font-size="14.00"> REG </text>
<polygon fill="none" stroke="black" points="96,-45 96,-67.5 171,-67.5 171,-45 96,-45"/>
<text xml:space="preserve" text-anchor="start" x="116.25" y="-51.75" font-family="Times,serif" font-size="14.00"> REG </text>
<polygon fill="none" stroke="black" points="171,-45 171,-67.5 246,-67.5 246,-45 171,-45"/>
<text xml:space="preserve" text-anchor="start" x="191.25" y="-51.75" font-family="Times,serif" font-size="14.00"> REG </text>
<polygon fill="none" stroke="black" points="0,-22.5 0,-45 55.5,-45 55.5,-22.5 0,-22.5"/>
<text xml:space="preserve" text-anchor="start" x="3" y="-29.25" font-family="Times,serif" font-size="14.00"> DMOD </text>
<polygon fill="none" stroke="black" points="55.5,-22.5 55.5,-45 96,-45 96,-22.5 55.5,-22.5"/>
<text xml:space="preserve" text-anchor="start" x="58.5" y="-29.25" font-family="Times,serif" font-size="14.00"> REG </text>
<polygon fill="none" stroke="black" points="96,-22.5 96,-45 171,-45 171,-22.5 96,-22.5"/>
<text xml:space="preserve" text-anchor="start" x="116.25" y="-29.25" font-family="Times,serif" font-size="14.00"> REG </text>
<polygon fill="none" stroke="black" points="171,-22.5 171,-45 246,-45 246,-22.5 171,-22.5"/>
<text xml:space="preserve" text-anchor="start" x="174" y="-29.25" font-family="Times,serif" font-size="14.00"> DECIMAL </text>
<polygon fill="none" stroke="black" points="0,0 0,-22.5 55.5,-22.5 55.5,0 0,0"/>
<text xml:space="preserve" text-anchor="start" x="3" y="-6.75" font-family="Times,serif" font-size="14.00"> DMOD </text>
<polygon fill="none" stroke="black" points="55.5,0 55.5,-22.5 96,-22.5 96,0 55.5,0"/>
<text xml:space="preserve" text-anchor="start" x="58.5" y="-6.75" font-family="Times,serif" font-size="14.00"> REG </text>
<polygon fill="none" stroke="black" points="96,0 96,-22.5 171,-22.5 171,0 96,0"/>
<text xml:space="preserve" text-anchor="start" x="99" y="-6.75" font-family="Times,serif" font-size="14.00"> DECIMAL </text>
<polygon fill="none" stroke="black" points="171,0 171,-22.5 246,-22.5 246,0 171,0"/>
<text xml:space="preserve" text-anchor="start" x="191.25" y="-6.75" font-family="Times,serif" font-size="14.00"> REG </text>
</g>
</g>
</svg>
