<?xml version="1.0" encoding="UTF-8" standalone="no"?>
<!DOCTYPE svg PUBLIC "-//W3C//DTD SVG 1.1//EN"
 "http://www.w3.org/Graphics/SVG/1.1/DTD/svg11.dtd">
<!-- Generated by graphviz version 12.2.1 (20241206.2353)
 -->
<!-- Pages: 1 -->
<svg width="269pt" height="140pt"
 viewBox="0.00 0.00 268.50 139.50" xmlns="http://www.w3.org/2000/svg" xmlns:xlink="http://www.w3.org/1999/xlink">
<g id="graph0" class="graph" transform="scale(1 1) rotate(0) translate(36 103.5)">
<polygon fill="white" stroke="none" points="-36,36 -36,-103.5 232.5,-103.5 232.5,36 -36,36"/>
<!-- Foo -->
<g id="node1" class="node">
<title>Foo</title>
<polygon fill="none" stroke="black" points="0,-45 0,-67.5 60.75,-67.5 60.75,-45 0,-45"/>
<text text-anchor="start" x="10.12" y="-51.2" font-family="Times,serif" font-size="14.00"> Name </text>
<polygon fill="none" stroke="black" points="60.75,-45 60.75,-67.5 101.25,-67.5 101.25,-45 60.75,-45"/>
<text text-anchor="start" x="65.25" y="-51.2" font-family="Times,serif" font-size="14.00"> OP1 </text>
<polygon fill="none" stroke="black" points="101.25,-45 101.25,-67.5 141.75,-67.5 141.75,-45 101.25,-45"/>
<text text-anchor="start" x="105.75" y="-51.2" font-family="Times,serif" font-size="14.00"> OP2 </text>
<polygon fill="none" stroke="black" points="141.75,-45 141.75,-67.5 196.5,-67.5 196.5,-45 141.75,-45"/>
<text text-anchor="start" x="153.38" y="-51.2" font-family="Times,serif" font-size="14.00"> OP3 </text>
<polygon fill="none" stroke="black" points="0,-22.5 0,-45 60.75,-45 60.75,-22.5 0,-22.5"/>
<text text-anchor="start" x="3" y="-28.7" font-family="Times,serif" font-size="14.00"> DMULT </text>
<polygon fill="none" stroke="black" points="60.75,-22.5 60.75,-45 101.25,-45 101.25,-22.5 60.75,-22.5"/>
<text text-anchor="start" x="63.75" y="-28.7" font-family="Times,serif" font-size="14.00"> REG </text>
<polygon fill="none" stroke="black" points="101.25,-22.5 101.25,-45 141.75,-45 141.75,-22.5 101.25,-22.5"/>
<text text-anchor="start" x="104.25" y="-28.7" font-family="Times,serif" font-size="14.00"> REG </text>
<polygon fill="none" stroke="black" points="141.75,-22.5 141.75,-45 196.5,-45 196.5,-22.5 141.75,-22.5"/>
<text text-anchor="start" x="151.88" y="-28.7" font-family="Times,serif" font-size="14.00"> REG </text>
<polygon fill="none" stroke="black" points="0,0 0,-22.5 60.75,-22.5 60.75,0 0,0"/>
<text text-anchor="start" x="3" y="-6.2" font-family="Times,serif" font-size="14.00"> DMULT </text>
<polygon fill="none" stroke="black" points="60.75,0 60.75,-22.5 101.25,-22.5 101.25,0 60.75,0"/>
<text text-anchor="start" x="63.75" y="-6.2" font-family="Times,serif" font-size="14.00"> REG </text>
<polygon fill="none" stroke="black" points="101.25,0 101.25,-22.5 141.75,-22.5 141.75,0 101.25,0"/>
<text text-anchor="start" x="104.25" y="-6.2" font-family="Times,serif" font-size="14.00"> REG </text>
<polygon fill="none" stroke="black" points="141.75,0 141.75,-22.5 196.5,-22.5 196.5,0 141.75,0"/>
<text text-anchor="start" x="144.75" y="-6.2" font-family="Times,serif" font-size="14.00"> FLOAT </text>
</g>
</g>
</svg>
