<?xml version="1.0" encoding="UTF-8" standalone="no"?>
<!DOCTYPE svg PUBLIC "-//W3C//DTD SVG 1.1//EN"
 "http://www.w3.org/Graphics/SVG/1.1/DTD/svg11.dtd">
<!-- Generated by graphviz version 12.1.2 (20240928.0832)
 -->
<!-- Pages: 1 -->
<svg width="272pt" height="160pt"
 viewBox="0.00 0.00 272.00 160.00" xmlns="http://www.w3.org/2000/svg" xmlns:xlink="http://www.w3.org/1999/xlink">
<g id="graph0" class="graph" transform="scale(1 1) rotate(0) translate(36 124)">
<polygon fill="white" stroke="none" points="-36,36 -36,-124 236,-124 236,36 -36,36"/>
<!-- Foo -->
<g id="node1" class="node">
<title>Foo</title>
<polygon fill="none" stroke="black" points="0,-66 0,-88 52,-88 52,-66 0,-66"/>
<text text-anchor="start" x="5.75" y="-71.7" font-family="Times,serif" font-size="14.00"> Name </text>
<polygon fill="none" stroke="black" points="52,-66 52,-88 92,-88 92,-66 52,-66"/>
<text text-anchor="start" x="56.25" y="-71.7" font-family="Times,serif" font-size="14.00"> OP1 </text>
<polygon fill="none" stroke="black" points="92,-66 92,-88 146,-88 146,-66 92,-66"/>
<text text-anchor="start" x="103.25" y="-71.7" font-family="Times,serif" font-size="14.00"> OP2 </text>
<polygon fill="none" stroke="black" points="146,-66 146,-88 200,-88 200,-66 146,-66"/>
<text text-anchor="start" x="157.25" y="-71.7" font-family="Times,serif" font-size="14.00"> OP3 </text>
<polygon fill="none" stroke="black" points="0,-44 0,-66 52,-66 52,-44 0,-44"/>
<text text-anchor="start" x="2.75" y="-49.7" font-family="Times,serif" font-size="14.00"> DPOW </text>
<polygon fill="none" stroke="black" points="52,-44 52,-66 92,-66 92,-44 52,-44"/>
<text text-anchor="start" x="54.75" y="-49.7" font-family="Times,serif" font-size="14.00"> REG </text>
<polygon fill="none" stroke="black" points="92,-44 92,-66 146,-66 146,-44 92,-44"/>
<text text-anchor="start" x="101.75" y="-49.7" font-family="Times,serif" font-size="14.00"> REG </text>
<polygon fill="none" stroke="black" points="146,-44 146,-66 200,-66 200,-44 146,-44"/>
<text text-anchor="start" x="155.75" y="-49.7" font-family="Times,serif" font-size="14.00"> REG </text>
<polygon fill="none" stroke="black" points="0,-22 0,-44 52,-44 52,-22 0,-22"/>
<text text-anchor="start" x="2.75" y="-27.7" font-family="Times,serif" font-size="14.00"> DPOW </text>
<polygon fill="none" stroke="black" points="52,-22 52,-44 92,-44 92,-22 52,-22"/>
<text text-anchor="start" x="54.75" y="-27.7" font-family="Times,serif" font-size="14.00"> REG </text>
<polygon fill="none" stroke="black" points="92,-22 92,-44 146,-44 146,-22 92,-22"/>
<text text-anchor="start" x="101.75" y="-27.7" font-family="Times,serif" font-size="14.00"> REG </text>
<polygon fill="none" stroke="black" points="146,-22 146,-44 200,-44 200,-22 146,-22"/>
<text text-anchor="start" x="148.62" y="-27.7" font-family="Times,serif" font-size="14.00"> FLOAT </text>
<polygon fill="none" stroke="black" points="0,0 0,-22 52,-22 52,0 0,0"/>
<text text-anchor="start" x="2.75" y="-5.7" font-family="Times,serif" font-size="14.00"> DPOW </text>
<polygon fill="none" stroke="black" points="52,0 52,-22 92,-22 92,0 52,0"/>
<text text-anchor="start" x="54.75" y="-5.7" font-family="Times,serif" font-size="14.00"> REG </text>
<polygon fill="none" stroke="black" points="92,0 92,-22 146,-22 146,0 92,0"/>
<text text-anchor="start" x="94.62" y="-5.7" font-family="Times,serif" font-size="14.00"> FLOAT </text>
<polygon fill="none" stroke="black" points="146,0 146,-22 200,-22 200,0 146,0"/>
<text text-anchor="start" x="155.75" y="-5.7" font-family="Times,serif" font-size="14.00"> REG </text>
</g>
</g>
</svg>
