<?xml version="1.0" encoding="UTF-8" standalone="no"?>
<!DOCTYPE svg PUBLIC "-//W3C//DTD SVG 1.1//EN"
 "http://www.w3.org/Graphics/SVG/1.1/DTD/svg11.dtd">
<!-- Generated by graphviz version 12.2.1 (20241206.2353)
 -->
<!-- Pages: 1 -->
<svg width="275pt" height="162pt"
 viewBox="0.00 0.00 274.50 162.00" xmlns="http://www.w3.org/2000/svg" xmlns:xlink="http://www.w3.org/1999/xlink">
<g id="graph0" class="graph" transform="scale(1 1) rotate(0) translate(36 126)">
<polygon fill="white" stroke="none" points="-36,36 -36,-126 238.5,-126 238.5,36 -36,36"/>
<!-- Foo -->
<g id="node1" class="node">
<title>Foo</title>
<polygon fill="none" stroke="black" points="0,-67.5 0,-90 52.5,-90 52.5,-67.5 0,-67.5"/>
<text text-anchor="start" x="6" y="-73.7" font-family="Times,serif" font-size="14.00"> Name </text>
<polygon fill="none" stroke="black" points="52.5,-67.5 52.5,-90 93,-90 93,-67.5 52.5,-67.5"/>
<text text-anchor="start" x="57" y="-73.7" font-family="Times,serif" font-size="14.00"> OP1 </text>
<polygon fill="none" stroke="black" points="93,-67.5 93,-90 147.75,-90 147.75,-67.5 93,-67.5"/>
<text text-anchor="start" x="104.62" y="-73.7" font-family="Times,serif" font-size="14.00"> OP2 </text>
<polygon fill="none" stroke="black" points="147.75,-67.5 147.75,-90 202.5,-90 202.5,-67.5 147.75,-67.5"/>
<text text-anchor="start" x="159.38" y="-73.7" font-family="Times,serif" font-size="14.00"> OP3 </text>
<polygon fill="none" stroke="black" points="0,-45 0,-67.5 52.5,-67.5 52.5,-45 0,-45"/>
<text text-anchor="start" x="3" y="-51.2" font-family="Times,serif" font-size="14.00"> DPOW </text>
<polygon fill="none" stroke="black" points="52.5,-45 52.5,-67.5 93,-67.5 93,-45 52.5,-45"/>
<text text-anchor="start" x="55.5" y="-51.2" font-family="Times,serif" font-size="14.00"> REG </text>
<polygon fill="none" stroke="black" points="93,-45 93,-67.5 147.75,-67.5 147.75,-45 93,-45"/>
<text text-anchor="start" x="103.12" y="-51.2" font-family="Times,serif" font-size="14.00"> REG </text>
<polygon fill="none" stroke="black" points="147.75,-45 147.75,-67.5 202.5,-67.5 202.5,-45 147.75,-45"/>
<text text-anchor="start" x="157.88" y="-51.2" font-family="Times,serif" font-size="14.00"> REG </text>
<polygon fill="none" stroke="black" points="0,-22.5 0,-45 52.5,-45 52.5,-22.5 0,-22.5"/>
<text text-anchor="start" x="3" y="-28.7" font-family="Times,serif" font-size="14.00"> DPOW </text>
<polygon fill="none" stroke="black" points="52.5,-22.5 52.5,-45 93,-45 93,-22.5 52.5,-22.5"/>
<text text-anchor="start" x="55.5" y="-28.7" font-family="Times,serif" font-size="14.00"> REG </text>
<polygon fill="none" stroke="black" points="93,-22.5 93,-45 147.75,-45 147.75,-22.5 93,-22.5"/>
<text text-anchor="start" x="103.12" y="-28.7" font-family="Times,serif" font-size="14.00"> REG </text>
<polygon fill="none" stroke="black" points="147.75,-22.5 147.75,-45 202.5,-45 202.5,-22.5 147.75,-22.5"/>
<text text-anchor="start" x="150.75" y="-28.7" font-family="Times,serif" font-size="14.00"> FLOAT </text>
<polygon fill="none" stroke="black" points="0,0 0,-22.5 52.5,-22.5 52.5,0 0,0"/>
<text text-anchor="start" x="3" y="-6.2" font-family="Times,serif" font-size="14.00"> DPOW </text>
<polygon fill="none" stroke="black" points="52.5,0 52.5,-22.5 93,-22.5 93,0 52.5,0"/>
<text text-anchor="start" x="55.5" y="-6.2" font-family="Times,serif" font-size="14.00"> REG </text>
<polygon fill="none" stroke="black" points="93,0 93,-22.5 147.75,-22.5 147.75,0 93,0"/>
<text text-anchor="start" x="96" y="-6.2" font-family="Times,serif" font-size="14.00"> FLOAT </text>
<polygon fill="none" stroke="black" points="147.75,0 147.75,-22.5 202.5,-22.5 202.5,0 147.75,0"/>
<text text-anchor="start" x="157.88" y="-6.2" font-family="Times,serif" font-size="14.00"> REG </text>
</g>
</g>
</svg>
