<?xml version="1.0" encoding="UTF-8" standalone="no"?>
<!DOCTYPE svg PUBLIC "-//W3C//DTD SVG 1.1//EN"
 "http://www.w3.org/Graphics/SVG/1.1/DTD/svg11.dtd">
<!-- Generated by graphviz version 12.1.2 (20240928.0832)
 -->
<!-- Pages: 1 -->
<svg width="279pt" height="116pt"
 viewBox="0.00 0.00 279.00 116.00" xmlns="http://www.w3.org/2000/svg" xmlns:xlink="http://www.w3.org/1999/xlink">
<g id="graph0" class="graph" transform="scale(1 1) rotate(0) translate(36 80)">
<polygon fill="white" stroke="none" points="-36,36 -36,-80 243,-80 243,36 -36,36"/>
<!-- Foo -->
<g id="node1" class="node">
<title>Foo</title>
<polygon fill="none" stroke="black" points="0,-22 0,-44 87,-44 87,-22 0,-22"/>
<text text-anchor="start" x="23.25" y="-27.7" font-family="Times,serif" font-size="14.00"> Name </text>
<polygon fill="none" stroke="black" points="87,-22 87,-44 127,-44 127,-22 87,-22"/>
<text text-anchor="start" x="91.25" y="-27.7" font-family="Times,serif" font-size="14.00"> OP1 </text>
<polygon fill="none" stroke="black" points="127,-22 127,-44 167,-44 167,-22 127,-22"/>
<text text-anchor="start" x="131.25" y="-27.7" font-family="Times,serif" font-size="14.00"> OP2 </text>
<polygon fill="none" stroke="black" points="167,-22 167,-44 207,-44 207,-22 167,-22"/>
<text text-anchor="start" x="171.25" y="-27.7" font-family="Times,serif" font-size="14.00"> OP3 </text>
<polygon fill="none" stroke="black" points="0,0 0,-22 87,-22 87,0 0,0"/>
<text text-anchor="start" x="3" y="-5.7" font-family="Times,serif" font-size="14.00"> DROPCHAR </text>
<polygon fill="none" stroke="black" points="87,0 87,-22 127,-22 127,0 87,0"/>
<text text-anchor="start" x="89.75" y="-5.7" font-family="Times,serif" font-size="14.00"> REG </text>
<polygon fill="none" stroke="black" points="127,0 127,-22 167,-22 167,0 127,0"/>
<text text-anchor="start" x="129.75" y="-5.7" font-family="Times,serif" font-size="14.00"> REG </text>
<polygon fill="none" stroke="black" points="167,0 167,-22 207,-22 207,0 167,0"/>
<text text-anchor="start" x="169.75" y="-5.7" font-family="Times,serif" font-size="14.00"> REG </text>
</g>
</g>
</svg>
