<?xml version="1.0" encoding="UTF-8" standalone="no"?>
<!DOCTYPE svg PUBLIC "-//W3C//DTD SVG 1.1//EN"
 "http://www.w3.org/Graphics/SVG/1.1/DTD/svg11.dtd">
<!-- Generated by graphviz version 7.0.4 (20221203.1631)
 -->
<!-- Pages: 1 -->
<svg width="194pt" height="156pt"
 viewBox="0.00 0.00 194.00 156.00" xmlns="http://www.w3.org/2000/svg" xmlns:xlink="http://www.w3.org/1999/xlink">
<g id="graph0" class="graph" transform="scale(1 1) rotate(0) translate(36 120)">
<polygon fill="white" stroke="none" points="-36,36 -36,-120 158,-120 158,36 -36,36"/>
<!-- Foo -->
<g id="node1" class="node">
<title>Foo</title>
<polygon fill="none" stroke="black" points="0,-63 0,-84 47,-84 47,-63 0,-63"/>
<text text-anchor="start" x="3" y="-69.8" font-family="Times,serif" font-size="14.00"> Name </text>
<polygon fill="none" stroke="black" points="47,-63 47,-84 122,-84 122,-63 47,-63"/>
<text text-anchor="start" x="68.5" y="-69.8" font-family="Times,serif" font-size="14.00"> OP1 </text>
<polygon fill="none" stroke="black" points="0,-42 0,-63 47,-63 47,-42 0,-42"/>
<text text-anchor="start" x="4.5" y="-48.8" font-family="Times,serif" font-size="14.00"> EXIT </text>
<polygon fill="none" stroke="black" points="47,-42 47,-63 122,-63 122,-42 47,-42"/>
<text text-anchor="start" x="50" y="-48.8" font-family="Times,serif" font-size="14.00"> no operand </text>
<polygon fill="none" stroke="black" points="0,-21 0,-42 47,-42 47,-21 0,-21"/>
<text text-anchor="start" x="4.5" y="-27.8" font-family="Times,serif" font-size="14.00"> EXIT </text>
<polygon fill="none" stroke="black" points="47,-21 47,-42 122,-42 122,-21 47,-21"/>
<text text-anchor="start" x="67" y="-27.8" font-family="Times,serif" font-size="14.00"> REG </text>
<polygon fill="none" stroke="black" points="0,0 0,-21 47,-21 47,0 0,0"/>
<text text-anchor="start" x="4.5" y="-6.8" font-family="Times,serif" font-size="14.00"> EXIT </text>
<polygon fill="none" stroke="black" points="47,0 47,-21 122,-21 122,0 47,0"/>
<text text-anchor="start" x="69.5" y="-6.8" font-family="Times,serif" font-size="14.00"> INT </text>
</g>
</g>
</svg>
