<?xml version="1.0" encoding="UTF-8" standalone="no"?>
<!DOCTYPE svg PUBLIC "-//W3C//DTD SVG 1.1//EN"
 "http://www.w3.org/Graphics/SVG/1.1/DTD/svg11.dtd">
<!-- Generated by graphviz version 12.1.2 (20240928.0832)
 -->
<!-- Pages: 1 -->
<svg width="192pt" height="160pt"
 viewBox="0.00 0.00 192.00 160.00" xmlns="http://www.w3.org/2000/svg" xmlns:xlink="http://www.w3.org/1999/xlink">
<g id="graph0" class="graph" transform="scale(1 1) rotate(0) translate(36 124)">
<polygon fill="white" stroke="none" points="-36,36 -36,-124 156,-124 156,36 -36,36"/>
<!-- Foo -->
<g id="node1" class="node">
<title>Foo</title>
<polygon fill="none" stroke="black" points="0,-66 0,-88 46,-88 46,-66 0,-66"/>
<text text-anchor="start" x="2.75" y="-71.7" font-family="Times,serif" font-size="14.00"> Name </text>
<polygon fill="none" stroke="black" points="46,-66 46,-88 120,-88 120,-66 46,-66"/>
<text text-anchor="start" x="67.25" y="-71.7" font-family="Times,serif" font-size="14.00"> OP1 </text>
<polygon fill="none" stroke="black" points="0,-44 0,-66 46,-66 46,-44 0,-44"/>
<text text-anchor="start" x="4.25" y="-49.7" font-family="Times,serif" font-size="14.00"> EXIT </text>
<polygon fill="none" stroke="black" points="46,-44 46,-66 120,-66 120,-44 46,-44"/>
<text text-anchor="start" x="48.88" y="-49.7" font-family="Times,serif" font-size="14.00"> no operand </text>
<polygon fill="none" stroke="black" points="0,-22 0,-44 46,-44 46,-22 0,-22"/>
<text text-anchor="start" x="4.25" y="-27.7" font-family="Times,serif" font-size="14.00"> EXIT </text>
<polygon fill="none" stroke="black" points="46,-22 46,-44 120,-44 120,-22 46,-22"/>
<text text-anchor="start" x="65.75" y="-27.7" font-family="Times,serif" font-size="14.00"> REG </text>
<polygon fill="none" stroke="black" points="0,0 0,-22 46,-22 46,0 0,0"/>
<text text-anchor="start" x="4.25" y="-5.7" font-family="Times,serif" font-size="14.00"> EXIT </text>
<polygon fill="none" stroke="black" points="46,0 46,-22 120,-22 120,0 46,0"/>
<text text-anchor="start" x="68.38" y="-5.7" font-family="Times,serif" font-size="14.00"> INT </text>
</g>
</g>
</svg>
