<?xml version="1.0" encoding="UTF-8" standalone="no"?>
<!DOCTYPE svg PUBLIC "-//W3C//DTD SVG 1.1//EN"
 "http://www.w3.org/Graphics/SVG/1.1/DTD/svg11.dtd">
<!-- Generated by graphviz version 12.1.2 (20240928.0832)
 -->
<!-- Pages: 1 -->
<svg width="256pt" height="116pt"
 viewBox="0.00 0.00 256.00 116.00" xmlns="http://www.w3.org/2000/svg" xmlns:xlink="http://www.w3.org/1999/xlink">
<g id="graph0" class="graph" transform="scale(1 1) rotate(0) translate(36 80)">
<polygon fill="white" stroke="none" points="-36,36 -36,-80 220,-80 220,36 -36,36"/>
<!-- Foo -->
<g id="node1" class="node">
<title>Foo</title>
<polygon fill="none" stroke="black" points="0,-22 0,-44 50,-44 50,-22 0,-22"/>
<text text-anchor="start" x="4.75" y="-27.7" font-family="Times,serif" font-size="14.00"> Name </text>
<polygon fill="none" stroke="black" points="50,-22 50,-44 90,-44 90,-22 50,-22"/>
<text text-anchor="start" x="54.25" y="-27.7" font-family="Times,serif" font-size="14.00"> OP1 </text>
<polygon fill="none" stroke="black" points="90,-22 90,-44 130,-44 130,-22 90,-22"/>
<text text-anchor="start" x="94.25" y="-27.7" font-family="Times,serif" font-size="14.00"> OP2 </text>
<polygon fill="none" stroke="black" points="130,-22 130,-44 184,-44 184,-22 130,-22"/>
<text text-anchor="start" x="141.25" y="-27.7" font-family="Times,serif" font-size="14.00"> OP3 </text>
<polygon fill="none" stroke="black" points="0,0 0,-22 50,-22 50,0 0,0"/>
<text text-anchor="start" x="2.88" y="-5.7" font-family="Times,serif" font-size="14.00"> FADD </text>
<polygon fill="none" stroke="black" points="50,0 50,-22 90,-22 90,0 50,0"/>
<text text-anchor="start" x="52.75" y="-5.7" font-family="Times,serif" font-size="14.00"> REG </text>
<polygon fill="none" stroke="black" points="90,0 90,-22 130,-22 130,0 90,0"/>
<text text-anchor="start" x="92.75" y="-5.7" font-family="Times,serif" font-size="14.00"> REG </text>
<polygon fill="none" stroke="black" points="130,0 130,-22 184,-22 184,0 130,0"/>
<text text-anchor="start" x="132.62" y="-5.7" font-family="Times,serif" font-size="14.00"> FLOAT </text>
</g>
</g>
</svg>
