<?xml version="1.0" encoding="UTF-8" standalone="no"?>
<!DOCTYPE svg PUBLIC "-//W3C//DTD SVG 1.1//EN"
 "http://www.w3.org/Graphics/SVG/1.1/DTD/svg11.dtd">
<!-- Generated by graphviz version 7.0.4 (20221203.1631)
 -->
<!-- Pages: 1 -->
<svg width="312pt" height="135pt"
 viewBox="0.00 0.00 312.00 135.00" xmlns="http://www.w3.org/2000/svg" xmlns:xlink="http://www.w3.org/1999/xlink">
<g id="graph0" class="graph" transform="scale(1 1) rotate(0) translate(36 99)">
<polygon fill="white" stroke="none" points="-36,36 -36,-99 276,-99 276,36 -36,36"/>
<!-- Foo -->
<g id="node1" class="node">
<title>Foo</title>
<polygon fill="none" stroke="black" points="0,-41.5 0,-62.5 56,-62.5 56,-41.5 0,-41.5"/>
<text text-anchor="start" x="3" y="-48.3" font-family="Times,serif" font-size="14.00"> Opcode </text>
<polygon fill="none" stroke="black" points="56,-41.5 56,-62.5 103,-62.5 103,-41.5 56,-41.5"/>
<text text-anchor="start" x="59" y="-48.3" font-family="Times,serif" font-size="14.00"> Name </text>
<polygon fill="none" stroke="black" points="103,-41.5 103,-62.5 144,-62.5 144,-41.5 103,-41.5"/>
<text text-anchor="start" x="107.5" y="-48.3" font-family="Times,serif" font-size="14.00"> OP1 </text>
<polygon fill="none" stroke="black" points="144,-41.5 144,-62.5 185,-62.5 185,-41.5 144,-41.5"/>
<text text-anchor="start" x="148.5" y="-48.3" font-family="Times,serif" font-size="14.00"> OP2 </text>
<polygon fill="none" stroke="black" points="185,-41.5 185,-62.5 240,-62.5 240,-41.5 185,-41.5"/>
<text text-anchor="start" x="196.5" y="-48.3" font-family="Times,serif" font-size="14.00"> OP3 </text>
<polygon fill="none" stroke="black" points="0,-20.5 0,-41.5 56,-41.5 56,-20.5 0,-20.5"/>
<text text-anchor="start" x="3.5" y="-27.3" font-family="Times,serif" font-size="14.00"> 0x0075 </text>
<polygon fill="none" stroke="black" points="56,-20.5 56,-41.5 103,-41.5 103,-20.5 56,-20.5"/>
<text text-anchor="start" x="62.5" y="-27.3" font-family="Times,serif" font-size="14.00"> FEQ </text>
<polygon fill="none" stroke="black" points="103,-20.5 103,-41.5 144,-41.5 144,-20.5 103,-20.5"/>
<text text-anchor="start" x="106" y="-27.3" font-family="Times,serif" font-size="14.00"> REG </text>
<polygon fill="none" stroke="black" points="144,-20.5 144,-41.5 185,-41.5 185,-20.5 144,-20.5"/>
<text text-anchor="start" x="147" y="-27.3" font-family="Times,serif" font-size="14.00"> REG </text>
<polygon fill="none" stroke="black" points="185,-20.5 185,-41.5 240,-41.5 240,-20.5 185,-20.5"/>
<text text-anchor="start" x="188" y="-27.3" font-family="Times,serif" font-size="14.00"> FLOAT </text>
<polygon fill="none" stroke="black" points="0,0.5 0,-20.5 56,-20.5 56,0.5 0,0.5"/>
<text text-anchor="start" x="3.5" y="-6.3" font-family="Times,serif" font-size="14.00"> 0x0074 </text>
<polygon fill="none" stroke="black" points="56,0.5 56,-20.5 103,-20.5 103,0.5 56,0.5"/>
<text text-anchor="start" x="62.5" y="-6.3" font-family="Times,serif" font-size="14.00"> FEQ </text>
<polygon fill="none" stroke="black" points="103,0.5 103,-20.5 144,-20.5 144,0.5 103,0.5"/>
<text text-anchor="start" x="106" y="-6.3" font-family="Times,serif" font-size="14.00"> REG </text>
<polygon fill="none" stroke="black" points="144,0.5 144,-20.5 185,-20.5 185,0.5 144,0.5"/>
<text text-anchor="start" x="147" y="-6.3" font-family="Times,serif" font-size="14.00"> REG </text>
<polygon fill="none" stroke="black" points="185,0.5 185,-20.5 240,-20.5 240,0.5 185,0.5"/>
<text text-anchor="start" x="195" y="-6.3" font-family="Times,serif" font-size="14.00"> REG </text>
</g>
</g>
</svg>
