<?xml version="1.0" encoding="UTF-8" standalone="no"?>
<!DOCTYPE svg PUBLIC "-//W3C//DTD SVG 1.1//EN"
 "http://www.w3.org/Graphics/SVG/1.1/DTD/svg11.dtd">
<!-- Generated by graphviz version 12.1.2 (20240928.0832)
 -->
<!-- Pages: 1 -->
<svg width="267pt" height="116pt"
 viewBox="0.00 0.00 267.00 116.00" xmlns="http://www.w3.org/2000/svg" xmlns:xlink="http://www.w3.org/1999/xlink">
<g id="graph0" class="graph" transform="scale(1 1) rotate(0) translate(36 80)">
<polygon fill="white" stroke="none" points="-36,36 -36,-80 231,-80 231,36 -36,36"/>
<!-- Foo -->
<g id="node1" class="node">
<title>Foo</title>
<polygon fill="none" stroke="black" points="0,-22 0,-44 75,-44 75,-22 0,-22"/>
<text text-anchor="start" x="17.25" y="-27.7" font-family="Times,serif" font-size="14.00"> Name </text>
<polygon fill="none" stroke="black" points="75,-22 75,-44 115,-44 115,-22 75,-22"/>
<text text-anchor="start" x="79.25" y="-27.7" font-family="Times,serif" font-size="14.00"> OP1 </text>
<polygon fill="none" stroke="black" points="115,-22 115,-44 155,-44 155,-22 115,-22"/>
<text text-anchor="start" x="119.25" y="-27.7" font-family="Times,serif" font-size="14.00"> OP2 </text>
<polygon fill="none" stroke="black" points="155,-22 155,-44 195,-44 195,-22 155,-22"/>
<text text-anchor="start" x="159.25" y="-27.7" font-family="Times,serif" font-size="14.00"> OP3 </text>
<polygon fill="none" stroke="black" points="0,0 0,-22 75,-22 75,0 0,0"/>
<text text-anchor="start" x="2.62" y="-5.7" font-family="Times,serif" font-size="14.00"> FFORMAT </text>
<polygon fill="none" stroke="black" points="75,0 75,-22 115,-22 115,0 75,0"/>
<text text-anchor="start" x="77.75" y="-5.7" font-family="Times,serif" font-size="14.00"> REG </text>
<polygon fill="none" stroke="black" points="115,0 115,-22 155,-22 155,0 115,0"/>
<text text-anchor="start" x="117.75" y="-5.7" font-family="Times,serif" font-size="14.00"> REG </text>
<polygon fill="none" stroke="black" points="155,0 155,-22 195,-22 195,0 155,0"/>
<text text-anchor="start" x="157.75" y="-5.7" font-family="Times,serif" font-size="14.00"> REG </text>
</g>
</g>
</svg>
