<?xml version="1.0" encoding="UTF-8" standalone="no"?>
<!DOCTYPE svg PUBLIC "-//W3C//DTD SVG 1.1//EN"
 "http://www.w3.org/Graphics/SVG/1.1/DTD/svg11.dtd">
<!-- Generated by graphviz version 7.0.4 (20221203.1631)
 -->
<!-- Pages: 1 -->
<svg width="326pt" height="219pt"
 viewBox="0.00 0.00 326.00 219.00" xmlns="http://www.w3.org/2000/svg" xmlns:xlink="http://www.w3.org/1999/xlink">
<g id="graph0" class="graph" transform="scale(1 1) rotate(0) translate(36 183)">
<polygon fill="white" stroke="none" points="-36,36 -36,-183 290,-183 290,36 -36,36"/>
<!-- Foo -->
<g id="node1" class="node">
<title>Foo</title>
<polygon fill="none" stroke="black" points="0,-125.5 0,-146.5 56,-146.5 56,-125.5 0,-125.5"/>
<text text-anchor="start" x="3" y="-132.3" font-family="Times,serif" font-size="14.00"> Opcode </text>
<polygon fill="none" stroke="black" points="56,-125.5 56,-146.5 103,-146.5 103,-125.5 56,-125.5"/>
<text text-anchor="start" x="59" y="-132.3" font-family="Times,serif" font-size="14.00"> Name </text>
<polygon fill="none" stroke="black" points="103,-125.5 103,-146.5 144,-146.5 144,-125.5 103,-125.5"/>
<text text-anchor="start" x="107.5" y="-132.3" font-family="Times,serif" font-size="14.00"> OP1 </text>
<polygon fill="none" stroke="black" points="144,-125.5 144,-146.5 199,-146.5 199,-125.5 144,-125.5"/>
<text text-anchor="start" x="155.5" y="-132.3" font-family="Times,serif" font-size="14.00"> OP2 </text>
<polygon fill="none" stroke="black" points="199,-125.5 199,-146.5 254,-146.5 254,-125.5 199,-125.5"/>
<text text-anchor="start" x="210.5" y="-132.3" font-family="Times,serif" font-size="14.00"> OP3 </text>
<polygon fill="none" stroke="black" points="0,-104.5 0,-125.5 56,-125.5 56,-104.5 0,-104.5"/>
<text text-anchor="start" x="3.5" y="-111.3" font-family="Times,serif" font-size="14.00"> 0x0078 </text>
<polygon fill="none" stroke="black" points="56,-104.5 56,-125.5 103,-125.5 103,-104.5 56,-104.5"/>
<text text-anchor="start" x="63" y="-111.3" font-family="Times,serif" font-size="14.00"> FGT </text>
<polygon fill="none" stroke="black" points="103,-104.5 103,-125.5 144,-125.5 144,-104.5 103,-104.5"/>
<text text-anchor="start" x="106" y="-111.3" font-family="Times,serif" font-size="14.00"> REG </text>
<polygon fill="none" stroke="black" points="144,-104.5 144,-125.5 199,-125.5 199,-104.5 144,-104.5"/>
<text text-anchor="start" x="154" y="-111.3" font-family="Times,serif" font-size="14.00"> REG </text>
<polygon fill="none" stroke="black" points="199,-104.5 199,-125.5 254,-125.5 254,-104.5 199,-104.5"/>
<text text-anchor="start" x="209" y="-111.3" font-family="Times,serif" font-size="14.00"> REG </text>
<polygon fill="none" stroke="black" points="0,-83.5 0,-104.5 56,-104.5 56,-83.5 0,-83.5"/>
<text text-anchor="start" x="3.5" y="-90.3" font-family="Times,serif" font-size="14.00"> 0x0079 </text>
<polygon fill="none" stroke="black" points="56,-83.5 56,-104.5 103,-104.5 103,-83.5 56,-83.5"/>
<text text-anchor="start" x="63" y="-90.3" font-family="Times,serif" font-size="14.00"> FGT </text>
<polygon fill="none" stroke="black" points="103,-83.5 103,-104.5 144,-104.5 144,-83.5 103,-83.5"/>
<text text-anchor="start" x="106" y="-90.3" font-family="Times,serif" font-size="14.00"> REG </text>
<polygon fill="none" stroke="black" points="144,-83.5 144,-104.5 199,-104.5 199,-83.5 144,-83.5"/>
<text text-anchor="start" x="154" y="-90.3" font-family="Times,serif" font-size="14.00"> REG </text>
<polygon fill="none" stroke="black" points="199,-83.5 199,-104.5 254,-104.5 254,-83.5 199,-83.5"/>
<text text-anchor="start" x="202" y="-90.3" font-family="Times,serif" font-size="14.00"> FLOAT </text>
<polygon fill="none" stroke="black" points="0,-62.5 0,-83.5 56,-83.5 56,-62.5 0,-62.5"/>
<text text-anchor="start" x="4" y="-69.3" font-family="Times,serif" font-size="14.00"> 0x007a </text>
<polygon fill="none" stroke="black" points="56,-62.5 56,-83.5 103,-83.5 103,-62.5 56,-62.5"/>
<text text-anchor="start" x="63" y="-69.3" font-family="Times,serif" font-size="14.00"> FGT </text>
<polygon fill="none" stroke="black" points="103,-62.5 103,-83.5 144,-83.5 144,-62.5 103,-62.5"/>
<text text-anchor="start" x="106" y="-69.3" font-family="Times,serif" font-size="14.00"> REG </text>
<polygon fill="none" stroke="black" points="144,-62.5 144,-83.5 199,-83.5 199,-62.5 144,-62.5"/>
<text text-anchor="start" x="147" y="-69.3" font-family="Times,serif" font-size="14.00"> FLOAT </text>
<polygon fill="none" stroke="black" points="199,-62.5 199,-83.5 254,-83.5 254,-62.5 199,-62.5"/>
<text text-anchor="start" x="209" y="-69.3" font-family="Times,serif" font-size="14.00"> REG </text>
<polygon fill="none" stroke="black" points="0,-41.5 0,-62.5 56,-62.5 56,-41.5 0,-41.5"/>
<text text-anchor="start" x="3.5" y="-48.3" font-family="Times,serif" font-size="14.00"> 0x007b </text>
<polygon fill="none" stroke="black" points="56,-41.5 56,-62.5 103,-62.5 103,-41.5 56,-41.5"/>
<text text-anchor="start" x="63" y="-48.3" font-family="Times,serif" font-size="14.00"> FGT </text>
<polygon fill="none" stroke="black" points="103,-41.5 103,-62.5 144,-62.5 144,-41.5 103,-41.5"/>
<text text-anchor="start" x="106" y="-48.3" font-family="Times,serif" font-size="14.00"> REG </text>
<polygon fill="none" stroke="black" points="144,-41.5 144,-62.5 199,-62.5 199,-41.5 144,-41.5"/>
<text text-anchor="start" x="154" y="-48.3" font-family="Times,serif" font-size="14.00"> REG </text>
<polygon fill="none" stroke="black" points="199,-41.5 199,-62.5 254,-62.5 254,-41.5 199,-41.5"/>
<text text-anchor="start" x="209" y="-48.3" font-family="Times,serif" font-size="14.00"> REG </text>
<polygon fill="none" stroke="black" points="0,-20.5 0,-41.5 56,-41.5 56,-20.5 0,-20.5"/>
<text text-anchor="start" x="4" y="-27.3" font-family="Times,serif" font-size="14.00"> 0x007c </text>
<polygon fill="none" stroke="black" points="56,-20.5 56,-41.5 103,-41.5 103,-20.5 56,-20.5"/>
<text text-anchor="start" x="63" y="-27.3" font-family="Times,serif" font-size="14.00"> FGT </text>
<polygon fill="none" stroke="black" points="103,-20.5 103,-41.5 144,-41.5 144,-20.5 103,-20.5"/>
<text text-anchor="start" x="106" y="-27.3" font-family="Times,serif" font-size="14.00"> REG </text>
<polygon fill="none" stroke="black" points="144,-20.5 144,-41.5 199,-41.5 199,-20.5 144,-20.5"/>
<text text-anchor="start" x="154" y="-27.3" font-family="Times,serif" font-size="14.00"> REG </text>
<polygon fill="none" stroke="black" points="199,-20.5 199,-41.5 254,-41.5 254,-20.5 199,-20.5"/>
<text text-anchor="start" x="202" y="-27.3" font-family="Times,serif" font-size="14.00"> FLOAT </text>
<polygon fill="none" stroke="black" points="0,0.5 0,-20.5 56,-20.5 56,0.5 0,0.5"/>
<text text-anchor="start" x="3.5" y="-6.3" font-family="Times,serif" font-size="14.00"> 0x007d </text>
<polygon fill="none" stroke="black" points="56,0.5 56,-20.5 103,-20.5 103,0.5 56,0.5"/>
<text text-anchor="start" x="63" y="-6.3" font-family="Times,serif" font-size="14.00"> FGT </text>
<polygon fill="none" stroke="black" points="103,0.5 103,-20.5 144,-20.5 144,0.5 103,0.5"/>
<text text-anchor="start" x="106" y="-6.3" font-family="Times,serif" font-size="14.00"> REG </text>
<polygon fill="none" stroke="black" points="144,0.5 144,-20.5 199,-20.5 199,0.5 144,0.5"/>
<text text-anchor="start" x="147" y="-6.3" font-family="Times,serif" font-size="14.00"> FLOAT </text>
<polygon fill="none" stroke="black" points="199,0.5 199,-20.5 254,-20.5 254,0.5 199,0.5"/>
<text text-anchor="start" x="209" y="-6.3" font-family="Times,serif" font-size="14.00"> REG </text>
</g>
</g>
</svg>
