<?xml version="1.0" encoding="UTF-8" standalone="no"?>
<!DOCTYPE svg PUBLIC "-//W3C//DTD SVG 1.1//EN"
 "http://www.w3.org/Graphics/SVG/1.1/DTD/svg11.dtd">
<!-- Generated by graphviz version 7.0.4 (20221203.1631)
 -->
<!-- Pages: 1 -->
<svg width="271pt" height="156pt"
 viewBox="0.00 0.00 271.00 156.00" xmlns="http://www.w3.org/2000/svg" xmlns:xlink="http://www.w3.org/1999/xlink">
<g id="graph0" class="graph" transform="scale(1 1) rotate(0) translate(36 120)">
<polygon fill="white" stroke="none" points="-36,36 -36,-120 235,-120 235,36 -36,36"/>
<!-- Foo -->
<g id="node1" class="node">
<title>Foo</title>
<polygon fill="none" stroke="black" points="0.5,-63 0.5,-84 48.5,-84 48.5,-63 0.5,-63"/>
<text text-anchor="start" x="4" y="-69.8" font-family="Times,serif" font-size="14.00"> Name </text>
<polygon fill="none" stroke="black" points="48.5,-63 48.5,-84 89.5,-84 89.5,-63 48.5,-63"/>
<text text-anchor="start" x="53" y="-69.8" font-family="Times,serif" font-size="14.00"> OP1 </text>
<polygon fill="none" stroke="black" points="89.5,-63 89.5,-84 144.5,-84 144.5,-63 89.5,-63"/>
<text text-anchor="start" x="101" y="-69.8" font-family="Times,serif" font-size="14.00"> OP2 </text>
<polygon fill="none" stroke="black" points="144.5,-63 144.5,-84 199.5,-84 199.5,-63 144.5,-63"/>
<text text-anchor="start" x="156" y="-69.8" font-family="Times,serif" font-size="14.00"> OP3 </text>
<polygon fill="none" stroke="black" points="0.5,-42 0.5,-63 48.5,-63 48.5,-42 0.5,-42"/>
<text text-anchor="start" x="3.5" y="-48.8" font-family="Times,serif" font-size="14.00"> FGTE </text>
<polygon fill="none" stroke="black" points="48.5,-42 48.5,-63 89.5,-63 89.5,-42 48.5,-42"/>
<text text-anchor="start" x="51.5" y="-48.8" font-family="Times,serif" font-size="14.00"> REG </text>
<polygon fill="none" stroke="black" points="89.5,-42 89.5,-63 144.5,-63 144.5,-42 89.5,-42"/>
<text text-anchor="start" x="99.5" y="-48.8" font-family="Times,serif" font-size="14.00"> REG </text>
<polygon fill="none" stroke="black" points="144.5,-42 144.5,-63 199.5,-63 199.5,-42 144.5,-42"/>
<text text-anchor="start" x="154.5" y="-48.8" font-family="Times,serif" font-size="14.00"> REG </text>
<polygon fill="none" stroke="black" points="0.5,-21 0.5,-42 48.5,-42 48.5,-21 0.5,-21"/>
<text text-anchor="start" x="3.5" y="-27.8" font-family="Times,serif" font-size="14.00"> FGTE </text>
<polygon fill="none" stroke="black" points="48.5,-21 48.5,-42 89.5,-42 89.5,-21 48.5,-21"/>
<text text-anchor="start" x="51.5" y="-27.8" font-family="Times,serif" font-size="14.00"> REG </text>
<polygon fill="none" stroke="black" points="89.5,-21 89.5,-42 144.5,-42 144.5,-21 89.5,-21"/>
<text text-anchor="start" x="99.5" y="-27.8" font-family="Times,serif" font-size="14.00"> REG </text>
<polygon fill="none" stroke="black" points="144.5,-21 144.5,-42 199.5,-42 199.5,-21 144.5,-21"/>
<text text-anchor="start" x="147.5" y="-27.8" font-family="Times,serif" font-size="14.00"> FLOAT </text>
<polygon fill="none" stroke="black" points="0.5,0 0.5,-21 48.5,-21 48.5,0 0.5,0"/>
<text text-anchor="start" x="3.5" y="-6.8" font-family="Times,serif" font-size="14.00"> FGTE </text>
<polygon fill="none" stroke="black" points="48.5,0 48.5,-21 89.5,-21 89.5,0 48.5,0"/>
<text text-anchor="start" x="51.5" y="-6.8" font-family="Times,serif" font-size="14.00"> REG </text>
<polygon fill="none" stroke="black" points="89.5,0 89.5,-21 144.5,-21 144.5,0 89.5,0"/>
<text text-anchor="start" x="92.5" y="-6.8" font-family="Times,serif" font-size="14.00"> FLOAT </text>
<polygon fill="none" stroke="black" points="144.5,0 144.5,-21 199.5,-21 199.5,0 144.5,0"/>
<text text-anchor="start" x="154.5" y="-6.8" font-family="Times,serif" font-size="14.00"> REG </text>
</g>
</g>
</svg>
