<?xml version="1.0" encoding="UTF-8" standalone="no"?>
<!DOCTYPE svg PUBLIC "-//W3C//DTD SVG 1.1//EN"
 "http://www.w3.org/Graphics/SVG/1.1/DTD/svg11.dtd">
<!-- Generated by graphviz version 7.0.4 (20221203.1631)
 -->
<!-- Pages: 1 -->
<svg width="327pt" height="156pt"
 viewBox="0.00 0.00 327.00 156.00" xmlns="http://www.w3.org/2000/svg" xmlns:xlink="http://www.w3.org/1999/xlink">
<g id="graph0" class="graph" transform="scale(1 1) rotate(0) translate(36 120)">
<polygon fill="white" stroke="none" points="-36,36 -36,-120 291,-120 291,36 -36,36"/>
<!-- Foo -->
<g id="node1" class="node">
<title>Foo</title>
<polygon fill="none" stroke="black" points="0.5,-63 0.5,-84 56.5,-84 56.5,-63 0.5,-63"/>
<text text-anchor="start" x="3.5" y="-69.8" font-family="Times,serif" font-size="14.00"> Opcode </text>
<polygon fill="none" stroke="black" points="56.5,-63 56.5,-84 104.5,-84 104.5,-63 56.5,-63"/>
<text text-anchor="start" x="60" y="-69.8" font-family="Times,serif" font-size="14.00"> Name </text>
<polygon fill="none" stroke="black" points="104.5,-63 104.5,-84 145.5,-84 145.5,-63 104.5,-63"/>
<text text-anchor="start" x="109" y="-69.8" font-family="Times,serif" font-size="14.00"> OP1 </text>
<polygon fill="none" stroke="black" points="145.5,-63 145.5,-84 200.5,-84 200.5,-63 145.5,-63"/>
<text text-anchor="start" x="157" y="-69.8" font-family="Times,serif" font-size="14.00"> OP2 </text>
<polygon fill="none" stroke="black" points="200.5,-63 200.5,-84 255.5,-84 255.5,-63 200.5,-63"/>
<text text-anchor="start" x="212" y="-69.8" font-family="Times,serif" font-size="14.00"> OP3 </text>
<polygon fill="none" stroke="black" points="0.5,-42 0.5,-63 56.5,-63 56.5,-42 0.5,-42"/>
<text text-anchor="start" x="4" y="-48.8" font-family="Times,serif" font-size="14.00"> 0x007b </text>
<polygon fill="none" stroke="black" points="56.5,-42 56.5,-63 104.5,-63 104.5,-42 56.5,-42"/>
<text text-anchor="start" x="59.5" y="-48.8" font-family="Times,serif" font-size="14.00"> FGTE </text>
<polygon fill="none" stroke="black" points="104.5,-42 104.5,-63 145.5,-63 145.5,-42 104.5,-42"/>
<text text-anchor="start" x="107.5" y="-48.8" font-family="Times,serif" font-size="14.00"> REG </text>
<polygon fill="none" stroke="black" points="145.5,-42 145.5,-63 200.5,-63 200.5,-42 145.5,-42"/>
<text text-anchor="start" x="155.5" y="-48.8" font-family="Times,serif" font-size="14.00"> REG </text>
<polygon fill="none" stroke="black" points="200.5,-42 200.5,-63 255.5,-63 255.5,-42 200.5,-42"/>
<text text-anchor="start" x="210.5" y="-48.8" font-family="Times,serif" font-size="14.00"> REG </text>
<polygon fill="none" stroke="black" points="0.5,-21 0.5,-42 56.5,-42 56.5,-21 0.5,-21"/>
<text text-anchor="start" x="4.5" y="-27.8" font-family="Times,serif" font-size="14.00"> 0x007c </text>
<polygon fill="none" stroke="black" points="56.5,-21 56.5,-42 104.5,-42 104.5,-21 56.5,-21"/>
<text text-anchor="start" x="59.5" y="-27.8" font-family="Times,serif" font-size="14.00"> FGTE </text>
<polygon fill="none" stroke="black" points="104.5,-21 104.5,-42 145.5,-42 145.5,-21 104.5,-21"/>
<text text-anchor="start" x="107.5" y="-27.8" font-family="Times,serif" font-size="14.00"> REG </text>
<polygon fill="none" stroke="black" points="145.5,-21 145.5,-42 200.5,-42 200.5,-21 145.5,-21"/>
<text text-anchor="start" x="155.5" y="-27.8" font-family="Times,serif" font-size="14.00"> REG </text>
<polygon fill="none" stroke="black" points="200.5,-21 200.5,-42 255.5,-42 255.5,-21 200.5,-21"/>
<text text-anchor="start" x="203.5" y="-27.8" font-family="Times,serif" font-size="14.00"> FLOAT </text>
<polygon fill="none" stroke="black" points="0.5,0 0.5,-21 56.5,-21 56.5,0 0.5,0"/>
<text text-anchor="start" x="4" y="-6.8" font-family="Times,serif" font-size="14.00"> 0x007d </text>
<polygon fill="none" stroke="black" points="56.5,0 56.5,-21 104.5,-21 104.5,0 56.5,0"/>
<text text-anchor="start" x="59.5" y="-6.8" font-family="Times,serif" font-size="14.00"> FGTE </text>
<polygon fill="none" stroke="black" points="104.5,0 104.5,-21 145.5,-21 145.5,0 104.5,0"/>
<text text-anchor="start" x="107.5" y="-6.8" font-family="Times,serif" font-size="14.00"> REG </text>
<polygon fill="none" stroke="black" points="145.5,0 145.5,-21 200.5,-21 200.5,0 145.5,0"/>
<text text-anchor="start" x="148.5" y="-6.8" font-family="Times,serif" font-size="14.00"> FLOAT </text>
<polygon fill="none" stroke="black" points="200.5,0 200.5,-21 255.5,-21 255.5,0 200.5,0"/>
<text text-anchor="start" x="210.5" y="-6.8" font-family="Times,serif" font-size="14.00"> REG </text>
</g>
</g>
</svg>
