<?xml version="1.0" encoding="UTF-8" standalone="no"?>
<!DOCTYPE svg PUBLIC "-//W3C//DTD SVG 1.1//EN"
 "http://www.w3.org/Graphics/SVG/1.1/DTD/svg11.dtd">
<!-- Generated by graphviz version 12.1.2 (20240928.0832)
 -->
<!-- Pages: 1 -->
<svg width="266pt" height="160pt"
 viewBox="0.00 0.00 266.00 160.00" xmlns="http://www.w3.org/2000/svg" xmlns:xlink="http://www.w3.org/1999/xlink">
<g id="graph0" class="graph" transform="scale(1 1) rotate(0) translate(36 124)">
<polygon fill="white" stroke="none" points="-36,36 -36,-124 230,-124 230,36 -36,36"/>
<!-- Foo -->
<g id="node1" class="node">
<title>Foo</title>
<polygon fill="none" stroke="black" points="0,-66 0,-88 46,-88 46,-66 0,-66"/>
<text text-anchor="start" x="2.75" y="-71.7" font-family="Times,serif" font-size="14.00"> Name </text>
<polygon fill="none" stroke="black" points="46,-66 46,-88 86,-88 86,-66 46,-66"/>
<text text-anchor="start" x="50.25" y="-71.7" font-family="Times,serif" font-size="14.00"> OP1 </text>
<polygon fill="none" stroke="black" points="86,-66 86,-88 140,-88 140,-66 86,-66"/>
<text text-anchor="start" x="97.25" y="-71.7" font-family="Times,serif" font-size="14.00"> OP2 </text>
<polygon fill="none" stroke="black" points="140,-66 140,-88 194,-88 194,-66 140,-66"/>
<text text-anchor="start" x="151.25" y="-71.7" font-family="Times,serif" font-size="14.00"> OP3 </text>
<polygon fill="none" stroke="black" points="0,-44 0,-66 46,-66 46,-44 0,-44"/>
<text text-anchor="start" x="3.12" y="-49.7" font-family="Times,serif" font-size="14.00"> FLTE </text>
<polygon fill="none" stroke="black" points="46,-44 46,-66 86,-66 86,-44 46,-44"/>
<text text-anchor="start" x="48.75" y="-49.7" font-family="Times,serif" font-size="14.00"> REG </text>
<polygon fill="none" stroke="black" points="86,-44 86,-66 140,-66 140,-44 86,-44"/>
<text text-anchor="start" x="95.75" y="-49.7" font-family="Times,serif" font-size="14.00"> REG </text>
<polygon fill="none" stroke="black" points="140,-44 140,-66 194,-66 194,-44 140,-44"/>
<text text-anchor="start" x="149.75" y="-49.7" font-family="Times,serif" font-size="14.00"> REG </text>
<polygon fill="none" stroke="black" points="0,-22 0,-44 46,-44 46,-22 0,-22"/>
<text text-anchor="start" x="3.12" y="-27.7" font-family="Times,serif" font-size="14.00"> FLTE </text>
<polygon fill="none" stroke="black" points="46,-22 46,-44 86,-44 86,-22 46,-22"/>
<text text-anchor="start" x="48.75" y="-27.7" font-family="Times,serif" font-size="14.00"> REG </text>
<polygon fill="none" stroke="black" points="86,-22 86,-44 140,-44 140,-22 86,-22"/>
<text text-anchor="start" x="95.75" y="-27.7" font-family="Times,serif" font-size="14.00"> REG </text>
<polygon fill="none" stroke="black" points="140,-22 140,-44 194,-44 194,-22 140,-22"/>
<text text-anchor="start" x="142.62" y="-27.7" font-family="Times,serif" font-size="14.00"> FLOAT </text>
<polygon fill="none" stroke="black" points="0,0 0,-22 46,-22 46,0 0,0"/>
<text text-anchor="start" x="3.12" y="-5.7" font-family="Times,serif" font-size="14.00"> FLTE </text>
<polygon fill="none" stroke="black" points="46,0 46,-22 86,-22 86,0 46,0"/>
<text text-anchor="start" x="48.75" y="-5.7" font-family="Times,serif" font-size="14.00"> REG </text>
<polygon fill="none" stroke="black" points="86,0 86,-22 140,-22 140,0 86,0"/>
<text text-anchor="start" x="88.62" y="-5.7" font-family="Times,serif" font-size="14.00"> FLOAT </text>
<polygon fill="none" stroke="black" points="140,0 140,-22 194,-22 194,0 140,0"/>
<text text-anchor="start" x="149.75" y="-5.7" font-family="Times,serif" font-size="14.00"> REG </text>
</g>
</g>
</svg>
