<?xml version="1.0" encoding="UTF-8" standalone="no"?>
<!DOCTYPE svg PUBLIC "-//W3C//DTD SVG 1.1//EN"
 "http://www.w3.org/Graphics/SVG/1.1/DTD/svg11.dtd">
<!-- Generated by graphviz version 7.0.4 (20221203.1631)
 -->
<!-- Pages: 1 -->
<svg width="324pt" height="135pt"
 viewBox="0.00 0.00 324.00 135.00" xmlns="http://www.w3.org/2000/svg" xmlns:xlink="http://www.w3.org/1999/xlink">
<g id="graph0" class="graph" transform="scale(1 1) rotate(0) translate(36 99)">
<polygon fill="white" stroke="none" points="-36,36 -36,-99 288,-99 288,36 -36,36"/>
<!-- Foo -->
<g id="node1" class="node">
<title>Foo</title>
<polygon fill="none" stroke="black" points="0,-41.5 0,-62.5 56,-62.5 56,-41.5 0,-41.5"/>
<text text-anchor="start" x="3" y="-48.3" font-family="Times,serif" font-size="14.00"> Opcode </text>
<polygon fill="none" stroke="black" points="56,-41.5 56,-62.5 115,-62.5 115,-41.5 56,-41.5"/>
<text text-anchor="start" x="65" y="-48.3" font-family="Times,serif" font-size="14.00"> Name </text>
<polygon fill="none" stroke="black" points="115,-41.5 115,-62.5 156,-62.5 156,-41.5 115,-41.5"/>
<text text-anchor="start" x="119.5" y="-48.3" font-family="Times,serif" font-size="14.00"> OP1 </text>
<polygon fill="none" stroke="black" points="156,-41.5 156,-62.5 197,-62.5 197,-41.5 156,-41.5"/>
<text text-anchor="start" x="160.5" y="-48.3" font-family="Times,serif" font-size="14.00"> OP2 </text>
<polygon fill="none" stroke="black" points="197,-41.5 197,-62.5 252,-62.5 252,-41.5 197,-41.5"/>
<text text-anchor="start" x="208.5" y="-48.3" font-family="Times,serif" font-size="14.00"> OP3 </text>
<polygon fill="none" stroke="black" points="0,-20.5 0,-41.5 56,-41.5 56,-20.5 0,-20.5"/>
<text text-anchor="start" x="4" y="-27.3" font-family="Times,serif" font-size="14.00"> 0x002e </text>
<polygon fill="none" stroke="black" points="56,-20.5 56,-41.5 115,-41.5 115,-20.5 56,-20.5"/>
<text text-anchor="start" x="59" y="-27.3" font-family="Times,serif" font-size="14.00"> FMULT </text>
<polygon fill="none" stroke="black" points="115,-20.5 115,-41.5 156,-41.5 156,-20.5 115,-20.5"/>
<text text-anchor="start" x="118" y="-27.3" font-family="Times,serif" font-size="14.00"> REG </text>
<polygon fill="none" stroke="black" points="156,-20.5 156,-41.5 197,-41.5 197,-20.5 156,-20.5"/>
<text text-anchor="start" x="159" y="-27.3" font-family="Times,serif" font-size="14.00"> REG </text>
<polygon fill="none" stroke="black" points="197,-20.5 197,-41.5 252,-41.5 252,-20.5 197,-20.5"/>
<text text-anchor="start" x="207" y="-27.3" font-family="Times,serif" font-size="14.00"> REG </text>
<polygon fill="none" stroke="black" points="0,0.5 0,-20.5 56,-20.5 56,0.5 0,0.5"/>
<text text-anchor="start" x="5" y="-6.3" font-family="Times,serif" font-size="14.00"> 0x002f </text>
<polygon fill="none" stroke="black" points="56,0.5 56,-20.5 115,-20.5 115,0.5 56,0.5"/>
<text text-anchor="start" x="59" y="-6.3" font-family="Times,serif" font-size="14.00"> FMULT </text>
<polygon fill="none" stroke="black" points="115,0.5 115,-20.5 156,-20.5 156,0.5 115,0.5"/>
<text text-anchor="start" x="118" y="-6.3" font-family="Times,serif" font-size="14.00"> REG </text>
<polygon fill="none" stroke="black" points="156,0.5 156,-20.5 197,-20.5 197,0.5 156,0.5"/>
<text text-anchor="start" x="159" y="-6.3" font-family="Times,serif" font-size="14.00"> REG </text>
<polygon fill="none" stroke="black" points="197,0.5 197,-20.5 252,-20.5 252,0.5 197,0.5"/>
<text text-anchor="start" x="200" y="-6.3" font-family="Times,serif" font-size="14.00"> FLOAT </text>
</g>
</g>
</svg>
