<?xml version="1.0" encoding="UTF-8" standalone="no"?>
<!DOCTYPE svg PUBLIC "-//W3C//DTD SVG 1.1//EN"
 "http://www.w3.org/Graphics/SVG/1.1/DTD/svg11.dtd">
<!-- Generated by graphviz version 7.0.4 (20221203.1631)
 -->
<!-- Pages: 1 -->
<svg width="268pt" height="135pt"
 viewBox="0.00 0.00 268.00 135.00" xmlns="http://www.w3.org/2000/svg" xmlns:xlink="http://www.w3.org/1999/xlink">
<g id="graph0" class="graph" transform="scale(1 1) rotate(0) translate(36 99)">
<polygon fill="white" stroke="none" points="-36,36 -36,-99 232,-99 232,36 -36,36"/>
<!-- Foo -->
<g id="node1" class="node">
<title>Foo</title>
<polygon fill="none" stroke="black" points="0,-41.5 0,-62.5 59,-62.5 59,-41.5 0,-41.5"/>
<text text-anchor="start" x="9" y="-48.3" font-family="Times,serif" font-size="14.00"> Name </text>
<polygon fill="none" stroke="black" points="59,-41.5 59,-62.5 100,-62.5 100,-41.5 59,-41.5"/>
<text text-anchor="start" x="63.5" y="-48.3" font-family="Times,serif" font-size="14.00"> OP1 </text>
<polygon fill="none" stroke="black" points="100,-41.5 100,-62.5 141,-62.5 141,-41.5 100,-41.5"/>
<text text-anchor="start" x="104.5" y="-48.3" font-family="Times,serif" font-size="14.00"> OP2 </text>
<polygon fill="none" stroke="black" points="141,-41.5 141,-62.5 196,-62.5 196,-41.5 141,-41.5"/>
<text text-anchor="start" x="152.5" y="-48.3" font-family="Times,serif" font-size="14.00"> OP3 </text>
<polygon fill="none" stroke="black" points="0,-20.5 0,-41.5 59,-41.5 59,-20.5 0,-20.5"/>
<text text-anchor="start" x="3" y="-27.3" font-family="Times,serif" font-size="14.00"> FMULT </text>
<polygon fill="none" stroke="black" points="59,-20.5 59,-41.5 100,-41.5 100,-20.5 59,-20.5"/>
<text text-anchor="start" x="62" y="-27.3" font-family="Times,serif" font-size="14.00"> REG </text>
<polygon fill="none" stroke="black" points="100,-20.5 100,-41.5 141,-41.5 141,-20.5 100,-20.5"/>
<text text-anchor="start" x="103" y="-27.3" font-family="Times,serif" font-size="14.00"> REG </text>
<polygon fill="none" stroke="black" points="141,-20.5 141,-41.5 196,-41.5 196,-20.5 141,-20.5"/>
<text text-anchor="start" x="151" y="-27.3" font-family="Times,serif" font-size="14.00"> REG </text>
<polygon fill="none" stroke="black" points="0,0.5 0,-20.5 59,-20.5 59,0.5 0,0.5"/>
<text text-anchor="start" x="3" y="-6.3" font-family="Times,serif" font-size="14.00"> FMULT </text>
<polygon fill="none" stroke="black" points="59,0.5 59,-20.5 100,-20.5 100,0.5 59,0.5"/>
<text text-anchor="start" x="62" y="-6.3" font-family="Times,serif" font-size="14.00"> REG </text>
<polygon fill="none" stroke="black" points="100,0.5 100,-20.5 141,-20.5 141,0.5 100,0.5"/>
<text text-anchor="start" x="103" y="-6.3" font-family="Times,serif" font-size="14.00"> REG </text>
<polygon fill="none" stroke="black" points="141,0.5 141,-20.5 196,-20.5 196,0.5 141,0.5"/>
<text text-anchor="start" x="144" y="-6.3" font-family="Times,serif" font-size="14.00"> FLOAT </text>
</g>
</g>
</svg>
