<?xml version="1.0" encoding="UTF-8" standalone="no"?>
<!DOCTYPE svg PUBLIC "-//W3C//DTD SVG 1.1//EN"
 "http://www.w3.org/Graphics/SVG/1.1/DTD/svg11.dtd">
<!-- Generated by graphviz version 12.1.2 (20240928.0832)
 -->
<!-- Pages: 1 -->
<svg width="264pt" height="138pt"
 viewBox="0.00 0.00 264.00 138.00" xmlns="http://www.w3.org/2000/svg" xmlns:xlink="http://www.w3.org/1999/xlink">
<g id="graph0" class="graph" transform="scale(1 1) rotate(0) translate(36 102)">
<polygon fill="white" stroke="none" points="-36,36 -36,-102 228,-102 228,36 -36,36"/>
<!-- Foo -->
<g id="node1" class="node">
<title>Foo</title>
<polygon fill="none" stroke="black" points="0,-44 0,-66 58,-66 58,-44 0,-44"/>
<text text-anchor="start" x="8.75" y="-49.7" font-family="Times,serif" font-size="14.00"> Name </text>
<polygon fill="none" stroke="black" points="58,-44 58,-66 98,-66 98,-44 58,-44"/>
<text text-anchor="start" x="62.25" y="-49.7" font-family="Times,serif" font-size="14.00"> OP1 </text>
<polygon fill="none" stroke="black" points="98,-44 98,-66 138,-66 138,-44 98,-44"/>
<text text-anchor="start" x="102.25" y="-49.7" font-family="Times,serif" font-size="14.00"> OP2 </text>
<polygon fill="none" stroke="black" points="138,-44 138,-66 192,-66 192,-44 138,-44"/>
<text text-anchor="start" x="149.25" y="-49.7" font-family="Times,serif" font-size="14.00"> OP3 </text>
<polygon fill="none" stroke="black" points="0,-22 0,-44 58,-44 58,-22 0,-22"/>
<text text-anchor="start" x="2.75" y="-27.7" font-family="Times,serif" font-size="14.00"> FMULT </text>
<polygon fill="none" stroke="black" points="58,-22 58,-44 98,-44 98,-22 58,-22"/>
<text text-anchor="start" x="60.75" y="-27.7" font-family="Times,serif" font-size="14.00"> REG </text>
<polygon fill="none" stroke="black" points="98,-22 98,-44 138,-44 138,-22 98,-22"/>
<text text-anchor="start" x="100.75" y="-27.7" font-family="Times,serif" font-size="14.00"> REG </text>
<polygon fill="none" stroke="black" points="138,-22 138,-44 192,-44 192,-22 138,-22"/>
<text text-anchor="start" x="147.75" y="-27.7" font-family="Times,serif" font-size="14.00"> REG </text>
<polygon fill="none" stroke="black" points="0,0 0,-22 58,-22 58,0 0,0"/>
<text text-anchor="start" x="2.75" y="-5.7" font-family="Times,serif" font-size="14.00"> FMULT </text>
<polygon fill="none" stroke="black" points="58,0 58,-22 98,-22 98,0 58,0"/>
<text text-anchor="start" x="60.75" y="-5.7" font-family="Times,serif" font-size="14.00"> REG </text>
<polygon fill="none" stroke="black" points="98,0 98,-22 138,-22 138,0 98,0"/>
<text text-anchor="start" x="100.75" y="-5.7" font-family="Times,serif" font-size="14.00"> REG </text>
<polygon fill="none" stroke="black" points="138,0 138,-22 192,-22 192,0 138,0"/>
<text text-anchor="start" x="140.62" y="-5.7" font-family="Times,serif" font-size="14.00"> FLOAT </text>
</g>
</g>
</svg>
