<?xml version="1.0" encoding="UTF-8" standalone="no"?>
<!DOCTYPE svg PUBLIC "-//W3C//DTD SVG 1.1//EN"
 "http://www.w3.org/Graphics/SVG/1.1/DTD/svg11.dtd">
<!-- Generated by graphviz version 12.2.1 (20241206.2353)
 -->
<!-- Pages: 1 -->
<svg width="271pt" height="117pt"
 viewBox="0.00 0.00 270.75 117.00" xmlns="http://www.w3.org/2000/svg" xmlns:xlink="http://www.w3.org/1999/xlink">
<g id="graph0" class="graph" transform="scale(1 1) rotate(0) translate(36 81)">
<polygon fill="white" stroke="none" points="-36,36 -36,-81 234.75,-81 234.75,36 -36,36"/>
<!-- Foo -->
<g id="node1" class="node">
<title>Foo</title>
<polygon fill="none" stroke="black" points="0,-22.5 0,-45 77.25,-45 77.25,-22.5 0,-22.5"/>
<text text-anchor="start" x="18.38" y="-28.7" font-family="Times,serif" font-size="14.00"> Name </text>
<polygon fill="none" stroke="black" points="77.25,-22.5 77.25,-45 117.75,-45 117.75,-22.5 77.25,-22.5"/>
<text text-anchor="start" x="81.75" y="-28.7" font-family="Times,serif" font-size="14.00"> OP1 </text>
<polygon fill="none" stroke="black" points="117.75,-22.5 117.75,-45 158.25,-45 158.25,-22.5 117.75,-22.5"/>
<text text-anchor="start" x="122.25" y="-28.7" font-family="Times,serif" font-size="14.00"> OP2 </text>
<polygon fill="none" stroke="black" points="158.25,-22.5 158.25,-45 198.75,-45 198.75,-22.5 158.25,-22.5"/>
<text text-anchor="start" x="162.75" y="-28.7" font-family="Times,serif" font-size="14.00"> OP3 </text>
<polygon fill="none" stroke="black" points="0,0 0,-22.5 77.25,-22.5 77.25,0 0,0"/>
<text text-anchor="start" x="3" y="-6.2" font-family="Times,serif" font-size="14.00"> FNDBLNK </text>
<polygon fill="none" stroke="black" points="77.25,0 77.25,-22.5 117.75,-22.5 117.75,0 77.25,0"/>
<text text-anchor="start" x="80.25" y="-6.2" font-family="Times,serif" font-size="14.00"> REG </text>
<polygon fill="none" stroke="black" points="117.75,0 117.75,-22.5 158.25,-22.5 158.25,0 117.75,0"/>
<text text-anchor="start" x="120.75" y="-6.2" font-family="Times,serif" font-size="14.00"> REG </text>
<polygon fill="none" stroke="black" points="158.25,0 158.25,-22.5 198.75,-22.5 198.75,0 158.25,0"/>
<text text-anchor="start" x="161.25" y="-6.2" font-family="Times,serif" font-size="14.00"> REG </text>
</g>
</g>
</svg>
