<?xml version="1.0" encoding="UTF-8" standalone="no"?>
<!DOCTYPE svg PUBLIC "-//W3C//DTD SVG 1.1//EN"
 "http://www.w3.org/Graphics/SVG/1.1/DTD/svg11.dtd">
<!-- Generated by graphviz version 12.1.2 (20240928.0832)
 -->
<!-- Pages: 1 -->
<svg width="269pt" height="116pt"
 viewBox="0.00 0.00 269.00 116.00" xmlns="http://www.w3.org/2000/svg" xmlns:xlink="http://www.w3.org/1999/xlink">
<g id="graph0" class="graph" transform="scale(1 1) rotate(0) translate(36 80)">
<polygon fill="white" stroke="none" points="-36,36 -36,-80 233,-80 233,36 -36,36"/>
<!-- Foo -->
<g id="node1" class="node">
<title>Foo</title>
<polygon fill="none" stroke="black" points="0,-22 0,-44 77,-44 77,-22 0,-22"/>
<text text-anchor="start" x="18.25" y="-27.7" font-family="Times,serif" font-size="14.00"> Name </text>
<polygon fill="none" stroke="black" points="77,-22 77,-44 117,-44 117,-22 77,-22"/>
<text text-anchor="start" x="81.25" y="-27.7" font-family="Times,serif" font-size="14.00"> OP1 </text>
<polygon fill="none" stroke="black" points="117,-22 117,-44 157,-44 157,-22 117,-22"/>
<text text-anchor="start" x="121.25" y="-27.7" font-family="Times,serif" font-size="14.00"> OP2 </text>
<polygon fill="none" stroke="black" points="157,-22 157,-44 197,-44 197,-22 157,-22"/>
<text text-anchor="start" x="161.25" y="-27.7" font-family="Times,serif" font-size="14.00"> OP3 </text>
<polygon fill="none" stroke="black" points="0,0 0,-22 77,-22 77,0 0,0"/>
<text text-anchor="start" x="2.88" y="-5.7" font-family="Times,serif" font-size="14.00"> FNDBLNK </text>
<polygon fill="none" stroke="black" points="77,0 77,-22 117,-22 117,0 77,0"/>
<text text-anchor="start" x="79.75" y="-5.7" font-family="Times,serif" font-size="14.00"> REG </text>
<polygon fill="none" stroke="black" points="117,0 117,-22 157,-22 157,0 117,0"/>
<text text-anchor="start" x="119.75" y="-5.7" font-family="Times,serif" font-size="14.00"> REG </text>
<polygon fill="none" stroke="black" points="157,0 157,-22 197,-22 197,0 157,0"/>
<text text-anchor="start" x="159.75" y="-5.7" font-family="Times,serif" font-size="14.00"> REG </text>
</g>
</g>
</svg>
