<?xml version="1.0" encoding="UTF-8" standalone="no"?>
<!DOCTYPE svg PUBLIC "-//W3C//DTD SVG 1.1//EN"
 "http://www.w3.org/Graphics/SVG/1.1/DTD/svg11.dtd">
<!-- Generated by graphviz version 7.0.4 (20221203.1631)
 -->
<!-- Pages: 1 -->
<svg width="316pt" height="135pt"
 viewBox="0.00 0.00 316.00 135.00" xmlns="http://www.w3.org/2000/svg" xmlns:xlink="http://www.w3.org/1999/xlink">
<g id="graph0" class="graph" transform="scale(1 1) rotate(0) translate(36 99)">
<polygon fill="white" stroke="none" points="-36,36 -36,-99 280,-99 280,36 -36,36"/>
<!-- Foo -->
<g id="node1" class="node">
<title>Foo</title>
<polygon fill="none" stroke="black" points="0,-41.5 0,-62.5 56,-62.5 56,-41.5 0,-41.5"/>
<text text-anchor="start" x="3" y="-48.3" font-family="Times,serif" font-size="14.00"> Opcode </text>
<polygon fill="none" stroke="black" points="56,-41.5 56,-62.5 107,-62.5 107,-41.5 56,-41.5"/>
<text text-anchor="start" x="61" y="-48.3" font-family="Times,serif" font-size="14.00"> Name </text>
<polygon fill="none" stroke="black" points="107,-41.5 107,-62.5 148,-62.5 148,-41.5 107,-41.5"/>
<text text-anchor="start" x="111.5" y="-48.3" font-family="Times,serif" font-size="14.00"> OP1 </text>
<polygon fill="none" stroke="black" points="148,-41.5 148,-62.5 189,-62.5 189,-41.5 148,-41.5"/>
<text text-anchor="start" x="152.5" y="-48.3" font-family="Times,serif" font-size="14.00"> OP2 </text>
<polygon fill="none" stroke="black" points="189,-41.5 189,-62.5 244,-62.5 244,-41.5 189,-41.5"/>
<text text-anchor="start" x="200.5" y="-48.3" font-family="Times,serif" font-size="14.00"> OP3 </text>
<polygon fill="none" stroke="black" points="0,-20.5 0,-41.5 56,-41.5 56,-20.5 0,-20.5"/>
<text text-anchor="start" x="4" y="-27.3" font-family="Times,serif" font-size="14.00"> 0x00e5 </text>
<polygon fill="none" stroke="black" points="56,-20.5 56,-41.5 107,-41.5 107,-20.5 56,-20.5"/>
<text text-anchor="start" x="59" y="-27.3" font-family="Times,serif" font-size="14.00"> FPOW </text>
<polygon fill="none" stroke="black" points="107,-20.5 107,-41.5 148,-41.5 148,-20.5 107,-20.5"/>
<text text-anchor="start" x="110" y="-27.3" font-family="Times,serif" font-size="14.00"> REG </text>
<polygon fill="none" stroke="black" points="148,-20.5 148,-41.5 189,-41.5 189,-20.5 148,-20.5"/>
<text text-anchor="start" x="151" y="-27.3" font-family="Times,serif" font-size="14.00"> REG </text>
<polygon fill="none" stroke="black" points="189,-20.5 189,-41.5 244,-41.5 244,-20.5 189,-20.5"/>
<text text-anchor="start" x="199" y="-27.3" font-family="Times,serif" font-size="14.00"> REG </text>
<polygon fill="none" stroke="black" points="0,0.5 0,-20.5 56,-20.5 56,0.5 0,0.5"/>
<text text-anchor="start" x="4" y="-6.3" font-family="Times,serif" font-size="14.00"> 0x00e6 </text>
<polygon fill="none" stroke="black" points="56,0.5 56,-20.5 107,-20.5 107,0.5 56,0.5"/>
<text text-anchor="start" x="59" y="-6.3" font-family="Times,serif" font-size="14.00"> FPOW </text>
<polygon fill="none" stroke="black" points="107,0.5 107,-20.5 148,-20.5 148,0.5 107,0.5"/>
<text text-anchor="start" x="110" y="-6.3" font-family="Times,serif" font-size="14.00"> REG </text>
<polygon fill="none" stroke="black" points="148,0.5 148,-20.5 189,-20.5 189,0.5 148,0.5"/>
<text text-anchor="start" x="151" y="-6.3" font-family="Times,serif" font-size="14.00"> REG </text>
<polygon fill="none" stroke="black" points="189,0.5 189,-20.5 244,-20.5 244,0.5 189,0.5"/>
<text text-anchor="start" x="192" y="-6.3" font-family="Times,serif" font-size="14.00"> FLOAT </text>
</g>
</g>
</svg>
