<?xml version="1.0" encoding="UTF-8" standalone="no"?>
<!DOCTYPE svg PUBLIC "-//W3C//DTD SVG 1.1//EN"
 "http://www.w3.org/Graphics/SVG/1.1/DTD/svg11.dtd">
<!-- Generated by graphviz version 7.0.4 (20221203.1631)
 -->
<!-- Pages: 1 -->
<svg width="260pt" height="135pt"
 viewBox="0.00 0.00 260.00 135.00" xmlns="http://www.w3.org/2000/svg" xmlns:xlink="http://www.w3.org/1999/xlink">
<g id="graph0" class="graph" transform="scale(1 1) rotate(0) translate(36 99)">
<polygon fill="white" stroke="none" points="-36,36 -36,-99 224,-99 224,36 -36,36"/>
<!-- Foo -->
<g id="node1" class="node">
<title>Foo</title>
<polygon fill="none" stroke="black" points="0,-41.5 0,-62.5 51,-62.5 51,-41.5 0,-41.5"/>
<text text-anchor="start" x="5" y="-48.3" font-family="Times,serif" font-size="14.00"> Name </text>
<polygon fill="none" stroke="black" points="51,-41.5 51,-62.5 92,-62.5 92,-41.5 51,-41.5"/>
<text text-anchor="start" x="55.5" y="-48.3" font-family="Times,serif" font-size="14.00"> OP1 </text>
<polygon fill="none" stroke="black" points="92,-41.5 92,-62.5 133,-62.5 133,-41.5 92,-41.5"/>
<text text-anchor="start" x="96.5" y="-48.3" font-family="Times,serif" font-size="14.00"> OP2 </text>
<polygon fill="none" stroke="black" points="133,-41.5 133,-62.5 188,-62.5 188,-41.5 133,-41.5"/>
<text text-anchor="start" x="144.5" y="-48.3" font-family="Times,serif" font-size="14.00"> OP3 </text>
<polygon fill="none" stroke="black" points="0,-20.5 0,-41.5 51,-41.5 51,-20.5 0,-20.5"/>
<text text-anchor="start" x="3" y="-27.3" font-family="Times,serif" font-size="14.00"> FPOW </text>
<polygon fill="none" stroke="black" points="51,-20.5 51,-41.5 92,-41.5 92,-20.5 51,-20.5"/>
<text text-anchor="start" x="54" y="-27.3" font-family="Times,serif" font-size="14.00"> REG </text>
<polygon fill="none" stroke="black" points="92,-20.5 92,-41.5 133,-41.5 133,-20.5 92,-20.5"/>
<text text-anchor="start" x="95" y="-27.3" font-family="Times,serif" font-size="14.00"> REG </text>
<polygon fill="none" stroke="black" points="133,-20.5 133,-41.5 188,-41.5 188,-20.5 133,-20.5"/>
<text text-anchor="start" x="143" y="-27.3" font-family="Times,serif" font-size="14.00"> REG </text>
<polygon fill="none" stroke="black" points="0,0.5 0,-20.5 51,-20.5 51,0.5 0,0.5"/>
<text text-anchor="start" x="3" y="-6.3" font-family="Times,serif" font-size="14.00"> FPOW </text>
<polygon fill="none" stroke="black" points="51,0.5 51,-20.5 92,-20.5 92,0.5 51,0.5"/>
<text text-anchor="start" x="54" y="-6.3" font-family="Times,serif" font-size="14.00"> REG </text>
<polygon fill="none" stroke="black" points="92,0.5 92,-20.5 133,-20.5 133,0.5 92,0.5"/>
<text text-anchor="start" x="95" y="-6.3" font-family="Times,serif" font-size="14.00"> REG </text>
<polygon fill="none" stroke="black" points="133,0.5 133,-20.5 188,-20.5 188,0.5 133,0.5"/>
<text text-anchor="start" x="136" y="-6.3" font-family="Times,serif" font-size="14.00"> FLOAT </text>
</g>
</g>
</svg>
