<?xml version="1.0" encoding="UTF-8" standalone="no"?>
<!DOCTYPE svg PUBLIC "-//W3C//DTD SVG 1.1//EN"
 "http://www.w3.org/Graphics/SVG/1.1/DTD/svg11.dtd">
<!-- Generated by graphviz version 12.1.2 (20240928.0832)
 -->
<!-- Pages: 1 -->
<svg width="267pt" height="160pt"
 viewBox="0.00 0.00 267.00 160.00" xmlns="http://www.w3.org/2000/svg" xmlns:xlink="http://www.w3.org/1999/xlink">
<g id="graph0" class="graph" transform="scale(1 1) rotate(0) translate(36 124)">
<polygon fill="white" stroke="none" points="-36,36 -36,-124 231,-124 231,36 -36,36"/>
<!-- Foo -->
<g id="node1" class="node">
<title>Foo</title>
<polygon fill="none" stroke="black" points="0,-66 0,-88 47,-88 47,-66 0,-66"/>
<text text-anchor="start" x="3.25" y="-71.7" font-family="Times,serif" font-size="14.00"> Name </text>
<polygon fill="none" stroke="black" points="47,-66 47,-88 87,-88 87,-66 47,-66"/>
<text text-anchor="start" x="51.25" y="-71.7" font-family="Times,serif" font-size="14.00"> OP1 </text>
<polygon fill="none" stroke="black" points="87,-66 87,-88 141,-88 141,-66 87,-66"/>
<text text-anchor="start" x="98.25" y="-71.7" font-family="Times,serif" font-size="14.00"> OP2 </text>
<polygon fill="none" stroke="black" points="141,-66 141,-88 195,-88 195,-66 141,-66"/>
<text text-anchor="start" x="152.25" y="-71.7" font-family="Times,serif" font-size="14.00"> OP3 </text>
<polygon fill="none" stroke="black" points="0,-44 0,-66 47,-66 47,-44 0,-44"/>
<text text-anchor="start" x="2.88" y="-49.7" font-family="Times,serif" font-size="14.00"> FSUB </text>
<polygon fill="none" stroke="black" points="47,-44 47,-66 87,-66 87,-44 47,-44"/>
<text text-anchor="start" x="49.75" y="-49.7" font-family="Times,serif" font-size="14.00"> REG </text>
<polygon fill="none" stroke="black" points="87,-44 87,-66 141,-66 141,-44 87,-44"/>
<text text-anchor="start" x="96.75" y="-49.7" font-family="Times,serif" font-size="14.00"> REG </text>
<polygon fill="none" stroke="black" points="141,-44 141,-66 195,-66 195,-44 141,-44"/>
<text text-anchor="start" x="150.75" y="-49.7" font-family="Times,serif" font-size="14.00"> REG </text>
<polygon fill="none" stroke="black" points="0,-22 0,-44 47,-44 47,-22 0,-22"/>
<text text-anchor="start" x="2.88" y="-27.7" font-family="Times,serif" font-size="14.00"> FSUB </text>
<polygon fill="none" stroke="black" points="47,-22 47,-44 87,-44 87,-22 47,-22"/>
<text text-anchor="start" x="49.75" y="-27.7" font-family="Times,serif" font-size="14.00"> REG </text>
<polygon fill="none" stroke="black" points="87,-22 87,-44 141,-44 141,-22 87,-22"/>
<text text-anchor="start" x="96.75" y="-27.7" font-family="Times,serif" font-size="14.00"> REG </text>
<polygon fill="none" stroke="black" points="141,-22 141,-44 195,-44 195,-22 141,-22"/>
<text text-anchor="start" x="143.62" y="-27.7" font-family="Times,serif" font-size="14.00"> FLOAT </text>
<polygon fill="none" stroke="black" points="0,0 0,-22 47,-22 47,0 0,0"/>
<text text-anchor="start" x="2.88" y="-5.7" font-family="Times,serif" font-size="14.00"> FSUB </text>
<polygon fill="none" stroke="black" points="47,0 47,-22 87,-22 87,0 47,0"/>
<text text-anchor="start" x="49.75" y="-5.7" font-family="Times,serif" font-size="14.00"> REG </text>
<polygon fill="none" stroke="black" points="87,0 87,-22 141,-22 141,0 87,0"/>
<text text-anchor="start" x="89.62" y="-5.7" font-family="Times,serif" font-size="14.00"> FLOAT </text>
<polygon fill="none" stroke="black" points="141,0 141,-22 195,-22 195,0 141,0"/>
<text text-anchor="start" x="150.75" y="-5.7" font-family="Times,serif" font-size="14.00"> REG </text>
</g>
</g>
</svg>
