<?xml version="1.0" encoding="UTF-8" standalone="no"?>
<!DOCTYPE svg PUBLIC "-//W3C//DTD SVG 1.1//EN"
 "http://www.w3.org/Graphics/SVG/1.1/DTD/svg11.dtd">
<!-- Generated by graphviz version 12.2.1 (20241206.2353)
 -->
<!-- Pages: 1 -->
<svg width="269pt" height="162pt"
 viewBox="0.00 0.00 269.25 162.00" xmlns="http://www.w3.org/2000/svg" xmlns:xlink="http://www.w3.org/1999/xlink">
<g id="graph0" class="graph" transform="scale(1 1) rotate(0) translate(36 126)">
<polygon fill="white" stroke="none" points="-36,36 -36,-126 233.25,-126 233.25,36 -36,36"/>
<!-- Foo -->
<g id="node1" class="node">
<title>Foo</title>
<polygon fill="none" stroke="black" points="0,-67.5 0,-90 47.25,-90 47.25,-67.5 0,-67.5"/>
<text text-anchor="start" x="3.38" y="-73.7" font-family="Times,serif" font-size="14.00"> Name </text>
<polygon fill="none" stroke="black" points="47.25,-67.5 47.25,-90 87.75,-90 87.75,-67.5 47.25,-67.5"/>
<text text-anchor="start" x="51.75" y="-73.7" font-family="Times,serif" font-size="14.00"> OP1 </text>
<polygon fill="none" stroke="black" points="87.75,-67.5 87.75,-90 142.5,-90 142.5,-67.5 87.75,-67.5"/>
<text text-anchor="start" x="99.38" y="-73.7" font-family="Times,serif" font-size="14.00"> OP2 </text>
<polygon fill="none" stroke="black" points="142.5,-67.5 142.5,-90 197.25,-90 197.25,-67.5 142.5,-67.5"/>
<text text-anchor="start" x="154.12" y="-73.7" font-family="Times,serif" font-size="14.00"> OP3 </text>
<polygon fill="none" stroke="black" points="0,-45 0,-67.5 47.25,-67.5 47.25,-45 0,-45"/>
<text text-anchor="start" x="3" y="-51.2" font-family="Times,serif" font-size="14.00"> FSUB </text>
<polygon fill="none" stroke="black" points="47.25,-45 47.25,-67.5 87.75,-67.5 87.75,-45 47.25,-45"/>
<text text-anchor="start" x="50.25" y="-51.2" font-family="Times,serif" font-size="14.00"> REG </text>
<polygon fill="none" stroke="black" points="87.75,-45 87.75,-67.5 142.5,-67.5 142.5,-45 87.75,-45"/>
<text text-anchor="start" x="97.88" y="-51.2" font-family="Times,serif" font-size="14.00"> REG </text>
<polygon fill="none" stroke="black" points="142.5,-45 142.5,-67.5 197.25,-67.5 197.25,-45 142.5,-45"/>
<text text-anchor="start" x="152.62" y="-51.2" font-family="Times,serif" font-size="14.00"> REG </text>
<polygon fill="none" stroke="black" points="0,-22.5 0,-45 47.25,-45 47.25,-22.5 0,-22.5"/>
<text text-anchor="start" x="3" y="-28.7" font-family="Times,serif" font-size="14.00"> FSUB </text>
<polygon fill="none" stroke="black" points="47.25,-22.5 47.25,-45 87.75,-45 87.75,-22.5 47.25,-22.5"/>
<text text-anchor="start" x="50.25" y="-28.7" font-family="Times,serif" font-size="14.00"> REG </text>
<polygon fill="none" stroke="black" points="87.75,-22.5 87.75,-45 142.5,-45 142.5,-22.5 87.75,-22.5"/>
<text text-anchor="start" x="90.75" y="-28.7" font-family="Times,serif" font-size="14.00"> FLOAT </text>
<polygon fill="none" stroke="black" points="142.5,-22.5 142.5,-45 197.25,-45 197.25,-22.5 142.5,-22.5"/>
<text text-anchor="start" x="152.62" y="-28.7" font-family="Times,serif" font-size="14.00"> REG </text>
<polygon fill="none" stroke="black" points="0,0 0,-22.5 47.25,-22.5 47.25,0 0,0"/>
<text text-anchor="start" x="3" y="-6.2" font-family="Times,serif" font-size="14.00"> FSUB </text>
<polygon fill="none" stroke="black" points="47.25,0 47.25,-22.5 87.75,-22.5 87.75,0 47.25,0"/>
<text text-anchor="start" x="50.25" y="-6.2" font-family="Times,serif" font-size="14.00"> REG </text>
<polygon fill="none" stroke="black" points="87.75,0 87.75,-22.5 142.5,-22.5 142.5,0 87.75,0"/>
<text text-anchor="start" x="97.88" y="-6.2" font-family="Times,serif" font-size="14.00"> REG </text>
<polygon fill="none" stroke="black" points="142.5,0 142.5,-22.5 197.25,-22.5 197.25,0 142.5,0"/>
<text text-anchor="start" x="145.5" y="-6.2" font-family="Times,serif" font-size="14.00"> FLOAT </text>
</g>
</g>
</svg>
