<?xml version="1.0" encoding="UTF-8" standalone="no"?>
<!DOCTYPE svg PUBLIC "-//W3C//DTD SVG 1.1//EN"
 "http://www.w3.org/Graphics/SVG/1.1/DTD/svg11.dtd">
<!-- Generated by graphviz version 14.1.4 (20260321.0153)
 -->
<!-- Pages: 1 -->
<svg width="253pt" height="117pt"
 viewBox="0.00 0.00 253.00 117.00" xmlns="http://www.w3.org/2000/svg" xmlns:xlink="http://www.w3.org/1999/xlink">
<g id="graph0" class="graph" transform="scale(1 1) rotate(0) translate(36 81)">
<polygon fill="white" stroke="none" points="-36,36 -36,-81 216.75,-81 216.75,36 -36,36"/>
<!-- Foo -->
<g id="node1" class="node">
<title>Foo</title>
<polygon fill="none" stroke="black" points="0,-22.5 0,-45 99.75,-45 99.75,-22.5 0,-22.5"/>
<text xml:space="preserve" text-anchor="start" x="29.62" y="-29.25" font-family="Times,serif" font-size="14.00"> Name </text>
<polygon fill="none" stroke="black" points="99.75,-22.5 99.75,-45 140.25,-45 140.25,-22.5 99.75,-22.5"/>
<text xml:space="preserve" text-anchor="start" x="104.25" y="-29.25" font-family="Times,serif" font-size="14.00"> OP1 </text>
<polygon fill="none" stroke="black" points="140.25,-22.5 140.25,-45 180.75,-45 180.75,-22.5 140.25,-22.5"/>
<text xml:space="preserve" text-anchor="start" x="144.75" y="-29.25" font-family="Times,serif" font-size="14.00"> OP2 </text>
<polygon fill="none" stroke="black" points="0,0 0,-22.5 99.75,-22.5 99.75,0 0,0"/>
<text xml:space="preserve" text-anchor="start" x="3" y="-6.75" font-family="Times,serif" font-size="14.00"> FWRITEBYTE </text>
<polygon fill="none" stroke="black" points="99.75,0 99.75,-22.5 140.25,-22.5 140.25,0 99.75,0"/>
<text xml:space="preserve" text-anchor="start" x="102.75" y="-6.75" font-family="Times,serif" font-size="14.00"> REG </text>
<polygon fill="none" stroke="black" points="140.25,0 140.25,-22.5 180.75,-22.5 180.75,0 140.25,0"/>
<text xml:space="preserve" text-anchor="start" x="143.25" y="-6.75" font-family="Times,serif" font-size="14.00"> REG </text>
</g>
</g>
</svg>
