<?xml version="1.0" encoding="UTF-8" standalone="no"?>
<!DOCTYPE svg PUBLIC "-//W3C//DTD SVG 1.1//EN"
 "http://www.w3.org/Graphics/SVG/1.1/DTD/svg11.dtd">
<!-- Generated by graphviz version 12.2.1 (20241206.2353)
 -->
<!-- Pages: 1 -->
<svg width="269pt" height="117pt"
 viewBox="0.00 0.00 268.50 117.00" xmlns="http://www.w3.org/2000/svg" xmlns:xlink="http://www.w3.org/1999/xlink">
<g id="graph0" class="graph" transform="scale(1 1) rotate(0) translate(36 81)">
<polygon fill="white" stroke="none" points="-36,36 -36,-81 232.5,-81 232.5,36 -36,36"/>
<!-- Foo -->
<g id="node1" class="node">
<title>Foo</title>
<polygon fill="none" stroke="black" points="0,-22.5 0,-45 75,-45 75,-22.5 0,-22.5"/>
<text text-anchor="start" x="17.25" y="-28.7" font-family="Times,serif" font-size="14.00"> Name </text>
<polygon fill="none" stroke="black" points="75,-22.5 75,-45 115.5,-45 115.5,-22.5 75,-22.5"/>
<text text-anchor="start" x="79.5" y="-28.7" font-family="Times,serif" font-size="14.00"> OP1 </text>
<polygon fill="none" stroke="black" points="115.5,-22.5 115.5,-45 156,-45 156,-22.5 115.5,-22.5"/>
<text text-anchor="start" x="120" y="-28.7" font-family="Times,serif" font-size="14.00"> OP2 </text>
<polygon fill="none" stroke="black" points="156,-22.5 156,-45 196.5,-45 196.5,-22.5 156,-22.5"/>
<text text-anchor="start" x="160.5" y="-28.7" font-family="Times,serif" font-size="14.00"> OP3 </text>
<polygon fill="none" stroke="black" points="0,0 0,-22.5 75,-22.5 75,0 0,0"/>
<text text-anchor="start" x="3" y="-6.2" font-family="Times,serif" font-size="14.00"> GETBYTE </text>
<polygon fill="none" stroke="black" points="75,0 75,-22.5 115.5,-22.5 115.5,0 75,0"/>
<text text-anchor="start" x="78" y="-6.2" font-family="Times,serif" font-size="14.00"> REG </text>
<polygon fill="none" stroke="black" points="115.5,0 115.5,-22.5 156,-22.5 156,0 115.5,0"/>
<text text-anchor="start" x="118.5" y="-6.2" font-family="Times,serif" font-size="14.00"> REG </text>
<polygon fill="none" stroke="black" points="156,0 156,-22.5 196.5,-22.5 196.5,0 156,0"/>
<text text-anchor="start" x="159" y="-6.2" font-family="Times,serif" font-size="14.00"> REG </text>
</g>
</g>
</svg>
