<?xml version="1.0" encoding="UTF-8" standalone="no"?>
<!DOCTYPE svg PUBLIC "-//W3C//DTD SVG 1.1//EN"
 "http://www.w3.org/Graphics/SVG/1.1/DTD/svg11.dtd">
<!-- Generated by graphviz version 14.1.4 (20260321.0153)
 -->
<!-- Pages: 1 -->
<svg width="220pt" height="117pt"
 viewBox="0.00 0.00 220.00 117.00" xmlns="http://www.w3.org/2000/svg" xmlns:xlink="http://www.w3.org/1999/xlink">
<g id="graph0" class="graph" transform="scale(1 1) rotate(0) translate(36 81)">
<polygon fill="white" stroke="none" points="-36,36 -36,-81 183.75,-81 183.75,36 -36,36"/>
<!-- Foo -->
<g id="node1" class="node">
<title>Foo</title>
<polygon fill="none" stroke="black" points="0,-22.5 0,-45 107.25,-45 107.25,-22.5 0,-22.5"/>
<text xml:space="preserve" text-anchor="start" x="33.38" y="-29.25" font-family="Times,serif" font-size="14.00"> Name </text>
<polygon fill="none" stroke="black" points="107.25,-22.5 107.25,-45 147.75,-45 147.75,-22.5 107.25,-22.5"/>
<text xml:space="preserve" text-anchor="start" x="111.75" y="-29.25" font-family="Times,serif" font-size="14.00"> OP1 </text>
<polygon fill="none" stroke="black" points="0,0 0,-22.5 107.25,-22.5 107.25,0 0,0"/>
<text xml:space="preserve" text-anchor="start" x="3" y="-6.75" font-family="Times,serif" font-size="14.00"> GETNUMDGTS </text>
<polygon fill="none" stroke="black" points="107.25,0 107.25,-22.5 147.75,-22.5 147.75,0 107.25,0"/>
<text xml:space="preserve" text-anchor="start" x="110.25" y="-6.75" font-family="Times,serif" font-size="14.00"> REG </text>
</g>
</g>
</svg>
