<?xml version="1.0" encoding="UTF-8" standalone="no"?>
<!DOCTYPE svg PUBLIC "-//W3C//DTD SVG 1.1//EN"
 "http://www.w3.org/Graphics/SVG/1.1/DTD/svg11.dtd">
<!-- Generated by graphviz version 12.1.2 (20240928.0832)
 -->
<!-- Pages: 1 -->
<svg width="226pt" height="138pt"
 viewBox="0.00 0.00 226.00 138.00" xmlns="http://www.w3.org/2000/svg" xmlns:xlink="http://www.w3.org/1999/xlink">
<g id="graph0" class="graph" transform="scale(1 1) rotate(0) translate(36 102)">
<polygon fill="white" stroke="none" points="-36,36 -36,-102 190,-102 190,36 -36,36"/>
<!-- Foo -->
<g id="node1" class="node">
<title>Foo</title>
<polygon fill="none" stroke="black" points="0,-44 0,-66 52,-66 52,-44 0,-44"/>
<text text-anchor="start" x="5.75" y="-49.7" font-family="Times,serif" font-size="14.00"> Name </text>
<polygon fill="none" stroke="black" points="52,-44 52,-66 92,-66 92,-44 52,-44"/>
<text text-anchor="start" x="56.25" y="-49.7" font-family="Times,serif" font-size="14.00"> OP1 </text>
<polygon fill="none" stroke="black" points="92,-44 92,-66 154,-66 154,-44 92,-44"/>
<text text-anchor="start" x="107.25" y="-49.7" font-family="Times,serif" font-size="14.00"> OP2 </text>
<polygon fill="none" stroke="black" points="0,-22 0,-44 52,-44 52,-22 0,-22"/>
<text text-anchor="start" x="2.75" y="-27.7" font-family="Times,serif" font-size="14.00"> GMAP </text>
<polygon fill="none" stroke="black" points="52,-22 52,-44 92,-44 92,-22 52,-22"/>
<text text-anchor="start" x="54.75" y="-27.7" font-family="Times,serif" font-size="14.00"> REG </text>
<polygon fill="none" stroke="black" points="92,-22 92,-44 154,-44 154,-22 92,-22"/>
<text text-anchor="start" x="105.75" y="-27.7" font-family="Times,serif" font-size="14.00"> REG </text>
<polygon fill="none" stroke="black" points="0,0 0,-22 52,-22 52,0 0,0"/>
<text text-anchor="start" x="2.75" y="-5.7" font-family="Times,serif" font-size="14.00"> GMAP </text>
<polygon fill="none" stroke="black" points="52,0 52,-22 92,-22 92,0 52,0"/>
<text text-anchor="start" x="54.75" y="-5.7" font-family="Times,serif" font-size="14.00"> REG </text>
<polygon fill="none" stroke="black" points="92,0 92,-22 154,-22 154,0 92,0"/>
<text text-anchor="start" x="94.88" y="-5.7" font-family="Times,serif" font-size="14.00"> STRING </text>
</g>
</g>
</svg>
