<?xml version="1.0" encoding="UTF-8" standalone="no"?>
<!DOCTYPE svg PUBLIC "-//W3C//DTD SVG 1.1//EN"
 "http://www.w3.org/Graphics/SVG/1.1/DTD/svg11.dtd">
<!-- Generated by graphviz version 7.0.4 (20221203.1631)
 -->
<!-- Pages: 1 -->
<svg width="299pt" height="135pt"
 viewBox="0.00 0.00 299.00 135.00" xmlns="http://www.w3.org/2000/svg" xmlns:xlink="http://www.w3.org/1999/xlink">
<g id="graph0" class="graph" transform="scale(1 1) rotate(0) translate(36 99)">
<polygon fill="white" stroke="none" points="-36,36 -36,-99 263,-99 263,36 -36,36"/>
<!-- Foo -->
<g id="node1" class="node">
<title>Foo</title>
<polygon fill="none" stroke="black" points="0.5,-41.5 0.5,-62.5 56.5,-62.5 56.5,-41.5 0.5,-41.5"/>
<text text-anchor="start" x="3.5" y="-48.3" font-family="Times,serif" font-size="14.00"> Opcode </text>
<polygon fill="none" stroke="black" points="56.5,-41.5 56.5,-62.5 104.5,-62.5 104.5,-41.5 56.5,-41.5"/>
<text text-anchor="start" x="60" y="-48.3" font-family="Times,serif" font-size="14.00"> Name </text>
<polygon fill="none" stroke="black" points="104.5,-41.5 104.5,-62.5 145.5,-62.5 145.5,-41.5 104.5,-41.5"/>
<text text-anchor="start" x="109" y="-48.3" font-family="Times,serif" font-size="14.00"> OP1 </text>
<polygon fill="none" stroke="black" points="145.5,-41.5 145.5,-62.5 186.5,-62.5 186.5,-41.5 145.5,-41.5"/>
<text text-anchor="start" x="150" y="-48.3" font-family="Times,serif" font-size="14.00"> OP2 </text>
<polygon fill="none" stroke="black" points="186.5,-41.5 186.5,-62.5 227.5,-62.5 227.5,-41.5 186.5,-41.5"/>
<text text-anchor="start" x="191" y="-48.3" font-family="Times,serif" font-size="14.00"> OP3 </text>
<polygon fill="none" stroke="black" points="0.5,-20.5 0.5,-41.5 56.5,-41.5 56.5,-20.5 0.5,-20.5"/>
<text text-anchor="start" x="5.5" y="-27.3" font-family="Times,serif" font-size="14.00"> 0x000f </text>
<polygon fill="none" stroke="black" points="56.5,-20.5 56.5,-41.5 104.5,-41.5 104.5,-20.5 56.5,-20.5"/>
<text text-anchor="start" x="59.5" y="-27.3" font-family="Times,serif" font-size="14.00"> IADD </text>
<polygon fill="none" stroke="black" points="104.5,-20.5 104.5,-41.5 145.5,-41.5 145.5,-20.5 104.5,-20.5"/>
<text text-anchor="start" x="107.5" y="-27.3" font-family="Times,serif" font-size="14.00"> REG </text>
<polygon fill="none" stroke="black" points="145.5,-20.5 145.5,-41.5 186.5,-41.5 186.5,-20.5 145.5,-20.5"/>
<text text-anchor="start" x="148.5" y="-27.3" font-family="Times,serif" font-size="14.00"> REG </text>
<polygon fill="none" stroke="black" points="186.5,-20.5 186.5,-41.5 227.5,-41.5 227.5,-20.5 186.5,-20.5"/>
<text text-anchor="start" x="189.5" y="-27.3" font-family="Times,serif" font-size="14.00"> REG </text>
<polygon fill="none" stroke="black" points="0.5,0.5 0.5,-20.5 56.5,-20.5 56.5,0.5 0.5,0.5"/>
<text text-anchor="start" x="4" y="-6.3" font-family="Times,serif" font-size="14.00"> 0x0010 </text>
<polygon fill="none" stroke="black" points="56.5,0.5 56.5,-20.5 104.5,-20.5 104.5,0.5 56.5,0.5"/>
<text text-anchor="start" x="59.5" y="-6.3" font-family="Times,serif" font-size="14.00"> IADD </text>
<polygon fill="none" stroke="black" points="104.5,0.5 104.5,-20.5 145.5,-20.5 145.5,0.5 104.5,0.5"/>
<text text-anchor="start" x="107.5" y="-6.3" font-family="Times,serif" font-size="14.00"> REG </text>
<polygon fill="none" stroke="black" points="145.5,0.5 145.5,-20.5 186.5,-20.5 186.5,0.5 145.5,0.5"/>
<text text-anchor="start" x="148.5" y="-6.3" font-family="Times,serif" font-size="14.00"> REG </text>
<polygon fill="none" stroke="black" points="186.5,0.5 186.5,-20.5 227.5,-20.5 227.5,0.5 186.5,0.5"/>
<text text-anchor="start" x="192" y="-6.3" font-family="Times,serif" font-size="14.00"> INT </text>
</g>
</g>
</svg>
