<?xml version="1.0" encoding="UTF-8" standalone="no"?>
<!DOCTYPE svg PUBLIC "-//W3C//DTD SVG 1.1//EN"
 "http://www.w3.org/Graphics/SVG/1.1/DTD/svg11.dtd">
<!-- Generated by graphviz version 7.0.4 (20221203.1631)
 -->
<!-- Pages: 1 -->
<svg width="243pt" height="135pt"
 viewBox="0.00 0.00 243.00 135.00" xmlns="http://www.w3.org/2000/svg" xmlns:xlink="http://www.w3.org/1999/xlink">
<g id="graph0" class="graph" transform="scale(1 1) rotate(0) translate(36 99)">
<polygon fill="white" stroke="none" points="-36,36 -36,-99 207,-99 207,36 -36,36"/>
<!-- Foo -->
<g id="node1" class="node">
<title>Foo</title>
<polygon fill="none" stroke="black" points="0.5,-41.5 0.5,-62.5 48.5,-62.5 48.5,-41.5 0.5,-41.5"/>
<text text-anchor="start" x="4" y="-48.3" font-family="Times,serif" font-size="14.00"> Name </text>
<polygon fill="none" stroke="black" points="48.5,-41.5 48.5,-62.5 89.5,-62.5 89.5,-41.5 48.5,-41.5"/>
<text text-anchor="start" x="53" y="-48.3" font-family="Times,serif" font-size="14.00"> OP1 </text>
<polygon fill="none" stroke="black" points="89.5,-41.5 89.5,-62.5 130.5,-62.5 130.5,-41.5 89.5,-41.5"/>
<text text-anchor="start" x="94" y="-48.3" font-family="Times,serif" font-size="14.00"> OP2 </text>
<polygon fill="none" stroke="black" points="130.5,-41.5 130.5,-62.5 171.5,-62.5 171.5,-41.5 130.5,-41.5"/>
<text text-anchor="start" x="135" y="-48.3" font-family="Times,serif" font-size="14.00"> OP3 </text>
<polygon fill="none" stroke="black" points="0.5,-20.5 0.5,-41.5 48.5,-41.5 48.5,-20.5 0.5,-20.5"/>
<text text-anchor="start" x="3.5" y="-27.3" font-family="Times,serif" font-size="14.00"> IADD </text>
<polygon fill="none" stroke="black" points="48.5,-20.5 48.5,-41.5 89.5,-41.5 89.5,-20.5 48.5,-20.5"/>
<text text-anchor="start" x="51.5" y="-27.3" font-family="Times,serif" font-size="14.00"> REG </text>
<polygon fill="none" stroke="black" points="89.5,-20.5 89.5,-41.5 130.5,-41.5 130.5,-20.5 89.5,-20.5"/>
<text text-anchor="start" x="92.5" y="-27.3" font-family="Times,serif" font-size="14.00"> REG </text>
<polygon fill="none" stroke="black" points="130.5,-20.5 130.5,-41.5 171.5,-41.5 171.5,-20.5 130.5,-20.5"/>
<text text-anchor="start" x="133.5" y="-27.3" font-family="Times,serif" font-size="14.00"> REG </text>
<polygon fill="none" stroke="black" points="0.5,0.5 0.5,-20.5 48.5,-20.5 48.5,0.5 0.5,0.5"/>
<text text-anchor="start" x="3.5" y="-6.3" font-family="Times,serif" font-size="14.00"> IADD </text>
<polygon fill="none" stroke="black" points="48.5,0.5 48.5,-20.5 89.5,-20.5 89.5,0.5 48.5,0.5"/>
<text text-anchor="start" x="51.5" y="-6.3" font-family="Times,serif" font-size="14.00"> REG </text>
<polygon fill="none" stroke="black" points="89.5,0.5 89.5,-20.5 130.5,-20.5 130.5,0.5 89.5,0.5"/>
<text text-anchor="start" x="92.5" y="-6.3" font-family="Times,serif" font-size="14.00"> REG </text>
<polygon fill="none" stroke="black" points="130.5,0.5 130.5,-20.5 171.5,-20.5 171.5,0.5 130.5,0.5"/>
<text text-anchor="start" x="136" y="-6.3" font-family="Times,serif" font-size="14.00"> INT </text>
</g>
</g>
</svg>
