<?xml version="1.0" encoding="UTF-8" standalone="no"?>
<!DOCTYPE svg PUBLIC "-//W3C//DTD SVG 1.1//EN"
 "http://www.w3.org/Graphics/SVG/1.1/DTD/svg11.dtd">
<!-- Generated by graphviz version 7.0.4 (20221203.1631)
 -->
<!-- Pages: 1 -->
<svg width="298pt" height="156pt"
 viewBox="0.00 0.00 298.00 156.00" xmlns="http://www.w3.org/2000/svg" xmlns:xlink="http://www.w3.org/1999/xlink">
<g id="graph0" class="graph" transform="scale(1 1) rotate(0) translate(36 120)">
<polygon fill="white" stroke="none" points="-36,36 -36,-120 262,-120 262,36 -36,36"/>
<!-- Foo -->
<g id="node1" class="node">
<title>Foo</title>
<polygon fill="none" stroke="black" points="0,-63 0,-84 56,-84 56,-63 0,-63"/>
<text text-anchor="start" x="3" y="-69.8" font-family="Times,serif" font-size="14.00"> Opcode </text>
<polygon fill="none" stroke="black" points="56,-63 56,-84 103,-84 103,-63 56,-63"/>
<text text-anchor="start" x="59" y="-69.8" font-family="Times,serif" font-size="14.00"> Name </text>
<polygon fill="none" stroke="black" points="103,-63 103,-84 144,-84 144,-63 103,-63"/>
<text text-anchor="start" x="107.5" y="-69.8" font-family="Times,serif" font-size="14.00"> OP1 </text>
<polygon fill="none" stroke="black" points="144,-63 144,-84 185,-84 185,-63 144,-63"/>
<text text-anchor="start" x="148.5" y="-69.8" font-family="Times,serif" font-size="14.00"> OP2 </text>
<polygon fill="none" stroke="black" points="185,-63 185,-84 226,-84 226,-63 185,-63"/>
<text text-anchor="start" x="189.5" y="-69.8" font-family="Times,serif" font-size="14.00"> OP3 </text>
<polygon fill="none" stroke="black" points="0,-42 0,-63 56,-63 56,-42 0,-42"/>
<text text-anchor="start" x="3.5" y="-48.8" font-family="Times,serif" font-size="14.00"> 0x006b </text>
<polygon fill="none" stroke="black" points="56,-42 56,-63 103,-63 103,-42 56,-42"/>
<text text-anchor="start" x="60" y="-48.8" font-family="Times,serif" font-size="14.00"> IGTE </text>
<polygon fill="none" stroke="black" points="103,-42 103,-63 144,-63 144,-42 103,-42"/>
<text text-anchor="start" x="106" y="-48.8" font-family="Times,serif" font-size="14.00"> REG </text>
<polygon fill="none" stroke="black" points="144,-42 144,-63 185,-63 185,-42 144,-42"/>
<text text-anchor="start" x="147" y="-48.8" font-family="Times,serif" font-size="14.00"> REG </text>
<polygon fill="none" stroke="black" points="185,-42 185,-63 226,-63 226,-42 185,-42"/>
<text text-anchor="start" x="188" y="-48.8" font-family="Times,serif" font-size="14.00"> REG </text>
<polygon fill="none" stroke="black" points="0,-21 0,-42 56,-42 56,-21 0,-21"/>
<text text-anchor="start" x="4" y="-27.8" font-family="Times,serif" font-size="14.00"> 0x006c </text>
<polygon fill="none" stroke="black" points="56,-21 56,-42 103,-42 103,-21 56,-21"/>
<text text-anchor="start" x="60" y="-27.8" font-family="Times,serif" font-size="14.00"> IGTE </text>
<polygon fill="none" stroke="black" points="103,-21 103,-42 144,-42 144,-21 103,-21"/>
<text text-anchor="start" x="106" y="-27.8" font-family="Times,serif" font-size="14.00"> REG </text>
<polygon fill="none" stroke="black" points="144,-21 144,-42 185,-42 185,-21 144,-21"/>
<text text-anchor="start" x="147" y="-27.8" font-family="Times,serif" font-size="14.00"> REG </text>
<polygon fill="none" stroke="black" points="185,-21 185,-42 226,-42 226,-21 185,-21"/>
<text text-anchor="start" x="190.5" y="-27.8" font-family="Times,serif" font-size="14.00"> INT </text>
<polygon fill="none" stroke="black" points="0,0 0,-21 56,-21 56,0 0,0"/>
<text text-anchor="start" x="3.5" y="-6.8" font-family="Times,serif" font-size="14.00"> 0x006d </text>
<polygon fill="none" stroke="black" points="56,0 56,-21 103,-21 103,0 56,0"/>
<text text-anchor="start" x="60" y="-6.8" font-family="Times,serif" font-size="14.00"> IGTE </text>
<polygon fill="none" stroke="black" points="103,0 103,-21 144,-21 144,0 103,0"/>
<text text-anchor="start" x="106" y="-6.8" font-family="Times,serif" font-size="14.00"> REG </text>
<polygon fill="none" stroke="black" points="144,0 144,-21 185,-21 185,0 144,0"/>
<text text-anchor="start" x="149.5" y="-6.8" font-family="Times,serif" font-size="14.00"> INT </text>
<polygon fill="none" stroke="black" points="185,0 185,-21 226,-21 226,0 185,0"/>
<text text-anchor="start" x="188" y="-6.8" font-family="Times,serif" font-size="14.00"> REG </text>
</g>
</g>
</svg>
