<?xml version="1.0" encoding="UTF-8" standalone="no"?>
<!DOCTYPE svg PUBLIC "-//W3C//DTD SVG 1.1//EN"
 "http://www.w3.org/Graphics/SVG/1.1/DTD/svg11.dtd">
<!-- Generated by graphviz version 12.1.2 (20240928.0832)
 -->
<!-- Pages: 1 -->
<svg width="242pt" height="160pt"
 viewBox="0.00 0.00 242.00 160.00" xmlns="http://www.w3.org/2000/svg" xmlns:xlink="http://www.w3.org/1999/xlink">
<g id="graph0" class="graph" transform="scale(1 1) rotate(0) translate(36 124)">
<polygon fill="white" stroke="none" points="-36,36 -36,-124 206,-124 206,36 -36,36"/>
<!-- Foo -->
<g id="node1" class="node">
<title>Foo</title>
<polygon fill="none" stroke="black" points="0,-66 0,-88 50,-88 50,-66 0,-66"/>
<text text-anchor="start" x="4.75" y="-71.7" font-family="Times,serif" font-size="14.00"> Name </text>
<polygon fill="none" stroke="black" points="50,-66 50,-88 90,-88 90,-66 50,-66"/>
<text text-anchor="start" x="54.25" y="-71.7" font-family="Times,serif" font-size="14.00"> OP1 </text>
<polygon fill="none" stroke="black" points="90,-66 90,-88 130,-88 130,-66 90,-66"/>
<text text-anchor="start" x="94.25" y="-71.7" font-family="Times,serif" font-size="14.00"> OP2 </text>
<polygon fill="none" stroke="black" points="130,-66 130,-88 170,-88 170,-66 130,-66"/>
<text text-anchor="start" x="134.25" y="-71.7" font-family="Times,serif" font-size="14.00"> OP3 </text>
<polygon fill="none" stroke="black" points="0,-44 0,-66 50,-66 50,-44 0,-44"/>
<text text-anchor="start" x="2.88" y="-49.7" font-family="Times,serif" font-size="14.00"> IMOD </text>
<polygon fill="none" stroke="black" points="50,-44 50,-66 90,-66 90,-44 50,-44"/>
<text text-anchor="start" x="52.75" y="-49.7" font-family="Times,serif" font-size="14.00"> REG </text>
<polygon fill="none" stroke="black" points="90,-44 90,-66 130,-66 130,-44 90,-44"/>
<text text-anchor="start" x="92.75" y="-49.7" font-family="Times,serif" font-size="14.00"> REG </text>
<polygon fill="none" stroke="black" points="130,-44 130,-66 170,-66 170,-44 130,-44"/>
<text text-anchor="start" x="132.75" y="-49.7" font-family="Times,serif" font-size="14.00"> REG </text>
<polygon fill="none" stroke="black" points="0,-22 0,-44 50,-44 50,-22 0,-22"/>
<text text-anchor="start" x="2.88" y="-27.7" font-family="Times,serif" font-size="14.00"> IMOD </text>
<polygon fill="none" stroke="black" points="50,-22 50,-44 90,-44 90,-22 50,-22"/>
<text text-anchor="start" x="52.75" y="-27.7" font-family="Times,serif" font-size="14.00"> REG </text>
<polygon fill="none" stroke="black" points="90,-22 90,-44 130,-44 130,-22 90,-22"/>
<text text-anchor="start" x="92.75" y="-27.7" font-family="Times,serif" font-size="14.00"> REG </text>
<polygon fill="none" stroke="black" points="130,-22 130,-44 170,-44 170,-22 130,-22"/>
<text text-anchor="start" x="135.38" y="-27.7" font-family="Times,serif" font-size="14.00"> INT </text>
<polygon fill="none" stroke="black" points="0,0 0,-22 50,-22 50,0 0,0"/>
<text text-anchor="start" x="2.88" y="-5.7" font-family="Times,serif" font-size="14.00"> IMOD </text>
<polygon fill="none" stroke="black" points="50,0 50,-22 90,-22 90,0 50,0"/>
<text text-anchor="start" x="52.75" y="-5.7" font-family="Times,serif" font-size="14.00"> REG </text>
<polygon fill="none" stroke="black" points="90,0 90,-22 130,-22 130,0 90,0"/>
<text text-anchor="start" x="95.38" y="-5.7" font-family="Times,serif" font-size="14.00"> INT </text>
<polygon fill="none" stroke="black" points="130,0 130,-22 170,-22 170,0 130,0"/>
<text text-anchor="start" x="132.75" y="-5.7" font-family="Times,serif" font-size="14.00"> REG </text>
</g>
</g>
</svg>
