<?xml version="1.0" encoding="UTF-8" standalone="no"?>
<!DOCTYPE svg PUBLIC "-//W3C//DTD SVG 1.1//EN"
 "http://www.w3.org/Graphics/SVG/1.1/DTD/svg11.dtd">
<!-- Generated by graphviz version 7.0.4 (20221203.1631)
 -->
<!-- Pages: 1 -->
<svg width="246pt" height="156pt"
 viewBox="0.00 0.00 246.00 156.00" xmlns="http://www.w3.org/2000/svg" xmlns:xlink="http://www.w3.org/1999/xlink">
<g id="graph0" class="graph" transform="scale(1 1) rotate(0) translate(36 120)">
<polygon fill="white" stroke="none" points="-36,36 -36,-120 210,-120 210,36 -36,36"/>
<!-- Foo -->
<g id="node1" class="node">
<title>Foo</title>
<polygon fill="none" stroke="black" points="0,-63 0,-84 51,-84 51,-63 0,-63"/>
<text text-anchor="start" x="5" y="-69.8" font-family="Times,serif" font-size="14.00"> Name </text>
<polygon fill="none" stroke="black" points="51,-63 51,-84 92,-84 92,-63 51,-63"/>
<text text-anchor="start" x="55.5" y="-69.8" font-family="Times,serif" font-size="14.00"> OP1 </text>
<polygon fill="none" stroke="black" points="92,-63 92,-84 133,-84 133,-63 92,-63"/>
<text text-anchor="start" x="96.5" y="-69.8" font-family="Times,serif" font-size="14.00"> OP2 </text>
<polygon fill="none" stroke="black" points="133,-63 133,-84 174,-84 174,-63 133,-63"/>
<text text-anchor="start" x="137.5" y="-69.8" font-family="Times,serif" font-size="14.00"> OP3 </text>
<polygon fill="none" stroke="black" points="0,-42 0,-63 51,-63 51,-42 0,-42"/>
<text text-anchor="start" x="3" y="-48.8" font-family="Times,serif" font-size="14.00"> IMOD </text>
<polygon fill="none" stroke="black" points="51,-42 51,-63 92,-63 92,-42 51,-42"/>
<text text-anchor="start" x="54" y="-48.8" font-family="Times,serif" font-size="14.00"> REG </text>
<polygon fill="none" stroke="black" points="92,-42 92,-63 133,-63 133,-42 92,-42"/>
<text text-anchor="start" x="95" y="-48.8" font-family="Times,serif" font-size="14.00"> REG </text>
<polygon fill="none" stroke="black" points="133,-42 133,-63 174,-63 174,-42 133,-42"/>
<text text-anchor="start" x="136" y="-48.8" font-family="Times,serif" font-size="14.00"> REG </text>
<polygon fill="none" stroke="black" points="0,-21 0,-42 51,-42 51,-21 0,-21"/>
<text text-anchor="start" x="3" y="-27.8" font-family="Times,serif" font-size="14.00"> IMOD </text>
<polygon fill="none" stroke="black" points="51,-21 51,-42 92,-42 92,-21 51,-21"/>
<text text-anchor="start" x="54" y="-27.8" font-family="Times,serif" font-size="14.00"> REG </text>
<polygon fill="none" stroke="black" points="92,-21 92,-42 133,-42 133,-21 92,-21"/>
<text text-anchor="start" x="95" y="-27.8" font-family="Times,serif" font-size="14.00"> REG </text>
<polygon fill="none" stroke="black" points="133,-21 133,-42 174,-42 174,-21 133,-21"/>
<text text-anchor="start" x="138.5" y="-27.8" font-family="Times,serif" font-size="14.00"> INT </text>
<polygon fill="none" stroke="black" points="0,0 0,-21 51,-21 51,0 0,0"/>
<text text-anchor="start" x="3" y="-6.8" font-family="Times,serif" font-size="14.00"> IMOD </text>
<polygon fill="none" stroke="black" points="51,0 51,-21 92,-21 92,0 51,0"/>
<text text-anchor="start" x="54" y="-6.8" font-family="Times,serif" font-size="14.00"> REG </text>
<polygon fill="none" stroke="black" points="92,0 92,-21 133,-21 133,0 92,0"/>
<text text-anchor="start" x="97.5" y="-6.8" font-family="Times,serif" font-size="14.00"> INT </text>
<polygon fill="none" stroke="black" points="133,0 133,-21 174,-21 174,0 133,0"/>
<text text-anchor="start" x="136" y="-6.8" font-family="Times,serif" font-size="14.00"> REG </text>
</g>
</g>
</svg>
