<?xml version="1.0" encoding="UTF-8" standalone="no"?>
<!DOCTYPE svg PUBLIC "-//W3C//DTD SVG 1.1//EN"
 "http://www.w3.org/Graphics/SVG/1.1/DTD/svg11.dtd">
<!-- Generated by graphviz version 7.0.4 (20221203.1631)
 -->
<!-- Pages: 1 -->
<svg width="302pt" height="156pt"
 viewBox="0.00 0.00 302.00 156.00" xmlns="http://www.w3.org/2000/svg" xmlns:xlink="http://www.w3.org/1999/xlink">
<g id="graph0" class="graph" transform="scale(1 1) rotate(0) translate(36 120)">
<polygon fill="white" stroke="none" points="-36,36 -36,-120 266,-120 266,36 -36,36"/>
<!-- Foo -->
<g id="node1" class="node">
<title>Foo</title>
<polygon fill="none" stroke="black" points="0,-63 0,-84 56,-84 56,-63 0,-63"/>
<text text-anchor="start" x="3" y="-69.8" font-family="Times,serif" font-size="14.00"> Opcode </text>
<polygon fill="none" stroke="black" points="56,-63 56,-84 107,-84 107,-63 56,-63"/>
<text text-anchor="start" x="61" y="-69.8" font-family="Times,serif" font-size="14.00"> Name </text>
<polygon fill="none" stroke="black" points="107,-63 107,-84 148,-84 148,-63 107,-63"/>
<text text-anchor="start" x="111.5" y="-69.8" font-family="Times,serif" font-size="14.00"> OP1 </text>
<polygon fill="none" stroke="black" points="148,-63 148,-84 189,-84 189,-63 148,-63"/>
<text text-anchor="start" x="152.5" y="-69.8" font-family="Times,serif" font-size="14.00"> OP2 </text>
<polygon fill="none" stroke="black" points="189,-63 189,-84 230,-84 230,-63 189,-63"/>
<text text-anchor="start" x="193.5" y="-69.8" font-family="Times,serif" font-size="14.00"> OP3 </text>
<polygon fill="none" stroke="black" points="0,-42 0,-63 56,-63 56,-42 0,-42"/>
<text text-anchor="start" x="3.5" y="-48.8" font-family="Times,serif" font-size="14.00"> 0x0021 </text>
<polygon fill="none" stroke="black" points="56,-42 56,-63 107,-63 107,-42 56,-42"/>
<text text-anchor="start" x="59" y="-48.8" font-family="Times,serif" font-size="14.00"> IMOD </text>
<polygon fill="none" stroke="black" points="107,-42 107,-63 148,-63 148,-42 107,-42"/>
<text text-anchor="start" x="110" y="-48.8" font-family="Times,serif" font-size="14.00"> REG </text>
<polygon fill="none" stroke="black" points="148,-42 148,-63 189,-63 189,-42 148,-42"/>
<text text-anchor="start" x="151" y="-48.8" font-family="Times,serif" font-size="14.00"> REG </text>
<polygon fill="none" stroke="black" points="189,-42 189,-63 230,-63 230,-42 189,-42"/>
<text text-anchor="start" x="192" y="-48.8" font-family="Times,serif" font-size="14.00"> REG </text>
<polygon fill="none" stroke="black" points="0,-21 0,-42 56,-42 56,-21 0,-21"/>
<text text-anchor="start" x="3.5" y="-27.8" font-family="Times,serif" font-size="14.00"> 0x0022 </text>
<polygon fill="none" stroke="black" points="56,-21 56,-42 107,-42 107,-21 56,-21"/>
<text text-anchor="start" x="59" y="-27.8" font-family="Times,serif" font-size="14.00"> IMOD </text>
<polygon fill="none" stroke="black" points="107,-21 107,-42 148,-42 148,-21 107,-21"/>
<text text-anchor="start" x="110" y="-27.8" font-family="Times,serif" font-size="14.00"> REG </text>
<polygon fill="none" stroke="black" points="148,-21 148,-42 189,-42 189,-21 148,-21"/>
<text text-anchor="start" x="151" y="-27.8" font-family="Times,serif" font-size="14.00"> REG </text>
<polygon fill="none" stroke="black" points="189,-21 189,-42 230,-42 230,-21 189,-21"/>
<text text-anchor="start" x="194.5" y="-27.8" font-family="Times,serif" font-size="14.00"> INT </text>
<polygon fill="none" stroke="black" points="0,0 0,-21 56,-21 56,0 0,0"/>
<text text-anchor="start" x="3.5" y="-6.8" font-family="Times,serif" font-size="14.00"> 0x0023 </text>
<polygon fill="none" stroke="black" points="56,0 56,-21 107,-21 107,0 56,0"/>
<text text-anchor="start" x="59" y="-6.8" font-family="Times,serif" font-size="14.00"> IMOD </text>
<polygon fill="none" stroke="black" points="107,0 107,-21 148,-21 148,0 107,0"/>
<text text-anchor="start" x="110" y="-6.8" font-family="Times,serif" font-size="14.00"> REG </text>
<polygon fill="none" stroke="black" points="148,0 148,-21 189,-21 189,0 148,0"/>
<text text-anchor="start" x="153.5" y="-6.8" font-family="Times,serif" font-size="14.00"> INT </text>
<polygon fill="none" stroke="black" points="189,0 189,-21 230,-21 230,0 189,0"/>
<text text-anchor="start" x="192" y="-6.8" font-family="Times,serif" font-size="14.00"> REG </text>
</g>
</g>
</svg>
