<?xml version="1.0" encoding="UTF-8" standalone="no"?>
<!DOCTYPE svg PUBLIC "-//W3C//DTD SVG 1.1//EN"
 "http://www.w3.org/Graphics/SVG/1.1/DTD/svg11.dtd">
<!-- Generated by graphviz version 12.2.1 (20241206.2353)
 -->
<!-- Pages: 1 -->
<svg width="249pt" height="140pt"
 viewBox="0.00 0.00 249.00 139.50" xmlns="http://www.w3.org/2000/svg" xmlns:xlink="http://www.w3.org/1999/xlink">
<g id="graph0" class="graph" transform="scale(1 1) rotate(0) translate(36 103.5)">
<polygon fill="white" stroke="none" points="-36,36 -36,-103.5 213,-103.5 213,36 -36,36"/>
<!-- Foo -->
<g id="node1" class="node">
<title>Foo</title>
<polygon fill="none" stroke="black" points="0,-45 0,-67.5 55.5,-67.5 55.5,-45 0,-45"/>
<text text-anchor="start" x="7.5" y="-51.2" font-family="Times,serif" font-size="14.00"> Name </text>
<polygon fill="none" stroke="black" points="55.5,-45 55.5,-67.5 96,-67.5 96,-45 55.5,-45"/>
<text text-anchor="start" x="60" y="-51.2" font-family="Times,serif" font-size="14.00"> OP1 </text>
<polygon fill="none" stroke="black" points="96,-45 96,-67.5 136.5,-67.5 136.5,-45 96,-45"/>
<text text-anchor="start" x="100.5" y="-51.2" font-family="Times,serif" font-size="14.00"> OP2 </text>
<polygon fill="none" stroke="black" points="136.5,-45 136.5,-67.5 177,-67.5 177,-45 136.5,-45"/>
<text text-anchor="start" x="141" y="-51.2" font-family="Times,serif" font-size="14.00"> OP3 </text>
<polygon fill="none" stroke="black" points="0,-22.5 0,-45 55.5,-45 55.5,-22.5 0,-22.5"/>
<text text-anchor="start" x="3" y="-28.7" font-family="Times,serif" font-size="14.00"> IMULT </text>
<polygon fill="none" stroke="black" points="55.5,-22.5 55.5,-45 96,-45 96,-22.5 55.5,-22.5"/>
<text text-anchor="start" x="58.5" y="-28.7" font-family="Times,serif" font-size="14.00"> REG </text>
<polygon fill="none" stroke="black" points="96,-22.5 96,-45 136.5,-45 136.5,-22.5 96,-22.5"/>
<text text-anchor="start" x="99" y="-28.7" font-family="Times,serif" font-size="14.00"> REG </text>
<polygon fill="none" stroke="black" points="136.5,-22.5 136.5,-45 177,-45 177,-22.5 136.5,-22.5"/>
<text text-anchor="start" x="139.5" y="-28.7" font-family="Times,serif" font-size="14.00"> REG </text>
<polygon fill="none" stroke="black" points="0,0 0,-22.5 55.5,-22.5 55.5,0 0,0"/>
<text text-anchor="start" x="3" y="-6.2" font-family="Times,serif" font-size="14.00"> IMULT </text>
<polygon fill="none" stroke="black" points="55.5,0 55.5,-22.5 96,-22.5 96,0 55.5,0"/>
<text text-anchor="start" x="58.5" y="-6.2" font-family="Times,serif" font-size="14.00"> REG </text>
<polygon fill="none" stroke="black" points="96,0 96,-22.5 136.5,-22.5 136.5,0 96,0"/>
<text text-anchor="start" x="99" y="-6.2" font-family="Times,serif" font-size="14.00"> REG </text>
<polygon fill="none" stroke="black" points="136.5,0 136.5,-22.5 177,-22.5 177,0 136.5,0"/>
<text text-anchor="start" x="142.12" y="-6.2" font-family="Times,serif" font-size="14.00"> INT </text>
</g>
</g>
</svg>
