<?xml version="1.0" encoding="UTF-8" standalone="no"?>
<!DOCTYPE svg PUBLIC "-//W3C//DTD SVG 1.1//EN"
 "http://www.w3.org/Graphics/SVG/1.1/DTD/svg11.dtd">
<!-- Generated by graphviz version 7.0.4 (20221203.1631)
 -->
<!-- Pages: 1 -->
<svg width="242pt" height="135pt"
 viewBox="0.00 0.00 242.00 135.00" xmlns="http://www.w3.org/2000/svg" xmlns:xlink="http://www.w3.org/1999/xlink">
<g id="graph0" class="graph" transform="scale(1 1) rotate(0) translate(36 99)">
<polygon fill="white" stroke="none" points="-36,36 -36,-99 206,-99 206,36 -36,36"/>
<!-- Foo -->
<g id="node1" class="node">
<title>Foo</title>
<polygon fill="none" stroke="black" points="0,-41.5 0,-62.5 47,-62.5 47,-41.5 0,-41.5"/>
<text text-anchor="start" x="3" y="-48.3" font-family="Times,serif" font-size="14.00"> Name </text>
<polygon fill="none" stroke="black" points="47,-41.5 47,-62.5 88,-62.5 88,-41.5 47,-41.5"/>
<text text-anchor="start" x="51.5" y="-48.3" font-family="Times,serif" font-size="14.00"> OP1 </text>
<polygon fill="none" stroke="black" points="88,-41.5 88,-62.5 129,-62.5 129,-41.5 88,-41.5"/>
<text text-anchor="start" x="92.5" y="-48.3" font-family="Times,serif" font-size="14.00"> OP2 </text>
<polygon fill="none" stroke="black" points="129,-41.5 129,-62.5 170,-62.5 170,-41.5 129,-41.5"/>
<text text-anchor="start" x="133.5" y="-48.3" font-family="Times,serif" font-size="14.00"> OP3 </text>
<polygon fill="none" stroke="black" points="0,-20.5 0,-41.5 47,-41.5 47,-20.5 0,-20.5"/>
<text text-anchor="start" x="8" y="-27.3" font-family="Times,serif" font-size="14.00"> IOR </text>
<polygon fill="none" stroke="black" points="47,-20.5 47,-41.5 88,-41.5 88,-20.5 47,-20.5"/>
<text text-anchor="start" x="50" y="-27.3" font-family="Times,serif" font-size="14.00"> REG </text>
<polygon fill="none" stroke="black" points="88,-20.5 88,-41.5 129,-41.5 129,-20.5 88,-20.5"/>
<text text-anchor="start" x="91" y="-27.3" font-family="Times,serif" font-size="14.00"> REG </text>
<polygon fill="none" stroke="black" points="129,-20.5 129,-41.5 170,-41.5 170,-20.5 129,-20.5"/>
<text text-anchor="start" x="132" y="-27.3" font-family="Times,serif" font-size="14.00"> REG </text>
<polygon fill="none" stroke="black" points="0,0.5 0,-20.5 47,-20.5 47,0.5 0,0.5"/>
<text text-anchor="start" x="8" y="-6.3" font-family="Times,serif" font-size="14.00"> IOR </text>
<polygon fill="none" stroke="black" points="47,0.5 47,-20.5 88,-20.5 88,0.5 47,0.5"/>
<text text-anchor="start" x="50" y="-6.3" font-family="Times,serif" font-size="14.00"> REG </text>
<polygon fill="none" stroke="black" points="88,0.5 88,-20.5 129,-20.5 129,0.5 88,0.5"/>
<text text-anchor="start" x="91" y="-6.3" font-family="Times,serif" font-size="14.00"> REG </text>
<polygon fill="none" stroke="black" points="129,0.5 129,-20.5 170,-20.5 170,0.5 129,0.5"/>
<text text-anchor="start" x="134.5" y="-6.3" font-family="Times,serif" font-size="14.00"> INT </text>
</g>
</g>
</svg>
