<?xml version="1.0" encoding="UTF-8" standalone="no"?>
<!DOCTYPE svg PUBLIC "-//W3C//DTD SVG 1.1//EN"
 "http://www.w3.org/Graphics/SVG/1.1/DTD/svg11.dtd">
<!-- Generated by graphviz version 12.1.2 (20240928.0832)
 -->
<!-- Pages: 1 -->
<svg width="208pt" height="138pt"
 viewBox="0.00 0.00 208.00 138.00" xmlns="http://www.w3.org/2000/svg" xmlns:xlink="http://www.w3.org/1999/xlink">
<g id="graph0" class="graph" transform="scale(1 1) rotate(0) translate(36 102)">
<polygon fill="white" stroke="none" points="-36,36 -36,-102 172,-102 172,36 -36,36"/>
<!-- Foo -->
<g id="node1" class="node">
<title>Foo</title>
<polygon fill="none" stroke="black" points="0,-44 0,-66 56,-66 56,-44 0,-44"/>
<text text-anchor="start" x="7.75" y="-49.7" font-family="Times,serif" font-size="14.00"> Name </text>
<polygon fill="none" stroke="black" points="56,-44 56,-66 96,-66 96,-44 56,-44"/>
<text text-anchor="start" x="60.25" y="-49.7" font-family="Times,serif" font-size="14.00"> OP1 </text>
<polygon fill="none" stroke="black" points="96,-44 96,-66 136,-66 136,-44 96,-44"/>
<text text-anchor="start" x="100.25" y="-49.7" font-family="Times,serif" font-size="14.00"> OP2 </text>
<polygon fill="none" stroke="black" points="0,-22 0,-44 56,-44 56,-22 0,-22"/>
<text text-anchor="start" x="2.88" y="-27.7" font-family="Times,serif" font-size="14.00"> IRAND </text>
<polygon fill="none" stroke="black" points="56,-22 56,-44 96,-44 96,-22 56,-22"/>
<text text-anchor="start" x="58.75" y="-27.7" font-family="Times,serif" font-size="14.00"> REG </text>
<polygon fill="none" stroke="black" points="96,-22 96,-44 136,-44 136,-22 96,-22"/>
<text text-anchor="start" x="98.75" y="-27.7" font-family="Times,serif" font-size="14.00"> REG </text>
<polygon fill="none" stroke="black" points="0,0 0,-22 56,-22 56,0 0,0"/>
<text text-anchor="start" x="2.88" y="-5.7" font-family="Times,serif" font-size="14.00"> IRAND </text>
<polygon fill="none" stroke="black" points="56,0 56,-22 96,-22 96,0 56,0"/>
<text text-anchor="start" x="58.75" y="-5.7" font-family="Times,serif" font-size="14.00"> REG </text>
<polygon fill="none" stroke="black" points="96,0 96,-22 136,-22 136,0 96,0"/>
<text text-anchor="start" x="101.38" y="-5.7" font-family="Times,serif" font-size="14.00"> INT </text>
</g>
</g>
</svg>
