<?xml version="1.0" encoding="UTF-8" standalone="no"?>
<!DOCTYPE svg PUBLIC "-//W3C//DTD SVG 1.1//EN"
 "http://www.w3.org/Graphics/SVG/1.1/DTD/svg11.dtd">
<!-- Generated by graphviz version 12.1.2 (20240928.0832)
 -->
<!-- Pages: 1 -->
<svg width="271pt" height="138pt"
 viewBox="0.00 0.00 271.00 138.00" xmlns="http://www.w3.org/2000/svg" xmlns:xlink="http://www.w3.org/1999/xlink">
<g id="graph0" class="graph" transform="scale(1 1) rotate(0) translate(36 102)">
<polygon fill="white" stroke="none" points="-36,36 -36,-102 235,-102 235,36 -36,36"/>
<!-- Foo -->
<g id="node1" class="node">
<title>Foo</title>
<polygon fill="none" stroke="black" points="0,-44 0,-66 79,-66 79,-44 0,-44"/>
<text text-anchor="start" x="19.25" y="-49.7" font-family="Times,serif" font-size="14.00"> Name </text>
<polygon fill="none" stroke="black" points="79,-44 79,-66 119,-66 119,-44 79,-44"/>
<text text-anchor="start" x="83.25" y="-49.7" font-family="Times,serif" font-size="14.00"> OP1 </text>
<polygon fill="none" stroke="black" points="119,-44 119,-66 159,-66 159,-44 119,-44"/>
<text text-anchor="start" x="123.25" y="-49.7" font-family="Times,serif" font-size="14.00"> OP2 </text>
<polygon fill="none" stroke="black" points="159,-44 159,-66 199,-66 199,-44 159,-44"/>
<text text-anchor="start" x="163.25" y="-49.7" font-family="Times,serif" font-size="14.00"> OP3 </text>
<polygon fill="none" stroke="black" points="0,-22 0,-44 79,-44 79,-22 0,-22"/>
<text text-anchor="start" x="2.75" y="-27.7" font-family="Times,serif" font-size="14.00"> LINKATTR </text>
<polygon fill="none" stroke="black" points="79,-22 79,-44 119,-44 119,-22 79,-22"/>
<text text-anchor="start" x="81.75" y="-27.7" font-family="Times,serif" font-size="14.00"> REG </text>
<polygon fill="none" stroke="black" points="119,-22 119,-44 159,-44 159,-22 119,-22"/>
<text text-anchor="start" x="121.75" y="-27.7" font-family="Times,serif" font-size="14.00"> REG </text>
<polygon fill="none" stroke="black" points="159,-22 159,-44 199,-44 199,-22 159,-22"/>
<text text-anchor="start" x="161.75" y="-27.7" font-family="Times,serif" font-size="14.00"> REG </text>
<polygon fill="none" stroke="black" points="0,0 0,-22 79,-22 79,0 0,0"/>
<text text-anchor="start" x="2.75" y="-5.7" font-family="Times,serif" font-size="14.00"> LINKATTR </text>
<polygon fill="none" stroke="black" points="79,0 79,-22 119,-22 119,0 79,0"/>
<text text-anchor="start" x="81.75" y="-5.7" font-family="Times,serif" font-size="14.00"> REG </text>
<polygon fill="none" stroke="black" points="119,0 119,-22 159,-22 159,0 119,0"/>
<text text-anchor="start" x="121.75" y="-5.7" font-family="Times,serif" font-size="14.00"> REG </text>
<polygon fill="none" stroke="black" points="159,0 159,-22 199,-22 199,0 159,0"/>
<text text-anchor="start" x="164.38" y="-5.7" font-family="Times,serif" font-size="14.00"> INT </text>
</g>
</g>
</svg>
