<?xml version="1.0" encoding="UTF-8" standalone="no"?>
<!DOCTYPE svg PUBLIC "-//W3C//DTD SVG 1.1//EN"
 "http://www.w3.org/Graphics/SVG/1.1/DTD/svg11.dtd">
<!-- Generated by graphviz version 12.2.1 (20241206.2353)
 -->
<!-- Pages: 1 -->
<svg width="273pt" height="140pt"
 viewBox="0.00 0.00 273.00 139.50" xmlns="http://www.w3.org/2000/svg" xmlns:xlink="http://www.w3.org/1999/xlink">
<g id="graph0" class="graph" transform="scale(1 1) rotate(0) translate(36 103.5)">
<polygon fill="white" stroke="none" points="-36,36 -36,-103.5 237,-103.5 237,36 -36,36"/>
<!-- Foo -->
<g id="node1" class="node">
<title>Foo</title>
<polygon fill="none" stroke="black" points="0,-45 0,-67.5 79.5,-67.5 79.5,-45 0,-45"/>
<text text-anchor="start" x="19.5" y="-51.2" font-family="Times,serif" font-size="14.00"> Name </text>
<polygon fill="none" stroke="black" points="79.5,-45 79.5,-67.5 120,-67.5 120,-45 79.5,-45"/>
<text text-anchor="start" x="84" y="-51.2" font-family="Times,serif" font-size="14.00"> OP1 </text>
<polygon fill="none" stroke="black" points="120,-45 120,-67.5 160.5,-67.5 160.5,-45 120,-45"/>
<text text-anchor="start" x="124.5" y="-51.2" font-family="Times,serif" font-size="14.00"> OP2 </text>
<polygon fill="none" stroke="black" points="160.5,-45 160.5,-67.5 201,-67.5 201,-45 160.5,-45"/>
<text text-anchor="start" x="165" y="-51.2" font-family="Times,serif" font-size="14.00"> OP3 </text>
<polygon fill="none" stroke="black" points="0,-22.5 0,-45 79.5,-45 79.5,-22.5 0,-22.5"/>
<text text-anchor="start" x="3" y="-28.7" font-family="Times,serif" font-size="14.00"> LINKATTR </text>
<polygon fill="none" stroke="black" points="79.5,-22.5 79.5,-45 120,-45 120,-22.5 79.5,-22.5"/>
<text text-anchor="start" x="82.5" y="-28.7" font-family="Times,serif" font-size="14.00"> REG </text>
<polygon fill="none" stroke="black" points="120,-22.5 120,-45 160.5,-45 160.5,-22.5 120,-22.5"/>
<text text-anchor="start" x="123" y="-28.7" font-family="Times,serif" font-size="14.00"> REG </text>
<polygon fill="none" stroke="black" points="160.5,-22.5 160.5,-45 201,-45 201,-22.5 160.5,-22.5"/>
<text text-anchor="start" x="163.5" y="-28.7" font-family="Times,serif" font-size="14.00"> REG </text>
<polygon fill="none" stroke="black" points="0,0 0,-22.5 79.5,-22.5 79.5,0 0,0"/>
<text text-anchor="start" x="3" y="-6.2" font-family="Times,serif" font-size="14.00"> LINKATTR </text>
<polygon fill="none" stroke="black" points="79.5,0 79.5,-22.5 120,-22.5 120,0 79.5,0"/>
<text text-anchor="start" x="82.5" y="-6.2" font-family="Times,serif" font-size="14.00"> REG </text>
<polygon fill="none" stroke="black" points="120,0 120,-22.5 160.5,-22.5 160.5,0 120,0"/>
<text text-anchor="start" x="123" y="-6.2" font-family="Times,serif" font-size="14.00"> REG </text>
<polygon fill="none" stroke="black" points="160.5,0 160.5,-22.5 201,-22.5 201,0 160.5,0"/>
<text text-anchor="start" x="166.12" y="-6.2" font-family="Times,serif" font-size="14.00"> INT </text>
</g>
</g>
</svg>
