<?xml version="1.0" encoding="UTF-8" standalone="no"?>
<!DOCTYPE svg PUBLIC "-//W3C//DTD SVG 1.1//EN"
 "http://www.w3.org/Graphics/SVG/1.1/DTD/svg11.dtd">
<!-- Generated by graphviz version 7.0.4 (20221203.1631)
 -->
<!-- Pages: 1 -->
<svg width="305pt" height="156pt"
 viewBox="0.00 0.00 305.00 156.00" xmlns="http://www.w3.org/2000/svg" xmlns:xlink="http://www.w3.org/1999/xlink">
<g id="graph0" class="graph" transform="scale(1 1) rotate(0) translate(36 120)">
<polygon fill="white" stroke="none" points="-36,36 -36,-120 269,-120 269,36 -36,36"/>
<!-- Foo -->
<g id="node1" class="node">
<title>Foo</title>
<polygon fill="none" stroke="black" points="0.5,-63 0.5,-84 91.5,-84 91.5,-63 0.5,-63"/>
<text text-anchor="start" x="25.5" y="-69.8" font-family="Times,serif" font-size="14.00"> Name </text>
<polygon fill="none" stroke="black" points="91.5,-63 91.5,-84 132.5,-84 132.5,-63 91.5,-63"/>
<text text-anchor="start" x="96" y="-69.8" font-family="Times,serif" font-size="14.00"> OP1 </text>
<polygon fill="none" stroke="black" points="132.5,-63 132.5,-84 195.5,-84 195.5,-63 132.5,-63"/>
<text text-anchor="start" x="148" y="-69.8" font-family="Times,serif" font-size="14.00"> OP2 </text>
<polygon fill="none" stroke="black" points="195.5,-63 195.5,-84 233.5,-84 233.5,-63 195.5,-63"/>
<text text-anchor="start" x="198.5" y="-69.8" font-family="Times,serif" font-size="14.00"> OP3 </text>
<polygon fill="none" stroke="black" points="0.5,-42 0.5,-63 91.5,-63 91.5,-42 0.5,-42"/>
<text text-anchor="start" x="3.5" y="-48.8" font-family="Times,serif" font-size="14.00"> LOADSETTP </text>
<polygon fill="none" stroke="black" points="91.5,-42 91.5,-63 132.5,-63 132.5,-42 91.5,-42"/>
<text text-anchor="start" x="94.5" y="-48.8" font-family="Times,serif" font-size="14.00"> REG </text>
<polygon fill="none" stroke="black" points="132.5,-42 132.5,-63 195.5,-63 195.5,-42 132.5,-42"/>
<text text-anchor="start" x="149" y="-48.8" font-family="Times,serif" font-size="14.00"> INT </text>
<polygon fill="none" stroke="black" points="195.5,-42 195.5,-63 233.5,-63 233.5,-42 195.5,-42"/>
<text text-anchor="start" x="199.5" y="-48.8" font-family="Times,serif" font-size="14.00"> INT </text>
<polygon fill="none" stroke="black" points="0.5,-21 0.5,-42 91.5,-42 91.5,-21 0.5,-21"/>
<text text-anchor="start" x="3.5" y="-27.8" font-family="Times,serif" font-size="14.00"> LOADSETTP </text>
<polygon fill="none" stroke="black" points="91.5,-21 91.5,-42 132.5,-42 132.5,-21 91.5,-21"/>
<text text-anchor="start" x="94.5" y="-27.8" font-family="Times,serif" font-size="14.00"> REG </text>
<polygon fill="none" stroke="black" points="132.5,-21 132.5,-42 195.5,-42 195.5,-21 132.5,-21"/>
<text text-anchor="start" x="139.5" y="-27.8" font-family="Times,serif" font-size="14.00"> FLOAT </text>
<polygon fill="none" stroke="black" points="195.5,-21 195.5,-42 233.5,-42 233.5,-21 195.5,-21"/>
<text text-anchor="start" x="199.5" y="-27.8" font-family="Times,serif" font-size="14.00"> INT </text>
<polygon fill="none" stroke="black" points="0.5,0 0.5,-21 91.5,-21 91.5,0 0.5,0"/>
<text text-anchor="start" x="3.5" y="-6.8" font-family="Times,serif" font-size="14.00"> LOADSETTP </text>
<polygon fill="none" stroke="black" points="91.5,0 91.5,-21 132.5,-21 132.5,0 91.5,0"/>
<text text-anchor="start" x="94.5" y="-6.8" font-family="Times,serif" font-size="14.00"> REG </text>
<polygon fill="none" stroke="black" points="132.5,0 132.5,-21 195.5,-21 195.5,0 132.5,0"/>
<text text-anchor="start" x="135.5" y="-6.8" font-family="Times,serif" font-size="14.00"> STRING </text>
<polygon fill="none" stroke="black" points="195.5,0 195.5,-21 233.5,-21 233.5,0 195.5,0"/>
<text text-anchor="start" x="199.5" y="-6.8" font-family="Times,serif" font-size="14.00"> INT </text>
</g>
</g>
</svg>
