<?xml version="1.0" encoding="UTF-8" standalone="no"?>
<!DOCTYPE svg PUBLIC "-//W3C//DTD SVG 1.1//EN"
 "http://www.w3.org/Graphics/SVG/1.1/DTD/svg11.dtd">
<!-- Generated by graphviz version 12.2.1 (20241206.2353)
 -->
<!-- Pages: 1 -->
<svg width="239pt" height="275pt"
 viewBox="0.00 0.00 238.50 274.50" xmlns="http://www.w3.org/2000/svg" xmlns:xlink="http://www.w3.org/1999/xlink">
<g id="graph0" class="graph" transform="scale(1 1) rotate(0) translate(36 238.5)">
<polygon fill="white" stroke="none" points="-36,36 -36,-238.5 202.5,-238.5 202.5,36 -36,36"/>
<!-- Foo -->
<g id="node1" class="node">
<title>Foo</title>
<polygon fill="none" stroke="black" points="0,-180 0,-202.5 51,-202.5 51,-180 0,-180"/>
<text text-anchor="start" x="5.25" y="-186.2" font-family="Times,serif" font-size="14.00"> Name </text>
<polygon fill="none" stroke="black" points="51,-180 51,-202.5 91.5,-202.5 91.5,-180 51,-180"/>
<text text-anchor="start" x="55.5" y="-186.2" font-family="Times,serif" font-size="14.00"> OP1 </text>
<polygon fill="none" stroke="black" points="91.5,-180 91.5,-202.5 166.5,-202.5 166.5,-180 91.5,-180"/>
<text text-anchor="start" x="113.25" y="-186.2" font-family="Times,serif" font-size="14.00"> OP2 </text>
<polygon fill="none" stroke="black" points="0,-157.5 0,-180 51,-180 51,-157.5 0,-157.5"/>
<text text-anchor="start" x="3" y="-163.7" font-family="Times,serif" font-size="14.00"> LOAD </text>
<polygon fill="none" stroke="black" points="51,-157.5 51,-180 91.5,-180 91.5,-157.5 51,-157.5"/>
<text text-anchor="start" x="56.62" y="-163.7" font-family="Times,serif" font-size="14.00"> INT </text>
<polygon fill="none" stroke="black" points="91.5,-157.5 91.5,-180 166.5,-180 166.5,-157.5 91.5,-157.5"/>
<text text-anchor="start" x="111.75" y="-163.7" font-family="Times,serif" font-size="14.00"> REG </text>
<polygon fill="none" stroke="black" points="0,-135 0,-157.5 51,-157.5 51,-135 0,-135"/>
<text text-anchor="start" x="3" y="-141.2" font-family="Times,serif" font-size="14.00"> LOAD </text>
<polygon fill="none" stroke="black" points="51,-135 51,-157.5 91.5,-157.5 91.5,-135 51,-135"/>
<text text-anchor="start" x="54" y="-141.2" font-family="Times,serif" font-size="14.00"> REG </text>
<polygon fill="none" stroke="black" points="91.5,-135 91.5,-157.5 166.5,-157.5 166.5,-135 91.5,-135"/>
<text text-anchor="start" x="111.75" y="-141.2" font-family="Times,serif" font-size="14.00"> REG </text>
<polygon fill="none" stroke="black" points="0,-112.5 0,-135 51,-135 51,-112.5 0,-112.5"/>
<text text-anchor="start" x="3" y="-118.7" font-family="Times,serif" font-size="14.00"> LOAD </text>
<polygon fill="none" stroke="black" points="51,-112.5 51,-135 91.5,-135 91.5,-112.5 51,-112.5"/>
<text text-anchor="start" x="54" y="-118.7" font-family="Times,serif" font-size="14.00"> REG </text>
<polygon fill="none" stroke="black" points="91.5,-112.5 91.5,-135 166.5,-135 166.5,-112.5 91.5,-112.5"/>
<text text-anchor="start" x="114.38" y="-118.7" font-family="Times,serif" font-size="14.00"> INT </text>
<polygon fill="none" stroke="black" points="0,-90 0,-112.5 51,-112.5 51,-90 0,-90"/>
<text text-anchor="start" x="3" y="-96.2" font-family="Times,serif" font-size="14.00"> LOAD </text>
<polygon fill="none" stroke="black" points="51,-90 51,-112.5 91.5,-112.5 91.5,-90 51,-90"/>
<text text-anchor="start" x="54" y="-96.2" font-family="Times,serif" font-size="14.00"> REG </text>
<polygon fill="none" stroke="black" points="91.5,-90 91.5,-112.5 166.5,-112.5 166.5,-90 91.5,-90"/>
<text text-anchor="start" x="104.62" y="-96.2" font-family="Times,serif" font-size="14.00"> FLOAT </text>
<polygon fill="none" stroke="black" points="0,-67.5 0,-90 51,-90 51,-67.5 0,-67.5"/>
<text text-anchor="start" x="3" y="-73.7" font-family="Times,serif" font-size="14.00"> LOAD </text>
<polygon fill="none" stroke="black" points="51,-67.5 51,-90 91.5,-90 91.5,-67.5 51,-67.5"/>
<text text-anchor="start" x="54" y="-73.7" font-family="Times,serif" font-size="14.00"> REG </text>
<polygon fill="none" stroke="black" points="91.5,-67.5 91.5,-90 166.5,-90 166.5,-67.5 91.5,-67.5"/>
<text text-anchor="start" x="106.5" y="-73.7" font-family="Times,serif" font-size="14.00"> CHAR </text>
<polygon fill="none" stroke="black" points="0,-45 0,-67.5 51,-67.5 51,-45 0,-45"/>
<text text-anchor="start" x="3" y="-51.2" font-family="Times,serif" font-size="14.00"> LOAD </text>
<polygon fill="none" stroke="black" points="51,-45 51,-67.5 91.5,-67.5 91.5,-45 51,-45"/>
<text text-anchor="start" x="54" y="-51.2" font-family="Times,serif" font-size="14.00"> REG </text>
<polygon fill="none" stroke="black" points="91.5,-45 91.5,-67.5 166.5,-67.5 166.5,-45 91.5,-45"/>
<text text-anchor="start" x="100.88" y="-51.2" font-family="Times,serif" font-size="14.00"> STRING </text>
<polygon fill="none" stroke="black" points="0,-22.5 0,-45 51,-45 51,-22.5 0,-22.5"/>
<text text-anchor="start" x="3" y="-28.7" font-family="Times,serif" font-size="14.00"> LOAD </text>
<polygon fill="none" stroke="black" points="51,-22.5 51,-45 91.5,-45 91.5,-22.5 51,-22.5"/>
<text text-anchor="start" x="54" y="-28.7" font-family="Times,serif" font-size="14.00"> REG </text>
<polygon fill="none" stroke="black" points="91.5,-22.5 91.5,-45 166.5,-45 166.5,-22.5 91.5,-22.5"/>
<text text-anchor="start" x="94.5" y="-28.7" font-family="Times,serif" font-size="14.00"> DECIMAL </text>
<polygon fill="none" stroke="black" points="0,0 0,-22.5 51,-22.5 51,0 0,0"/>
<text text-anchor="start" x="3" y="-6.2" font-family="Times,serif" font-size="14.00"> LOAD </text>
<polygon fill="none" stroke="black" points="51,0 51,-22.5 91.5,-22.5 91.5,0 51,0"/>
<text text-anchor="start" x="56.62" y="-6.2" font-family="Times,serif" font-size="14.00"> INT </text>
<polygon fill="none" stroke="black" points="91.5,0 91.5,-22.5 166.5,-22.5 166.5,0 91.5,0"/>
<text text-anchor="start" x="114.38" y="-6.2" font-family="Times,serif" font-size="14.00"> INT </text>
</g>
</g>
</svg>
