<?xml version="1.0" encoding="UTF-8" standalone="no"?>
<!DOCTYPE svg PUBLIC "-//W3C//DTD SVG 1.1//EN"
 "http://www.w3.org/Graphics/SVG/1.1/DTD/svg11.dtd">
<!-- Generated by graphviz version 12.2.1 (20241206.2353)
 -->
<!-- Pages: 1 -->
<svg width="302pt" height="162pt"
 viewBox="0.00 0.00 302.25 162.00" xmlns="http://www.w3.org/2000/svg" xmlns:xlink="http://www.w3.org/1999/xlink">
<g id="graph0" class="graph" transform="scale(1 1) rotate(0) translate(36 126)">
<polygon fill="white" stroke="none" points="-36,36 -36,-126 266.25,-126 266.25,36 -36,36"/>
<!-- Foo -->
<g id="node1" class="node">
<title>Foo</title>
<polygon fill="none" stroke="black" points="0,-67.5 0,-90 90,-90 90,-67.5 0,-67.5"/>
<text text-anchor="start" x="24.75" y="-73.7" font-family="Times,serif" font-size="14.00"> Name </text>
<polygon fill="none" stroke="black" points="90,-67.5 90,-90 130.5,-90 130.5,-67.5 90,-67.5"/>
<text text-anchor="start" x="94.5" y="-73.7" font-family="Times,serif" font-size="14.00"> OP1 </text>
<polygon fill="none" stroke="black" points="130.5,-67.5 130.5,-90 192.75,-90 192.75,-67.5 130.5,-67.5"/>
<text text-anchor="start" x="145.88" y="-73.7" font-family="Times,serif" font-size="14.00"> OP2 </text>
<polygon fill="none" stroke="black" points="192.75,-67.5 192.75,-90 230.25,-90 230.25,-67.5 192.75,-67.5"/>
<text text-anchor="start" x="195.75" y="-73.7" font-family="Times,serif" font-size="14.00"> OP3 </text>
<polygon fill="none" stroke="black" points="0,-45 0,-67.5 90,-67.5 90,-45 0,-45"/>
<text text-anchor="start" x="3" y="-51.2" font-family="Times,serif" font-size="14.00"> LOADSETTP </text>
<polygon fill="none" stroke="black" points="90,-45 90,-67.5 130.5,-67.5 130.5,-45 90,-45"/>
<text text-anchor="start" x="93" y="-51.2" font-family="Times,serif" font-size="14.00"> REG </text>
<polygon fill="none" stroke="black" points="130.5,-45 130.5,-67.5 192.75,-67.5 192.75,-45 130.5,-45"/>
<text text-anchor="start" x="147" y="-51.2" font-family="Times,serif" font-size="14.00"> INT </text>
<polygon fill="none" stroke="black" points="192.75,-45 192.75,-67.5 230.25,-67.5 230.25,-45 192.75,-45"/>
<text text-anchor="start" x="196.88" y="-51.2" font-family="Times,serif" font-size="14.00"> INT </text>
<polygon fill="none" stroke="black" points="0,-22.5 0,-45 90,-45 90,-22.5 0,-22.5"/>
<text text-anchor="start" x="3" y="-28.7" font-family="Times,serif" font-size="14.00"> LOADSETTP </text>
<polygon fill="none" stroke="black" points="90,-22.5 90,-45 130.5,-45 130.5,-22.5 90,-22.5"/>
<text text-anchor="start" x="93" y="-28.7" font-family="Times,serif" font-size="14.00"> REG </text>
<polygon fill="none" stroke="black" points="130.5,-22.5 130.5,-45 192.75,-45 192.75,-22.5 130.5,-22.5"/>
<text text-anchor="start" x="137.25" y="-28.7" font-family="Times,serif" font-size="14.00"> FLOAT </text>
<polygon fill="none" stroke="black" points="192.75,-22.5 192.75,-45 230.25,-45 230.25,-22.5 192.75,-22.5"/>
<text text-anchor="start" x="196.88" y="-28.7" font-family="Times,serif" font-size="14.00"> INT </text>
<polygon fill="none" stroke="black" points="0,0 0,-22.5 90,-22.5 90,0 0,0"/>
<text text-anchor="start" x="3" y="-6.2" font-family="Times,serif" font-size="14.00"> LOADSETTP </text>
<polygon fill="none" stroke="black" points="90,0 90,-22.5 130.5,-22.5 130.5,0 90,0"/>
<text text-anchor="start" x="93" y="-6.2" font-family="Times,serif" font-size="14.00"> REG </text>
<polygon fill="none" stroke="black" points="130.5,0 130.5,-22.5 192.75,-22.5 192.75,0 130.5,0"/>
<text text-anchor="start" x="133.5" y="-6.2" font-family="Times,serif" font-size="14.00"> STRING </text>
<polygon fill="none" stroke="black" points="192.75,0 192.75,-22.5 230.25,-22.5 230.25,0 192.75,0"/>
<text text-anchor="start" x="196.88" y="-6.2" font-family="Times,serif" font-size="14.00"> INT </text>
</g>
</g>
</svg>
