<?xml version="1.0" encoding="UTF-8" standalone="no"?>
<!DOCTYPE svg PUBLIC "-//W3C//DTD SVG 1.1//EN"
 "http://www.w3.org/Graphics/SVG/1.1/DTD/svg11.dtd">
<!-- Generated by graphviz version 12.1.2 (20240928.0832)
 -->
<!-- Pages: 1 -->
<svg width="225pt" height="182pt"
 viewBox="0.00 0.00 225.00 182.00" xmlns="http://www.w3.org/2000/svg" xmlns:xlink="http://www.w3.org/1999/xlink">
<g id="graph0" class="graph" transform="scale(1 1) rotate(0) translate(36 146)">
<polygon fill="white" stroke="none" points="-36,36 -36,-146 189,-146 189,36 -36,36"/>
<!-- Foo -->
<g id="node1" class="node">
<title>Foo</title>
<polygon fill="none" stroke="black" points="0,-88 0,-110 51,-110 51,-88 0,-88"/>
<text text-anchor="start" x="5.25" y="-93.7" font-family="Times,serif" font-size="14.00"> Name </text>
<polygon fill="none" stroke="black" points="51,-88 51,-110 91,-110 91,-88 51,-88"/>
<text text-anchor="start" x="55.25" y="-93.7" font-family="Times,serif" font-size="14.00"> OP1 </text>
<polygon fill="none" stroke="black" points="91,-88 91,-110 153,-110 153,-88 91,-88"/>
<text text-anchor="start" x="106.25" y="-93.7" font-family="Times,serif" font-size="14.00"> OP2 </text>
<polygon fill="none" stroke="black" points="0,-66 0,-88 51,-88 51,-66 0,-66"/>
<text text-anchor="start" x="3" y="-71.7" font-family="Times,serif" font-size="14.00"> LOAD </text>
<polygon fill="none" stroke="black" points="51,-66 51,-88 91,-88 91,-66 51,-66"/>
<text text-anchor="start" x="53.75" y="-71.7" font-family="Times,serif" font-size="14.00"> REG </text>
<polygon fill="none" stroke="black" points="91,-66 91,-88 153,-88 153,-66 91,-66"/>
<text text-anchor="start" x="107.38" y="-71.7" font-family="Times,serif" font-size="14.00"> INT </text>
<polygon fill="none" stroke="black" points="0,-44 0,-66 51,-66 51,-44 0,-44"/>
<text text-anchor="start" x="3" y="-49.7" font-family="Times,serif" font-size="14.00"> LOAD </text>
<polygon fill="none" stroke="black" points="51,-44 51,-66 91,-66 91,-44 51,-44"/>
<text text-anchor="start" x="53.75" y="-49.7" font-family="Times,serif" font-size="14.00"> REG </text>
<polygon fill="none" stroke="black" points="91,-44 91,-66 153,-66 153,-44 91,-44"/>
<text text-anchor="start" x="97.62" y="-49.7" font-family="Times,serif" font-size="14.00"> FLOAT </text>
<polygon fill="none" stroke="black" points="0,-22 0,-44 51,-44 51,-22 0,-22"/>
<text text-anchor="start" x="3" y="-27.7" font-family="Times,serif" font-size="14.00"> LOAD </text>
<polygon fill="none" stroke="black" points="51,-22 51,-44 91,-44 91,-22 51,-22"/>
<text text-anchor="start" x="53.75" y="-27.7" font-family="Times,serif" font-size="14.00"> REG </text>
<polygon fill="none" stroke="black" points="91,-22 91,-44 153,-44 153,-22 91,-22"/>
<text text-anchor="start" x="99.5" y="-27.7" font-family="Times,serif" font-size="14.00"> CHAR </text>
<polygon fill="none" stroke="black" points="0,0 0,-22 51,-22 51,0 0,0"/>
<text text-anchor="start" x="3" y="-5.7" font-family="Times,serif" font-size="14.00"> LOAD </text>
<polygon fill="none" stroke="black" points="51,0 51,-22 91,-22 91,0 51,0"/>
<text text-anchor="start" x="53.75" y="-5.7" font-family="Times,serif" font-size="14.00"> REG </text>
<polygon fill="none" stroke="black" points="91,0 91,-22 153,-22 153,0 91,0"/>
<text text-anchor="start" x="93.88" y="-5.7" font-family="Times,serif" font-size="14.00"> STRING </text>
</g>
</g>
</svg>
