<?xml version="1.0" encoding="UTF-8" standalone="no"?>
<!DOCTYPE svg PUBLIC "-//W3C//DTD SVG 1.1//EN"
 "http://www.w3.org/Graphics/SVG/1.1/DTD/svg11.dtd">
<!-- Generated by graphviz version 7.0.4 (20221203.1631)
 -->
<!-- Pages: 1 -->
<svg width="284pt" height="177pt"
 viewBox="0.00 0.00 284.00 177.00" xmlns="http://www.w3.org/2000/svg" xmlns:xlink="http://www.w3.org/1999/xlink">
<g id="graph0" class="graph" transform="scale(1 1) rotate(0) translate(36 141)">
<polygon fill="white" stroke="none" points="-36,36 -36,-141 248,-141 248,36 -36,36"/>
<!-- Foo -->
<g id="node1" class="node">
<title>Foo</title>
<polygon fill="none" stroke="black" points="0,-83.5 0,-104.5 56,-104.5 56,-83.5 0,-83.5"/>
<text text-anchor="start" x="3" y="-90.3" font-family="Times,serif" font-size="14.00"> Opcode </text>
<polygon fill="none" stroke="black" points="56,-83.5 56,-104.5 108,-104.5 108,-83.5 56,-83.5"/>
<text text-anchor="start" x="61.5" y="-90.3" font-family="Times,serif" font-size="14.00"> Name </text>
<polygon fill="none" stroke="black" points="108,-83.5 108,-104.5 149,-104.5 149,-83.5 108,-83.5"/>
<text text-anchor="start" x="112.5" y="-90.3" font-family="Times,serif" font-size="14.00"> OP1 </text>
<polygon fill="none" stroke="black" points="149,-83.5 149,-104.5 212,-104.5 212,-83.5 149,-83.5"/>
<text text-anchor="start" x="164.5" y="-90.3" font-family="Times,serif" font-size="14.00"> OP2 </text>
<polygon fill="none" stroke="black" points="0,-62.5 0,-83.5 56,-83.5 56,-62.5 0,-62.5"/>
<text text-anchor="start" x="4" y="-69.3" font-family="Times,serif" font-size="14.00"> 0x00c2 </text>
<polygon fill="none" stroke="black" points="56,-62.5 56,-83.5 108,-83.5 108,-62.5 56,-62.5"/>
<text text-anchor="start" x="59" y="-69.3" font-family="Times,serif" font-size="14.00"> LOAD </text>
<polygon fill="none" stroke="black" points="108,-62.5 108,-83.5 149,-83.5 149,-62.5 108,-62.5"/>
<text text-anchor="start" x="111" y="-69.3" font-family="Times,serif" font-size="14.00"> REG </text>
<polygon fill="none" stroke="black" points="149,-62.5 149,-83.5 212,-83.5 212,-62.5 149,-62.5"/>
<text text-anchor="start" x="165.5" y="-69.3" font-family="Times,serif" font-size="14.00"> INT </text>
<polygon fill="none" stroke="black" points="0,-41.5 0,-62.5 56,-62.5 56,-41.5 0,-41.5"/>
<text text-anchor="start" x="4" y="-48.3" font-family="Times,serif" font-size="14.00"> 0x00c3 </text>
<polygon fill="none" stroke="black" points="56,-41.5 56,-62.5 108,-62.5 108,-41.5 56,-41.5"/>
<text text-anchor="start" x="59" y="-48.3" font-family="Times,serif" font-size="14.00"> LOAD </text>
<polygon fill="none" stroke="black" points="108,-41.5 108,-62.5 149,-62.5 149,-41.5 108,-41.5"/>
<text text-anchor="start" x="111" y="-48.3" font-family="Times,serif" font-size="14.00"> REG </text>
<polygon fill="none" stroke="black" points="149,-41.5 149,-62.5 212,-62.5 212,-41.5 149,-41.5"/>
<text text-anchor="start" x="156" y="-48.3" font-family="Times,serif" font-size="14.00"> FLOAT </text>
<polygon fill="none" stroke="black" points="0,-20.5 0,-41.5 56,-41.5 56,-20.5 0,-20.5"/>
<text text-anchor="start" x="4" y="-27.3" font-family="Times,serif" font-size="14.00"> 0x00c5 </text>
<polygon fill="none" stroke="black" points="56,-20.5 56,-41.5 108,-41.5 108,-20.5 56,-20.5"/>
<text text-anchor="start" x="59" y="-27.3" font-family="Times,serif" font-size="14.00"> LOAD </text>
<polygon fill="none" stroke="black" points="108,-20.5 108,-41.5 149,-41.5 149,-20.5 108,-20.5"/>
<text text-anchor="start" x="111" y="-27.3" font-family="Times,serif" font-size="14.00"> REG </text>
<polygon fill="none" stroke="black" points="149,-20.5 149,-41.5 212,-41.5 212,-20.5 149,-20.5"/>
<text text-anchor="start" x="157.5" y="-27.3" font-family="Times,serif" font-size="14.00"> CHAR </text>
<polygon fill="none" stroke="black" points="0,0.5 0,-20.5 56,-20.5 56,0.5 0,0.5"/>
<text text-anchor="start" x="4" y="-6.3" font-family="Times,serif" font-size="14.00"> 0x00c4 </text>
<polygon fill="none" stroke="black" points="56,0.5 56,-20.5 108,-20.5 108,0.5 56,0.5"/>
<text text-anchor="start" x="59" y="-6.3" font-family="Times,serif" font-size="14.00"> LOAD </text>
<polygon fill="none" stroke="black" points="108,0.5 108,-20.5 149,-20.5 149,0.5 108,0.5"/>
<text text-anchor="start" x="111" y="-6.3" font-family="Times,serif" font-size="14.00"> REG </text>
<polygon fill="none" stroke="black" points="149,0.5 149,-20.5 212,-20.5 212,0.5 149,0.5"/>
<text text-anchor="start" x="152" y="-6.3" font-family="Times,serif" font-size="14.00"> STRING </text>
</g>
</g>
</svg>
