<?xml version="1.0" encoding="UTF-8" standalone="no"?>
<!DOCTYPE svg PUBLIC "-//W3C//DTD SVG 1.1//EN"
 "http://www.w3.org/Graphics/SVG/1.1/DTD/svg11.dtd">
<!-- Generated by graphviz version 7.0.4 (20221203.1631)
 -->
<!-- Pages: 1 -->
<svg width="320pt" height="240pt"
 viewBox="0.00 0.00 320.00 240.00" xmlns="http://www.w3.org/2000/svg" xmlns:xlink="http://www.w3.org/1999/xlink">
<g id="graph0" class="graph" transform="scale(1 1) rotate(0) translate(36 204)">
<polygon fill="white" stroke="none" points="-36,36 -36,-204 284,-204 284,36 -36,36"/>
<!-- Foo -->
<g id="node1" class="node">
<title>Foo</title>
<polygon fill="none" stroke="black" points="0,-147 0,-168 56,-168 56,-147 0,-147"/>
<text text-anchor="start" x="3" y="-153.8" font-family="Times,serif" font-size="14.00"> Opcode </text>
<polygon fill="none" stroke="black" points="56,-147 56,-168 108,-168 108,-147 56,-147"/>
<text text-anchor="start" x="61.5" y="-153.8" font-family="Times,serif" font-size="14.00"> Name </text>
<polygon fill="none" stroke="black" points="108,-147 108,-168 149,-168 149,-147 108,-147"/>
<text text-anchor="start" x="112.5" y="-153.8" font-family="Times,serif" font-size="14.00"> OP1 </text>
<polygon fill="none" stroke="black" points="149,-147 149,-168 212,-168 212,-147 149,-147"/>
<text text-anchor="start" x="164.5" y="-153.8" font-family="Times,serif" font-size="14.00"> OP2 </text>
<polygon fill="none" stroke="black" points="0,-126 0,-147 56,-147 56,-126 0,-126"/>
<text text-anchor="start" x="4" y="-132.8" font-family="Times,serif" font-size="14.00"> 0x00c2 </text>
<polygon fill="none" stroke="black" points="56,-126 56,-147 108,-147 108,-126 56,-126"/>
<text text-anchor="start" x="59" y="-132.8" font-family="Times,serif" font-size="14.00"> LOAD </text>
<polygon fill="none" stroke="black" points="108,-126 108,-147 149,-147 149,-126 108,-126"/>
<text text-anchor="start" x="111" y="-132.8" font-family="Times,serif" font-size="14.00"> REG </text>
<polygon fill="none" stroke="black" points="149,-126 149,-147 212,-147 212,-126 149,-126"/>
<text text-anchor="start" x="165.5" y="-132.8" font-family="Times,serif" font-size="14.00"> INT </text>
<polygon fill="none" stroke="black" points="0,-105 0,-126 56,-126 56,-105 0,-105"/>
<text text-anchor="start" x="6" y="-111.8" font-family="Times,serif" font-size="14.00"> 0x00ff </text>
<polygon fill="none" stroke="black" points="56,-105 56,-126 108,-126 108,-105 56,-105"/>
<text text-anchor="start" x="59" y="-111.8" font-family="Times,serif" font-size="14.00"> LOAD </text>
<polygon fill="none" stroke="black" points="108,-105 108,-126 149,-126 149,-105 108,-105"/>
<text text-anchor="start" x="111" y="-111.8" font-family="Times,serif" font-size="14.00"> REG </text>
<polygon fill="none" stroke="black" points="149,-105 149,-126 212,-126 212,-105 149,-105"/>
<text text-anchor="start" x="165.5" y="-111.8" font-family="Times,serif" font-size="14.00"> INT </text>
<polygon fill="none" stroke="black" points="212,-105 212,-126 248,-126 248,-105 212,-105"/>
<text text-anchor="start" x="215" y="-111.8" font-family="Times,serif" font-size="14.00"> INT </text>
<polygon fill="none" stroke="black" points="0,-84 0,-105 56,-105 56,-84 0,-84"/>
<text text-anchor="start" x="4" y="-90.8" font-family="Times,serif" font-size="14.00"> 0x00c3 </text>
<polygon fill="none" stroke="black" points="56,-84 56,-105 108,-105 108,-84 56,-84"/>
<text text-anchor="start" x="59" y="-90.8" font-family="Times,serif" font-size="14.00"> LOAD </text>
<polygon fill="none" stroke="black" points="108,-84 108,-105 149,-105 149,-84 108,-84"/>
<text text-anchor="start" x="111" y="-90.8" font-family="Times,serif" font-size="14.00"> REG </text>
<polygon fill="none" stroke="black" points="149,-84 149,-105 212,-105 212,-84 149,-84"/>
<text text-anchor="start" x="156" y="-90.8" font-family="Times,serif" font-size="14.00"> FLOAT </text>
<polygon fill="none" stroke="black" points="0,-63 0,-84 56,-84 56,-63 0,-63"/>
<text text-anchor="start" x="4" y="-69.8" font-family="Times,serif" font-size="14.00"> 0x00c5 </text>
<polygon fill="none" stroke="black" points="56,-63 56,-84 108,-84 108,-63 56,-63"/>
<text text-anchor="start" x="59" y="-69.8" font-family="Times,serif" font-size="14.00"> LOAD </text>
<polygon fill="none" stroke="black" points="108,-63 108,-84 149,-84 149,-63 108,-63"/>
<text text-anchor="start" x="111" y="-69.8" font-family="Times,serif" font-size="14.00"> REG </text>
<polygon fill="none" stroke="black" points="149,-63 149,-84 212,-84 212,-63 149,-63"/>
<text text-anchor="start" x="157.5" y="-69.8" font-family="Times,serif" font-size="14.00"> CHAR </text>
<polygon fill="none" stroke="black" points="0,-42 0,-63 56,-63 56,-42 0,-42"/>
<text text-anchor="start" x="4" y="-48.8" font-family="Times,serif" font-size="14.00"> 0x00c4 </text>
<polygon fill="none" stroke="black" points="56,-42 56,-63 108,-63 108,-42 56,-42"/>
<text text-anchor="start" x="59" y="-48.8" font-family="Times,serif" font-size="14.00"> LOAD </text>
<polygon fill="none" stroke="black" points="108,-42 108,-63 149,-63 149,-42 108,-42"/>
<text text-anchor="start" x="111" y="-48.8" font-family="Times,serif" font-size="14.00"> REG </text>
<polygon fill="none" stroke="black" points="149,-42 149,-63 212,-63 212,-42 149,-42"/>
<text text-anchor="start" x="152" y="-48.8" font-family="Times,serif" font-size="14.00"> STRING </text>
<polygon fill="none" stroke="black" points="0,-21 0,-42 56,-42 56,-21 0,-21"/>
<text text-anchor="start" x="3.5" y="-27.8" font-family="Times,serif" font-size="14.00"> 0x0100 </text>
<polygon fill="none" stroke="black" points="56,-21 56,-42 108,-42 108,-21 56,-21"/>
<text text-anchor="start" x="59" y="-27.8" font-family="Times,serif" font-size="14.00"> LOAD </text>
<polygon fill="none" stroke="black" points="108,-21 108,-42 149,-42 149,-21 108,-21"/>
<text text-anchor="start" x="111" y="-27.8" font-family="Times,serif" font-size="14.00"> REG </text>
<polygon fill="none" stroke="black" points="149,-21 149,-42 212,-42 212,-21 149,-21"/>
<text text-anchor="start" x="156" y="-27.8" font-family="Times,serif" font-size="14.00"> FLOAT </text>
<polygon fill="none" stroke="black" points="212,-21 212,-42 248,-42 248,-21 212,-21"/>
<text text-anchor="start" x="215" y="-27.8" font-family="Times,serif" font-size="14.00"> INT </text>
<polygon fill="none" stroke="black" points="0,0 0,-21 56,-21 56,0 0,0"/>
<text text-anchor="start" x="3.5" y="-6.8" font-family="Times,serif" font-size="14.00"> 0x0101 </text>
<polygon fill="none" stroke="black" points="56,0 56,-21 108,-21 108,0 56,0"/>
<text text-anchor="start" x="59" y="-6.8" font-family="Times,serif" font-size="14.00"> LOAD </text>
<polygon fill="none" stroke="black" points="108,0 108,-21 149,-21 149,0 108,0"/>
<text text-anchor="start" x="111" y="-6.8" font-family="Times,serif" font-size="14.00"> REG </text>
<polygon fill="none" stroke="black" points="149,0 149,-21 212,-21 212,0 149,0"/>
<text text-anchor="start" x="152" y="-6.8" font-family="Times,serif" font-size="14.00"> STRING </text>
<polygon fill="none" stroke="black" points="212,0 212,-21 248,-21 248,0 212,0"/>
<text text-anchor="start" x="215" y="-6.8" font-family="Times,serif" font-size="14.00"> INT </text>
</g>
</g>
</svg>
