<?xml version="1.0" encoding="UTF-8" standalone="no"?>
<!DOCTYPE svg PUBLIC "-//W3C//DTD SVG 1.1//EN"
 "http://www.w3.org/Graphics/SVG/1.1/DTD/svg11.dtd">
<!-- Generated by graphviz version 7.0.4 (20221203.1631)
 -->
<!-- Pages: 1 -->
<svg width="228pt" height="177pt"
 viewBox="0.00 0.00 228.00 177.00" xmlns="http://www.w3.org/2000/svg" xmlns:xlink="http://www.w3.org/1999/xlink">
<g id="graph0" class="graph" transform="scale(1 1) rotate(0) translate(36 141)">
<polygon fill="white" stroke="none" points="-36,36 -36,-141 192,-141 192,36 -36,36"/>
<!-- Foo -->
<g id="node1" class="node">
<title>Foo</title>
<polygon fill="none" stroke="black" points="0,-83.5 0,-104.5 52,-104.5 52,-83.5 0,-83.5"/>
<text text-anchor="start" x="5.5" y="-90.3" font-family="Times,serif" font-size="14.00"> Name </text>
<polygon fill="none" stroke="black" points="52,-83.5 52,-104.5 93,-104.5 93,-83.5 52,-83.5"/>
<text text-anchor="start" x="56.5" y="-90.3" font-family="Times,serif" font-size="14.00"> OP1 </text>
<polygon fill="none" stroke="black" points="93,-83.5 93,-104.5 156,-104.5 156,-83.5 93,-83.5"/>
<text text-anchor="start" x="108.5" y="-90.3" font-family="Times,serif" font-size="14.00"> OP2 </text>
<polygon fill="none" stroke="black" points="0,-62.5 0,-83.5 52,-83.5 52,-62.5 0,-62.5"/>
<text text-anchor="start" x="3" y="-69.3" font-family="Times,serif" font-size="14.00"> LOAD </text>
<polygon fill="none" stroke="black" points="52,-62.5 52,-83.5 93,-83.5 93,-62.5 52,-62.5"/>
<text text-anchor="start" x="55" y="-69.3" font-family="Times,serif" font-size="14.00"> REG </text>
<polygon fill="none" stroke="black" points="93,-62.5 93,-83.5 156,-83.5 156,-62.5 93,-62.5"/>
<text text-anchor="start" x="109.5" y="-69.3" font-family="Times,serif" font-size="14.00"> INT </text>
<polygon fill="none" stroke="black" points="0,-41.5 0,-62.5 52,-62.5 52,-41.5 0,-41.5"/>
<text text-anchor="start" x="3" y="-48.3" font-family="Times,serif" font-size="14.00"> LOAD </text>
<polygon fill="none" stroke="black" points="52,-41.5 52,-62.5 93,-62.5 93,-41.5 52,-41.5"/>
<text text-anchor="start" x="55" y="-48.3" font-family="Times,serif" font-size="14.00"> REG </text>
<polygon fill="none" stroke="black" points="93,-41.5 93,-62.5 156,-62.5 156,-41.5 93,-41.5"/>
<text text-anchor="start" x="100" y="-48.3" font-family="Times,serif" font-size="14.00"> FLOAT </text>
<polygon fill="none" stroke="black" points="0,-20.5 0,-41.5 52,-41.5 52,-20.5 0,-20.5"/>
<text text-anchor="start" x="3" y="-27.3" font-family="Times,serif" font-size="14.00"> LOAD </text>
<polygon fill="none" stroke="black" points="52,-20.5 52,-41.5 93,-41.5 93,-20.5 52,-20.5"/>
<text text-anchor="start" x="55" y="-27.3" font-family="Times,serif" font-size="14.00"> REG </text>
<polygon fill="none" stroke="black" points="93,-20.5 93,-41.5 156,-41.5 156,-20.5 93,-20.5"/>
<text text-anchor="start" x="101.5" y="-27.3" font-family="Times,serif" font-size="14.00"> CHAR </text>
<polygon fill="none" stroke="black" points="0,0.5 0,-20.5 52,-20.5 52,0.5 0,0.5"/>
<text text-anchor="start" x="3" y="-6.3" font-family="Times,serif" font-size="14.00"> LOAD </text>
<polygon fill="none" stroke="black" points="52,0.5 52,-20.5 93,-20.5 93,0.5 52,0.5"/>
<text text-anchor="start" x="55" y="-6.3" font-family="Times,serif" font-size="14.00"> REG </text>
<polygon fill="none" stroke="black" points="93,0.5 93,-20.5 156,-20.5 156,0.5 93,0.5"/>
<text text-anchor="start" x="96" y="-6.3" font-family="Times,serif" font-size="14.00"> STRING </text>
</g>
</g>
</svg>
