<?xml version="1.0" encoding="UTF-8" standalone="no"?>
<!DOCTYPE svg PUBLIC "-//W3C//DTD SVG 1.1//EN"
 "http://www.w3.org/Graphics/SVG/1.1/DTD/svg11.dtd">
<!-- Generated by graphviz version 7.0.4 (20221203.1631)
 -->
<!-- Pages: 1 -->
<svg width="380pt" height="114pt"
 viewBox="0.00 0.00 380.00 114.00" xmlns="http://www.w3.org/2000/svg" xmlns:xlink="http://www.w3.org/1999/xlink">
<g id="graph0" class="graph" transform="scale(1 1) rotate(0) translate(36 78)">
<polygon fill="white" stroke="none" points="-36,36 -36,-78 344,-78 344,36 -36,36"/>
<!-- Foo -->
<g id="node1" class="node">
<title>Foo</title>
<polygon fill="none" stroke="black" points="0,-21 0,-42 56,-42 56,-21 0,-21"/>
<text text-anchor="start" x="3" y="-27.8" font-family="Times,serif" font-size="14.00"> Opcode </text>
<polygon fill="none" stroke="black" points="56,-21 56,-42 168,-42 168,-21 56,-21"/>
<text text-anchor="start" x="91.5" y="-27.8" font-family="Times,serif" font-size="14.00"> Name </text>
<polygon fill="none" stroke="black" points="168,-21 168,-42 226,-42 226,-21 168,-21"/>
<text text-anchor="start" x="181" y="-27.8" font-family="Times,serif" font-size="14.00"> OP1 </text>
<polygon fill="none" stroke="black" points="226,-21 226,-42 267,-42 267,-21 226,-21"/>
<text text-anchor="start" x="230.5" y="-27.8" font-family="Times,serif" font-size="14.00"> OP2 </text>
<polygon fill="none" stroke="black" points="267,-21 267,-42 308,-42 308,-21 267,-21"/>
<text text-anchor="start" x="271.5" y="-27.8" font-family="Times,serif" font-size="14.00"> OP3 </text>
<polygon fill="none" stroke="black" points="0,0 0,-21 56,-21 56,0 0,0"/>
<text text-anchor="start" x="3.5" y="-6.8" font-family="Times,serif" font-size="14.00"> 0x0006 </text>
<polygon fill="none" stroke="black" points="56,0 56,-21 168,-21 168,0 56,0"/>
<text text-anchor="start" x="59" y="-6.8" font-family="Times,serif" font-size="14.00"> METALOADINS </text>
<polygon fill="none" stroke="black" points="168,0 168,-21 226,-21 226,0 168,0"/>
<text text-anchor="start" x="171" y="-6.8" font-family="Times,serif" font-size="14.00"> st &#160;REG </text>
<polygon fill="none" stroke="black" points="226,0 226,-21 267,-21 267,0 226,0"/>
<text text-anchor="start" x="229" y="-6.8" font-family="Times,serif" font-size="14.00"> REG </text>
<polygon fill="none" stroke="black" points="267,0 267,-21 308,-21 308,0 267,0"/>
<text text-anchor="start" x="270" y="-6.8" font-family="Times,serif" font-size="14.00"> REG </text>
</g>
</g>
</svg>
