<?xml version="1.0" encoding="UTF-8" standalone="no"?>
<!DOCTYPE svg PUBLIC "-//W3C//DTD SVG 1.1//EN"
 "http://www.w3.org/Graphics/SVG/1.1/DTD/svg11.dtd">
<!-- Generated by graphviz version 7.0.4 (20221203.1631)
 -->
<!-- Pages: 1 -->
<svg width="376pt" height="114pt"
 viewBox="0.00 0.00 376.00 114.00" xmlns="http://www.w3.org/2000/svg" xmlns:xlink="http://www.w3.org/1999/xlink">
<g id="graph0" class="graph" transform="scale(1 1) rotate(0) translate(36 78)">
<polygon fill="white" stroke="none" points="-36,36 -36,-78 340,-78 340,36 -36,36"/>
<!-- Foo -->
<g id="node1" class="node">
<title>Foo</title>
<polygon fill="none" stroke="black" points="0,-21 0,-42 56,-42 56,-21 0,-21"/>
<text text-anchor="start" x="3" y="-27.8" font-family="Times,serif" font-size="14.00"> Opcode </text>
<polygon fill="none" stroke="black" points="56,-21 56,-42 181,-42 181,-21 56,-21"/>
<text text-anchor="start" x="98" y="-27.8" font-family="Times,serif" font-size="14.00"> Name </text>
<polygon fill="none" stroke="black" points="181,-21 181,-42 222,-42 222,-21 181,-21"/>
<text text-anchor="start" x="185.5" y="-27.8" font-family="Times,serif" font-size="14.00"> OP1 </text>
<polygon fill="none" stroke="black" points="222,-21 222,-42 263,-42 263,-21 222,-21"/>
<text text-anchor="start" x="226.5" y="-27.8" font-family="Times,serif" font-size="14.00"> OP2 </text>
<polygon fill="none" stroke="black" points="263,-21 263,-42 304,-42 304,-21 263,-21"/>
<text text-anchor="start" x="267.5" y="-27.8" font-family="Times,serif" font-size="14.00"> OP3 </text>
<polygon fill="none" stroke="black" points="0,0 0,-21 56,-21 56,0 0,0"/>
<text text-anchor="start" x="4" y="-6.8" font-family="Times,serif" font-size="14.00"> 0x000c </text>
<polygon fill="none" stroke="black" points="56,0 56,-21 181,-21 181,0 56,0"/>
<text text-anchor="start" x="59" y="-6.8" font-family="Times,serif" font-size="14.00"> METALOADDATA </text>
<polygon fill="none" stroke="black" points="181,0 181,-21 222,-21 222,0 181,0"/>
<text text-anchor="start" x="184" y="-6.8" font-family="Times,serif" font-size="14.00"> REG </text>
<polygon fill="none" stroke="black" points="222,0 222,-21 263,-21 263,0 222,0"/>
<text text-anchor="start" x="225" y="-6.8" font-family="Times,serif" font-size="14.00"> REG </text>
<polygon fill="none" stroke="black" points="263,0 263,-21 304,-21 304,0 263,0"/>
<text text-anchor="start" x="266" y="-6.8" font-family="Times,serif" font-size="14.00"> REG </text>
</g>
</g>
</svg>
