<?xml version="1.0" encoding="UTF-8" standalone="no"?>
<!DOCTYPE svg PUBLIC "-//W3C//DTD SVG 1.1//EN"
 "http://www.w3.org/Graphics/SVG/1.1/DTD/svg11.dtd">
<!-- Generated by graphviz version 7.0.4 (20221203.1631)
 -->
<!-- Pages: 1 -->
<svg width="413pt" height="114pt"
 viewBox="0.00 0.00 413.00 114.00" xmlns="http://www.w3.org/2000/svg" xmlns:xlink="http://www.w3.org/1999/xlink">
<g id="graph0" class="graph" transform="scale(1 1) rotate(0) translate(36 78)">
<polygon fill="white" stroke="none" points="-36,36 -36,-78 377,-78 377,36 -36,36"/>
<!-- Foo -->
<g id="node1" class="node">
<title>Foo</title>
<polygon fill="none" stroke="black" points="0.5,-21 0.5,-42 56.5,-42 56.5,-21 0.5,-21"/>
<text text-anchor="start" x="3.5" y="-27.8" font-family="Times,serif" font-size="14.00"> Opcode </text>
<polygon fill="none" stroke="black" points="56.5,-21 56.5,-42 218.5,-42 218.5,-21 56.5,-21"/>
<text text-anchor="start" x="117" y="-27.8" font-family="Times,serif" font-size="14.00"> Name </text>
<polygon fill="none" stroke="black" points="218.5,-21 218.5,-42 259.5,-42 259.5,-21 218.5,-21"/>
<text text-anchor="start" x="223" y="-27.8" font-family="Times,serif" font-size="14.00"> OP1 </text>
<polygon fill="none" stroke="black" points="259.5,-21 259.5,-42 300.5,-42 300.5,-21 259.5,-21"/>
<text text-anchor="start" x="264" y="-27.8" font-family="Times,serif" font-size="14.00"> OP2 </text>
<polygon fill="none" stroke="black" points="300.5,-21 300.5,-42 341.5,-42 341.5,-21 300.5,-21"/>
<text text-anchor="start" x="305" y="-27.8" font-family="Times,serif" font-size="14.00"> OP3 </text>
<polygon fill="none" stroke="black" points="0.5,0 0.5,-21 56.5,-21 56.5,0 0.5,0"/>
<text text-anchor="start" x="4" y="-6.8" font-family="Times,serif" font-size="14.00"> 0x000b </text>
<polygon fill="none" stroke="black" points="56.5,0 56.5,-21 218.5,-21 218.5,0 56.5,0"/>
<text text-anchor="start" x="59.5" y="-6.8" font-family="Times,serif" font-size="14.00"> METALOADPOPERAND </text>
<polygon fill="none" stroke="black" points="218.5,0 218.5,-21 259.5,-21 259.5,0 218.5,0"/>
<text text-anchor="start" x="221.5" y="-6.8" font-family="Times,serif" font-size="14.00"> REG </text>
<polygon fill="none" stroke="black" points="259.5,0 259.5,-21 300.5,-21 300.5,0 259.5,0"/>
<text text-anchor="start" x="262.5" y="-6.8" font-family="Times,serif" font-size="14.00"> REG </text>
<polygon fill="none" stroke="black" points="300.5,0 300.5,-21 341.5,-21 341.5,0 300.5,0"/>
<text text-anchor="start" x="303.5" y="-6.8" font-family="Times,serif" font-size="14.00"> REG </text>
</g>
</g>
</svg>
