<?xml version="1.0" encoding="UTF-8" standalone="no"?>
<!DOCTYPE svg PUBLIC "-//W3C//DTD SVG 1.1//EN"
 "http://www.w3.org/Graphics/SVG/1.1/DTD/svg11.dtd">
<!-- Generated by graphviz version 7.0.4 (20221203.1631)
 -->
<!-- Pages: 1 -->
<svg width="357pt" height="114pt"
 viewBox="0.00 0.00 357.00 114.00" xmlns="http://www.w3.org/2000/svg" xmlns:xlink="http://www.w3.org/1999/xlink">
<g id="graph0" class="graph" transform="scale(1 1) rotate(0) translate(36 78)">
<polygon fill="white" stroke="none" points="-36,36 -36,-78 321,-78 321,36 -36,36"/>
<!-- Foo -->
<g id="node1" class="node">
<title>Foo</title>
<polygon fill="none" stroke="black" points="0.5,-21 0.5,-42 162.5,-42 162.5,-21 0.5,-21"/>
<text text-anchor="start" x="61" y="-27.8" font-family="Times,serif" font-size="14.00"> Name </text>
<polygon fill="none" stroke="black" points="162.5,-21 162.5,-42 203.5,-42 203.5,-21 162.5,-21"/>
<text text-anchor="start" x="167" y="-27.8" font-family="Times,serif" font-size="14.00"> OP1 </text>
<polygon fill="none" stroke="black" points="203.5,-21 203.5,-42 244.5,-42 244.5,-21 203.5,-21"/>
<text text-anchor="start" x="208" y="-27.8" font-family="Times,serif" font-size="14.00"> OP2 </text>
<polygon fill="none" stroke="black" points="244.5,-21 244.5,-42 285.5,-42 285.5,-21 244.5,-21"/>
<text text-anchor="start" x="249" y="-27.8" font-family="Times,serif" font-size="14.00"> OP3 </text>
<polygon fill="none" stroke="black" points="0.5,0 0.5,-21 162.5,-21 162.5,0 0.5,0"/>
<text text-anchor="start" x="3.5" y="-6.8" font-family="Times,serif" font-size="14.00"> METALOADFOPERAND </text>
<polygon fill="none" stroke="black" points="162.5,0 162.5,-21 203.5,-21 203.5,0 162.5,0"/>
<text text-anchor="start" x="165.5" y="-6.8" font-family="Times,serif" font-size="14.00"> REG </text>
<polygon fill="none" stroke="black" points="203.5,0 203.5,-21 244.5,-21 244.5,0 203.5,0"/>
<text text-anchor="start" x="206.5" y="-6.8" font-family="Times,serif" font-size="14.00"> REG </text>
<polygon fill="none" stroke="black" points="244.5,0 244.5,-21 285.5,-21 285.5,0 244.5,0"/>
<text text-anchor="start" x="247.5" y="-6.8" font-family="Times,serif" font-size="14.00"> REG </text>
</g>
</g>
</svg>
