<?xml version="1.0" encoding="UTF-8" standalone="no"?>
<!DOCTYPE svg PUBLIC "-//W3C//DTD SVG 1.1//EN"
 "http://www.w3.org/Graphics/SVG/1.1/DTD/svg11.dtd">
<!-- Generated by graphviz version 7.0.4 (20221203.1631)
 -->
<!-- Pages: 1 -->
<svg width="274pt" height="114pt"
 viewBox="0.00 0.00 274.00 114.00" xmlns="http://www.w3.org/2000/svg" xmlns:xlink="http://www.w3.org/1999/xlink">
<g id="graph0" class="graph" transform="scale(1 1) rotate(0) translate(36 78)">
<polygon fill="white" stroke="none" points="-36,36 -36,-78 238,-78 238,36 -36,36"/>
<!-- Foo -->
<g id="node1" class="node">
<title>Foo</title>
<polygon fill="none" stroke="black" points="0,-21 0,-42 120,-42 120,-21 0,-21"/>
<text text-anchor="start" x="39.5" y="-27.8" font-family="Times,serif" font-size="14.00"> Name </text>
<polygon fill="none" stroke="black" points="120,-21 120,-42 161,-42 161,-21 120,-21"/>
<text text-anchor="start" x="124.5" y="-27.8" font-family="Times,serif" font-size="14.00"> OP1 </text>
<polygon fill="none" stroke="black" points="161,-21 161,-42 202,-42 202,-21 161,-21"/>
<text text-anchor="start" x="165.5" y="-27.8" font-family="Times,serif" font-size="14.00"> OP2 </text>
<polygon fill="none" stroke="black" points="0,0 0,-21 120,-21 120,0 0,0"/>
<text text-anchor="start" x="3" y="-6.8" font-family="Times,serif" font-size="14.00"> METALINKPREG </text>
<polygon fill="none" stroke="black" points="120,0 120,-21 161,-21 161,0 120,0"/>
<text text-anchor="start" x="123" y="-6.8" font-family="Times,serif" font-size="14.00"> REG </text>
<polygon fill="none" stroke="black" points="161,0 161,-21 202,-21 202,0 161,0"/>
<text text-anchor="start" x="164" y="-6.8" font-family="Times,serif" font-size="14.00"> REG </text>
</g>
</g>
</svg>
