<?xml version="1.0" encoding="UTF-8" standalone="no"?>
<!DOCTYPE svg PUBLIC "-//W3C//DTD SVG 1.1//EN"
 "http://www.w3.org/Graphics/SVG/1.1/DTD/svg11.dtd">
<!-- Generated by graphviz version 7.0.4 (20221203.1631)
 -->
<!-- Pages: 1 -->
<svg width="362pt" height="114pt"
 viewBox="0.00 0.00 362.00 114.00" xmlns="http://www.w3.org/2000/svg" xmlns:xlink="http://www.w3.org/1999/xlink">
<g id="graph0" class="graph" transform="scale(1 1) rotate(0) translate(36 78)">
<polygon fill="white" stroke="none" points="-36,36 -36,-78 326,-78 326,36 -36,36"/>
<!-- Foo -->
<g id="node1" class="node">
<title>Foo</title>
<polygon fill="none" stroke="black" points="0,-21 0,-42 56,-42 56,-21 0,-21"/>
<text text-anchor="start" x="3" y="-27.8" font-family="Times,serif" font-size="14.00"> Opcode </text>
<polygon fill="none" stroke="black" points="56,-21 56,-42 171,-42 171,-21 56,-21"/>
<text text-anchor="start" x="93" y="-27.8" font-family="Times,serif" font-size="14.00"> Name </text>
<polygon fill="none" stroke="black" points="171,-21 171,-42 249,-42 249,-21 171,-21"/>
<text text-anchor="start" x="194" y="-27.8" font-family="Times,serif" font-size="14.00"> OP1 </text>
<polygon fill="none" stroke="black" points="249,-21 249,-42 290,-42 290,-21 249,-21"/>
<text text-anchor="start" x="253.5" y="-27.8" font-family="Times,serif" font-size="14.00"> OP2 </text>
<polygon fill="none" stroke="black" points="0,0 0,-21 56,-21 56,0 0,0"/>
<text text-anchor="start" x="3.5" y="-6.8" font-family="Times,serif" font-size="14.00"> 0x0005 </text>
<polygon fill="none" stroke="black" points="56,0 56,-21 171,-21 171,0 56,0"/>
<text text-anchor="start" x="59" y="-6.8" font-family="Times,serif" font-size="14.00"> METALOADEDP </text>
<polygon fill="none" stroke="black" points="171,0 171,-21 249,-21 249,0 171,0"/>
<text text-anchor="start" x="174" y="-6.8" font-family="Times,serif" font-size="14.00"> procs &#160;REG </text>
<polygon fill="none" stroke="black" points="249,0 249,-21 290,-21 290,0 249,0"/>
<text text-anchor="start" x="252" y="-6.8" font-family="Times,serif" font-size="14.00"> REG </text>
</g>
</g>
</svg>
