<?xml version="1.0" encoding="UTF-8" standalone="no"?>
<!DOCTYPE svg PUBLIC "-//W3C//DTD SVG 1.1//EN"
 "http://www.w3.org/Graphics/SVG/1.1/DTD/svg11.dtd">
<!-- Generated by graphviz version 7.0.4 (20221203.1631)
 -->
<!-- Pages: 1 -->
<svg width="354pt" height="114pt"
 viewBox="0.00 0.00 354.00 114.00" xmlns="http://www.w3.org/2000/svg" xmlns:xlink="http://www.w3.org/1999/xlink">
<g id="graph0" class="graph" transform="scale(1 1) rotate(0) translate(36 78)">
<polygon fill="white" stroke="none" points="-36,36 -36,-78 318,-78 318,36 -36,36"/>
<!-- Foo -->
<g id="node1" class="node">
<title>Foo</title>
<polygon fill="none" stroke="black" points="0,-21 0,-42 159,-42 159,-21 0,-21"/>
<text text-anchor="start" x="59" y="-27.8" font-family="Times,serif" font-size="14.00"> Name </text>
<polygon fill="none" stroke="black" points="159,-21 159,-42 200,-42 200,-21 159,-21"/>
<text text-anchor="start" x="163.5" y="-27.8" font-family="Times,serif" font-size="14.00"> OP1 </text>
<polygon fill="none" stroke="black" points="200,-21 200,-42 241,-42 241,-21 200,-21"/>
<text text-anchor="start" x="204.5" y="-27.8" font-family="Times,serif" font-size="14.00"> OP2 </text>
<polygon fill="none" stroke="black" points="241,-21 241,-42 282,-42 282,-21 241,-21"/>
<text text-anchor="start" x="245.5" y="-27.8" font-family="Times,serif" font-size="14.00"> OP3 </text>
<polygon fill="none" stroke="black" points="0,0 0,-21 159,-21 159,0 0,0"/>
<text text-anchor="start" x="3" y="-6.8" font-family="Times,serif" font-size="14.00"> METALOADIOPERAND </text>
<polygon fill="none" stroke="black" points="159,0 159,-21 200,-21 200,0 159,0"/>
<text text-anchor="start" x="162" y="-6.8" font-family="Times,serif" font-size="14.00"> REG </text>
<polygon fill="none" stroke="black" points="200,0 200,-21 241,-21 241,0 200,0"/>
<text text-anchor="start" x="203" y="-6.8" font-family="Times,serif" font-size="14.00"> REG </text>
<polygon fill="none" stroke="black" points="241,0 241,-21 282,-21 282,0 241,0"/>
<text text-anchor="start" x="244" y="-6.8" font-family="Times,serif" font-size="14.00"> REG </text>
</g>
</g>
</svg>
