<?xml version="1.0" encoding="UTF-8" standalone="no"?>
<!DOCTYPE svg PUBLIC "-//W3C//DTD SVG 1.1//EN"
 "http://www.w3.org/Graphics/SVG/1.1/DTD/svg11.dtd">
<!-- Generated by graphviz version 7.0.4 (20221203.1631)
 -->
<!-- Pages: 1 -->
<svg width="209pt" height="114pt"
 viewBox="0.00 0.00 209.00 114.00" xmlns="http://www.w3.org/2000/svg" xmlns:xlink="http://www.w3.org/1999/xlink">
<g id="graph0" class="graph" transform="scale(1 1) rotate(0) translate(36 78)">
<polygon fill="white" stroke="none" points="-36,36 -36,-78 173,-78 173,36 -36,36"/>
<!-- Foo -->
<g id="node1" class="node">
<title>Foo</title>
<polygon fill="none" stroke="black" points="0.5,-21 0.5,-42 55.5,-42 55.5,-21 0.5,-21"/>
<text text-anchor="start" x="7.5" y="-27.8" font-family="Times,serif" font-size="14.00"> Name </text>
<polygon fill="none" stroke="black" points="55.5,-21 55.5,-42 96.5,-42 96.5,-21 55.5,-21"/>
<text text-anchor="start" x="60" y="-27.8" font-family="Times,serif" font-size="14.00"> OP1 </text>
<polygon fill="none" stroke="black" points="96.5,-21 96.5,-42 137.5,-42 137.5,-21 96.5,-21"/>
<text text-anchor="start" x="101" y="-27.8" font-family="Times,serif" font-size="14.00"> OP2 </text>
<polygon fill="none" stroke="black" points="0.5,0 0.5,-21 55.5,-21 55.5,0 0.5,0"/>
<text text-anchor="start" x="3.5" y="-6.8" font-family="Times,serif" font-size="14.00"> MOVE </text>
<polygon fill="none" stroke="black" points="55.5,0 55.5,-21 96.5,-21 96.5,0 55.5,0"/>
<text text-anchor="start" x="58.5" y="-6.8" font-family="Times,serif" font-size="14.00"> REG </text>
<polygon fill="none" stroke="black" points="96.5,0 96.5,-21 137.5,-21 137.5,0 96.5,0"/>
<text text-anchor="start" x="99.5" y="-6.8" font-family="Times,serif" font-size="14.00"> REG </text>
</g>
</g>
</svg>
