<?xml version="1.0" encoding="UTF-8" standalone="no"?>
<!DOCTYPE svg PUBLIC "-//W3C//DTD SVG 1.1//EN"
 "http://www.w3.org/Graphics/SVG/1.1/DTD/svg11.dtd">
<!-- Generated by graphviz version 12.1.2 (20240928.0832)
 -->
<!-- Pages: 1 -->
<svg width="266pt" height="138pt"
 viewBox="0.00 0.00 266.00 138.00" xmlns="http://www.w3.org/2000/svg" xmlns:xlink="http://www.w3.org/1999/xlink">
<g id="graph0" class="graph" transform="scale(1 1) rotate(0) translate(36 102)">
<polygon fill="white" stroke="none" points="-36,36 -36,-102 230,-102 230,36 -36,36"/>
<!-- Foo -->
<g id="node1" class="node">
<title>Foo</title>
<polygon fill="none" stroke="black" points="0,-44 0,-66 60,-66 60,-44 0,-44"/>
<text text-anchor="start" x="9.75" y="-49.7" font-family="Times,serif" font-size="14.00"> Name </text>
<polygon fill="none" stroke="black" points="60,-44 60,-66 100,-66 100,-44 60,-44"/>
<text text-anchor="start" x="64.25" y="-49.7" font-family="Times,serif" font-size="14.00"> OP1 </text>
<polygon fill="none" stroke="black" points="100,-44 100,-66 140,-66 140,-44 100,-44"/>
<text text-anchor="start" x="104.25" y="-49.7" font-family="Times,serif" font-size="14.00"> OP2 </text>
<polygon fill="none" stroke="black" points="140,-44 140,-66 194,-66 194,-44 140,-44"/>
<text text-anchor="start" x="151.25" y="-49.7" font-family="Times,serif" font-size="14.00"> OP3 </text>
<polygon fill="none" stroke="black" points="0,-22 0,-44 60,-44 60,-22 0,-22"/>
<text text-anchor="start" x="3" y="-27.7" font-family="Times,serif" font-size="14.00"> MULTF </text>
<polygon fill="none" stroke="black" points="60,-22 60,-44 100,-44 100,-22 60,-22"/>
<text text-anchor="start" x="62.75" y="-27.7" font-family="Times,serif" font-size="14.00"> REG </text>
<polygon fill="none" stroke="black" points="100,-22 100,-44 140,-44 140,-22 100,-22"/>
<text text-anchor="start" x="102.75" y="-27.7" font-family="Times,serif" font-size="14.00"> REG </text>
<polygon fill="none" stroke="black" points="140,-22 140,-44 194,-44 194,-22 140,-22"/>
<text text-anchor="start" x="149.75" y="-27.7" font-family="Times,serif" font-size="14.00"> REG </text>
<polygon fill="none" stroke="black" points="0,0 0,-22 60,-22 60,0 0,0"/>
<text text-anchor="start" x="3" y="-5.7" font-family="Times,serif" font-size="14.00"> MULTF </text>
<polygon fill="none" stroke="black" points="60,0 60,-22 100,-22 100,0 60,0"/>
<text text-anchor="start" x="62.75" y="-5.7" font-family="Times,serif" font-size="14.00"> REG </text>
<polygon fill="none" stroke="black" points="100,0 100,-22 140,-22 140,0 100,0"/>
<text text-anchor="start" x="102.75" y="-5.7" font-family="Times,serif" font-size="14.00"> REG </text>
<polygon fill="none" stroke="black" points="140,0 140,-22 194,-22 194,0 140,0"/>
<text text-anchor="start" x="142.62" y="-5.7" font-family="Times,serif" font-size="14.00"> FLOAT </text>
</g>
</g>
</svg>
