<?xml version="1.0" encoding="UTF-8" standalone="no"?>
<!DOCTYPE svg PUBLIC "-//W3C//DTD SVG 1.1//EN"
 "http://www.w3.org/Graphics/SVG/1.1/DTD/svg11.dtd">
<!-- Generated by graphviz version 7.0.4 (20221203.1631)
 -->
<!-- Pages: 1 -->
<svg width="326pt" height="135pt"
 viewBox="0.00 0.00 326.00 135.00" xmlns="http://www.w3.org/2000/svg" xmlns:xlink="http://www.w3.org/1999/xlink">
<g id="graph0" class="graph" transform="scale(1 1) rotate(0) translate(36 99)">
<polygon fill="white" stroke="none" points="-36,36 -36,-99 290,-99 290,36 -36,36"/>
<!-- Foo -->
<g id="node1" class="node">
<title>Foo</title>
<polygon fill="none" stroke="black" points="0,-41.5 0,-62.5 56,-62.5 56,-41.5 0,-41.5"/>
<text text-anchor="start" x="3" y="-48.3" font-family="Times,serif" font-size="14.00"> Opcode </text>
<polygon fill="none" stroke="black" points="56,-41.5 56,-62.5 117,-62.5 117,-41.5 56,-41.5"/>
<text text-anchor="start" x="66" y="-48.3" font-family="Times,serif" font-size="14.00"> Name </text>
<polygon fill="none" stroke="black" points="117,-41.5 117,-62.5 158,-62.5 158,-41.5 117,-41.5"/>
<text text-anchor="start" x="121.5" y="-48.3" font-family="Times,serif" font-size="14.00"> OP1 </text>
<polygon fill="none" stroke="black" points="158,-41.5 158,-62.5 199,-62.5 199,-41.5 158,-41.5"/>
<text text-anchor="start" x="162.5" y="-48.3" font-family="Times,serif" font-size="14.00"> OP2 </text>
<polygon fill="none" stroke="black" points="199,-41.5 199,-62.5 254,-62.5 254,-41.5 199,-41.5"/>
<text text-anchor="start" x="210.5" y="-48.3" font-family="Times,serif" font-size="14.00"> OP3 </text>
<polygon fill="none" stroke="black" points="0,-20.5 0,-41.5 56,-41.5 56,-20.5 0,-20.5"/>
<text text-anchor="start" x="3.5" y="-27.3" font-family="Times,serif" font-size="14.00"> 0x0030 </text>
<polygon fill="none" stroke="black" points="56,-20.5 56,-41.5 117,-41.5 117,-20.5 56,-20.5"/>
<text text-anchor="start" x="59" y="-27.3" font-family="Times,serif" font-size="14.00"> MULTF </text>
<polygon fill="none" stroke="black" points="117,-20.5 117,-41.5 158,-41.5 158,-20.5 117,-20.5"/>
<text text-anchor="start" x="120" y="-27.3" font-family="Times,serif" font-size="14.00"> REG </text>
<polygon fill="none" stroke="black" points="158,-20.5 158,-41.5 199,-41.5 199,-20.5 158,-20.5"/>
<text text-anchor="start" x="161" y="-27.3" font-family="Times,serif" font-size="14.00"> REG </text>
<polygon fill="none" stroke="black" points="199,-20.5 199,-41.5 254,-41.5 254,-20.5 199,-20.5"/>
<text text-anchor="start" x="209" y="-27.3" font-family="Times,serif" font-size="14.00"> REG </text>
<polygon fill="none" stroke="black" points="0,0.5 0,-20.5 56,-20.5 56,0.5 0,0.5"/>
<text text-anchor="start" x="3.5" y="-6.3" font-family="Times,serif" font-size="14.00"> 0x0031 </text>
<polygon fill="none" stroke="black" points="56,0.5 56,-20.5 117,-20.5 117,0.5 56,0.5"/>
<text text-anchor="start" x="59" y="-6.3" font-family="Times,serif" font-size="14.00"> MULTF </text>
<polygon fill="none" stroke="black" points="117,0.5 117,-20.5 158,-20.5 158,0.5 117,0.5"/>
<text text-anchor="start" x="120" y="-6.3" font-family="Times,serif" font-size="14.00"> REG </text>
<polygon fill="none" stroke="black" points="158,0.5 158,-20.5 199,-20.5 199,0.5 158,0.5"/>
<text text-anchor="start" x="161" y="-6.3" font-family="Times,serif" font-size="14.00"> REG </text>
<polygon fill="none" stroke="black" points="199,0.5 199,-20.5 254,-20.5 254,0.5 199,0.5"/>
<text text-anchor="start" x="202" y="-6.3" font-family="Times,serif" font-size="14.00"> FLOAT </text>
</g>
</g>
</svg>
