<?xml version="1.0" encoding="UTF-8" standalone="no"?>
<!DOCTYPE svg PUBLIC "-//W3C//DTD SVG 1.1//EN"
 "http://www.w3.org/Graphics/SVG/1.1/DTD/svg11.dtd">
<!-- Generated by graphviz version 7.0.4 (20221203.1631)
 -->
<!-- Pages: 1 -->
<svg width="253pt" height="135pt"
 viewBox="0.00 0.00 253.00 135.00" xmlns="http://www.w3.org/2000/svg" xmlns:xlink="http://www.w3.org/1999/xlink">
<g id="graph0" class="graph" transform="scale(1 1) rotate(0) translate(36 99)">
<polygon fill="white" stroke="none" points="-36,36 -36,-99 217,-99 217,36 -36,36"/>
<!-- Foo -->
<g id="node1" class="node">
<title>Foo</title>
<polygon fill="none" stroke="black" points="0.5,-41.5 0.5,-62.5 58.5,-62.5 58.5,-41.5 0.5,-41.5"/>
<text text-anchor="start" x="9" y="-48.3" font-family="Times,serif" font-size="14.00"> Name </text>
<polygon fill="none" stroke="black" points="58.5,-41.5 58.5,-62.5 99.5,-62.5 99.5,-41.5 58.5,-41.5"/>
<text text-anchor="start" x="63" y="-48.3" font-family="Times,serif" font-size="14.00"> OP1 </text>
<polygon fill="none" stroke="black" points="99.5,-41.5 99.5,-62.5 140.5,-62.5 140.5,-41.5 99.5,-41.5"/>
<text text-anchor="start" x="104" y="-48.3" font-family="Times,serif" font-size="14.00"> OP2 </text>
<polygon fill="none" stroke="black" points="140.5,-41.5 140.5,-62.5 181.5,-62.5 181.5,-41.5 140.5,-41.5"/>
<text text-anchor="start" x="145" y="-48.3" font-family="Times,serif" font-size="14.00"> OP3 </text>
<polygon fill="none" stroke="black" points="0.5,-20.5 0.5,-41.5 58.5,-41.5 58.5,-20.5 0.5,-20.5"/>
<text text-anchor="start" x="3.5" y="-27.3" font-family="Times,serif" font-size="14.00"> MULTI </text>
<polygon fill="none" stroke="black" points="58.5,-20.5 58.5,-41.5 99.5,-41.5 99.5,-20.5 58.5,-20.5"/>
<text text-anchor="start" x="61.5" y="-27.3" font-family="Times,serif" font-size="14.00"> REG </text>
<polygon fill="none" stroke="black" points="99.5,-20.5 99.5,-41.5 140.5,-41.5 140.5,-20.5 99.5,-20.5"/>
<text text-anchor="start" x="102.5" y="-27.3" font-family="Times,serif" font-size="14.00"> REG </text>
<polygon fill="none" stroke="black" points="140.5,-20.5 140.5,-41.5 181.5,-41.5 181.5,-20.5 140.5,-20.5"/>
<text text-anchor="start" x="143.5" y="-27.3" font-family="Times,serif" font-size="14.00"> REG </text>
<polygon fill="none" stroke="black" points="0.5,0.5 0.5,-20.5 58.5,-20.5 58.5,0.5 0.5,0.5"/>
<text text-anchor="start" x="3.5" y="-6.3" font-family="Times,serif" font-size="14.00"> MULTI </text>
<polygon fill="none" stroke="black" points="58.5,0.5 58.5,-20.5 99.5,-20.5 99.5,0.5 58.5,0.5"/>
<text text-anchor="start" x="61.5" y="-6.3" font-family="Times,serif" font-size="14.00"> REG </text>
<polygon fill="none" stroke="black" points="99.5,0.5 99.5,-20.5 140.5,-20.5 140.5,0.5 99.5,0.5"/>
<text text-anchor="start" x="102.5" y="-6.3" font-family="Times,serif" font-size="14.00"> REG </text>
<polygon fill="none" stroke="black" points="140.5,0.5 140.5,-20.5 181.5,-20.5 181.5,0.5 140.5,0.5"/>
<text text-anchor="start" x="146" y="-6.3" font-family="Times,serif" font-size="14.00"> INT </text>
</g>
</g>
</svg>
