<?xml version="1.0" encoding="UTF-8" standalone="no"?>
<!DOCTYPE svg PUBLIC "-//W3C//DTD SVG 1.1//EN"
 "http://www.w3.org/Graphics/SVG/1.1/DTD/svg11.dtd">
<!-- Generated by graphviz version 7.0.4 (20221203.1631)
 -->
<!-- Pages: 1 -->
<svg width="270pt" height="135pt"
 viewBox="0.00 0.00 270.00 135.00" xmlns="http://www.w3.org/2000/svg" xmlns:xlink="http://www.w3.org/1999/xlink">
<g id="graph0" class="graph" transform="scale(1 1) rotate(0) translate(36 99)">
<polygon fill="white" stroke="none" points="-36,36 -36,-99 234,-99 234,36 -36,36"/>
<!-- Foo -->
<g id="node1" class="node">
<title>Foo</title>
<polygon fill="none" stroke="black" points="0,-41.5 0,-62.5 61,-62.5 61,-41.5 0,-41.5"/>
<text text-anchor="start" x="10" y="-48.3" font-family="Times,serif" font-size="14.00"> Name </text>
<polygon fill="none" stroke="black" points="61,-41.5 61,-62.5 102,-62.5 102,-41.5 61,-41.5"/>
<text text-anchor="start" x="65.5" y="-48.3" font-family="Times,serif" font-size="14.00"> OP1 </text>
<polygon fill="none" stroke="black" points="102,-41.5 102,-62.5 143,-62.5 143,-41.5 102,-41.5"/>
<text text-anchor="start" x="106.5" y="-48.3" font-family="Times,serif" font-size="14.00"> OP2 </text>
<polygon fill="none" stroke="black" points="143,-41.5 143,-62.5 198,-62.5 198,-41.5 143,-41.5"/>
<text text-anchor="start" x="154.5" y="-48.3" font-family="Times,serif" font-size="14.00"> OP3 </text>
<polygon fill="none" stroke="black" points="0,-20.5 0,-41.5 61,-41.5 61,-20.5 0,-20.5"/>
<text text-anchor="start" x="3" y="-27.3" font-family="Times,serif" font-size="14.00"> MULTF </text>
<polygon fill="none" stroke="black" points="61,-20.5 61,-41.5 102,-41.5 102,-20.5 61,-20.5"/>
<text text-anchor="start" x="64" y="-27.3" font-family="Times,serif" font-size="14.00"> REG </text>
<polygon fill="none" stroke="black" points="102,-20.5 102,-41.5 143,-41.5 143,-20.5 102,-20.5"/>
<text text-anchor="start" x="105" y="-27.3" font-family="Times,serif" font-size="14.00"> REG </text>
<polygon fill="none" stroke="black" points="143,-20.5 143,-41.5 198,-41.5 198,-20.5 143,-20.5"/>
<text text-anchor="start" x="153" y="-27.3" font-family="Times,serif" font-size="14.00"> REG </text>
<polygon fill="none" stroke="black" points="0,0.5 0,-20.5 61,-20.5 61,0.5 0,0.5"/>
<text text-anchor="start" x="3" y="-6.3" font-family="Times,serif" font-size="14.00"> MULTF </text>
<polygon fill="none" stroke="black" points="61,0.5 61,-20.5 102,-20.5 102,0.5 61,0.5"/>
<text text-anchor="start" x="64" y="-6.3" font-family="Times,serif" font-size="14.00"> REG </text>
<polygon fill="none" stroke="black" points="102,0.5 102,-20.5 143,-20.5 143,0.5 102,0.5"/>
<text text-anchor="start" x="105" y="-6.3" font-family="Times,serif" font-size="14.00"> REG </text>
<polygon fill="none" stroke="black" points="143,0.5 143,-20.5 198,-20.5 198,0.5 143,0.5"/>
<text text-anchor="start" x="146" y="-6.3" font-family="Times,serif" font-size="14.00"> FLOAT </text>
</g>
</g>
</svg>
