<?xml version="1.0" encoding="UTF-8" standalone="no"?>
<!DOCTYPE svg PUBLIC "-//W3C//DTD SVG 1.1//EN"
 "http://www.w3.org/Graphics/SVG/1.1/DTD/svg11.dtd">
<!-- Generated by graphviz version 12.2.1 (20241206.2353)
 -->
<!-- Pages: 1 -->
<svg width="297pt" height="185pt"
 viewBox="0.00 0.00 297.00 184.50" xmlns="http://www.w3.org/2000/svg" xmlns:xlink="http://www.w3.org/1999/xlink">
<g id="graph0" class="graph" transform="scale(1 1) rotate(0) translate(36 148.5)">
<polygon fill="white" stroke="none" points="-36,36 -36,-148.5 261,-148.5 261,36 -36,36"/>
<!-- Foo -->
<g id="node1" class="node">
<title>Foo</title>
<polygon fill="none" stroke="black" points="0,-90 0,-112.5 60,-112.5 60,-90 0,-90"/>
<text text-anchor="start" x="9.75" y="-96.2" font-family="Times,serif" font-size="14.00"> Name </text>
<polygon fill="none" stroke="black" points="60,-90 60,-112.5 100.5,-112.5 100.5,-90 60,-90"/>
<text text-anchor="start" x="64.5" y="-96.2" font-family="Times,serif" font-size="14.00"> OP1 </text>
<polygon fill="none" stroke="black" points="100.5,-90 100.5,-112.5 162.75,-112.5 162.75,-90 100.5,-90"/>
<text text-anchor="start" x="115.88" y="-96.2" font-family="Times,serif" font-size="14.00"> OP2 </text>
<polygon fill="none" stroke="black" points="162.75,-90 162.75,-112.5 225,-112.5 225,-90 162.75,-90"/>
<text text-anchor="start" x="178.12" y="-96.2" font-family="Times,serif" font-size="14.00"> OP3 </text>
<polygon fill="none" stroke="black" points="0,-67.5 0,-90 60,-90 60,-67.5 0,-67.5"/>
<text text-anchor="start" x="3" y="-73.7" font-family="Times,serif" font-size="14.00"> NSMAP </text>
<polygon fill="none" stroke="black" points="60,-67.5 60,-90 100.5,-90 100.5,-67.5 60,-67.5"/>
<text text-anchor="start" x="63" y="-73.7" font-family="Times,serif" font-size="14.00"> REG </text>
<polygon fill="none" stroke="black" points="100.5,-67.5 100.5,-90 162.75,-90 162.75,-67.5 100.5,-67.5"/>
<text text-anchor="start" x="114.38" y="-73.7" font-family="Times,serif" font-size="14.00"> REG </text>
<polygon fill="none" stroke="black" points="162.75,-67.5 162.75,-90 225,-90 225,-67.5 162.75,-67.5"/>
<text text-anchor="start" x="176.62" y="-73.7" font-family="Times,serif" font-size="14.00"> REG </text>
<polygon fill="none" stroke="black" points="0,-45 0,-67.5 60,-67.5 60,-45 0,-45"/>
<text text-anchor="start" x="3" y="-51.2" font-family="Times,serif" font-size="14.00"> NSMAP </text>
<polygon fill="none" stroke="black" points="60,-45 60,-67.5 100.5,-67.5 100.5,-45 60,-45"/>
<text text-anchor="start" x="63" y="-51.2" font-family="Times,serif" font-size="14.00"> REG </text>
<polygon fill="none" stroke="black" points="100.5,-45 100.5,-67.5 162.75,-67.5 162.75,-45 100.5,-45"/>
<text text-anchor="start" x="103.5" y="-51.2" font-family="Times,serif" font-size="14.00"> STRING </text>
<polygon fill="none" stroke="black" points="162.75,-45 162.75,-67.5 225,-67.5 225,-45 162.75,-45"/>
<text text-anchor="start" x="176.62" y="-51.2" font-family="Times,serif" font-size="14.00"> REG </text>
<polygon fill="none" stroke="black" points="0,-22.5 0,-45 60,-45 60,-22.5 0,-22.5"/>
<text text-anchor="start" x="3" y="-28.7" font-family="Times,serif" font-size="14.00"> NSMAP </text>
<polygon fill="none" stroke="black" points="60,-22.5 60,-45 100.5,-45 100.5,-22.5 60,-22.5"/>
<text text-anchor="start" x="63" y="-28.7" font-family="Times,serif" font-size="14.00"> REG </text>
<polygon fill="none" stroke="black" points="100.5,-22.5 100.5,-45 162.75,-45 162.75,-22.5 100.5,-22.5"/>
<text text-anchor="start" x="114.38" y="-28.7" font-family="Times,serif" font-size="14.00"> REG </text>
<polygon fill="none" stroke="black" points="162.75,-22.5 162.75,-45 225,-45 225,-22.5 162.75,-22.5"/>
<text text-anchor="start" x="165.75" y="-28.7" font-family="Times,serif" font-size="14.00"> STRING </text>
<polygon fill="none" stroke="black" points="0,0 0,-22.5 60,-22.5 60,0 0,0"/>
<text text-anchor="start" x="3" y="-6.2" font-family="Times,serif" font-size="14.00"> NSMAP </text>
<polygon fill="none" stroke="black" points="60,0 60,-22.5 100.5,-22.5 100.5,0 60,0"/>
<text text-anchor="start" x="63" y="-6.2" font-family="Times,serif" font-size="14.00"> REG </text>
<polygon fill="none" stroke="black" points="100.5,0 100.5,-22.5 162.75,-22.5 162.75,0 100.5,0"/>
<text text-anchor="start" x="103.5" y="-6.2" font-family="Times,serif" font-size="14.00"> STRING </text>
<polygon fill="none" stroke="black" points="162.75,0 162.75,-22.5 225,-22.5 225,0 162.75,0"/>
<text text-anchor="start" x="165.75" y="-6.2" font-family="Times,serif" font-size="14.00"> STRING </text>
</g>
</g>
</svg>
