<?xml version="1.0" encoding="UTF-8" standalone="no"?>
<!DOCTYPE svg PUBLIC "-//W3C//DTD SVG 1.1//EN"
 "http://www.w3.org/Graphics/SVG/1.1/DTD/svg11.dtd">
<!-- Generated by graphviz version 7.0.4 (20221203.1631)
 -->
<!-- Pages: 1 -->
<svg width="300pt" height="177pt"
 viewBox="0.00 0.00 300.00 177.00" xmlns="http://www.w3.org/2000/svg" xmlns:xlink="http://www.w3.org/1999/xlink">
<g id="graph0" class="graph" transform="scale(1 1) rotate(0) translate(36 141)">
<polygon fill="white" stroke="none" points="-36,36 -36,-141 264,-141 264,36 -36,36"/>
<!-- Foo -->
<g id="node1" class="node">
<title>Foo</title>
<polygon fill="none" stroke="black" points="0,-83.5 0,-104.5 61,-104.5 61,-83.5 0,-83.5"/>
<text text-anchor="start" x="10" y="-90.3" font-family="Times,serif" font-size="14.00"> Name </text>
<polygon fill="none" stroke="black" points="61,-83.5 61,-104.5 102,-104.5 102,-83.5 61,-83.5"/>
<text text-anchor="start" x="65.5" y="-90.3" font-family="Times,serif" font-size="14.00"> OP1 </text>
<polygon fill="none" stroke="black" points="102,-83.5 102,-104.5 165,-104.5 165,-83.5 102,-83.5"/>
<text text-anchor="start" x="117.5" y="-90.3" font-family="Times,serif" font-size="14.00"> OP2 </text>
<polygon fill="none" stroke="black" points="165,-83.5 165,-104.5 228,-104.5 228,-83.5 165,-83.5"/>
<text text-anchor="start" x="180.5" y="-90.3" font-family="Times,serif" font-size="14.00"> OP3 </text>
<polygon fill="none" stroke="black" points="0,-62.5 0,-83.5 61,-83.5 61,-62.5 0,-62.5"/>
<text text-anchor="start" x="3" y="-69.3" font-family="Times,serif" font-size="14.00"> NSMAP </text>
<polygon fill="none" stroke="black" points="61,-62.5 61,-83.5 102,-83.5 102,-62.5 61,-62.5"/>
<text text-anchor="start" x="64" y="-69.3" font-family="Times,serif" font-size="14.00"> REG </text>
<polygon fill="none" stroke="black" points="102,-62.5 102,-83.5 165,-83.5 165,-62.5 102,-62.5"/>
<text text-anchor="start" x="116" y="-69.3" font-family="Times,serif" font-size="14.00"> REG </text>
<polygon fill="none" stroke="black" points="165,-62.5 165,-83.5 228,-83.5 228,-62.5 165,-62.5"/>
<text text-anchor="start" x="179" y="-69.3" font-family="Times,serif" font-size="14.00"> REG </text>
<polygon fill="none" stroke="black" points="0,-41.5 0,-62.5 61,-62.5 61,-41.5 0,-41.5"/>
<text text-anchor="start" x="3" y="-48.3" font-family="Times,serif" font-size="14.00"> NSMAP </text>
<polygon fill="none" stroke="black" points="61,-41.5 61,-62.5 102,-62.5 102,-41.5 61,-41.5"/>
<text text-anchor="start" x="64" y="-48.3" font-family="Times,serif" font-size="14.00"> REG </text>
<polygon fill="none" stroke="black" points="102,-41.5 102,-62.5 165,-62.5 165,-41.5 102,-41.5"/>
<text text-anchor="start" x="105" y="-48.3" font-family="Times,serif" font-size="14.00"> STRING </text>
<polygon fill="none" stroke="black" points="165,-41.5 165,-62.5 228,-62.5 228,-41.5 165,-41.5"/>
<text text-anchor="start" x="179" y="-48.3" font-family="Times,serif" font-size="14.00"> REG </text>
<polygon fill="none" stroke="black" points="0,-20.5 0,-41.5 61,-41.5 61,-20.5 0,-20.5"/>
<text text-anchor="start" x="3" y="-27.3" font-family="Times,serif" font-size="14.00"> NSMAP </text>
<polygon fill="none" stroke="black" points="61,-20.5 61,-41.5 102,-41.5 102,-20.5 61,-20.5"/>
<text text-anchor="start" x="64" y="-27.3" font-family="Times,serif" font-size="14.00"> REG </text>
<polygon fill="none" stroke="black" points="102,-20.5 102,-41.5 165,-41.5 165,-20.5 102,-20.5"/>
<text text-anchor="start" x="116" y="-27.3" font-family="Times,serif" font-size="14.00"> REG </text>
<polygon fill="none" stroke="black" points="165,-20.5 165,-41.5 228,-41.5 228,-20.5 165,-20.5"/>
<text text-anchor="start" x="168" y="-27.3" font-family="Times,serif" font-size="14.00"> STRING </text>
<polygon fill="none" stroke="black" points="0,0.5 0,-20.5 61,-20.5 61,0.5 0,0.5"/>
<text text-anchor="start" x="3" y="-6.3" font-family="Times,serif" font-size="14.00"> NSMAP </text>
<polygon fill="none" stroke="black" points="61,0.5 61,-20.5 102,-20.5 102,0.5 61,0.5"/>
<text text-anchor="start" x="64" y="-6.3" font-family="Times,serif" font-size="14.00"> REG </text>
<polygon fill="none" stroke="black" points="102,0.5 102,-20.5 165,-20.5 165,0.5 102,0.5"/>
<text text-anchor="start" x="105" y="-6.3" font-family="Times,serif" font-size="14.00"> STRING </text>
<polygon fill="none" stroke="black" points="165,0.5 165,-20.5 228,-20.5 228,0.5 165,0.5"/>
<text text-anchor="start" x="168" y="-6.3" font-family="Times,serif" font-size="14.00"> STRING </text>
</g>
</g>
</svg>
