<?xml version="1.0" encoding="UTF-8" standalone="no"?>
<!DOCTYPE svg PUBLIC "-//W3C//DTD SVG 1.1//EN"
 "http://www.w3.org/Graphics/SVG/1.1/DTD/svg11.dtd">
<!-- Generated by graphviz version 12.1.2 (20240928.0832)
 -->
<!-- Pages: 1 -->
<svg width="296pt" height="182pt"
 viewBox="0.00 0.00 296.00 182.00" xmlns="http://www.w3.org/2000/svg" xmlns:xlink="http://www.w3.org/1999/xlink">
<g id="graph0" class="graph" transform="scale(1 1) rotate(0) translate(36 146)">
<polygon fill="white" stroke="none" points="-36,36 -36,-146 260,-146 260,36 -36,36"/>
<!-- Foo -->
<g id="node1" class="node">
<title>Foo</title>
<polygon fill="none" stroke="black" points="0,-88 0,-110 60,-110 60,-88 0,-88"/>
<text text-anchor="start" x="9.75" y="-93.7" font-family="Times,serif" font-size="14.00"> Name </text>
<polygon fill="none" stroke="black" points="60,-88 60,-110 100,-110 100,-88 60,-88"/>
<text text-anchor="start" x="64.25" y="-93.7" font-family="Times,serif" font-size="14.00"> OP1 </text>
<polygon fill="none" stroke="black" points="100,-88 100,-110 162,-110 162,-88 100,-88"/>
<text text-anchor="start" x="115.25" y="-93.7" font-family="Times,serif" font-size="14.00"> OP2 </text>
<polygon fill="none" stroke="black" points="162,-88 162,-110 224,-110 224,-88 162,-88"/>
<text text-anchor="start" x="177.25" y="-93.7" font-family="Times,serif" font-size="14.00"> OP3 </text>
<polygon fill="none" stroke="black" points="0,-66 0,-88 60,-88 60,-66 0,-66"/>
<text text-anchor="start" x="3" y="-71.7" font-family="Times,serif" font-size="14.00"> NSMAP </text>
<polygon fill="none" stroke="black" points="60,-66 60,-88 100,-88 100,-66 60,-66"/>
<text text-anchor="start" x="62.75" y="-71.7" font-family="Times,serif" font-size="14.00"> REG </text>
<polygon fill="none" stroke="black" points="100,-66 100,-88 162,-88 162,-66 100,-66"/>
<text text-anchor="start" x="113.75" y="-71.7" font-family="Times,serif" font-size="14.00"> REG </text>
<polygon fill="none" stroke="black" points="162,-66 162,-88 224,-88 224,-66 162,-66"/>
<text text-anchor="start" x="175.75" y="-71.7" font-family="Times,serif" font-size="14.00"> REG </text>
<polygon fill="none" stroke="black" points="0,-44 0,-66 60,-66 60,-44 0,-44"/>
<text text-anchor="start" x="3" y="-49.7" font-family="Times,serif" font-size="14.00"> NSMAP </text>
<polygon fill="none" stroke="black" points="60,-44 60,-66 100,-66 100,-44 60,-44"/>
<text text-anchor="start" x="62.75" y="-49.7" font-family="Times,serif" font-size="14.00"> REG </text>
<polygon fill="none" stroke="black" points="100,-44 100,-66 162,-66 162,-44 100,-44"/>
<text text-anchor="start" x="102.88" y="-49.7" font-family="Times,serif" font-size="14.00"> STRING </text>
<polygon fill="none" stroke="black" points="162,-44 162,-66 224,-66 224,-44 162,-44"/>
<text text-anchor="start" x="175.75" y="-49.7" font-family="Times,serif" font-size="14.00"> REG </text>
<polygon fill="none" stroke="black" points="0,-22 0,-44 60,-44 60,-22 0,-22"/>
<text text-anchor="start" x="3" y="-27.7" font-family="Times,serif" font-size="14.00"> NSMAP </text>
<polygon fill="none" stroke="black" points="60,-22 60,-44 100,-44 100,-22 60,-22"/>
<text text-anchor="start" x="62.75" y="-27.7" font-family="Times,serif" font-size="14.00"> REG </text>
<polygon fill="none" stroke="black" points="100,-22 100,-44 162,-44 162,-22 100,-22"/>
<text text-anchor="start" x="113.75" y="-27.7" font-family="Times,serif" font-size="14.00"> REG </text>
<polygon fill="none" stroke="black" points="162,-22 162,-44 224,-44 224,-22 162,-22"/>
<text text-anchor="start" x="164.88" y="-27.7" font-family="Times,serif" font-size="14.00"> STRING </text>
<polygon fill="none" stroke="black" points="0,0 0,-22 60,-22 60,0 0,0"/>
<text text-anchor="start" x="3" y="-5.7" font-family="Times,serif" font-size="14.00"> NSMAP </text>
<polygon fill="none" stroke="black" points="60,0 60,-22 100,-22 100,0 60,0"/>
<text text-anchor="start" x="62.75" y="-5.7" font-family="Times,serif" font-size="14.00"> REG </text>
<polygon fill="none" stroke="black" points="100,0 100,-22 162,-22 162,0 100,0"/>
<text text-anchor="start" x="102.88" y="-5.7" font-family="Times,serif" font-size="14.00"> STRING </text>
<polygon fill="none" stroke="black" points="162,0 162,-22 224,-22 224,0 162,0"/>
<text text-anchor="start" x="164.88" y="-5.7" font-family="Times,serif" font-size="14.00"> STRING </text>
</g>
</g>
</svg>
