<?xml version="1.0" encoding="UTF-8" standalone="no"?>
<!DOCTYPE svg PUBLIC "-//W3C//DTD SVG 1.1//EN"
 "http://www.w3.org/Graphics/SVG/1.1/DTD/svg11.dtd">
<!-- Generated by graphviz version 7.0.4 (20221203.1631)
 -->
<!-- Pages: 1 -->
<svg width="356pt" height="177pt"
 viewBox="0.00 0.00 356.00 177.00" xmlns="http://www.w3.org/2000/svg" xmlns:xlink="http://www.w3.org/1999/xlink">
<g id="graph0" class="graph" transform="scale(1 1) rotate(0) translate(36 141)">
<polygon fill="white" stroke="none" points="-36,36 -36,-141 320,-141 320,36 -36,36"/>
<!-- Foo -->
<g id="node1" class="node">
<title>Foo</title>
<polygon fill="none" stroke="black" points="0,-83.5 0,-104.5 56,-104.5 56,-83.5 0,-83.5"/>
<text text-anchor="start" x="3" y="-90.3" font-family="Times,serif" font-size="14.00"> Opcode </text>
<polygon fill="none" stroke="black" points="56,-83.5 56,-104.5 117,-104.5 117,-83.5 56,-83.5"/>
<text text-anchor="start" x="66" y="-90.3" font-family="Times,serif" font-size="14.00"> Name </text>
<polygon fill="none" stroke="black" points="117,-83.5 117,-104.5 158,-104.5 158,-83.5 117,-83.5"/>
<text text-anchor="start" x="121.5" y="-90.3" font-family="Times,serif" font-size="14.00"> OP1 </text>
<polygon fill="none" stroke="black" points="158,-83.5 158,-104.5 221,-104.5 221,-83.5 158,-83.5"/>
<text text-anchor="start" x="173.5" y="-90.3" font-family="Times,serif" font-size="14.00"> OP2 </text>
<polygon fill="none" stroke="black" points="221,-83.5 221,-104.5 284,-104.5 284,-83.5 221,-83.5"/>
<text text-anchor="start" x="236.5" y="-90.3" font-family="Times,serif" font-size="14.00"> OP3 </text>
<polygon fill="none" stroke="black" points="0,-62.5 0,-83.5 56,-83.5 56,-62.5 0,-62.5"/>
<text text-anchor="start" x="4" y="-69.3" font-family="Times,serif" font-size="14.00"> 0x00a4 </text>
<polygon fill="none" stroke="black" points="56,-62.5 56,-83.5 117,-83.5 117,-62.5 56,-62.5"/>
<text text-anchor="start" x="59" y="-69.3" font-family="Times,serif" font-size="14.00"> NSMAP </text>
<polygon fill="none" stroke="black" points="117,-62.5 117,-83.5 158,-83.5 158,-62.5 117,-62.5"/>
<text text-anchor="start" x="120" y="-69.3" font-family="Times,serif" font-size="14.00"> REG </text>
<polygon fill="none" stroke="black" points="158,-62.5 158,-83.5 221,-83.5 221,-62.5 158,-62.5"/>
<text text-anchor="start" x="172" y="-69.3" font-family="Times,serif" font-size="14.00"> REG </text>
<polygon fill="none" stroke="black" points="221,-62.5 221,-83.5 284,-83.5 284,-62.5 221,-62.5"/>
<text text-anchor="start" x="235" y="-69.3" font-family="Times,serif" font-size="14.00"> REG </text>
<polygon fill="none" stroke="black" points="0,-41.5 0,-62.5 56,-62.5 56,-41.5 0,-41.5"/>
<text text-anchor="start" x="4" y="-48.3" font-family="Times,serif" font-size="14.00"> 0x00a7 </text>
<polygon fill="none" stroke="black" points="56,-41.5 56,-62.5 117,-62.5 117,-41.5 56,-41.5"/>
<text text-anchor="start" x="59" y="-48.3" font-family="Times,serif" font-size="14.00"> NSMAP </text>
<polygon fill="none" stroke="black" points="117,-41.5 117,-62.5 158,-62.5 158,-41.5 117,-41.5"/>
<text text-anchor="start" x="120" y="-48.3" font-family="Times,serif" font-size="14.00"> REG </text>
<polygon fill="none" stroke="black" points="158,-41.5 158,-62.5 221,-62.5 221,-41.5 158,-41.5"/>
<text text-anchor="start" x="161" y="-48.3" font-family="Times,serif" font-size="14.00"> STRING </text>
<polygon fill="none" stroke="black" points="221,-41.5 221,-62.5 284,-62.5 284,-41.5 221,-41.5"/>
<text text-anchor="start" x="235" y="-48.3" font-family="Times,serif" font-size="14.00"> REG </text>
<polygon fill="none" stroke="black" points="0,-20.5 0,-41.5 56,-41.5 56,-20.5 0,-20.5"/>
<text text-anchor="start" x="4" y="-27.3" font-family="Times,serif" font-size="14.00"> 0x00a5 </text>
<polygon fill="none" stroke="black" points="56,-20.5 56,-41.5 117,-41.5 117,-20.5 56,-20.5"/>
<text text-anchor="start" x="59" y="-27.3" font-family="Times,serif" font-size="14.00"> NSMAP </text>
<polygon fill="none" stroke="black" points="117,-20.5 117,-41.5 158,-41.5 158,-20.5 117,-20.5"/>
<text text-anchor="start" x="120" y="-27.3" font-family="Times,serif" font-size="14.00"> REG </text>
<polygon fill="none" stroke="black" points="158,-20.5 158,-41.5 221,-41.5 221,-20.5 158,-20.5"/>
<text text-anchor="start" x="172" y="-27.3" font-family="Times,serif" font-size="14.00"> REG </text>
<polygon fill="none" stroke="black" points="221,-20.5 221,-41.5 284,-41.5 284,-20.5 221,-20.5"/>
<text text-anchor="start" x="224" y="-27.3" font-family="Times,serif" font-size="14.00"> STRING </text>
<polygon fill="none" stroke="black" points="0,0.5 0,-20.5 56,-20.5 56,0.5 0,0.5"/>
<text text-anchor="start" x="4" y="-6.3" font-family="Times,serif" font-size="14.00"> 0x00a6 </text>
<polygon fill="none" stroke="black" points="56,0.5 56,-20.5 117,-20.5 117,0.5 56,0.5"/>
<text text-anchor="start" x="59" y="-6.3" font-family="Times,serif" font-size="14.00"> NSMAP </text>
<polygon fill="none" stroke="black" points="117,0.5 117,-20.5 158,-20.5 158,0.5 117,0.5"/>
<text text-anchor="start" x="120" y="-6.3" font-family="Times,serif" font-size="14.00"> REG </text>
<polygon fill="none" stroke="black" points="158,0.5 158,-20.5 221,-20.5 221,0.5 158,0.5"/>
<text text-anchor="start" x="161" y="-6.3" font-family="Times,serif" font-size="14.00"> STRING </text>
<polygon fill="none" stroke="black" points="221,0.5 221,-20.5 284,-20.5 284,0.5 221,0.5"/>
<text text-anchor="start" x="224" y="-6.3" font-family="Times,serif" font-size="14.00"> STRING </text>
</g>
</g>
</svg>
