<?xml version="1.0" encoding="UTF-8" standalone="no"?>
<!DOCTYPE svg PUBLIC "-//W3C//DTD SVG 1.1//EN"
 "http://www.w3.org/Graphics/SVG/1.1/DTD/svg11.dtd">
<!-- Generated by graphviz version 7.0.4 (20221203.1631)
 -->
<!-- Pages: 1 -->
<svg width="270pt" height="114pt"
 viewBox="0.00 0.00 270.00 114.00" xmlns="http://www.w3.org/2000/svg" xmlns:xlink="http://www.w3.org/1999/xlink">
<g id="graph0" class="graph" transform="scale(1 1) rotate(0) translate(36 78)">
<polygon fill="white" stroke="none" points="-36,36 -36,-78 234,-78 234,36 -36,36"/>
<!-- Foo -->
<g id="node1" class="node">
<title>Foo</title>
<polygon fill="none" stroke="black" points="0,-21 0,-42 75,-42 75,-21 0,-21"/>
<text text-anchor="start" x="17" y="-27.8" font-family="Times,serif" font-size="14.00"> Name </text>
<polygon fill="none" stroke="black" points="75,-21 75,-42 116,-42 116,-21 75,-21"/>
<text text-anchor="start" x="79.5" y="-27.8" font-family="Times,serif" font-size="14.00"> OP1 </text>
<polygon fill="none" stroke="black" points="116,-21 116,-42 157,-42 157,-21 116,-21"/>
<text text-anchor="start" x="120.5" y="-27.8" font-family="Times,serif" font-size="14.00"> OP2 </text>
<polygon fill="none" stroke="black" points="157,-21 157,-42 198,-42 198,-21 157,-21"/>
<text text-anchor="start" x="161.5" y="-27.8" font-family="Times,serif" font-size="14.00"> OP3 </text>
<polygon fill="none" stroke="black" points="0,0 0,-21 75,-21 75,0 0,0"/>
<text text-anchor="start" x="3" y="-6.8" font-family="Times,serif" font-size="14.00"> OPENDLL </text>
<polygon fill="none" stroke="black" points="75,0 75,-21 116,-21 116,0 75,0"/>
<text text-anchor="start" x="78" y="-6.8" font-family="Times,serif" font-size="14.00"> REG </text>
<polygon fill="none" stroke="black" points="116,0 116,-21 157,-21 157,0 116,0"/>
<text text-anchor="start" x="119" y="-6.8" font-family="Times,serif" font-size="14.00"> REG </text>
<polygon fill="none" stroke="black" points="157,0 157,-21 198,-21 198,0 157,0"/>
<text text-anchor="start" x="160" y="-6.8" font-family="Times,serif" font-size="14.00"> REG </text>
</g>
</g>
</svg>
