<?xml version="1.0" encoding="UTF-8" standalone="no"?>
<!DOCTYPE svg PUBLIC "-//W3C//DTD SVG 1.1//EN"
 "http://www.w3.org/Graphics/SVG/1.1/DTD/svg11.dtd">
<!-- Generated by graphviz version 12.1.2 (20240928.0832)
 -->
<!-- Pages: 1 -->
<svg width="266pt" height="116pt"
 viewBox="0.00 0.00 266.00 116.00" xmlns="http://www.w3.org/2000/svg" xmlns:xlink="http://www.w3.org/1999/xlink">
<g id="graph0" class="graph" transform="scale(1 1) rotate(0) translate(36 80)">
<polygon fill="white" stroke="none" points="-36,36 -36,-80 230,-80 230,36 -36,36"/>
<!-- Foo -->
<g id="node1" class="node">
<title>Foo</title>
<polygon fill="none" stroke="black" points="0,-22 0,-44 74,-44 74,-22 0,-22"/>
<text text-anchor="start" x="16.75" y="-27.7" font-family="Times,serif" font-size="14.00"> Name </text>
<polygon fill="none" stroke="black" points="74,-22 74,-44 114,-44 114,-22 74,-22"/>
<text text-anchor="start" x="78.25" y="-27.7" font-family="Times,serif" font-size="14.00"> OP1 </text>
<polygon fill="none" stroke="black" points="114,-22 114,-44 154,-44 154,-22 114,-22"/>
<text text-anchor="start" x="118.25" y="-27.7" font-family="Times,serif" font-size="14.00"> OP2 </text>
<polygon fill="none" stroke="black" points="154,-22 154,-44 194,-44 194,-22 154,-22"/>
<text text-anchor="start" x="158.25" y="-27.7" font-family="Times,serif" font-size="14.00"> OP3 </text>
<polygon fill="none" stroke="black" points="0,0 0,-22 74,-22 74,0 0,0"/>
<text text-anchor="start" x="2.88" y="-5.7" font-family="Times,serif" font-size="14.00"> OPENDLL </text>
<polygon fill="none" stroke="black" points="74,0 74,-22 114,-22 114,0 74,0"/>
<text text-anchor="start" x="76.75" y="-5.7" font-family="Times,serif" font-size="14.00"> REG </text>
<polygon fill="none" stroke="black" points="114,0 114,-22 154,-22 154,0 114,0"/>
<text text-anchor="start" x="116.75" y="-5.7" font-family="Times,serif" font-size="14.00"> REG </text>
<polygon fill="none" stroke="black" points="154,0 154,-22 194,-22 194,0 154,0"/>
<text text-anchor="start" x="156.75" y="-5.7" font-family="Times,serif" font-size="14.00"> REG </text>
</g>
</g>
</svg>
