<?xml version="1.0" encoding="UTF-8" standalone="no"?>
<!DOCTYPE svg PUBLIC "-//W3C//DTD SVG 1.1//EN"
 "http://www.w3.org/Graphics/SVG/1.1/DTD/svg11.dtd">
<!-- Generated by graphviz version 12.2.1 (20241206.2353)
 -->
<!-- Pages: 1 -->
<svg width="240pt" height="117pt"
 viewBox="0.00 0.00 240.00 117.00" xmlns="http://www.w3.org/2000/svg" xmlns:xlink="http://www.w3.org/1999/xlink">
<g id="graph0" class="graph" transform="scale(1 1) rotate(0) translate(36 81)">
<polygon fill="white" stroke="none" points="-36,36 -36,-81 204,-81 204,36 -36,36"/>
<!-- Foo -->
<g id="node1" class="node">
<title>Foo</title>
<polygon fill="none" stroke="black" points="0,-22.5 0,-45 46.5,-45 46.5,-22.5 0,-22.5"/>
<text text-anchor="start" x="3" y="-28.7" font-family="Times,serif" font-size="14.00"> Name </text>
<polygon fill="none" stroke="black" points="46.5,-22.5 46.5,-45 87,-45 87,-22.5 46.5,-22.5"/>
<text text-anchor="start" x="51" y="-28.7" font-family="Times,serif" font-size="14.00"> OP1 </text>
<polygon fill="none" stroke="black" points="87,-22.5 87,-45 127.5,-45 127.5,-22.5 87,-22.5"/>
<text text-anchor="start" x="91.5" y="-28.7" font-family="Times,serif" font-size="14.00"> OP2 </text>
<polygon fill="none" stroke="black" points="127.5,-22.5 127.5,-45 168,-45 168,-22.5 127.5,-22.5"/>
<text text-anchor="start" x="132" y="-28.7" font-family="Times,serif" font-size="14.00"> OP3 </text>
<polygon fill="none" stroke="black" points="0,0 0,-22.5 46.5,-22.5 46.5,0 0,0"/>
<text text-anchor="start" x="10.12" y="-6.2" font-family="Times,serif" font-size="14.00"> OR </text>
<polygon fill="none" stroke="black" points="46.5,0 46.5,-22.5 87,-22.5 87,0 46.5,0"/>
<text text-anchor="start" x="49.5" y="-6.2" font-family="Times,serif" font-size="14.00"> REG </text>
<polygon fill="none" stroke="black" points="87,0 87,-22.5 127.5,-22.5 127.5,0 87,0"/>
<text text-anchor="start" x="90" y="-6.2" font-family="Times,serif" font-size="14.00"> REG </text>
<polygon fill="none" stroke="black" points="127.5,0 127.5,-22.5 168,-22.5 168,0 127.5,0"/>
<text text-anchor="start" x="130.5" y="-6.2" font-family="Times,serif" font-size="14.00"> REG </text>
</g>
</g>
</svg>
