<?xml version="1.0" encoding="UTF-8" standalone="no"?>
<!DOCTYPE svg PUBLIC "-//W3C//DTD SVG 1.1//EN"
 "http://www.w3.org/Graphics/SVG/1.1/DTD/svg11.dtd">
<!-- Generated by graphviz version 12.2.1 (20241206.2353)
 -->
<!-- Pages: 1 -->
<svg width="225pt" height="140pt"
 viewBox="0.00 0.00 225.00 139.50" xmlns="http://www.w3.org/2000/svg" xmlns:xlink="http://www.w3.org/1999/xlink">
<g id="graph0" class="graph" transform="scale(1 1) rotate(0) translate(36 103.5)">
<polygon fill="white" stroke="none" points="-36,36 -36,-103.5 189,-103.5 189,36 -36,36"/>
<!-- Foo -->
<g id="node1" class="node">
<title>Foo</title>
<polygon fill="none" stroke="black" points="0,-45 0,-67.5 50.25,-67.5 50.25,-45 0,-45"/>
<text text-anchor="start" x="4.88" y="-51.2" font-family="Times,serif" font-size="14.00"> Name </text>
<polygon fill="none" stroke="black" points="50.25,-45 50.25,-67.5 90.75,-67.5 90.75,-45 50.25,-45"/>
<text text-anchor="start" x="54.75" y="-51.2" font-family="Times,serif" font-size="14.00"> OP1 </text>
<polygon fill="none" stroke="black" points="90.75,-45 90.75,-67.5 153,-67.5 153,-45 90.75,-45"/>
<text text-anchor="start" x="106.12" y="-51.2" font-family="Times,serif" font-size="14.00"> OP2 </text>
<polygon fill="none" stroke="black" points="0,-22.5 0,-45 50.25,-45 50.25,-22.5 0,-22.5"/>
<text text-anchor="start" x="3" y="-28.7" font-family="Times,serif" font-size="14.00"> PMAP </text>
<polygon fill="none" stroke="black" points="50.25,-22.5 50.25,-45 90.75,-45 90.75,-22.5 50.25,-22.5"/>
<text text-anchor="start" x="53.25" y="-28.7" font-family="Times,serif" font-size="14.00"> REG </text>
<polygon fill="none" stroke="black" points="90.75,-22.5 90.75,-45 153,-45 153,-22.5 90.75,-22.5"/>
<text text-anchor="start" x="104.62" y="-28.7" font-family="Times,serif" font-size="14.00"> REG </text>
<polygon fill="none" stroke="black" points="0,0 0,-22.5 50.25,-22.5 50.25,0 0,0"/>
<text text-anchor="start" x="3" y="-6.2" font-family="Times,serif" font-size="14.00"> PMAP </text>
<polygon fill="none" stroke="black" points="50.25,0 50.25,-22.5 90.75,-22.5 90.75,0 50.25,0"/>
<text text-anchor="start" x="53.25" y="-6.2" font-family="Times,serif" font-size="14.00"> REG </text>
<polygon fill="none" stroke="black" points="90.75,0 90.75,-22.5 153,-22.5 153,0 90.75,0"/>
<text text-anchor="start" x="93.75" y="-6.2" font-family="Times,serif" font-size="14.00"> STRING </text>
</g>
</g>
</svg>
