<?xml version="1.0" encoding="UTF-8" standalone="no"?>
<!DOCTYPE svg PUBLIC "-//W3C//DTD SVG 1.1//EN"
 "http://www.w3.org/Graphics/SVG/1.1/DTD/svg11.dtd">
<!-- Generated by graphviz version 12.1.2 (20240928.0832)
 -->
<!-- Pages: 1 -->
<svg width="224pt" height="138pt"
 viewBox="0.00 0.00 224.00 138.00" xmlns="http://www.w3.org/2000/svg" xmlns:xlink="http://www.w3.org/1999/xlink">
<g id="graph0" class="graph" transform="scale(1 1) rotate(0) translate(36 102)">
<polygon fill="white" stroke="none" points="-36,36 -36,-102 188,-102 188,36 -36,36"/>
<!-- Foo -->
<g id="node1" class="node">
<title>Foo</title>
<polygon fill="none" stroke="black" points="0,-44 0,-66 50,-66 50,-44 0,-44"/>
<text text-anchor="start" x="4.75" y="-49.7" font-family="Times,serif" font-size="14.00"> Name </text>
<polygon fill="none" stroke="black" points="50,-44 50,-66 90,-66 90,-44 50,-44"/>
<text text-anchor="start" x="54.25" y="-49.7" font-family="Times,serif" font-size="14.00"> OP1 </text>
<polygon fill="none" stroke="black" points="90,-44 90,-66 152,-66 152,-44 90,-44"/>
<text text-anchor="start" x="105.25" y="-49.7" font-family="Times,serif" font-size="14.00"> OP2 </text>
<polygon fill="none" stroke="black" points="0,-22 0,-44 50,-44 50,-22 0,-22"/>
<text text-anchor="start" x="2.88" y="-27.7" font-family="Times,serif" font-size="14.00"> PMAP </text>
<polygon fill="none" stroke="black" points="50,-22 50,-44 90,-44 90,-22 50,-22"/>
<text text-anchor="start" x="52.75" y="-27.7" font-family="Times,serif" font-size="14.00"> REG </text>
<polygon fill="none" stroke="black" points="90,-22 90,-44 152,-44 152,-22 90,-22"/>
<text text-anchor="start" x="103.75" y="-27.7" font-family="Times,serif" font-size="14.00"> REG </text>
<polygon fill="none" stroke="black" points="0,0 0,-22 50,-22 50,0 0,0"/>
<text text-anchor="start" x="2.88" y="-5.7" font-family="Times,serif" font-size="14.00"> PMAP </text>
<polygon fill="none" stroke="black" points="50,0 50,-22 90,-22 90,0 50,0"/>
<text text-anchor="start" x="52.75" y="-5.7" font-family="Times,serif" font-size="14.00"> REG </text>
<polygon fill="none" stroke="black" points="90,0 90,-22 152,-22 152,0 90,0"/>
<text text-anchor="start" x="92.88" y="-5.7" font-family="Times,serif" font-size="14.00"> STRING </text>
</g>
</g>
</svg>
