<?xml version="1.0" encoding="UTF-8" standalone="no"?>
<!DOCTYPE svg PUBLIC "-//W3C//DTD SVG 1.1//EN"
 "http://www.w3.org/Graphics/SVG/1.1/DTD/svg11.dtd">
<!-- Generated by graphviz version 14.1.4 (20260321.0153)
 -->
<!-- Pages: 1 -->
<svg width="193pt" height="230pt"
 viewBox="0.00 0.00 193.00 230.00" xmlns="http://www.w3.org/2000/svg" xmlns:xlink="http://www.w3.org/1999/xlink">
<g id="graph0" class="graph" transform="scale(1 1) rotate(0) translate(36 193.5)">
<polygon fill="white" stroke="none" points="-36,36 -36,-193.5 156.75,-193.5 156.75,36 -36,36"/>
<!-- Foo -->
<g id="node1" class="node">
<title>Foo</title>
<polygon fill="none" stroke="black" points="0,-135 0,-157.5 46.5,-157.5 46.5,-135 0,-135"/>
<text xml:space="preserve" text-anchor="start" x="3" y="-141.75" font-family="Times,serif" font-size="14.00"> Name </text>
<polygon fill="none" stroke="black" points="46.5,-135 46.5,-157.5 120.75,-157.5 120.75,-135 46.5,-135"/>
<text xml:space="preserve" text-anchor="start" x="67.88" y="-141.75" font-family="Times,serif" font-size="14.00"> OP1 </text>
<polygon fill="none" stroke="black" points="0,-112.5 0,-135 46.5,-135 46.5,-112.5 0,-112.5"/>
<text xml:space="preserve" text-anchor="start" x="7.12" y="-119.25" font-family="Times,serif" font-size="14.00"> RET </text>
<polygon fill="none" stroke="black" points="46.5,-112.5 46.5,-135 120.75,-135 120.75,-112.5 46.5,-112.5"/>
<text xml:space="preserve" text-anchor="start" x="49.5" y="-119.25" font-family="Times,serif" font-size="14.00"> no operand </text>
<polygon fill="none" stroke="black" points="0,-90 0,-112.5 46.5,-112.5 46.5,-90 0,-90"/>
<text xml:space="preserve" text-anchor="start" x="7.12" y="-96.75" font-family="Times,serif" font-size="14.00"> RET </text>
<polygon fill="none" stroke="black" points="46.5,-90 46.5,-112.5 120.75,-112.5 120.75,-90 46.5,-90"/>
<text xml:space="preserve" text-anchor="start" x="66.38" y="-96.75" font-family="Times,serif" font-size="14.00"> REG </text>
<polygon fill="none" stroke="black" points="0,-67.5 0,-90 46.5,-90 46.5,-67.5 0,-67.5"/>
<text xml:space="preserve" text-anchor="start" x="7.12" y="-74.25" font-family="Times,serif" font-size="14.00"> RET </text>
<polygon fill="none" stroke="black" points="46.5,-67.5 46.5,-90 120.75,-90 120.75,-67.5 46.5,-67.5"/>
<text xml:space="preserve" text-anchor="start" x="69" y="-74.25" font-family="Times,serif" font-size="14.00"> INT </text>
<polygon fill="none" stroke="black" points="0,-45 0,-67.5 46.5,-67.5 46.5,-45 0,-45"/>
<text xml:space="preserve" text-anchor="start" x="7.12" y="-51.75" font-family="Times,serif" font-size="14.00"> RET </text>
<polygon fill="none" stroke="black" points="46.5,-45 46.5,-67.5 120.75,-67.5 120.75,-45 46.5,-45"/>
<text xml:space="preserve" text-anchor="start" x="59.25" y="-51.75" font-family="Times,serif" font-size="14.00"> FLOAT </text>
<polygon fill="none" stroke="black" points="0,-22.5 0,-45 46.5,-45 46.5,-22.5 0,-22.5"/>
<text xml:space="preserve" text-anchor="start" x="7.12" y="-29.25" font-family="Times,serif" font-size="14.00"> RET </text>
<polygon fill="none" stroke="black" points="46.5,-22.5 46.5,-45 120.75,-45 120.75,-22.5 46.5,-22.5"/>
<text xml:space="preserve" text-anchor="start" x="61.12" y="-29.25" font-family="Times,serif" font-size="14.00"> CHAR </text>
<polygon fill="none" stroke="black" points="0,0 0,-22.5 46.5,-22.5 46.5,0 0,0"/>
<text xml:space="preserve" text-anchor="start" x="7.12" y="-6.75" font-family="Times,serif" font-size="14.00"> RET </text>
<polygon fill="none" stroke="black" points="46.5,0 46.5,-22.5 120.75,-22.5 120.75,0 46.5,0"/>
<text xml:space="preserve" text-anchor="start" x="55.5" y="-6.75" font-family="Times,serif" font-size="14.00"> STRING </text>
</g>
</g>
</svg>
