<?xml version="1.0" encoding="UTF-8" standalone="no"?>
<!DOCTYPE svg PUBLIC "-//W3C//DTD SVG 1.1//EN"
 "http://www.w3.org/Graphics/SVG/1.1/DTD/svg11.dtd">
<!-- Generated by graphviz version 7.0.4 (20221203.1631)
 -->
<!-- Pages: 1 -->
<svg width="194pt" height="219pt"
 viewBox="0.00 0.00 194.00 219.00" xmlns="http://www.w3.org/2000/svg" xmlns:xlink="http://www.w3.org/1999/xlink">
<g id="graph0" class="graph" transform="scale(1 1) rotate(0) translate(36 183)">
<polygon fill="white" stroke="none" points="-36,36 -36,-183 158,-183 158,36 -36,36"/>
<!-- Foo -->
<g id="node1" class="node">
<title>Foo</title>
<polygon fill="none" stroke="black" points="0,-125.5 0,-146.5 47,-146.5 47,-125.5 0,-125.5"/>
<text text-anchor="start" x="3" y="-132.3" font-family="Times,serif" font-size="14.00"> Name </text>
<polygon fill="none" stroke="black" points="47,-125.5 47,-146.5 122,-146.5 122,-125.5 47,-125.5"/>
<text text-anchor="start" x="68.5" y="-132.3" font-family="Times,serif" font-size="14.00"> OP1 </text>
<polygon fill="none" stroke="black" points="0,-104.5 0,-125.5 47,-125.5 47,-104.5 0,-104.5"/>
<text text-anchor="start" x="7" y="-111.3" font-family="Times,serif" font-size="14.00"> RET </text>
<polygon fill="none" stroke="black" points="47,-104.5 47,-125.5 122,-125.5 122,-104.5 47,-104.5"/>
<text text-anchor="start" x="60" y="-111.3" font-family="Times,serif" font-size="14.00"> FLOAT </text>
<polygon fill="none" stroke="black" points="0,-83.5 0,-104.5 47,-104.5 47,-83.5 0,-83.5"/>
<text text-anchor="start" x="7" y="-90.3" font-family="Times,serif" font-size="14.00"> RET </text>
<polygon fill="none" stroke="black" points="47,-83.5 47,-104.5 122,-104.5 122,-83.5 47,-83.5"/>
<text text-anchor="start" x="50" y="-90.3" font-family="Times,serif" font-size="14.00"> no operand </text>
<polygon fill="none" stroke="black" points="0,-62.5 0,-83.5 47,-83.5 47,-62.5 0,-62.5"/>
<text text-anchor="start" x="7" y="-69.3" font-family="Times,serif" font-size="14.00"> RET </text>
<polygon fill="none" stroke="black" points="47,-62.5 47,-83.5 122,-83.5 122,-62.5 47,-62.5"/>
<text text-anchor="start" x="67" y="-69.3" font-family="Times,serif" font-size="14.00"> REG </text>
<polygon fill="none" stroke="black" points="0,-41.5 0,-62.5 47,-62.5 47,-41.5 0,-41.5"/>
<text text-anchor="start" x="7" y="-48.3" font-family="Times,serif" font-size="14.00"> RET </text>
<polygon fill="none" stroke="black" points="47,-41.5 47,-62.5 122,-62.5 122,-41.5 47,-41.5"/>
<text text-anchor="start" x="69.5" y="-48.3" font-family="Times,serif" font-size="14.00"> INT </text>
<polygon fill="none" stroke="black" points="0,-20.5 0,-41.5 47,-41.5 47,-20.5 0,-20.5"/>
<text text-anchor="start" x="7" y="-27.3" font-family="Times,serif" font-size="14.00"> RET </text>
<polygon fill="none" stroke="black" points="47,-20.5 47,-41.5 122,-41.5 122,-20.5 47,-20.5"/>
<text text-anchor="start" x="61.5" y="-27.3" font-family="Times,serif" font-size="14.00"> CHAR </text>
<polygon fill="none" stroke="black" points="0,0.5 0,-20.5 47,-20.5 47,0.5 0,0.5"/>
<text text-anchor="start" x="7" y="-6.3" font-family="Times,serif" font-size="14.00"> RET </text>
<polygon fill="none" stroke="black" points="47,0.5 47,-20.5 122,-20.5 122,0.5 47,0.5"/>
<text text-anchor="start" x="56" y="-6.3" font-family="Times,serif" font-size="14.00"> STRING </text>
</g>
</g>
</svg>
