<?xml version="1.0" encoding="UTF-8" standalone="no"?>
<!DOCTYPE svg PUBLIC "-//W3C//DTD SVG 1.1//EN"
 "http://www.w3.org/Graphics/SVG/1.1/DTD/svg11.dtd">
<!-- Generated by graphviz version 7.0.4 (20221203.1631)
 -->
<!-- Pages: 1 -->
<svg width="322pt" height="135pt"
 viewBox="0.00 0.00 322.00 135.00" xmlns="http://www.w3.org/2000/svg" xmlns:xlink="http://www.w3.org/1999/xlink">
<g id="graph0" class="graph" transform="scale(1 1) rotate(0) translate(36 99)">
<polygon fill="white" stroke="none" points="-36,36 -36,-99 286,-99 286,36 -36,36"/>
<!-- Foo -->
<g id="node1" class="node">
<title>Foo</title>
<polygon fill="none" stroke="black" points="0,-41.5 0,-62.5 56,-62.5 56,-41.5 0,-41.5"/>
<text text-anchor="start" x="3" y="-48.3" font-family="Times,serif" font-size="14.00"> Opcode </text>
<polygon fill="none" stroke="black" points="56,-41.5 56,-62.5 105,-62.5 105,-41.5 56,-41.5"/>
<text text-anchor="start" x="60" y="-48.3" font-family="Times,serif" font-size="14.00"> Name </text>
<polygon fill="none" stroke="black" points="105,-41.5 105,-62.5 146,-62.5 146,-41.5 105,-41.5"/>
<text text-anchor="start" x="109.5" y="-48.3" font-family="Times,serif" font-size="14.00"> OP1 </text>
<polygon fill="none" stroke="black" points="146,-41.5 146,-62.5 187,-62.5 187,-41.5 146,-41.5"/>
<text text-anchor="start" x="150.5" y="-48.3" font-family="Times,serif" font-size="14.00"> OP2 </text>
<polygon fill="none" stroke="black" points="187,-41.5 187,-62.5 250,-62.5 250,-41.5 187,-41.5"/>
<text text-anchor="start" x="202.5" y="-48.3" font-family="Times,serif" font-size="14.00"> OP3 </text>
<polygon fill="none" stroke="black" points="0,-20.5 0,-41.5 56,-41.5 56,-20.5 0,-20.5"/>
<text text-anchor="start" x="3.5" y="-27.3" font-family="Times,serif" font-size="14.00"> 0x0086 </text>
<polygon fill="none" stroke="black" points="56,-20.5 56,-41.5 105,-41.5 105,-20.5 56,-20.5"/>
<text text-anchor="start" x="59" y="-27.3" font-family="Times,serif" font-size="14.00"> RSEQ </text>
<polygon fill="none" stroke="black" points="105,-20.5 105,-41.5 146,-41.5 146,-20.5 105,-20.5"/>
<text text-anchor="start" x="108" y="-27.3" font-family="Times,serif" font-size="14.00"> REG </text>
<polygon fill="none" stroke="black" points="146,-20.5 146,-41.5 187,-41.5 187,-20.5 146,-20.5"/>
<text text-anchor="start" x="149" y="-27.3" font-family="Times,serif" font-size="14.00"> REG </text>
<polygon fill="none" stroke="black" points="187,-20.5 187,-41.5 250,-41.5 250,-20.5 187,-20.5"/>
<text text-anchor="start" x="201" y="-27.3" font-family="Times,serif" font-size="14.00"> REG </text>
<polygon fill="none" stroke="black" points="0,0.5 0,-20.5 56,-20.5 56,0.5 0,0.5"/>
<text text-anchor="start" x="3.5" y="-6.3" font-family="Times,serif" font-size="14.00"> 0x0087 </text>
<polygon fill="none" stroke="black" points="56,0.5 56,-20.5 105,-20.5 105,0.5 56,0.5"/>
<text text-anchor="start" x="59" y="-6.3" font-family="Times,serif" font-size="14.00"> RSEQ </text>
<polygon fill="none" stroke="black" points="105,0.5 105,-20.5 146,-20.5 146,0.5 105,0.5"/>
<text text-anchor="start" x="108" y="-6.3" font-family="Times,serif" font-size="14.00"> REG </text>
<polygon fill="none" stroke="black" points="146,0.5 146,-20.5 187,-20.5 187,0.5 146,0.5"/>
<text text-anchor="start" x="149" y="-6.3" font-family="Times,serif" font-size="14.00"> REG </text>
<polygon fill="none" stroke="black" points="187,0.5 187,-20.5 250,-20.5 250,0.5 187,0.5"/>
<text text-anchor="start" x="190" y="-6.3" font-family="Times,serif" font-size="14.00"> STRING </text>
</g>
</g>
</svg>
