<?xml version="1.0" encoding="UTF-8" standalone="no"?>
<!DOCTYPE svg PUBLIC "-//W3C//DTD SVG 1.1//EN"
 "http://www.w3.org/Graphics/SVG/1.1/DTD/svg11.dtd">
<!-- Generated by graphviz version 7.0.4 (20221203.1631)
 -->
<!-- Pages: 1 -->
<svg width="266pt" height="135pt"
 viewBox="0.00 0.00 266.00 135.00" xmlns="http://www.w3.org/2000/svg" xmlns:xlink="http://www.w3.org/1999/xlink">
<g id="graph0" class="graph" transform="scale(1 1) rotate(0) translate(36 99)">
<polygon fill="white" stroke="none" points="-36,36 -36,-99 230,-99 230,36 -36,36"/>
<!-- Foo -->
<g id="node1" class="node">
<title>Foo</title>
<polygon fill="none" stroke="black" points="0,-41.5 0,-62.5 49,-62.5 49,-41.5 0,-41.5"/>
<text text-anchor="start" x="4" y="-48.3" font-family="Times,serif" font-size="14.00"> Name </text>
<polygon fill="none" stroke="black" points="49,-41.5 49,-62.5 90,-62.5 90,-41.5 49,-41.5"/>
<text text-anchor="start" x="53.5" y="-48.3" font-family="Times,serif" font-size="14.00"> OP1 </text>
<polygon fill="none" stroke="black" points="90,-41.5 90,-62.5 131,-62.5 131,-41.5 90,-41.5"/>
<text text-anchor="start" x="94.5" y="-48.3" font-family="Times,serif" font-size="14.00"> OP2 </text>
<polygon fill="none" stroke="black" points="131,-41.5 131,-62.5 194,-62.5 194,-41.5 131,-41.5"/>
<text text-anchor="start" x="146.5" y="-48.3" font-family="Times,serif" font-size="14.00"> OP3 </text>
<polygon fill="none" stroke="black" points="0,-20.5 0,-41.5 49,-41.5 49,-20.5 0,-20.5"/>
<text text-anchor="start" x="3" y="-27.3" font-family="Times,serif" font-size="14.00"> RSEQ </text>
<polygon fill="none" stroke="black" points="49,-20.5 49,-41.5 90,-41.5 90,-20.5 49,-20.5"/>
<text text-anchor="start" x="52" y="-27.3" font-family="Times,serif" font-size="14.00"> REG </text>
<polygon fill="none" stroke="black" points="90,-20.5 90,-41.5 131,-41.5 131,-20.5 90,-20.5"/>
<text text-anchor="start" x="93" y="-27.3" font-family="Times,serif" font-size="14.00"> REG </text>
<polygon fill="none" stroke="black" points="131,-20.5 131,-41.5 194,-41.5 194,-20.5 131,-20.5"/>
<text text-anchor="start" x="145" y="-27.3" font-family="Times,serif" font-size="14.00"> REG </text>
<polygon fill="none" stroke="black" points="0,0.5 0,-20.5 49,-20.5 49,0.5 0,0.5"/>
<text text-anchor="start" x="3" y="-6.3" font-family="Times,serif" font-size="14.00"> RSEQ </text>
<polygon fill="none" stroke="black" points="49,0.5 49,-20.5 90,-20.5 90,0.5 49,0.5"/>
<text text-anchor="start" x="52" y="-6.3" font-family="Times,serif" font-size="14.00"> REG </text>
<polygon fill="none" stroke="black" points="90,0.5 90,-20.5 131,-20.5 131,0.5 90,0.5"/>
<text text-anchor="start" x="93" y="-6.3" font-family="Times,serif" font-size="14.00"> REG </text>
<polygon fill="none" stroke="black" points="131,0.5 131,-20.5 194,-20.5 194,0.5 131,0.5"/>
<text text-anchor="start" x="134" y="-6.3" font-family="Times,serif" font-size="14.00"> STRING </text>
</g>
</g>
</svg>
