<?xml version="1.0" encoding="UTF-8" standalone="no"?>
<!DOCTYPE svg PUBLIC "-//W3C//DTD SVG 1.1//EN"
 "http://www.w3.org/Graphics/SVG/1.1/DTD/svg11.dtd">
<!-- Generated by graphviz version 12.1.2 (20240928.0832)
 -->
<!-- Pages: 1 -->
<svg width="225pt" height="116pt"
 viewBox="0.00 0.00 225.00 116.00" xmlns="http://www.w3.org/2000/svg" xmlns:xlink="http://www.w3.org/1999/xlink">
<g id="graph0" class="graph" transform="scale(1 1) rotate(0) translate(36 80)">
<polygon fill="white" stroke="none" points="-36,36 -36,-80 189,-80 189,36 -36,36"/>
<!-- Foo -->
<g id="node1" class="node">
<title>Foo</title>
<polygon fill="none" stroke="black" points="0,-22 0,-44 73,-44 73,-22 0,-22"/>
<text text-anchor="start" x="16.25" y="-27.7" font-family="Times,serif" font-size="14.00"> Name </text>
<polygon fill="none" stroke="black" points="73,-22 73,-44 113,-44 113,-22 73,-22"/>
<text text-anchor="start" x="77.25" y="-27.7" font-family="Times,serif" font-size="14.00"> OP1 </text>
<polygon fill="none" stroke="black" points="113,-22 113,-44 153,-44 153,-22 113,-22"/>
<text text-anchor="start" x="117.25" y="-27.7" font-family="Times,serif" font-size="14.00"> OP2 </text>
<polygon fill="none" stroke="black" points="0,0 0,-22 73,-22 73,0 0,0"/>
<text text-anchor="start" x="2.75" y="-5.7" font-family="Times,serif" font-size="14.00"> SAPPEND </text>
<polygon fill="none" stroke="black" points="73,0 73,-22 113,-22 113,0 73,0"/>
<text text-anchor="start" x="75.75" y="-5.7" font-family="Times,serif" font-size="14.00"> REG </text>
<polygon fill="none" stroke="black" points="113,0 113,-22 153,-22 153,0 113,0"/>
<text text-anchor="start" x="115.75" y="-5.7" font-family="Times,serif" font-size="14.00"> REG </text>
</g>
</g>
</svg>
