<?xml version="1.0" encoding="UTF-8" standalone="no"?>
<!DOCTYPE svg PUBLIC "-//W3C//DTD SVG 1.1//EN"
 "http://www.w3.org/Graphics/SVG/1.1/DTD/svg11.dtd">
<!-- Generated by graphviz version 7.0.4 (20221203.1631)
 -->
<!-- Pages: 1 -->
<svg width="228pt" height="114pt"
 viewBox="0.00 0.00 228.00 114.00" xmlns="http://www.w3.org/2000/svg" xmlns:xlink="http://www.w3.org/1999/xlink">
<g id="graph0" class="graph" transform="scale(1 1) rotate(0) translate(36 78)">
<polygon fill="white" stroke="none" points="-36,36 -36,-78 192,-78 192,36 -36,36"/>
<!-- Foo -->
<g id="node1" class="node">
<title>Foo</title>
<polygon fill="none" stroke="black" points="0,-21 0,-42 74,-42 74,-21 0,-21"/>
<text text-anchor="start" x="16.5" y="-27.8" font-family="Times,serif" font-size="14.00"> Name </text>
<polygon fill="none" stroke="black" points="74,-21 74,-42 115,-42 115,-21 74,-21"/>
<text text-anchor="start" x="78.5" y="-27.8" font-family="Times,serif" font-size="14.00"> OP1 </text>
<polygon fill="none" stroke="black" points="115,-21 115,-42 156,-42 156,-21 115,-21"/>
<text text-anchor="start" x="119.5" y="-27.8" font-family="Times,serif" font-size="14.00"> OP2 </text>
<polygon fill="none" stroke="black" points="0,0 0,-21 74,-21 74,0 0,0"/>
<text text-anchor="start" x="3" y="-6.8" font-family="Times,serif" font-size="14.00"> SAPPEND </text>
<polygon fill="none" stroke="black" points="74,0 74,-21 115,-21 115,0 74,0"/>
<text text-anchor="start" x="77" y="-6.8" font-family="Times,serif" font-size="14.00"> REG </text>
<polygon fill="none" stroke="black" points="115,0 115,-21 156,-21 156,0 115,0"/>
<text text-anchor="start" x="118" y="-6.8" font-family="Times,serif" font-size="14.00"> REG </text>
</g>
</g>
</svg>
