<?xml version="1.0" encoding="UTF-8" standalone="no"?>
<!DOCTYPE svg PUBLIC "-//W3C//DTD SVG 1.1//EN"
 "http://www.w3.org/Graphics/SVG/1.1/DTD/svg11.dtd">
<!-- Generated by graphviz version 12.2.1 (20241206.2353)
 -->
<!-- Pages: 1 -->
<svg width="181pt" height="207pt"
 viewBox="0.00 0.00 180.75 207.00" xmlns="http://www.w3.org/2000/svg" xmlns:xlink="http://www.w3.org/1999/xlink">
<g id="graph0" class="graph" transform="scale(1 1) rotate(0) translate(36 171)">
<polygon fill="white" stroke="none" points="-36,36 -36,-171 144.75,-171 144.75,36 -36,36"/>
<!-- Foo -->
<g id="node1" class="node">
<title>Foo</title>
<polygon fill="none" stroke="black" points="0,-112.5 0,-135 46.5,-135 46.5,-112.5 0,-112.5"/>
<text text-anchor="start" x="3" y="-118.7" font-family="Times,serif" font-size="14.00"> Name </text>
<polygon fill="none" stroke="black" points="46.5,-112.5 46.5,-135 108.75,-135 108.75,-112.5 46.5,-112.5"/>
<text text-anchor="start" x="61.88" y="-118.7" font-family="Times,serif" font-size="14.00"> OP1 </text>
<polygon fill="none" stroke="black" points="0,-90 0,-112.5 46.5,-112.5 46.5,-90 0,-90"/>
<text text-anchor="start" x="6.75" y="-96.2" font-family="Times,serif" font-size="14.00"> SAY </text>
<polygon fill="none" stroke="black" points="46.5,-90 46.5,-112.5 108.75,-112.5 108.75,-90 46.5,-90"/>
<text text-anchor="start" x="60.38" y="-96.2" font-family="Times,serif" font-size="14.00"> REG </text>
<polygon fill="none" stroke="black" points="0,-67.5 0,-90 46.5,-90 46.5,-67.5 0,-67.5"/>
<text text-anchor="start" x="6.75" y="-73.7" font-family="Times,serif" font-size="14.00"> SAY </text>
<polygon fill="none" stroke="black" points="46.5,-67.5 46.5,-90 108.75,-90 108.75,-67.5 46.5,-67.5"/>
<text text-anchor="start" x="63" y="-73.7" font-family="Times,serif" font-size="14.00"> INT </text>
<polygon fill="none" stroke="black" points="0,-45 0,-67.5 46.5,-67.5 46.5,-45 0,-45"/>
<text text-anchor="start" x="6.75" y="-51.2" font-family="Times,serif" font-size="14.00"> SAY </text>
<polygon fill="none" stroke="black" points="46.5,-45 46.5,-67.5 108.75,-67.5 108.75,-45 46.5,-45"/>
<text text-anchor="start" x="55.12" y="-51.2" font-family="Times,serif" font-size="14.00"> CHAR </text>
<polygon fill="none" stroke="black" points="0,-22.5 0,-45 46.5,-45 46.5,-22.5 0,-22.5"/>
<text text-anchor="start" x="6.75" y="-28.7" font-family="Times,serif" font-size="14.00"> SAY </text>
<polygon fill="none" stroke="black" points="46.5,-22.5 46.5,-45 108.75,-45 108.75,-22.5 46.5,-22.5"/>
<text text-anchor="start" x="49.5" y="-28.7" font-family="Times,serif" font-size="14.00"> STRING </text>
<polygon fill="none" stroke="black" points="0,0 0,-22.5 46.5,-22.5 46.5,0 0,0"/>
<text text-anchor="start" x="6.75" y="-6.2" font-family="Times,serif" font-size="14.00"> SAY </text>
<polygon fill="none" stroke="black" points="46.5,0 46.5,-22.5 108.75,-22.5 108.75,0 46.5,0"/>
<text text-anchor="start" x="53.25" y="-6.2" font-family="Times,serif" font-size="14.00"> FLOAT </text>
</g>
</g>
</svg>
