<?xml version="1.0" encoding="UTF-8" standalone="no"?>
<!DOCTYPE svg PUBLIC "-//W3C//DTD SVG 1.1//EN"
 "http://www.w3.org/Graphics/SVG/1.1/DTD/svg11.dtd">
<!-- Generated by graphviz version 7.0.4 (20221203.1631)
 -->
<!-- Pages: 1 -->
<svg width="238pt" height="240pt"
 viewBox="0.00 0.00 238.00 240.00" xmlns="http://www.w3.org/2000/svg" xmlns:xlink="http://www.w3.org/1999/xlink">
<g id="graph0" class="graph" transform="scale(1 1) rotate(0) translate(36 204)">
<polygon fill="white" stroke="none" points="-36,36 -36,-204 202,-204 202,36 -36,36"/>
<!-- Foo -->
<g id="node1" class="node">
<title>Foo</title>
<polygon fill="none" stroke="black" points="0,-147 0,-168 56,-168 56,-147 0,-147"/>
<text text-anchor="start" x="3" y="-153.8" font-family="Times,serif" font-size="14.00"> Opcode </text>
<polygon fill="none" stroke="black" points="56,-147 56,-168 103,-168 103,-147 56,-147"/>
<text text-anchor="start" x="59" y="-153.8" font-family="Times,serif" font-size="14.00"> Name </text>
<polygon fill="none" stroke="black" points="103,-147 103,-168 166,-168 166,-147 103,-147"/>
<text text-anchor="start" x="118.5" y="-153.8" font-family="Times,serif" font-size="14.00"> OP1 </text>
<polygon fill="none" stroke="black" points="0,-126 0,-147 56,-147 56,-126 0,-126"/>
<text text-anchor="start" x="4" y="-132.8" font-family="Times,serif" font-size="14.00"> 0x00c6 </text>
<polygon fill="none" stroke="black" points="56,-126 56,-147 103,-147 103,-126 56,-126"/>
<text text-anchor="start" x="62.5" y="-132.8" font-family="Times,serif" font-size="14.00"> SAY </text>
<polygon fill="none" stroke="black" points="103,-126 103,-147 166,-147 166,-126 103,-126"/>
<text text-anchor="start" x="117" y="-132.8" font-family="Times,serif" font-size="14.00"> REG </text>
<polygon fill="none" stroke="black" points="0,-105 0,-126 56,-126 56,-105 0,-105"/>
<text text-anchor="start" x="4" y="-111.8" font-family="Times,serif" font-size="14.00"> 0x00c9 </text>
<polygon fill="none" stroke="black" points="56,-105 56,-126 103,-126 103,-105 56,-105"/>
<text text-anchor="start" x="62.5" y="-111.8" font-family="Times,serif" font-size="14.00"> SAY </text>
<polygon fill="none" stroke="black" points="103,-105 103,-126 166,-126 166,-105 103,-105"/>
<text text-anchor="start" x="119.5" y="-111.8" font-family="Times,serif" font-size="14.00"> INT </text>
<polygon fill="none" stroke="black" points="0,-84 0,-105 56,-105 56,-84 0,-84"/>
<text text-anchor="start" x="4.5" y="-90.8" font-family="Times,serif" font-size="14.00"> 0x00cc </text>
<polygon fill="none" stroke="black" points="56,-84 56,-105 103,-105 103,-84 56,-84"/>
<text text-anchor="start" x="62.5" y="-90.8" font-family="Times,serif" font-size="14.00"> SAY </text>
<polygon fill="none" stroke="black" points="103,-84 103,-105 166,-105 166,-84 103,-84"/>
<text text-anchor="start" x="111.5" y="-90.8" font-family="Times,serif" font-size="14.00"> CHAR </text>
<polygon fill="none" stroke="black" points="0,-63 0,-84 56,-84 56,-63 0,-63"/>
<text text-anchor="start" x="4" y="-69.8" font-family="Times,serif" font-size="14.00"> 0x00cb </text>
<polygon fill="none" stroke="black" points="56,-63 56,-84 103,-84 103,-63 56,-63"/>
<text text-anchor="start" x="62.5" y="-69.8" font-family="Times,serif" font-size="14.00"> SAY </text>
<polygon fill="none" stroke="black" points="103,-63 103,-84 166,-84 166,-63 103,-63"/>
<text text-anchor="start" x="106" y="-69.8" font-family="Times,serif" font-size="14.00"> STRING </text>
<polygon fill="none" stroke="black" points="0,-42 0,-63 56,-63 56,-42 0,-42"/>
<text text-anchor="start" x="4" y="-48.8" font-family="Times,serif" font-size="14.00"> 0x00c7 </text>
<polygon fill="none" stroke="black" points="56,-42 56,-63 103,-63 103,-42 56,-42"/>
<text text-anchor="start" x="62.5" y="-48.8" font-family="Times,serif" font-size="14.00"> SAY </text>
<polygon fill="none" stroke="black" points="103,-42 103,-63 166,-63 166,-42 103,-42"/>
<text text-anchor="start" x="117" y="-48.8" font-family="Times,serif" font-size="14.00"> REG </text>
<polygon fill="none" stroke="black" points="0,-21 0,-42 56,-42 56,-21 0,-21"/>
<text text-anchor="start" x="4" y="-27.8" font-family="Times,serif" font-size="14.00"> 0x00c8 </text>
<polygon fill="none" stroke="black" points="56,-21 56,-42 103,-42 103,-21 56,-21"/>
<text text-anchor="start" x="62.5" y="-27.8" font-family="Times,serif" font-size="14.00"> SAY </text>
<polygon fill="none" stroke="black" points="103,-21 103,-42 166,-42 166,-21 103,-21"/>
<text text-anchor="start" x="106" y="-27.8" font-family="Times,serif" font-size="14.00"> STRING </text>
<polygon fill="none" stroke="black" points="0,0 0,-21 56,-21 56,0 0,0"/>
<text text-anchor="start" x="4.5" y="-6.8" font-family="Times,serif" font-size="14.00"> 0x00ca </text>
<polygon fill="none" stroke="black" points="56,0 56,-21 103,-21 103,0 56,0"/>
<text text-anchor="start" x="62.5" y="-6.8" font-family="Times,serif" font-size="14.00"> SAY </text>
<polygon fill="none" stroke="black" points="103,0 103,-21 166,-21 166,0 103,0"/>
<text text-anchor="start" x="110" y="-6.8" font-family="Times,serif" font-size="14.00"> FLOAT </text>
</g>
</g>
</svg>
