<?xml version="1.0" encoding="UTF-8" standalone="no"?>
<!DOCTYPE svg PUBLIC "-//W3C//DTD SVG 1.1//EN"
 "http://www.w3.org/Graphics/SVG/1.1/DTD/svg11.dtd">
<!-- Generated by graphviz version 12.1.2 (20240928.0832)
 -->
<!-- Pages: 1 -->
<svg width="180pt" height="204pt"
 viewBox="0.00 0.00 180.00 204.00" xmlns="http://www.w3.org/2000/svg" xmlns:xlink="http://www.w3.org/1999/xlink">
<g id="graph0" class="graph" transform="scale(1 1) rotate(0) translate(36 168)">
<polygon fill="white" stroke="none" points="-36,36 -36,-168 144,-168 144,36 -36,36"/>
<!-- Foo -->
<g id="node1" class="node">
<title>Foo</title>
<polygon fill="none" stroke="black" points="0,-110 0,-132 46,-132 46,-110 0,-110"/>
<text text-anchor="start" x="2.75" y="-115.7" font-family="Times,serif" font-size="14.00"> Name </text>
<polygon fill="none" stroke="black" points="46,-110 46,-132 108,-132 108,-110 46,-110"/>
<text text-anchor="start" x="61.25" y="-115.7" font-family="Times,serif" font-size="14.00"> OP1 </text>
<polygon fill="none" stroke="black" points="0,-88 0,-110 46,-110 46,-88 0,-88"/>
<text text-anchor="start" x="6.5" y="-93.7" font-family="Times,serif" font-size="14.00"> SAY </text>
<polygon fill="none" stroke="black" points="46,-88 46,-110 108,-110 108,-88 46,-88"/>
<text text-anchor="start" x="59.75" y="-93.7" font-family="Times,serif" font-size="14.00"> REG </text>
<polygon fill="none" stroke="black" points="0,-66 0,-88 46,-88 46,-66 0,-66"/>
<text text-anchor="start" x="6.5" y="-71.7" font-family="Times,serif" font-size="14.00"> SAY </text>
<polygon fill="none" stroke="black" points="46,-66 46,-88 108,-88 108,-66 46,-66"/>
<text text-anchor="start" x="62.38" y="-71.7" font-family="Times,serif" font-size="14.00"> INT </text>
<polygon fill="none" stroke="black" points="0,-44 0,-66 46,-66 46,-44 0,-44"/>
<text text-anchor="start" x="6.5" y="-49.7" font-family="Times,serif" font-size="14.00"> SAY </text>
<polygon fill="none" stroke="black" points="46,-44 46,-66 108,-66 108,-44 46,-44"/>
<text text-anchor="start" x="54.5" y="-49.7" font-family="Times,serif" font-size="14.00"> CHAR </text>
<polygon fill="none" stroke="black" points="0,-22 0,-44 46,-44 46,-22 0,-22"/>
<text text-anchor="start" x="6.5" y="-27.7" font-family="Times,serif" font-size="14.00"> SAY </text>
<polygon fill="none" stroke="black" points="46,-22 46,-44 108,-44 108,-22 46,-22"/>
<text text-anchor="start" x="48.88" y="-27.7" font-family="Times,serif" font-size="14.00"> STRING </text>
<polygon fill="none" stroke="black" points="0,0 0,-22 46,-22 46,0 0,0"/>
<text text-anchor="start" x="6.5" y="-5.7" font-family="Times,serif" font-size="14.00"> SAY </text>
<polygon fill="none" stroke="black" points="46,0 46,-22 108,-22 108,0 46,0"/>
<text text-anchor="start" x="52.62" y="-5.7" font-family="Times,serif" font-size="14.00"> FLOAT </text>
</g>
</g>
</svg>
