<?xml version="1.0" encoding="UTF-8" standalone="no"?>
<!DOCTYPE svg PUBLIC "-//W3C//DTD SVG 1.1//EN"
 "http://www.w3.org/Graphics/SVG/1.1/DTD/svg11.dtd">
<!-- Generated by graphviz version 7.0.4 (20221203.1631)
 -->
<!-- Pages: 1 -->
<svg width="182pt" height="198pt"
 viewBox="0.00 0.00 182.00 198.00" xmlns="http://www.w3.org/2000/svg" xmlns:xlink="http://www.w3.org/1999/xlink">
<g id="graph0" class="graph" transform="scale(1 1) rotate(0) translate(36 162)">
<polygon fill="white" stroke="none" points="-36,36 -36,-162 146,-162 146,36 -36,36"/>
<!-- Foo -->
<g id="node1" class="node">
<title>Foo</title>
<polygon fill="none" stroke="black" points="0,-105 0,-126 47,-126 47,-105 0,-105"/>
<text text-anchor="start" x="3" y="-111.8" font-family="Times,serif" font-size="14.00"> Name </text>
<polygon fill="none" stroke="black" points="47,-105 47,-126 110,-126 110,-105 47,-105"/>
<text text-anchor="start" x="62.5" y="-111.8" font-family="Times,serif" font-size="14.00"> OP1 </text>
<polygon fill="none" stroke="black" points="0,-84 0,-105 47,-105 47,-84 0,-84"/>
<text text-anchor="start" x="6.5" y="-90.8" font-family="Times,serif" font-size="14.00"> SAY </text>
<polygon fill="none" stroke="black" points="47,-84 47,-105 110,-105 110,-84 47,-84"/>
<text text-anchor="start" x="61" y="-90.8" font-family="Times,serif" font-size="14.00"> REG </text>
<polygon fill="none" stroke="black" points="0,-63 0,-84 47,-84 47,-63 0,-63"/>
<text text-anchor="start" x="6.5" y="-69.8" font-family="Times,serif" font-size="14.00"> SAY </text>
<polygon fill="none" stroke="black" points="47,-63 47,-84 110,-84 110,-63 47,-63"/>
<text text-anchor="start" x="63.5" y="-69.8" font-family="Times,serif" font-size="14.00"> INT </text>
<polygon fill="none" stroke="black" points="0,-42 0,-63 47,-63 47,-42 0,-42"/>
<text text-anchor="start" x="6.5" y="-48.8" font-family="Times,serif" font-size="14.00"> SAY </text>
<polygon fill="none" stroke="black" points="47,-42 47,-63 110,-63 110,-42 47,-42"/>
<text text-anchor="start" x="55.5" y="-48.8" font-family="Times,serif" font-size="14.00"> CHAR </text>
<polygon fill="none" stroke="black" points="0,-21 0,-42 47,-42 47,-21 0,-21"/>
<text text-anchor="start" x="6.5" y="-27.8" font-family="Times,serif" font-size="14.00"> SAY </text>
<polygon fill="none" stroke="black" points="47,-21 47,-42 110,-42 110,-21 47,-21"/>
<text text-anchor="start" x="50" y="-27.8" font-family="Times,serif" font-size="14.00"> STRING </text>
<polygon fill="none" stroke="black" points="0,0 0,-21 47,-21 47,0 0,0"/>
<text text-anchor="start" x="6.5" y="-6.8" font-family="Times,serif" font-size="14.00"> SAY </text>
<polygon fill="none" stroke="black" points="47,0 47,-21 110,-21 110,0 47,0"/>
<text text-anchor="start" x="54" y="-6.8" font-family="Times,serif" font-size="14.00"> FLOAT </text>
</g>
</g>
</svg>
