<?xml version="1.0" encoding="UTF-8" standalone="no"?>
<!DOCTYPE svg PUBLIC "-//W3C//DTD SVG 1.1//EN"
 "http://www.w3.org/Graphics/SVG/1.1/DTD/svg11.dtd">
<!-- Generated by graphviz version 12.1.2 (20240928.0832)
 -->
<!-- Pages: 1 -->
<svg width="184pt" height="138pt"
 viewBox="0.00 0.00 184.00 138.00" xmlns="http://www.w3.org/2000/svg" xmlns:xlink="http://www.w3.org/1999/xlink">
<g id="graph0" class="graph" transform="scale(1 1) rotate(0) translate(36 102)">
<polygon fill="white" stroke="none" points="-36,36 -36,-102 148,-102 148,36 -36,36"/>
<!-- Foo -->
<g id="node1" class="node">
<title>Foo</title>
<polygon fill="none" stroke="black" points="0,-44 0,-66 50,-66 50,-44 0,-44"/>
<text text-anchor="start" x="4.75" y="-49.7" font-family="Times,serif" font-size="14.00"> Name </text>
<polygon fill="none" stroke="black" points="50,-44 50,-66 112,-66 112,-44 50,-44"/>
<text text-anchor="start" x="65.25" y="-49.7" font-family="Times,serif" font-size="14.00"> OP1 </text>
<polygon fill="none" stroke="black" points="0,-22 0,-44 50,-44 50,-22 0,-22"/>
<text text-anchor="start" x="2.88" y="-27.7" font-family="Times,serif" font-size="14.00"> SAYX </text>
<polygon fill="none" stroke="black" points="50,-22 50,-44 112,-44 112,-22 50,-22"/>
<text text-anchor="start" x="63.75" y="-27.7" font-family="Times,serif" font-size="14.00"> REG </text>
<polygon fill="none" stroke="black" points="0,0 0,-22 50,-22 50,0 0,0"/>
<text text-anchor="start" x="2.88" y="-5.7" font-family="Times,serif" font-size="14.00"> SAYX </text>
<polygon fill="none" stroke="black" points="50,0 50,-22 112,-22 112,0 50,0"/>
<text text-anchor="start" x="52.88" y="-5.7" font-family="Times,serif" font-size="14.00"> STRING </text>
</g>
</g>
</svg>
