<?xml version="1.0" encoding="UTF-8" standalone="no"?>
<!DOCTYPE svg PUBLIC "-//W3C//DTD SVG 1.1//EN"
 "http://www.w3.org/Graphics/SVG/1.1/DTD/svg11.dtd">
<!-- Generated by graphviz version 7.0.4 (20221203.1631)
 -->
<!-- Pages: 1 -->
<svg width="186pt" height="135pt"
 viewBox="0.00 0.00 186.00 135.00" xmlns="http://www.w3.org/2000/svg" xmlns:xlink="http://www.w3.org/1999/xlink">
<g id="graph0" class="graph" transform="scale(1 1) rotate(0) translate(36 99)">
<polygon fill="white" stroke="none" points="-36,36 -36,-99 150,-99 150,36 -36,36"/>
<!-- Foo -->
<g id="node1" class="node">
<title>Foo</title>
<polygon fill="none" stroke="black" points="0,-41.5 0,-62.5 51,-62.5 51,-41.5 0,-41.5"/>
<text text-anchor="start" x="5" y="-48.3" font-family="Times,serif" font-size="14.00"> Name </text>
<polygon fill="none" stroke="black" points="51,-41.5 51,-62.5 114,-62.5 114,-41.5 51,-41.5"/>
<text text-anchor="start" x="66.5" y="-48.3" font-family="Times,serif" font-size="14.00"> OP1 </text>
<polygon fill="none" stroke="black" points="0,-20.5 0,-41.5 51,-41.5 51,-20.5 0,-20.5"/>
<text text-anchor="start" x="3" y="-27.3" font-family="Times,serif" font-size="14.00"> SAYX </text>
<polygon fill="none" stroke="black" points="51,-20.5 51,-41.5 114,-41.5 114,-20.5 51,-20.5"/>
<text text-anchor="start" x="65" y="-27.3" font-family="Times,serif" font-size="14.00"> REG </text>
<polygon fill="none" stroke="black" points="0,0.5 0,-20.5 51,-20.5 51,0.5 0,0.5"/>
<text text-anchor="start" x="3" y="-6.3" font-family="Times,serif" font-size="14.00"> SAYX </text>
<polygon fill="none" stroke="black" points="51,0.5 51,-20.5 114,-20.5 114,0.5 51,0.5"/>
<text text-anchor="start" x="54" y="-6.3" font-family="Times,serif" font-size="14.00"> STRING </text>
</g>
</g>
</svg>
