<?xml version="1.0" encoding="UTF-8" standalone="no"?>
<!DOCTYPE svg PUBLIC "-//W3C//DTD SVG 1.1//EN"
 "http://www.w3.org/Graphics/SVG/1.1/DTD/svg11.dtd">
<!-- Generated by graphviz version 12.1.2 (20240928.0832)
 -->
<!-- Pages: 1 -->
<svg width="310pt" height="160pt"
 viewBox="0.00 0.00 310.00 160.00" xmlns="http://www.w3.org/2000/svg" xmlns:xlink="http://www.w3.org/1999/xlink">
<g id="graph0" class="graph" transform="scale(1 1) rotate(0) translate(36 124)">
<polygon fill="white" stroke="none" points="-36,36 -36,-124 274,-124 274,36 -36,36"/>
<!-- Foo -->
<g id="node1" class="node">
<title>Foo</title>
<polygon fill="none" stroke="black" points="0,-66 0,-88 74,-88 74,-66 0,-66"/>
<text text-anchor="start" x="16.75" y="-71.7" font-family="Times,serif" font-size="14.00"> Name </text>
<polygon fill="none" stroke="black" points="74,-66 74,-88 114,-88 114,-66 74,-66"/>
<text text-anchor="start" x="78.25" y="-71.7" font-family="Times,serif" font-size="14.00"> OP1 </text>
<polygon fill="none" stroke="black" points="114,-66 114,-88 176,-88 176,-66 114,-66"/>
<text text-anchor="start" x="129.25" y="-71.7" font-family="Times,serif" font-size="14.00"> OP2 </text>
<polygon fill="none" stroke="black" points="176,-66 176,-88 238,-88 238,-66 176,-66"/>
<text text-anchor="start" x="191.25" y="-71.7" font-family="Times,serif" font-size="14.00"> OP3 </text>
<polygon fill="none" stroke="black" points="0,-44 0,-66 74,-66 74,-44 0,-44"/>
<text text-anchor="start" x="2.88" y="-49.7" font-family="Times,serif" font-size="14.00"> SCONCAT </text>
<polygon fill="none" stroke="black" points="74,-44 74,-66 114,-66 114,-44 74,-44"/>
<text text-anchor="start" x="76.75" y="-49.7" font-family="Times,serif" font-size="14.00"> REG </text>
<polygon fill="none" stroke="black" points="114,-44 114,-66 176,-66 176,-44 114,-44"/>
<text text-anchor="start" x="127.75" y="-49.7" font-family="Times,serif" font-size="14.00"> REG </text>
<polygon fill="none" stroke="black" points="176,-44 176,-66 238,-66 238,-44 176,-44"/>
<text text-anchor="start" x="189.75" y="-49.7" font-family="Times,serif" font-size="14.00"> REG </text>
<polygon fill="none" stroke="black" points="0,-22 0,-44 74,-44 74,-22 0,-22"/>
<text text-anchor="start" x="2.88" y="-27.7" font-family="Times,serif" font-size="14.00"> SCONCAT </text>
<polygon fill="none" stroke="black" points="74,-22 74,-44 114,-44 114,-22 74,-22"/>
<text text-anchor="start" x="76.75" y="-27.7" font-family="Times,serif" font-size="14.00"> REG </text>
<polygon fill="none" stroke="black" points="114,-22 114,-44 176,-44 176,-22 114,-22"/>
<text text-anchor="start" x="127.75" y="-27.7" font-family="Times,serif" font-size="14.00"> REG </text>
<polygon fill="none" stroke="black" points="176,-22 176,-44 238,-44 238,-22 176,-22"/>
<text text-anchor="start" x="178.88" y="-27.7" font-family="Times,serif" font-size="14.00"> STRING </text>
<polygon fill="none" stroke="black" points="0,0 0,-22 74,-22 74,0 0,0"/>
<text text-anchor="start" x="2.88" y="-5.7" font-family="Times,serif" font-size="14.00"> SCONCAT </text>
<polygon fill="none" stroke="black" points="74,0 74,-22 114,-22 114,0 74,0"/>
<text text-anchor="start" x="76.75" y="-5.7" font-family="Times,serif" font-size="14.00"> REG </text>
<polygon fill="none" stroke="black" points="114,0 114,-22 176,-22 176,0 114,0"/>
<text text-anchor="start" x="116.88" y="-5.7" font-family="Times,serif" font-size="14.00"> STRING </text>
<polygon fill="none" stroke="black" points="176,0 176,-22 238,-22 238,0 176,0"/>
<text text-anchor="start" x="189.75" y="-5.7" font-family="Times,serif" font-size="14.00"> REG </text>
</g>
</g>
</svg>
