<?xml version="1.0" encoding="UTF-8" standalone="no"?>
<!DOCTYPE svg PUBLIC "-//W3C//DTD SVG 1.1//EN"
 "http://www.w3.org/Graphics/SVG/1.1/DTD/svg11.dtd">
<!-- Generated by graphviz version 7.0.4 (20221203.1631)
 -->
<!-- Pages: 1 -->
<svg width="370pt" height="156pt"
 viewBox="0.00 0.00 370.00 156.00" xmlns="http://www.w3.org/2000/svg" xmlns:xlink="http://www.w3.org/1999/xlink">
<g id="graph0" class="graph" transform="scale(1 1) rotate(0) translate(36 120)">
<polygon fill="white" stroke="none" points="-36,36 -36,-120 334,-120 334,36 -36,36"/>
<!-- Foo -->
<g id="node1" class="node">
<title>Foo</title>
<polygon fill="none" stroke="black" points="0,-63 0,-84 56,-84 56,-63 0,-63"/>
<text text-anchor="start" x="3" y="-69.8" font-family="Times,serif" font-size="14.00"> Opcode </text>
<polygon fill="none" stroke="black" points="56,-63 56,-84 131,-84 131,-63 56,-63"/>
<text text-anchor="start" x="73" y="-69.8" font-family="Times,serif" font-size="14.00"> Name </text>
<polygon fill="none" stroke="black" points="131,-63 131,-84 172,-84 172,-63 131,-63"/>
<text text-anchor="start" x="135.5" y="-69.8" font-family="Times,serif" font-size="14.00"> OP1 </text>
<polygon fill="none" stroke="black" points="172,-63 172,-84 235,-84 235,-63 172,-63"/>
<text text-anchor="start" x="187.5" y="-69.8" font-family="Times,serif" font-size="14.00"> OP2 </text>
<polygon fill="none" stroke="black" points="235,-63 235,-84 298,-84 298,-63 235,-63"/>
<text text-anchor="start" x="250.5" y="-69.8" font-family="Times,serif" font-size="14.00"> OP3 </text>
<polygon fill="none" stroke="black" points="0,-42 0,-63 56,-63 56,-42 0,-42"/>
<text text-anchor="start" x="4" y="-48.8" font-family="Times,serif" font-size="14.00"> 0x004c </text>
<polygon fill="none" stroke="black" points="56,-42 56,-63 131,-63 131,-42 56,-42"/>
<text text-anchor="start" x="59" y="-48.8" font-family="Times,serif" font-size="14.00"> SCONCAT </text>
<polygon fill="none" stroke="black" points="131,-42 131,-63 172,-63 172,-42 131,-42"/>
<text text-anchor="start" x="134" y="-48.8" font-family="Times,serif" font-size="14.00"> REG </text>
<polygon fill="none" stroke="black" points="172,-42 172,-63 235,-63 235,-42 172,-42"/>
<text text-anchor="start" x="186" y="-48.8" font-family="Times,serif" font-size="14.00"> REG </text>
<polygon fill="none" stroke="black" points="235,-42 235,-63 298,-63 298,-42 235,-42"/>
<text text-anchor="start" x="249" y="-48.8" font-family="Times,serif" font-size="14.00"> REG </text>
<polygon fill="none" stroke="black" points="0,-21 0,-42 56,-42 56,-21 0,-21"/>
<text text-anchor="start" x="3.5" y="-27.8" font-family="Times,serif" font-size="14.00"> 0x004d </text>
<polygon fill="none" stroke="black" points="56,-21 56,-42 131,-42 131,-21 56,-21"/>
<text text-anchor="start" x="59" y="-27.8" font-family="Times,serif" font-size="14.00"> SCONCAT </text>
<polygon fill="none" stroke="black" points="131,-21 131,-42 172,-42 172,-21 131,-21"/>
<text text-anchor="start" x="134" y="-27.8" font-family="Times,serif" font-size="14.00"> REG </text>
<polygon fill="none" stroke="black" points="172,-21 172,-42 235,-42 235,-21 172,-21"/>
<text text-anchor="start" x="186" y="-27.8" font-family="Times,serif" font-size="14.00"> REG </text>
<polygon fill="none" stroke="black" points="235,-21 235,-42 298,-42 298,-21 235,-21"/>
<text text-anchor="start" x="238" y="-27.8" font-family="Times,serif" font-size="14.00"> STRING </text>
<polygon fill="none" stroke="black" points="0,0 0,-21 56,-21 56,0 0,0"/>
<text text-anchor="start" x="4" y="-6.8" font-family="Times,serif" font-size="14.00"> 0x004e </text>
<polygon fill="none" stroke="black" points="56,0 56,-21 131,-21 131,0 56,0"/>
<text text-anchor="start" x="59" y="-6.8" font-family="Times,serif" font-size="14.00"> SCONCAT </text>
<polygon fill="none" stroke="black" points="131,0 131,-21 172,-21 172,0 131,0"/>
<text text-anchor="start" x="134" y="-6.8" font-family="Times,serif" font-size="14.00"> REG </text>
<polygon fill="none" stroke="black" points="172,0 172,-21 235,-21 235,0 172,0"/>
<text text-anchor="start" x="175" y="-6.8" font-family="Times,serif" font-size="14.00"> STRING </text>
<polygon fill="none" stroke="black" points="235,0 235,-21 298,-21 298,0 235,0"/>
<text text-anchor="start" x="249" y="-6.8" font-family="Times,serif" font-size="14.00"> REG </text>
</g>
</g>
</svg>
