<?xml version="1.0" encoding="UTF-8" standalone="no"?>
<!DOCTYPE svg PUBLIC "-//W3C//DTD SVG 1.1//EN"
 "http://www.w3.org/Graphics/SVG/1.1/DTD/svg11.dtd">
<!-- Generated by graphviz version 7.0.4 (20221203.1631)
 -->
<!-- Pages: 1 -->
<svg width="314pt" height="156pt"
 viewBox="0.00 0.00 314.00 156.00" xmlns="http://www.w3.org/2000/svg" xmlns:xlink="http://www.w3.org/1999/xlink">
<g id="graph0" class="graph" transform="scale(1 1) rotate(0) translate(36 120)">
<polygon fill="white" stroke="none" points="-36,36 -36,-120 278,-120 278,36 -36,36"/>
<!-- Foo -->
<g id="node1" class="node">
<title>Foo</title>
<polygon fill="none" stroke="black" points="0,-63 0,-84 75,-84 75,-63 0,-63"/>
<text text-anchor="start" x="17" y="-69.8" font-family="Times,serif" font-size="14.00"> Name </text>
<polygon fill="none" stroke="black" points="75,-63 75,-84 116,-84 116,-63 75,-63"/>
<text text-anchor="start" x="79.5" y="-69.8" font-family="Times,serif" font-size="14.00"> OP1 </text>
<polygon fill="none" stroke="black" points="116,-63 116,-84 179,-84 179,-63 116,-63"/>
<text text-anchor="start" x="131.5" y="-69.8" font-family="Times,serif" font-size="14.00"> OP2 </text>
<polygon fill="none" stroke="black" points="179,-63 179,-84 242,-84 242,-63 179,-63"/>
<text text-anchor="start" x="194.5" y="-69.8" font-family="Times,serif" font-size="14.00"> OP3 </text>
<polygon fill="none" stroke="black" points="0,-42 0,-63 75,-63 75,-42 0,-42"/>
<text text-anchor="start" x="3" y="-48.8" font-family="Times,serif" font-size="14.00"> SCONCAT </text>
<polygon fill="none" stroke="black" points="75,-42 75,-63 116,-63 116,-42 75,-42"/>
<text text-anchor="start" x="78" y="-48.8" font-family="Times,serif" font-size="14.00"> REG </text>
<polygon fill="none" stroke="black" points="116,-42 116,-63 179,-63 179,-42 116,-42"/>
<text text-anchor="start" x="130" y="-48.8" font-family="Times,serif" font-size="14.00"> REG </text>
<polygon fill="none" stroke="black" points="179,-42 179,-63 242,-63 242,-42 179,-42"/>
<text text-anchor="start" x="193" y="-48.8" font-family="Times,serif" font-size="14.00"> REG </text>
<polygon fill="none" stroke="black" points="0,-21 0,-42 75,-42 75,-21 0,-21"/>
<text text-anchor="start" x="3" y="-27.8" font-family="Times,serif" font-size="14.00"> SCONCAT </text>
<polygon fill="none" stroke="black" points="75,-21 75,-42 116,-42 116,-21 75,-21"/>
<text text-anchor="start" x="78" y="-27.8" font-family="Times,serif" font-size="14.00"> REG </text>
<polygon fill="none" stroke="black" points="116,-21 116,-42 179,-42 179,-21 116,-21"/>
<text text-anchor="start" x="130" y="-27.8" font-family="Times,serif" font-size="14.00"> REG </text>
<polygon fill="none" stroke="black" points="179,-21 179,-42 242,-42 242,-21 179,-21"/>
<text text-anchor="start" x="182" y="-27.8" font-family="Times,serif" font-size="14.00"> STRING </text>
<polygon fill="none" stroke="black" points="0,0 0,-21 75,-21 75,0 0,0"/>
<text text-anchor="start" x="3" y="-6.8" font-family="Times,serif" font-size="14.00"> SCONCAT </text>
<polygon fill="none" stroke="black" points="75,0 75,-21 116,-21 116,0 75,0"/>
<text text-anchor="start" x="78" y="-6.8" font-family="Times,serif" font-size="14.00"> REG </text>
<polygon fill="none" stroke="black" points="116,0 116,-21 179,-21 179,0 116,0"/>
<text text-anchor="start" x="119" y="-6.8" font-family="Times,serif" font-size="14.00"> STRING </text>
<polygon fill="none" stroke="black" points="179,0 179,-21 242,-21 242,0 179,0"/>
<text text-anchor="start" x="193" y="-6.8" font-family="Times,serif" font-size="14.00"> REG </text>
</g>
</g>
</svg>
