<?xml version="1.0" encoding="UTF-8" standalone="no"?>
<!DOCTYPE svg PUBLIC "-//W3C//DTD SVG 1.1//EN"
 "http://www.w3.org/Graphics/SVG/1.1/DTD/svg11.dtd">
<!-- Generated by graphviz version 7.0.4 (20221203.1631)
 -->
<!-- Pages: 1 -->
<svg width="223pt" height="114pt"
 viewBox="0.00 0.00 223.00 114.00" xmlns="http://www.w3.org/2000/svg" xmlns:xlink="http://www.w3.org/1999/xlink">
<g id="graph0" class="graph" transform="scale(1 1) rotate(0) translate(36 78)">
<polygon fill="white" stroke="none" points="-36,36 -36,-78 187,-78 187,36 -36,36"/>
<!-- Foo -->
<g id="node1" class="node">
<title>Foo</title>
<polygon fill="none" stroke="black" points="0.5,-21 0.5,-42 72.5,-42 72.5,-21 0.5,-21"/>
<text text-anchor="start" x="16" y="-27.8" font-family="Times,serif" font-size="14.00"> Name </text>
<polygon fill="none" stroke="black" points="72.5,-21 72.5,-42 113.5,-42 113.5,-21 72.5,-21"/>
<text text-anchor="start" x="77" y="-27.8" font-family="Times,serif" font-size="14.00"> OP1 </text>
<polygon fill="none" stroke="black" points="113.5,-21 113.5,-42 151.5,-42 151.5,-21 113.5,-21"/>
<text text-anchor="start" x="116.5" y="-27.8" font-family="Times,serif" font-size="14.00"> OP2 </text>
<polygon fill="none" stroke="black" points="0.5,0 0.5,-21 72.5,-21 72.5,0 0.5,0"/>
<text text-anchor="start" x="3.5" y="-6.8" font-family="Times,serif" font-size="14.00"> SETORTP </text>
<polygon fill="none" stroke="black" points="72.5,0 72.5,-21 113.5,-21 113.5,0 72.5,0"/>
<text text-anchor="start" x="75.5" y="-6.8" font-family="Times,serif" font-size="14.00"> REG </text>
<polygon fill="none" stroke="black" points="113.5,0 113.5,-21 151.5,-21 151.5,0 113.5,0"/>
<text text-anchor="start" x="117.5" y="-6.8" font-family="Times,serif" font-size="14.00"> INT </text>
</g>
</g>
</svg>
