<?xml version="1.0" encoding="UTF-8" standalone="no"?>
<!DOCTYPE svg PUBLIC "-//W3C//DTD SVG 1.1//EN"
 "http://www.w3.org/Graphics/SVG/1.1/DTD/svg11.dtd">
<!-- Generated by graphviz version 7.0.4 (20221203.1631)
 -->
<!-- Pages: 1 -->
<svg width="342pt" height="219pt"
 viewBox="0.00 0.00 342.00 219.00" xmlns="http://www.w3.org/2000/svg" xmlns:xlink="http://www.w3.org/1999/xlink">
<g id="graph0" class="graph" transform="scale(1 1) rotate(0) translate(36 183)">
<polygon fill="white" stroke="none" points="-36,36 -36,-183 306,-183 306,36 -36,36"/>
<!-- Foo -->
<g id="node1" class="node">
<title>Foo</title>
<polygon fill="none" stroke="black" points="0,-125.5 0,-146.5 56,-146.5 56,-125.5 0,-125.5"/>
<text text-anchor="start" x="3" y="-132.3" font-family="Times,serif" font-size="14.00"> Opcode </text>
<polygon fill="none" stroke="black" points="56,-125.5 56,-146.5 103,-146.5 103,-125.5 56,-125.5"/>
<text text-anchor="start" x="59" y="-132.3" font-family="Times,serif" font-size="14.00"> Name </text>
<polygon fill="none" stroke="black" points="103,-125.5 103,-146.5 144,-146.5 144,-125.5 103,-125.5"/>
<text text-anchor="start" x="107.5" y="-132.3" font-family="Times,serif" font-size="14.00"> OP1 </text>
<polygon fill="none" stroke="black" points="144,-125.5 144,-146.5 207,-146.5 207,-125.5 144,-125.5"/>
<text text-anchor="start" x="159.5" y="-132.3" font-family="Times,serif" font-size="14.00"> OP2 </text>
<polygon fill="none" stroke="black" points="207,-125.5 207,-146.5 270,-146.5 270,-125.5 207,-125.5"/>
<text text-anchor="start" x="222.5" y="-132.3" font-family="Times,serif" font-size="14.00"> OP3 </text>
<polygon fill="none" stroke="black" points="0,-104.5 0,-125.5 56,-125.5 56,-104.5 0,-104.5"/>
<text text-anchor="start" x="3.5" y="-111.3" font-family="Times,serif" font-size="14.00"> 0x0090 </text>
<polygon fill="none" stroke="black" points="56,-104.5 56,-125.5 103,-125.5 103,-104.5 56,-104.5"/>
<text text-anchor="start" x="64" y="-111.3" font-family="Times,serif" font-size="14.00"> SLT </text>
<polygon fill="none" stroke="black" points="103,-104.5 103,-125.5 144,-125.5 144,-104.5 103,-104.5"/>
<text text-anchor="start" x="106" y="-111.3" font-family="Times,serif" font-size="14.00"> REG </text>
<polygon fill="none" stroke="black" points="144,-104.5 144,-125.5 207,-125.5 207,-104.5 144,-104.5"/>
<text text-anchor="start" x="158" y="-111.3" font-family="Times,serif" font-size="14.00"> REG </text>
<polygon fill="none" stroke="black" points="207,-104.5 207,-125.5 270,-125.5 270,-104.5 207,-104.5"/>
<text text-anchor="start" x="221" y="-111.3" font-family="Times,serif" font-size="14.00"> REG </text>
<polygon fill="none" stroke="black" points="0,-83.5 0,-104.5 56,-104.5 56,-83.5 0,-83.5"/>
<text text-anchor="start" x="3.5" y="-90.3" font-family="Times,serif" font-size="14.00"> 0x0091 </text>
<polygon fill="none" stroke="black" points="56,-83.5 56,-104.5 103,-104.5 103,-83.5 56,-83.5"/>
<text text-anchor="start" x="64" y="-90.3" font-family="Times,serif" font-size="14.00"> SLT </text>
<polygon fill="none" stroke="black" points="103,-83.5 103,-104.5 144,-104.5 144,-83.5 103,-83.5"/>
<text text-anchor="start" x="106" y="-90.3" font-family="Times,serif" font-size="14.00"> REG </text>
<polygon fill="none" stroke="black" points="144,-83.5 144,-104.5 207,-104.5 207,-83.5 144,-83.5"/>
<text text-anchor="start" x="158" y="-90.3" font-family="Times,serif" font-size="14.00"> REG </text>
<polygon fill="none" stroke="black" points="207,-83.5 207,-104.5 270,-104.5 270,-83.5 207,-83.5"/>
<text text-anchor="start" x="210" y="-90.3" font-family="Times,serif" font-size="14.00"> STRING </text>
<polygon fill="none" stroke="black" points="0,-62.5 0,-83.5 56,-83.5 56,-62.5 0,-62.5"/>
<text text-anchor="start" x="3.5" y="-69.3" font-family="Times,serif" font-size="14.00"> 0x0092 </text>
<polygon fill="none" stroke="black" points="56,-62.5 56,-83.5 103,-83.5 103,-62.5 56,-62.5"/>
<text text-anchor="start" x="64" y="-69.3" font-family="Times,serif" font-size="14.00"> SLT </text>
<polygon fill="none" stroke="black" points="103,-62.5 103,-83.5 144,-83.5 144,-62.5 103,-62.5"/>
<text text-anchor="start" x="106" y="-69.3" font-family="Times,serif" font-size="14.00"> REG </text>
<polygon fill="none" stroke="black" points="144,-62.5 144,-83.5 207,-83.5 207,-62.5 144,-62.5"/>
<text text-anchor="start" x="147" y="-69.3" font-family="Times,serif" font-size="14.00"> STRING </text>
<polygon fill="none" stroke="black" points="207,-62.5 207,-83.5 270,-83.5 270,-62.5 207,-62.5"/>
<text text-anchor="start" x="221" y="-69.3" font-family="Times,serif" font-size="14.00"> REG </text>
<polygon fill="none" stroke="black" points="0,-41.5 0,-62.5 56,-62.5 56,-41.5 0,-41.5"/>
<text text-anchor="start" x="3.5" y="-48.3" font-family="Times,serif" font-size="14.00"> 0x0093 </text>
<polygon fill="none" stroke="black" points="56,-41.5 56,-62.5 103,-62.5 103,-41.5 56,-41.5"/>
<text text-anchor="start" x="64" y="-48.3" font-family="Times,serif" font-size="14.00"> SLT </text>
<polygon fill="none" stroke="black" points="103,-41.5 103,-62.5 144,-62.5 144,-41.5 103,-41.5"/>
<text text-anchor="start" x="106" y="-48.3" font-family="Times,serif" font-size="14.00"> REG </text>
<polygon fill="none" stroke="black" points="144,-41.5 144,-62.5 207,-62.5 207,-41.5 144,-41.5"/>
<text text-anchor="start" x="158" y="-48.3" font-family="Times,serif" font-size="14.00"> REG </text>
<polygon fill="none" stroke="black" points="207,-41.5 207,-62.5 270,-62.5 270,-41.5 207,-41.5"/>
<text text-anchor="start" x="221" y="-48.3" font-family="Times,serif" font-size="14.00"> REG </text>
<polygon fill="none" stroke="black" points="0,-20.5 0,-41.5 56,-41.5 56,-20.5 0,-20.5"/>
<text text-anchor="start" x="3.5" y="-27.3" font-family="Times,serif" font-size="14.00"> 0x0094 </text>
<polygon fill="none" stroke="black" points="56,-20.5 56,-41.5 103,-41.5 103,-20.5 56,-20.5"/>
<text text-anchor="start" x="64" y="-27.3" font-family="Times,serif" font-size="14.00"> SLT </text>
<polygon fill="none" stroke="black" points="103,-20.5 103,-41.5 144,-41.5 144,-20.5 103,-20.5"/>
<text text-anchor="start" x="106" y="-27.3" font-family="Times,serif" font-size="14.00"> REG </text>
<polygon fill="none" stroke="black" points="144,-20.5 144,-41.5 207,-41.5 207,-20.5 144,-20.5"/>
<text text-anchor="start" x="158" y="-27.3" font-family="Times,serif" font-size="14.00"> REG </text>
<polygon fill="none" stroke="black" points="207,-20.5 207,-41.5 270,-41.5 270,-20.5 207,-20.5"/>
<text text-anchor="start" x="210" y="-27.3" font-family="Times,serif" font-size="14.00"> STRING </text>
<polygon fill="none" stroke="black" points="0,0.5 0,-20.5 56,-20.5 56,0.5 0,0.5"/>
<text text-anchor="start" x="3.5" y="-6.3" font-family="Times,serif" font-size="14.00"> 0x0095 </text>
<polygon fill="none" stroke="black" points="56,0.5 56,-20.5 103,-20.5 103,0.5 56,0.5"/>
<text text-anchor="start" x="64" y="-6.3" font-family="Times,serif" font-size="14.00"> SLT </text>
<polygon fill="none" stroke="black" points="103,0.5 103,-20.5 144,-20.5 144,0.5 103,0.5"/>
<text text-anchor="start" x="106" y="-6.3" font-family="Times,serif" font-size="14.00"> REG </text>
<polygon fill="none" stroke="black" points="144,0.5 144,-20.5 207,-20.5 207,0.5 144,0.5"/>
<text text-anchor="start" x="147" y="-6.3" font-family="Times,serif" font-size="14.00"> STRING </text>
<polygon fill="none" stroke="black" points="207,0.5 207,-20.5 270,-20.5 270,0.5 207,0.5"/>
<text text-anchor="start" x="221" y="-6.3" font-family="Times,serif" font-size="14.00"> REG </text>
</g>
</g>
</svg>
