<?xml version="1.0" encoding="UTF-8" standalone="no"?>
<!DOCTYPE svg PUBLIC "-//W3C//DTD SVG 1.1//EN"
 "http://www.w3.org/Graphics/SVG/1.1/DTD/svg11.dtd">
<!-- Generated by graphviz version 7.0.4 (20221203.1631)
 -->
<!-- Pages: 1 -->
<svg width="342pt" height="156pt"
 viewBox="0.00 0.00 342.00 156.00" xmlns="http://www.w3.org/2000/svg" xmlns:xlink="http://www.w3.org/1999/xlink">
<g id="graph0" class="graph" transform="scale(1 1) rotate(0) translate(36 120)">
<polygon fill="white" stroke="none" points="-36,36 -36,-120 306,-120 306,36 -36,36"/>
<!-- Foo -->
<g id="node1" class="node">
<title>Foo</title>
<polygon fill="none" stroke="black" points="0,-63 0,-84 56,-84 56,-63 0,-63"/>
<text text-anchor="start" x="3" y="-69.8" font-family="Times,serif" font-size="14.00"> Opcode </text>
<polygon fill="none" stroke="black" points="56,-63 56,-84 103,-84 103,-63 56,-63"/>
<text text-anchor="start" x="59" y="-69.8" font-family="Times,serif" font-size="14.00"> Name </text>
<polygon fill="none" stroke="black" points="103,-63 103,-84 144,-84 144,-63 103,-63"/>
<text text-anchor="start" x="107.5" y="-69.8" font-family="Times,serif" font-size="14.00"> OP1 </text>
<polygon fill="none" stroke="black" points="144,-63 144,-84 207,-84 207,-63 144,-63"/>
<text text-anchor="start" x="159.5" y="-69.8" font-family="Times,serif" font-size="14.00"> OP2 </text>
<polygon fill="none" stroke="black" points="207,-63 207,-84 270,-84 270,-63 207,-63"/>
<text text-anchor="start" x="222.5" y="-69.8" font-family="Times,serif" font-size="14.00"> OP3 </text>
<polygon fill="none" stroke="black" points="0,-42 0,-63 56,-63 56,-42 0,-42"/>
<text text-anchor="start" x="3.5" y="-48.8" font-family="Times,serif" font-size="14.00"> 0x0093 </text>
<polygon fill="none" stroke="black" points="56,-42 56,-63 103,-63 103,-42 56,-42"/>
<text text-anchor="start" x="59.5" y="-48.8" font-family="Times,serif" font-size="14.00"> SLTE </text>
<polygon fill="none" stroke="black" points="103,-42 103,-63 144,-63 144,-42 103,-42"/>
<text text-anchor="start" x="106" y="-48.8" font-family="Times,serif" font-size="14.00"> REG </text>
<polygon fill="none" stroke="black" points="144,-42 144,-63 207,-63 207,-42 144,-42"/>
<text text-anchor="start" x="158" y="-48.8" font-family="Times,serif" font-size="14.00"> REG </text>
<polygon fill="none" stroke="black" points="207,-42 207,-63 270,-63 270,-42 207,-42"/>
<text text-anchor="start" x="221" y="-48.8" font-family="Times,serif" font-size="14.00"> REG </text>
<polygon fill="none" stroke="black" points="0,-21 0,-42 56,-42 56,-21 0,-21"/>
<text text-anchor="start" x="3.5" y="-27.8" font-family="Times,serif" font-size="14.00"> 0x0094 </text>
<polygon fill="none" stroke="black" points="56,-21 56,-42 103,-42 103,-21 56,-21"/>
<text text-anchor="start" x="59.5" y="-27.8" font-family="Times,serif" font-size="14.00"> SLTE </text>
<polygon fill="none" stroke="black" points="103,-21 103,-42 144,-42 144,-21 103,-21"/>
<text text-anchor="start" x="106" y="-27.8" font-family="Times,serif" font-size="14.00"> REG </text>
<polygon fill="none" stroke="black" points="144,-21 144,-42 207,-42 207,-21 144,-21"/>
<text text-anchor="start" x="158" y="-27.8" font-family="Times,serif" font-size="14.00"> REG </text>
<polygon fill="none" stroke="black" points="207,-21 207,-42 270,-42 270,-21 207,-21"/>
<text text-anchor="start" x="210" y="-27.8" font-family="Times,serif" font-size="14.00"> STRING </text>
<polygon fill="none" stroke="black" points="0,0 0,-21 56,-21 56,0 0,0"/>
<text text-anchor="start" x="3.5" y="-6.8" font-family="Times,serif" font-size="14.00"> 0x0095 </text>
<polygon fill="none" stroke="black" points="56,0 56,-21 103,-21 103,0 56,0"/>
<text text-anchor="start" x="59.5" y="-6.8" font-family="Times,serif" font-size="14.00"> SLTE </text>
<polygon fill="none" stroke="black" points="103,0 103,-21 144,-21 144,0 103,0"/>
<text text-anchor="start" x="106" y="-6.8" font-family="Times,serif" font-size="14.00"> REG </text>
<polygon fill="none" stroke="black" points="144,0 144,-21 207,-21 207,0 144,0"/>
<text text-anchor="start" x="147" y="-6.8" font-family="Times,serif" font-size="14.00"> STRING </text>
<polygon fill="none" stroke="black" points="207,0 207,-21 270,-21 270,0 207,0"/>
<text text-anchor="start" x="221" y="-6.8" font-family="Times,serif" font-size="14.00"> REG </text>
</g>
</g>
</svg>
