<?xml version="1.0" encoding="UTF-8" standalone="no"?>
<!DOCTYPE svg PUBLIC "-//W3C//DTD SVG 1.1//EN"
 "http://www.w3.org/Graphics/SVG/1.1/DTD/svg11.dtd">
<!-- Generated by graphviz version 14.1.4 (20260321.0153)
 -->
<!-- Pages: 1 -->
<svg width="304pt" height="117pt"
 viewBox="0.00 0.00 304.00 117.00" xmlns="http://www.w3.org/2000/svg" xmlns:xlink="http://www.w3.org/1999/xlink">
<g id="graph0" class="graph" transform="scale(1 1) rotate(0) translate(36 81)">
<polygon fill="white" stroke="none" points="-36,36 -36,-81 267.75,-81 267.75,36 -36,36"/>
<!-- Foo -->
<g id="node1" class="node">
<title>Foo</title>
<polygon fill="none" stroke="black" points="0,-22.5 0,-45 110.25,-45 110.25,-22.5 0,-22.5"/>
<text xml:space="preserve" text-anchor="start" x="34.88" y="-29.25" font-family="Times,serif" font-size="14.00"> Name </text>
<polygon fill="none" stroke="black" points="110.25,-22.5 110.25,-45 150.75,-45 150.75,-22.5 110.25,-22.5"/>
<text xml:space="preserve" text-anchor="start" x="114.75" y="-29.25" font-family="Times,serif" font-size="14.00"> OP1 </text>
<polygon fill="none" stroke="black" points="150.75,-22.5 150.75,-45 191.25,-45 191.25,-22.5 150.75,-22.5"/>
<text xml:space="preserve" text-anchor="start" x="155.25" y="-29.25" font-family="Times,serif" font-size="14.00"> OP2 </text>
<polygon fill="none" stroke="black" points="191.25,-22.5 191.25,-45 231.75,-45 231.75,-22.5 191.25,-22.5"/>
<text xml:space="preserve" text-anchor="start" x="195.75" y="-29.25" font-family="Times,serif" font-size="14.00"> OP3 </text>
<polygon fill="none" stroke="black" points="0,0 0,-22.5 110.25,-22.5 110.25,0 0,0"/>
<text xml:space="preserve" text-anchor="start" x="3" y="-6.75" font-family="Times,serif" font-size="14.00"> STEMVALUEAT </text>
<polygon fill="none" stroke="black" points="110.25,0 110.25,-22.5 150.75,-22.5 150.75,0 110.25,0"/>
<text xml:space="preserve" text-anchor="start" x="113.25" y="-6.75" font-family="Times,serif" font-size="14.00"> REG </text>
<polygon fill="none" stroke="black" points="150.75,0 150.75,-22.5 191.25,-22.5 191.25,0 150.75,0"/>
<text xml:space="preserve" text-anchor="start" x="153.75" y="-6.75" font-family="Times,serif" font-size="14.00"> REG </text>
<polygon fill="none" stroke="black" points="191.25,0 191.25,-22.5 231.75,-22.5 231.75,0 191.25,0"/>
<text xml:space="preserve" text-anchor="start" x="194.25" y="-6.75" font-family="Times,serif" font-size="14.00"> REG </text>
</g>
</g>
</svg>
