<?xml version="1.0" encoding="UTF-8" standalone="no"?>
<!DOCTYPE svg PUBLIC "-//W3C//DTD SVG 1.1//EN"
 "http://www.w3.org/Graphics/SVG/1.1/DTD/svg11.dtd">
<!-- Generated by graphviz version 7.0.4 (20221203.1631)
 -->
<!-- Pages: 1 -->
<svg width="271pt" height="135pt"
 viewBox="0.00 0.00 271.00 135.00" xmlns="http://www.w3.org/2000/svg" xmlns:xlink="http://www.w3.org/1999/xlink">
<g id="graph0" class="graph" transform="scale(1 1) rotate(0) translate(36 99)">
<polygon fill="white" stroke="none" points="-36,36 -36,-99 235,-99 235,36 -36,36"/>
<!-- Foo -->
<g id="node1" class="node">
<title>Foo</title>
<polygon fill="none" stroke="black" points="0.5,-41.5 0.5,-62.5 76.5,-62.5 76.5,-41.5 0.5,-41.5"/>
<text text-anchor="start" x="18" y="-48.3" font-family="Times,serif" font-size="14.00"> Name </text>
<polygon fill="none" stroke="black" points="76.5,-41.5 76.5,-62.5 117.5,-62.5 117.5,-41.5 76.5,-41.5"/>
<text text-anchor="start" x="81" y="-48.3" font-family="Times,serif" font-size="14.00"> OP1 </text>
<polygon fill="none" stroke="black" points="117.5,-41.5 117.5,-62.5 158.5,-62.5 158.5,-41.5 117.5,-41.5"/>
<text text-anchor="start" x="122" y="-48.3" font-family="Times,serif" font-size="14.00"> OP2 </text>
<polygon fill="none" stroke="black" points="158.5,-41.5 158.5,-62.5 199.5,-62.5 199.5,-41.5 158.5,-41.5"/>
<text text-anchor="start" x="163" y="-48.3" font-family="Times,serif" font-size="14.00"> OP3 </text>
<polygon fill="none" stroke="black" points="0.5,-20.5 0.5,-41.5 76.5,-41.5 76.5,-20.5 0.5,-20.5"/>
<text text-anchor="start" x="3.5" y="-27.3" font-family="Times,serif" font-size="14.00"> STRCHAR </text>
<polygon fill="none" stroke="black" points="76.5,-20.5 76.5,-41.5 117.5,-41.5 117.5,-20.5 76.5,-20.5"/>
<text text-anchor="start" x="79.5" y="-27.3" font-family="Times,serif" font-size="14.00"> REG </text>
<polygon fill="none" stroke="black" points="117.5,-20.5 117.5,-41.5 158.5,-41.5 158.5,-20.5 117.5,-20.5"/>
<text text-anchor="start" x="120.5" y="-27.3" font-family="Times,serif" font-size="14.00"> REG </text>
<polygon fill="none" stroke="black" points="0.5,0.5 0.5,-20.5 76.5,-20.5 76.5,0.5 0.5,0.5"/>
<text text-anchor="start" x="3.5" y="-6.3" font-family="Times,serif" font-size="14.00"> STRCHAR </text>
<polygon fill="none" stroke="black" points="76.5,0.5 76.5,-20.5 117.5,-20.5 117.5,0.5 76.5,0.5"/>
<text text-anchor="start" x="79.5" y="-6.3" font-family="Times,serif" font-size="14.00"> REG </text>
<polygon fill="none" stroke="black" points="117.5,0.5 117.5,-20.5 158.5,-20.5 158.5,0.5 117.5,0.5"/>
<text text-anchor="start" x="120.5" y="-6.3" font-family="Times,serif" font-size="14.00"> REG </text>
<polygon fill="none" stroke="black" points="158.5,0.5 158.5,-20.5 199.5,-20.5 199.5,0.5 158.5,0.5"/>
<text text-anchor="start" x="161.5" y="-6.3" font-family="Times,serif" font-size="14.00"> REG </text>
</g>
</g>
</svg>
