<?xml version="1.0" encoding="UTF-8" standalone="no"?>
<!DOCTYPE svg PUBLIC "-//W3C//DTD SVG 1.1//EN"
 "http://www.w3.org/Graphics/SVG/1.1/DTD/svg11.dtd">
<!-- Generated by graphviz version 12.2.1 (20241206.2353)
 -->
<!-- Pages: 1 -->
<svg width="269pt" height="140pt"
 viewBox="0.00 0.00 269.25 139.50" xmlns="http://www.w3.org/2000/svg" xmlns:xlink="http://www.w3.org/1999/xlink">
<g id="graph0" class="graph" transform="scale(1 1) rotate(0) translate(36 103.5)">
<polygon fill="white" stroke="none" points="-36,36 -36,-103.5 233.25,-103.5 233.25,36 -36,36"/>
<!-- Foo -->
<g id="node1" class="node">
<title>Foo</title>
<polygon fill="none" stroke="black" points="0,-45 0,-67.5 75.75,-67.5 75.75,-45 0,-45"/>
<text text-anchor="start" x="17.62" y="-51.2" font-family="Times,serif" font-size="14.00"> Name </text>
<polygon fill="none" stroke="black" points="75.75,-45 75.75,-67.5 116.25,-67.5 116.25,-45 75.75,-45"/>
<text text-anchor="start" x="80.25" y="-51.2" font-family="Times,serif" font-size="14.00"> OP1 </text>
<polygon fill="none" stroke="black" points="116.25,-45 116.25,-67.5 156.75,-67.5 156.75,-45 116.25,-45"/>
<text text-anchor="start" x="120.75" y="-51.2" font-family="Times,serif" font-size="14.00"> OP2 </text>
<polygon fill="none" stroke="black" points="0,-22.5 0,-45 75.75,-45 75.75,-22.5 0,-22.5"/>
<text text-anchor="start" x="3" y="-28.7" font-family="Times,serif" font-size="14.00"> STRCHAR </text>
<polygon fill="none" stroke="black" points="75.75,-22.5 75.75,-45 116.25,-45 116.25,-22.5 75.75,-22.5"/>
<text text-anchor="start" x="78.75" y="-28.7" font-family="Times,serif" font-size="14.00"> REG </text>
<polygon fill="none" stroke="black" points="116.25,-22.5 116.25,-45 156.75,-45 156.75,-22.5 116.25,-22.5"/>
<text text-anchor="start" x="119.25" y="-28.7" font-family="Times,serif" font-size="14.00"> REG </text>
<polygon fill="none" stroke="black" points="0,0 0,-22.5 75.75,-22.5 75.75,0 0,0"/>
<text text-anchor="start" x="3" y="-6.2" font-family="Times,serif" font-size="14.00"> STRCHAR </text>
<polygon fill="none" stroke="black" points="75.75,0 75.75,-22.5 116.25,-22.5 116.25,0 75.75,0"/>
<text text-anchor="start" x="78.75" y="-6.2" font-family="Times,serif" font-size="14.00"> REG </text>
<polygon fill="none" stroke="black" points="116.25,0 116.25,-22.5 156.75,-22.5 156.75,0 116.25,0"/>
<text text-anchor="start" x="119.25" y="-6.2" font-family="Times,serif" font-size="14.00"> REG </text>
<polygon fill="none" stroke="black" points="156.75,0 156.75,-22.5 197.25,-22.5 197.25,0 156.75,0"/>
<text text-anchor="start" x="159.75" y="-6.2" font-family="Times,serif" font-size="14.00"> REG </text>
</g>
</g>
</svg>
