<?xml version="1.0" encoding="UTF-8" standalone="no"?>
<!DOCTYPE svg PUBLIC "-//W3C//DTD SVG 1.1//EN"
 "http://www.w3.org/Graphics/SVG/1.1/DTD/svg11.dtd">
<!-- Generated by graphviz version 7.0.4 (20221203.1631)
 -->
<!-- Pages: 1 -->
<svg width="327pt" height="135pt"
 viewBox="0.00 0.00 327.00 135.00" xmlns="http://www.w3.org/2000/svg" xmlns:xlink="http://www.w3.org/1999/xlink">
<g id="graph0" class="graph" transform="scale(1 1) rotate(0) translate(36 99)">
<polygon fill="white" stroke="none" points="-36,36 -36,-99 291,-99 291,36 -36,36"/>
<!-- Foo -->
<g id="node1" class="node">
<title>Foo</title>
<polygon fill="none" stroke="black" points="0.5,-41.5 0.5,-62.5 56.5,-62.5 56.5,-41.5 0.5,-41.5"/>
<text text-anchor="start" x="3.5" y="-48.3" font-family="Times,serif" font-size="14.00"> Opcode </text>
<polygon fill="none" stroke="black" points="56.5,-41.5 56.5,-62.5 132.5,-62.5 132.5,-41.5 56.5,-41.5"/>
<text text-anchor="start" x="74" y="-48.3" font-family="Times,serif" font-size="14.00"> Name </text>
<polygon fill="none" stroke="black" points="132.5,-41.5 132.5,-62.5 173.5,-62.5 173.5,-41.5 132.5,-41.5"/>
<text text-anchor="start" x="137" y="-48.3" font-family="Times,serif" font-size="14.00"> OP1 </text>
<polygon fill="none" stroke="black" points="173.5,-41.5 173.5,-62.5 214.5,-62.5 214.5,-41.5 173.5,-41.5"/>
<text text-anchor="start" x="178" y="-48.3" font-family="Times,serif" font-size="14.00"> OP2 </text>
<polygon fill="none" stroke="black" points="214.5,-41.5 214.5,-62.5 255.5,-62.5 255.5,-41.5 214.5,-41.5"/>
<text text-anchor="start" x="219" y="-48.3" font-family="Times,serif" font-size="14.00"> OP3 </text>
<polygon fill="none" stroke="black" points="0.5,-20.5 0.5,-41.5 56.5,-41.5 56.5,-20.5 0.5,-20.5"/>
<text text-anchor="start" x="4.5" y="-27.3" font-family="Times,serif" font-size="14.00"> 0x005e </text>
<polygon fill="none" stroke="black" points="56.5,-20.5 56.5,-41.5 132.5,-41.5 132.5,-20.5 56.5,-20.5"/>
<text text-anchor="start" x="59.5" y="-27.3" font-family="Times,serif" font-size="14.00"> STRCHAR </text>
<polygon fill="none" stroke="black" points="132.5,-20.5 132.5,-41.5 173.5,-41.5 173.5,-20.5 132.5,-20.5"/>
<text text-anchor="start" x="135.5" y="-27.3" font-family="Times,serif" font-size="14.00"> REG </text>
<polygon fill="none" stroke="black" points="173.5,-20.5 173.5,-41.5 214.5,-41.5 214.5,-20.5 173.5,-20.5"/>
<text text-anchor="start" x="176.5" y="-27.3" font-family="Times,serif" font-size="14.00"> REG </text>
<polygon fill="none" stroke="black" points="0.5,0.5 0.5,-20.5 56.5,-20.5 56.5,0.5 0.5,0.5"/>
<text text-anchor="start" x="4" y="-6.3" font-family="Times,serif" font-size="14.00"> 0x005d </text>
<polygon fill="none" stroke="black" points="56.5,0.5 56.5,-20.5 132.5,-20.5 132.5,0.5 56.5,0.5"/>
<text text-anchor="start" x="59.5" y="-6.3" font-family="Times,serif" font-size="14.00"> STRCHAR </text>
<polygon fill="none" stroke="black" points="132.5,0.5 132.5,-20.5 173.5,-20.5 173.5,0.5 132.5,0.5"/>
<text text-anchor="start" x="135.5" y="-6.3" font-family="Times,serif" font-size="14.00"> REG </text>
<polygon fill="none" stroke="black" points="173.5,0.5 173.5,-20.5 214.5,-20.5 214.5,0.5 173.5,0.5"/>
<text text-anchor="start" x="176.5" y="-6.3" font-family="Times,serif" font-size="14.00"> REG </text>
<polygon fill="none" stroke="black" points="214.5,0.5 214.5,-20.5 255.5,-20.5 255.5,0.5 214.5,0.5"/>
<text text-anchor="start" x="217.5" y="-6.3" font-family="Times,serif" font-size="14.00"> REG </text>
</g>
</g>
</svg>
