<?xml version="1.0" encoding="UTF-8" standalone="no"?>
<!DOCTYPE svg PUBLIC "-//W3C//DTD SVG 1.1//EN"
 "http://www.w3.org/Graphics/SVG/1.1/DTD/svg11.dtd">
<!-- Generated by graphviz version 12.1.2 (20240928.0832)
 -->
<!-- Pages: 1 -->
<svg width="232pt" height="116pt"
 viewBox="0.00 0.00 232.00 116.00" xmlns="http://www.w3.org/2000/svg" xmlns:xlink="http://www.w3.org/1999/xlink">
<g id="graph0" class="graph" transform="scale(1 1) rotate(0) translate(36 80)">
<polygon fill="white" stroke="none" points="-36,36 -36,-80 196,-80 196,36 -36,36"/>
<!-- Foo -->
<g id="node1" class="node">
<title>Foo</title>
<polygon fill="none" stroke="black" points="0,-22 0,-44 80,-44 80,-22 0,-22"/>
<text text-anchor="start" x="19.75" y="-27.7" font-family="Times,serif" font-size="14.00"> Name </text>
<polygon fill="none" stroke="black" points="80,-22 80,-44 120,-44 120,-22 80,-22"/>
<text text-anchor="start" x="84.25" y="-27.7" font-family="Times,serif" font-size="14.00"> OP1 </text>
<polygon fill="none" stroke="black" points="120,-22 120,-44 160,-44 160,-22 120,-22"/>
<text text-anchor="start" x="124.25" y="-27.7" font-family="Times,serif" font-size="14.00"> OP2 </text>
<polygon fill="none" stroke="black" points="0,0 0,-22 80,-22 80,0 0,0"/>
<text text-anchor="start" x="2.88" y="-5.7" font-family="Times,serif" font-size="14.00"> STRUPPER </text>
<polygon fill="none" stroke="black" points="80,0 80,-22 120,-22 120,0 80,0"/>
<text text-anchor="start" x="82.75" y="-5.7" font-family="Times,serif" font-size="14.00"> REG </text>
<polygon fill="none" stroke="black" points="120,0 120,-22 160,-22 160,0 120,0"/>
<text text-anchor="start" x="122.75" y="-5.7" font-family="Times,serif" font-size="14.00"> REG </text>
</g>
</g>
</svg>
