<?xml version="1.0" encoding="UTF-8" standalone="no"?>
<!DOCTYPE svg PUBLIC "-//W3C//DTD SVG 1.1//EN"
 "http://www.w3.org/Graphics/SVG/1.1/DTD/svg11.dtd">
<!-- Generated by graphviz version 7.0.4 (20221203.1631)
 -->
<!-- Pages: 1 -->
<svg width="235pt" height="114pt"
 viewBox="0.00 0.00 235.00 114.00" xmlns="http://www.w3.org/2000/svg" xmlns:xlink="http://www.w3.org/1999/xlink">
<g id="graph0" class="graph" transform="scale(1 1) rotate(0) translate(36 78)">
<polygon fill="white" stroke="none" points="-36,36 -36,-78 199,-78 199,36 -36,36"/>
<!-- Foo -->
<g id="node1" class="node">
<title>Foo</title>
<polygon fill="none" stroke="black" points="0.5,-21 0.5,-42 81.5,-42 81.5,-21 0.5,-21"/>
<text text-anchor="start" x="20.5" y="-27.8" font-family="Times,serif" font-size="14.00"> Name </text>
<polygon fill="none" stroke="black" points="81.5,-21 81.5,-42 122.5,-42 122.5,-21 81.5,-21"/>
<text text-anchor="start" x="86" y="-27.8" font-family="Times,serif" font-size="14.00"> OP1 </text>
<polygon fill="none" stroke="black" points="122.5,-21 122.5,-42 163.5,-42 163.5,-21 122.5,-21"/>
<text text-anchor="start" x="127" y="-27.8" font-family="Times,serif" font-size="14.00"> OP2 </text>
<polygon fill="none" stroke="black" points="0.5,0 0.5,-21 81.5,-21 81.5,0 0.5,0"/>
<text text-anchor="start" x="3.5" y="-6.8" font-family="Times,serif" font-size="14.00"> STRUPPER </text>
<polygon fill="none" stroke="black" points="81.5,0 81.5,-21 122.5,-21 122.5,0 81.5,0"/>
<text text-anchor="start" x="84.5" y="-6.8" font-family="Times,serif" font-size="14.00"> REG </text>
<polygon fill="none" stroke="black" points="122.5,0 122.5,-21 163.5,-21 163.5,0 122.5,0"/>
<text text-anchor="start" x="125.5" y="-6.8" font-family="Times,serif" font-size="14.00"> REG </text>
</g>
</g>
</svg>
