<?xml version="1.0" encoding="UTF-8" standalone="no"?>
<!DOCTYPE svg PUBLIC "-//W3C//DTD SVG 1.1//EN"
 "http://www.w3.org/Graphics/SVG/1.1/DTD/svg11.dtd">
<!-- Generated by graphviz version 12.1.2 (20240928.0832)
 -->
<!-- Pages: 1 -->
<svg width="238pt" height="138pt"
 viewBox="0.00 0.00 238.00 138.00" xmlns="http://www.w3.org/2000/svg" xmlns:xlink="http://www.w3.org/1999/xlink">
<g id="graph0" class="graph" transform="scale(1 1) rotate(0) translate(36 102)">
<polygon fill="white" stroke="none" points="-36,36 -36,-102 202,-102 202,36 -36,36"/>
<!-- Foo -->
<g id="node1" class="node">
<title>Foo</title>
<polygon fill="none" stroke="black" points="0,-44 0,-66 46,-66 46,-44 0,-44"/>
<text text-anchor="start" x="2.75" y="-49.7" font-family="Times,serif" font-size="14.00"> Name </text>
<polygon fill="none" stroke="black" points="46,-44 46,-66 86,-66 86,-44 46,-44"/>
<text text-anchor="start" x="50.25" y="-49.7" font-family="Times,serif" font-size="14.00"> OP1 </text>
<polygon fill="none" stroke="black" points="86,-44 86,-66 126,-66 126,-44 86,-44"/>
<text text-anchor="start" x="90.25" y="-49.7" font-family="Times,serif" font-size="14.00"> OP2 </text>
<polygon fill="none" stroke="black" points="126,-44 126,-66 166,-66 166,-44 126,-44"/>
<text text-anchor="start" x="130.25" y="-49.7" font-family="Times,serif" font-size="14.00"> OP3 </text>
<polygon fill="none" stroke="black" points="0,-22 0,-44 46,-44 46,-22 0,-22"/>
<text text-anchor="start" x="3.88" y="-27.7" font-family="Times,serif" font-size="14.00"> SUBI </text>
<polygon fill="none" stroke="black" points="46,-22 46,-44 86,-44 86,-22 46,-22"/>
<text text-anchor="start" x="48.75" y="-27.7" font-family="Times,serif" font-size="14.00"> REG </text>
<polygon fill="none" stroke="black" points="86,-22 86,-44 126,-44 126,-22 86,-22"/>
<text text-anchor="start" x="88.75" y="-27.7" font-family="Times,serif" font-size="14.00"> REG </text>
<polygon fill="none" stroke="black" points="126,-22 126,-44 166,-44 166,-22 126,-22"/>
<text text-anchor="start" x="128.75" y="-27.7" font-family="Times,serif" font-size="14.00"> REG </text>
<polygon fill="none" stroke="black" points="0,0 0,-22 46,-22 46,0 0,0"/>
<text text-anchor="start" x="3.88" y="-5.7" font-family="Times,serif" font-size="14.00"> SUBI </text>
<polygon fill="none" stroke="black" points="46,0 46,-22 86,-22 86,0 46,0"/>
<text text-anchor="start" x="48.75" y="-5.7" font-family="Times,serif" font-size="14.00"> REG </text>
<polygon fill="none" stroke="black" points="86,0 86,-22 126,-22 126,0 86,0"/>
<text text-anchor="start" x="88.75" y="-5.7" font-family="Times,serif" font-size="14.00"> REG </text>
<polygon fill="none" stroke="black" points="126,0 126,-22 166,-22 166,0 126,0"/>
<text text-anchor="start" x="131.38" y="-5.7" font-family="Times,serif" font-size="14.00"> INT </text>
</g>
</g>
</svg>
