<?xml version="1.0" encoding="UTF-8" standalone="no"?>
<!DOCTYPE svg PUBLIC "-//W3C//DTD SVG 1.1//EN"
 "http://www.w3.org/Graphics/SVG/1.1/DTD/svg11.dtd">
<!-- Generated by graphviz version 12.1.2 (20240928.0832)
 -->
<!-- Pages: 1 -->
<svg width="256pt" height="116pt"
 viewBox="0.00 0.00 256.00 116.00" xmlns="http://www.w3.org/2000/svg" xmlns:xlink="http://www.w3.org/1999/xlink">
<g id="graph0" class="graph" transform="scale(1 1) rotate(0) translate(36 80)">
<polygon fill="white" stroke="none" points="-36,36 -36,-80 220,-80 220,36 -36,36"/>
<!-- Foo -->
<g id="node1" class="node">
<title>Foo</title>
<polygon fill="none" stroke="black" points="0,-22 0,-44 64,-44 64,-22 0,-22"/>
<text text-anchor="start" x="11.75" y="-27.7" font-family="Times,serif" font-size="14.00"> Name </text>
<polygon fill="none" stroke="black" points="64,-22 64,-44 104,-44 104,-22 64,-22"/>
<text text-anchor="start" x="68.25" y="-27.7" font-family="Times,serif" font-size="14.00"> OP1 </text>
<polygon fill="none" stroke="black" points="104,-22 104,-44 144,-44 144,-22 104,-22"/>
<text text-anchor="start" x="108.25" y="-27.7" font-family="Times,serif" font-size="14.00"> OP2 </text>
<polygon fill="none" stroke="black" points="144,-22 144,-44 184,-44 184,-22 144,-22"/>
<text text-anchor="start" x="148.25" y="-27.7" font-family="Times,serif" font-size="14.00"> OP3 </text>
<polygon fill="none" stroke="black" points="0,0 0,-22 64,-22 64,0 0,0"/>
<text text-anchor="start" x="2.75" y="-5.7" font-family="Times,serif" font-size="14.00"> SUBSTR </text>
<polygon fill="none" stroke="black" points="64,0 64,-22 104,-22 104,0 64,0"/>
<text text-anchor="start" x="66.75" y="-5.7" font-family="Times,serif" font-size="14.00"> REG </text>
<polygon fill="none" stroke="black" points="104,0 104,-22 144,-22 144,0 104,0"/>
<text text-anchor="start" x="106.75" y="-5.7" font-family="Times,serif" font-size="14.00"> REG </text>
<polygon fill="none" stroke="black" points="144,0 144,-22 184,-22 184,0 144,0"/>
<text text-anchor="start" x="146.75" y="-5.7" font-family="Times,serif" font-size="14.00"> REG </text>
</g>
</g>
</svg>
