<?xml version="1.0" encoding="UTF-8" standalone="no"?>
<!DOCTYPE svg PUBLIC "-//W3C//DTD SVG 1.1//EN"
 "http://www.w3.org/Graphics/SVG/1.1/DTD/svg11.dtd">
<!-- Generated by graphviz version 15.0.0 (20260523.1842)
 -->
<!-- Pages: 1 -->
<svg width="323pt" height="117pt"
 viewBox="0.00 0.00 323.00 117.00" xmlns="http://www.w3.org/2000/svg" xmlns:xlink="http://www.w3.org/1999/xlink">
<g id="graph0" class="graph" transform="scale(1 1) rotate(0) translate(36 81)">
<polygon fill="white" stroke="none" points="-36,36 -36,-81 286.5,-81 286.5,36 -36,36"/>
<!-- Foo -->
<g id="node1" class="node">
<title>Foo</title>
<polygon fill="none" stroke="black" points="0,-22.5 0,-45 88.5,-45 88.5,-22.5 0,-22.5"/>
<text xml:space="preserve" text-anchor="start" x="24" y="-29.25" font-family="Times,serif" font-size="14.00"> Name </text>
<polygon fill="none" stroke="black" points="88.5,-22.5 88.5,-45 129,-45 129,-22.5 88.5,-22.5"/>
<text xml:space="preserve" text-anchor="start" x="93" y="-29.25" font-family="Times,serif" font-size="14.00"> OP1 </text>
<polygon fill="none" stroke="black" points="129,-22.5 129,-45 169.5,-45 169.5,-22.5 129,-22.5"/>
<text xml:space="preserve" text-anchor="start" x="133.5" y="-29.25" font-family="Times,serif" font-size="14.00"> OP2 </text>
<polygon fill="none" stroke="black" points="169.5,-22.5 169.5,-45 210,-45 210,-22.5 169.5,-22.5"/>
<text xml:space="preserve" text-anchor="start" x="174" y="-29.25" font-family="Times,serif" font-size="14.00"> OP3 </text>
<polygon fill="none" stroke="black" points="210,-22.5 210,-45 250.5,-45 250.5,-22.5 210,-22.5"/>
<text xml:space="preserve" text-anchor="start" x="214.5" y="-29.25" font-family="Times,serif" font-size="14.00"> OP4 </text>
<polygon fill="none" stroke="black" points="0,0 0,-22.5 88.5,-22.5 88.5,0 0,0"/>
<text xml:space="preserve" text-anchor="start" x="3" y="-6.75" font-family="Times,serif" font-size="14.00"> SUBSTRING </text>
<polygon fill="none" stroke="black" points="88.5,0 88.5,-22.5 129,-22.5 129,0 88.5,0"/>
<text xml:space="preserve" text-anchor="start" x="91.5" y="-6.75" font-family="Times,serif" font-size="14.00"> REG </text>
<polygon fill="none" stroke="black" points="129,0 129,-22.5 169.5,-22.5 169.5,0 129,0"/>
<text xml:space="preserve" text-anchor="start" x="132" y="-6.75" font-family="Times,serif" font-size="14.00"> REG </text>
<polygon fill="none" stroke="black" points="169.5,0 169.5,-22.5 210,-22.5 210,0 169.5,0"/>
<text xml:space="preserve" text-anchor="start" x="172.5" y="-6.75" font-family="Times,serif" font-size="14.00"> REG </text>
<polygon fill="none" stroke="black" points="210,0 210,-22.5 250.5,-22.5 250.5,0 210,0"/>
<text xml:space="preserve" text-anchor="start" x="213" y="-6.75" font-family="Times,serif" font-size="14.00"> REG </text>
</g>
</g>
</svg>
