<?xml version="1.0" encoding="UTF-8" standalone="no"?>
<!DOCTYPE svg PUBLIC "-//W3C//DTD SVG 1.1//EN"
 "http://www.w3.org/Graphics/SVG/1.1/DTD/svg11.dtd">
<!-- Generated by graphviz version 12.1.2 (20240928.0832)
 -->
<!-- Pages: 1 -->
<svg width="286pt" height="116pt"
 viewBox="0.00 0.00 286.00 116.00" xmlns="http://www.w3.org/2000/svg" xmlns:xlink="http://www.w3.org/1999/xlink">
<g id="graph0" class="graph" transform="scale(1 1) rotate(0) translate(36 80)">
<polygon fill="white" stroke="none" points="-36,36 -36,-80 250,-80 250,36 -36,36"/>
<!-- Foo -->
<g id="node1" class="node">
<title>Foo</title>
<polygon fill="none" stroke="black" points="0,-22 0,-44 94,-44 94,-22 0,-22"/>
<text text-anchor="start" x="26.75" y="-27.7" font-family="Times,serif" font-size="14.00"> Name </text>
<polygon fill="none" stroke="black" points="94,-22 94,-44 134,-44 134,-22 94,-22"/>
<text text-anchor="start" x="98.25" y="-27.7" font-family="Times,serif" font-size="14.00"> OP1 </text>
<polygon fill="none" stroke="black" points="134,-22 134,-44 174,-44 174,-22 134,-22"/>
<text text-anchor="start" x="138.25" y="-27.7" font-family="Times,serif" font-size="14.00"> OP2 </text>
<polygon fill="none" stroke="black" points="174,-22 174,-44 214,-44 214,-22 174,-22"/>
<text text-anchor="start" x="178.25" y="-27.7" font-family="Times,serif" font-size="14.00"> OP3 </text>
<polygon fill="none" stroke="black" points="0,0 0,-22 94,-22 94,0 0,0"/>
<text text-anchor="start" x="2.75" y="-5.7" font-family="Times,serif" font-size="14.00"> TRANSCHAR </text>
<polygon fill="none" stroke="black" points="94,0 94,-22 134,-22 134,0 94,0"/>
<text text-anchor="start" x="96.75" y="-5.7" font-family="Times,serif" font-size="14.00"> REG </text>
<polygon fill="none" stroke="black" points="134,0 134,-22 174,-22 174,0 134,0"/>
<text text-anchor="start" x="136.75" y="-5.7" font-family="Times,serif" font-size="14.00"> REG </text>
<polygon fill="none" stroke="black" points="174,0 174,-22 214,-22 214,0 174,0"/>
<text text-anchor="start" x="176.75" y="-5.7" font-family="Times,serif" font-size="14.00"> REG </text>
</g>
</g>
</svg>
