<?xml version="1.0" encoding="UTF-8" standalone="no"?>
<!DOCTYPE svg PUBLIC "-//W3C//DTD SVG 1.1//EN"
 "http://www.w3.org/Graphics/SVG/1.1/DTD/svg11.dtd">
<!-- Generated by graphviz version 12.2.1 (20241206.2353)
 -->
<!-- Pages: 1 -->
<svg width="288pt" height="117pt"
 viewBox="0.00 0.00 288.00 117.00" xmlns="http://www.w3.org/2000/svg" xmlns:xlink="http://www.w3.org/1999/xlink">
<g id="graph0" class="graph" transform="scale(1 1) rotate(0) translate(36 81)">
<polygon fill="white" stroke="none" points="-36,36 -36,-81 252,-81 252,36 -36,36"/>
<!-- Foo -->
<g id="node1" class="node">
<title>Foo</title>
<polygon fill="none" stroke="black" points="0,-22.5 0,-45 94.5,-45 94.5,-22.5 0,-22.5"/>
<text text-anchor="start" x="27" y="-28.7" font-family="Times,serif" font-size="14.00"> Name </text>
<polygon fill="none" stroke="black" points="94.5,-22.5 94.5,-45 135,-45 135,-22.5 94.5,-22.5"/>
<text text-anchor="start" x="99" y="-28.7" font-family="Times,serif" font-size="14.00"> OP1 </text>
<polygon fill="none" stroke="black" points="135,-22.5 135,-45 175.5,-45 175.5,-22.5 135,-22.5"/>
<text text-anchor="start" x="139.5" y="-28.7" font-family="Times,serif" font-size="14.00"> OP2 </text>
<polygon fill="none" stroke="black" points="175.5,-22.5 175.5,-45 216,-45 216,-22.5 175.5,-22.5"/>
<text text-anchor="start" x="180" y="-28.7" font-family="Times,serif" font-size="14.00"> OP3 </text>
<polygon fill="none" stroke="black" points="0,0 0,-22.5 94.5,-22.5 94.5,0 0,0"/>
<text text-anchor="start" x="3" y="-6.2" font-family="Times,serif" font-size="14.00"> TRANSCHAR </text>
<polygon fill="none" stroke="black" points="94.5,0 94.5,-22.5 135,-22.5 135,0 94.5,0"/>
<text text-anchor="start" x="97.5" y="-6.2" font-family="Times,serif" font-size="14.00"> REG </text>
<polygon fill="none" stroke="black" points="135,0 135,-22.5 175.5,-22.5 175.5,0 135,0"/>
<text text-anchor="start" x="138" y="-6.2" font-family="Times,serif" font-size="14.00"> REG </text>
<polygon fill="none" stroke="black" points="175.5,0 175.5,-22.5 216,-22.5 216,0 175.5,0"/>
<text text-anchor="start" x="178.5" y="-6.2" font-family="Times,serif" font-size="14.00"> REG </text>
</g>
</g>
</svg>
