<?xml version="1.0" encoding="UTF-8" standalone="no"?>
<!DOCTYPE svg PUBLIC "-//W3C//DTD SVG 1.1//EN"
 "http://www.w3.org/Graphics/SVG/1.1/DTD/svg11.dtd">
<!-- Generated by graphviz version 7.0.4 (20221203.1631)
 -->
<!-- Pages: 1 -->
<svg width="290pt" height="114pt"
 viewBox="0.00 0.00 290.00 114.00" xmlns="http://www.w3.org/2000/svg" xmlns:xlink="http://www.w3.org/1999/xlink">
<g id="graph0" class="graph" transform="scale(1 1) rotate(0) translate(36 78)">
<polygon fill="white" stroke="none" points="-36,36 -36,-78 254,-78 254,36 -36,36"/>
<!-- Foo -->
<g id="node1" class="node">
<title>Foo</title>
<polygon fill="none" stroke="black" points="0,-21 0,-42 95,-42 95,-21 0,-21"/>
<text text-anchor="start" x="27" y="-27.8" font-family="Times,serif" font-size="14.00"> Name </text>
<polygon fill="none" stroke="black" points="95,-21 95,-42 136,-42 136,-21 95,-21"/>
<text text-anchor="start" x="99.5" y="-27.8" font-family="Times,serif" font-size="14.00"> OP1 </text>
<polygon fill="none" stroke="black" points="136,-21 136,-42 177,-42 177,-21 136,-21"/>
<text text-anchor="start" x="140.5" y="-27.8" font-family="Times,serif" font-size="14.00"> OP2 </text>
<polygon fill="none" stroke="black" points="177,-21 177,-42 218,-42 218,-21 177,-21"/>
<text text-anchor="start" x="181.5" y="-27.8" font-family="Times,serif" font-size="14.00"> OP3 </text>
<polygon fill="none" stroke="black" points="0,0 0,-21 95,-21 95,0 0,0"/>
<text text-anchor="start" x="3" y="-6.8" font-family="Times,serif" font-size="14.00"> TRANSCHAR </text>
<polygon fill="none" stroke="black" points="95,0 95,-21 136,-21 136,0 95,0"/>
<text text-anchor="start" x="98" y="-6.8" font-family="Times,serif" font-size="14.00"> REG </text>
<polygon fill="none" stroke="black" points="136,0 136,-21 177,-21 177,0 136,0"/>
<text text-anchor="start" x="139" y="-6.8" font-family="Times,serif" font-size="14.00"> REG </text>
<polygon fill="none" stroke="black" points="177,0 177,-21 218,-21 218,0 177,0"/>
<text text-anchor="start" x="180" y="-6.8" font-family="Times,serif" font-size="14.00"> REG </text>
</g>
</g>
</svg>
