<?xml version="1.0" encoding="UTF-8" standalone="no"?>
<!DOCTYPE svg PUBLIC "-//W3C//DTD SVG 1.1//EN"
 "http://www.w3.org/Graphics/SVG/1.1/DTD/svg11.dtd">
<!-- Generated by graphviz version 7.0.4 (20221203.1631)
 -->
<!-- Pages: 1 -->
<svg width="308pt" height="135pt"
 viewBox="0.00 0.00 308.00 135.00" xmlns="http://www.w3.org/2000/svg" xmlns:xlink="http://www.w3.org/1999/xlink">
<g id="graph0" class="graph" transform="scale(1 1) rotate(0) translate(36 99)">
<polygon fill="white" stroke="none" points="-36,36 -36,-99 272,-99 272,36 -36,36"/>
<!-- Foo -->
<g id="node1" class="node">
<title>Foo</title>
<polygon fill="none" stroke="black" points="0,-41.5 0,-62.5 56,-62.5 56,-41.5 0,-41.5"/>
<text text-anchor="start" x="3" y="-48.3" font-family="Times,serif" font-size="14.00"> Opcode </text>
<polygon fill="none" stroke="black" points="56,-41.5 56,-62.5 113,-62.5 113,-41.5 56,-41.5"/>
<text text-anchor="start" x="64" y="-48.3" font-family="Times,serif" font-size="14.00"> Name </text>
<polygon fill="none" stroke="black" points="113,-41.5 113,-62.5 154,-62.5 154,-41.5 113,-41.5"/>
<text text-anchor="start" x="117.5" y="-48.3" font-family="Times,serif" font-size="14.00"> OP1 </text>
<polygon fill="none" stroke="black" points="154,-41.5 154,-62.5 195,-62.5 195,-41.5 154,-41.5"/>
<text text-anchor="start" x="158.5" y="-48.3" font-family="Times,serif" font-size="14.00"> OP2 </text>
<polygon fill="none" stroke="black" points="195,-41.5 195,-62.5 236,-62.5 236,-41.5 195,-41.5"/>
<text text-anchor="start" x="199.5" y="-48.3" font-family="Times,serif" font-size="14.00"> OP3 </text>
<polygon fill="none" stroke="black" points="0,-20.5 0,-41.5 56,-41.5 56,-20.5 0,-20.5"/>
<text text-anchor="start" x="3.5" y="-27.3" font-family="Times,serif" font-size="14.00"> 0x0057 </text>
<polygon fill="none" stroke="black" points="56,-20.5 56,-41.5 113,-41.5 113,-20.5 56,-20.5"/>
<text text-anchor="start" x="59" y="-27.3" font-family="Times,serif" font-size="14.00"> TRIMR </text>
<polygon fill="none" stroke="black" points="113,-20.5 113,-41.5 154,-41.5 154,-20.5 113,-20.5"/>
<text text-anchor="start" x="116" y="-27.3" font-family="Times,serif" font-size="14.00"> REG </text>
<polygon fill="none" stroke="black" points="154,-20.5 154,-41.5 195,-41.5 195,-20.5 154,-20.5"/>
<text text-anchor="start" x="157" y="-27.3" font-family="Times,serif" font-size="14.00"> REG </text>
<polygon fill="none" stroke="black" points="0,0.5 0,-20.5 56,-20.5 56,0.5 0,0.5"/>
<text text-anchor="start" x="4" y="-6.3" font-family="Times,serif" font-size="14.00"> 0x005a </text>
<polygon fill="none" stroke="black" points="56,0.5 56,-20.5 113,-20.5 113,0.5 56,0.5"/>
<text text-anchor="start" x="59" y="-6.3" font-family="Times,serif" font-size="14.00"> TRIMR </text>
<polygon fill="none" stroke="black" points="113,0.5 113,-20.5 154,-20.5 154,0.5 113,0.5"/>
<text text-anchor="start" x="116" y="-6.3" font-family="Times,serif" font-size="14.00"> REG </text>
<polygon fill="none" stroke="black" points="154,0.5 154,-20.5 195,-20.5 195,0.5 154,0.5"/>
<text text-anchor="start" x="157" y="-6.3" font-family="Times,serif" font-size="14.00"> REG </text>
<polygon fill="none" stroke="black" points="195,0.5 195,-20.5 236,-20.5 236,0.5 195,0.5"/>
<text text-anchor="start" x="198" y="-6.3" font-family="Times,serif" font-size="14.00"> REG </text>
</g>
</g>
</svg>
