<?xml version="1.0" encoding="UTF-8" standalone="no"?>
<!DOCTYPE svg PUBLIC "-//W3C//DTD SVG 1.1//EN"
 "http://www.w3.org/Graphics/SVG/1.1/DTD/svg11.dtd">
<!-- Generated by graphviz version 7.0.4 (20221203.1631)
 -->
<!-- Pages: 1 -->
<svg width="306pt" height="135pt"
 viewBox="0.00 0.00 306.00 135.00" xmlns="http://www.w3.org/2000/svg" xmlns:xlink="http://www.w3.org/1999/xlink">
<g id="graph0" class="graph" transform="scale(1 1) rotate(0) translate(36 99)">
<polygon fill="white" stroke="none" points="-36,36 -36,-99 270,-99 270,36 -36,36"/>
<!-- Foo -->
<g id="node1" class="node">
<title>Foo</title>
<polygon fill="none" stroke="black" points="0,-41.5 0,-62.5 56,-62.5 56,-41.5 0,-41.5"/>
<text text-anchor="start" x="3" y="-48.3" font-family="Times,serif" font-size="14.00"> Opcode </text>
<polygon fill="none" stroke="black" points="56,-41.5 56,-62.5 111,-62.5 111,-41.5 56,-41.5"/>
<text text-anchor="start" x="63" y="-48.3" font-family="Times,serif" font-size="14.00"> Name </text>
<polygon fill="none" stroke="black" points="111,-41.5 111,-62.5 152,-62.5 152,-41.5 111,-41.5"/>
<text text-anchor="start" x="115.5" y="-48.3" font-family="Times,serif" font-size="14.00"> OP1 </text>
<polygon fill="none" stroke="black" points="152,-41.5 152,-62.5 193,-62.5 193,-41.5 152,-41.5"/>
<text text-anchor="start" x="156.5" y="-48.3" font-family="Times,serif" font-size="14.00"> OP2 </text>
<polygon fill="none" stroke="black" points="193,-41.5 193,-62.5 234,-62.5 234,-41.5 193,-41.5"/>
<text text-anchor="start" x="197.5" y="-48.3" font-family="Times,serif" font-size="14.00"> OP3 </text>
<polygon fill="none" stroke="black" points="0,-20.5 0,-41.5 56,-41.5 56,-20.5 0,-20.5"/>
<text text-anchor="start" x="3.5" y="-27.3" font-family="Times,serif" font-size="14.00"> 0x0056 </text>
<polygon fill="none" stroke="black" points="56,-20.5 56,-41.5 111,-41.5 111,-20.5 56,-20.5"/>
<text text-anchor="start" x="59" y="-27.3" font-family="Times,serif" font-size="14.00"> TRIML </text>
<polygon fill="none" stroke="black" points="111,-20.5 111,-41.5 152,-41.5 152,-20.5 111,-20.5"/>
<text text-anchor="start" x="114" y="-27.3" font-family="Times,serif" font-size="14.00"> REG </text>
<polygon fill="none" stroke="black" points="152,-20.5 152,-41.5 193,-41.5 193,-20.5 152,-20.5"/>
<text text-anchor="start" x="155" y="-27.3" font-family="Times,serif" font-size="14.00"> REG </text>
<polygon fill="none" stroke="black" points="0,0.5 0,-20.5 56,-20.5 56,0.5 0,0.5"/>
<text text-anchor="start" x="3.5" y="-6.3" font-family="Times,serif" font-size="14.00"> 0x0059 </text>
<polygon fill="none" stroke="black" points="56,0.5 56,-20.5 111,-20.5 111,0.5 56,0.5"/>
<text text-anchor="start" x="59" y="-6.3" font-family="Times,serif" font-size="14.00"> TRIML </text>
<polygon fill="none" stroke="black" points="111,0.5 111,-20.5 152,-20.5 152,0.5 111,0.5"/>
<text text-anchor="start" x="114" y="-6.3" font-family="Times,serif" font-size="14.00"> REG </text>
<polygon fill="none" stroke="black" points="152,0.5 152,-20.5 193,-20.5 193,0.5 152,0.5"/>
<text text-anchor="start" x="155" y="-6.3" font-family="Times,serif" font-size="14.00"> REG </text>
<polygon fill="none" stroke="black" points="193,0.5 193,-20.5 234,-20.5 234,0.5 193,0.5"/>
<text text-anchor="start" x="196" y="-6.3" font-family="Times,serif" font-size="14.00"> REG </text>
</g>
</g>
</svg>
