<?xml version="1.0" encoding="UTF-8" standalone="no"?>
<!DOCTYPE svg PUBLIC "-//W3C//DTD SVG 1.1//EN"
 "http://www.w3.org/Graphics/SVG/1.1/DTD/svg11.dtd">
<!-- Generated by graphviz version 7.0.4 (20221203.1631)
 -->
<!-- Pages: 1 -->
<svg width="252pt" height="135pt"
 viewBox="0.00 0.00 252.00 135.00" xmlns="http://www.w3.org/2000/svg" xmlns:xlink="http://www.w3.org/1999/xlink">
<g id="graph0" class="graph" transform="scale(1 1) rotate(0) translate(36 99)">
<polygon fill="white" stroke="none" points="-36,36 -36,-99 216,-99 216,36 -36,36"/>
<!-- Foo -->
<g id="node1" class="node">
<title>Foo</title>
<polygon fill="none" stroke="black" points="0,-41.5 0,-62.5 57,-62.5 57,-41.5 0,-41.5"/>
<text text-anchor="start" x="8" y="-48.3" font-family="Times,serif" font-size="14.00"> Name </text>
<polygon fill="none" stroke="black" points="57,-41.5 57,-62.5 98,-62.5 98,-41.5 57,-41.5"/>
<text text-anchor="start" x="61.5" y="-48.3" font-family="Times,serif" font-size="14.00"> OP1 </text>
<polygon fill="none" stroke="black" points="98,-41.5 98,-62.5 139,-62.5 139,-41.5 98,-41.5"/>
<text text-anchor="start" x="102.5" y="-48.3" font-family="Times,serif" font-size="14.00"> OP2 </text>
<polygon fill="none" stroke="black" points="139,-41.5 139,-62.5 180,-62.5 180,-41.5 139,-41.5"/>
<text text-anchor="start" x="143.5" y="-48.3" font-family="Times,serif" font-size="14.00"> OP3 </text>
<polygon fill="none" stroke="black" points="0,-20.5 0,-41.5 57,-41.5 57,-20.5 0,-20.5"/>
<text text-anchor="start" x="3" y="-27.3" font-family="Times,serif" font-size="14.00"> TRIMR </text>
<polygon fill="none" stroke="black" points="57,-20.5 57,-41.5 98,-41.5 98,-20.5 57,-20.5"/>
<text text-anchor="start" x="60" y="-27.3" font-family="Times,serif" font-size="14.00"> REG </text>
<polygon fill="none" stroke="black" points="98,-20.5 98,-41.5 139,-41.5 139,-20.5 98,-20.5"/>
<text text-anchor="start" x="101" y="-27.3" font-family="Times,serif" font-size="14.00"> REG </text>
<polygon fill="none" stroke="black" points="0,0.5 0,-20.5 57,-20.5 57,0.5 0,0.5"/>
<text text-anchor="start" x="3" y="-6.3" font-family="Times,serif" font-size="14.00"> TRIMR </text>
<polygon fill="none" stroke="black" points="57,0.5 57,-20.5 98,-20.5 98,0.5 57,0.5"/>
<text text-anchor="start" x="60" y="-6.3" font-family="Times,serif" font-size="14.00"> REG </text>
<polygon fill="none" stroke="black" points="98,0.5 98,-20.5 139,-20.5 139,0.5 98,0.5"/>
<text text-anchor="start" x="101" y="-6.3" font-family="Times,serif" font-size="14.00"> REG </text>
<polygon fill="none" stroke="black" points="139,0.5 139,-20.5 180,-20.5 180,0.5 139,0.5"/>
<text text-anchor="start" x="142" y="-6.3" font-family="Times,serif" font-size="14.00"> REG </text>
</g>
</g>
</svg>
