<?xml version="1.0" encoding="UTF-8" standalone="no"?>
<!DOCTYPE svg PUBLIC "-//W3C//DTD SVG 1.1//EN"
 "http://www.w3.org/Graphics/SVG/1.1/DTD/svg11.dtd">
<!-- Generated by graphviz version 7.0.4 (20221203.1631)
 -->
<!-- Pages: 1 -->
<svg width="250pt" height="135pt"
 viewBox="0.00 0.00 250.00 135.00" xmlns="http://www.w3.org/2000/svg" xmlns:xlink="http://www.w3.org/1999/xlink">
<g id="graph0" class="graph" transform="scale(1 1) rotate(0) translate(36 99)">
<polygon fill="white" stroke="none" points="-36,36 -36,-99 214,-99 214,36 -36,36"/>
<!-- Foo -->
<g id="node1" class="node">
<title>Foo</title>
<polygon fill="none" stroke="black" points="0,-41.5 0,-62.5 55,-62.5 55,-41.5 0,-41.5"/>
<text text-anchor="start" x="7" y="-48.3" font-family="Times,serif" font-size="14.00"> Name </text>
<polygon fill="none" stroke="black" points="55,-41.5 55,-62.5 96,-62.5 96,-41.5 55,-41.5"/>
<text text-anchor="start" x="59.5" y="-48.3" font-family="Times,serif" font-size="14.00"> OP1 </text>
<polygon fill="none" stroke="black" points="96,-41.5 96,-62.5 137,-62.5 137,-41.5 96,-41.5"/>
<text text-anchor="start" x="100.5" y="-48.3" font-family="Times,serif" font-size="14.00"> OP2 </text>
<polygon fill="none" stroke="black" points="137,-41.5 137,-62.5 178,-62.5 178,-41.5 137,-41.5"/>
<text text-anchor="start" x="141.5" y="-48.3" font-family="Times,serif" font-size="14.00"> OP3 </text>
<polygon fill="none" stroke="black" points="0,-20.5 0,-41.5 55,-41.5 55,-20.5 0,-20.5"/>
<text text-anchor="start" x="3" y="-27.3" font-family="Times,serif" font-size="14.00"> TRIML </text>
<polygon fill="none" stroke="black" points="55,-20.5 55,-41.5 96,-41.5 96,-20.5 55,-20.5"/>
<text text-anchor="start" x="58" y="-27.3" font-family="Times,serif" font-size="14.00"> REG </text>
<polygon fill="none" stroke="black" points="96,-20.5 96,-41.5 137,-41.5 137,-20.5 96,-20.5"/>
<text text-anchor="start" x="99" y="-27.3" font-family="Times,serif" font-size="14.00"> REG </text>
<polygon fill="none" stroke="black" points="0,0.5 0,-20.5 55,-20.5 55,0.5 0,0.5"/>
<text text-anchor="start" x="3" y="-6.3" font-family="Times,serif" font-size="14.00"> TRIML </text>
<polygon fill="none" stroke="black" points="55,0.5 55,-20.5 96,-20.5 96,0.5 55,0.5"/>
<text text-anchor="start" x="58" y="-6.3" font-family="Times,serif" font-size="14.00"> REG </text>
<polygon fill="none" stroke="black" points="96,0.5 96,-20.5 137,-20.5 137,0.5 96,0.5"/>
<text text-anchor="start" x="99" y="-6.3" font-family="Times,serif" font-size="14.00"> REG </text>
<polygon fill="none" stroke="black" points="137,0.5 137,-20.5 178,-20.5 178,0.5 137,0.5"/>
<text text-anchor="start" x="140" y="-6.3" font-family="Times,serif" font-size="14.00"> REG </text>
</g>
</g>
</svg>
