<?xml version="1.0" encoding="UTF-8" standalone="no"?>
<!DOCTYPE svg PUBLIC "-//W3C//DTD SVG 1.1//EN"
 "http://www.w3.org/Graphics/SVG/1.1/DTD/svg11.dtd">
<!-- Generated by graphviz version 7.0.4 (20221203.1631)
 -->
<!-- Pages: 1 -->
<svg width="234pt" height="114pt"
 viewBox="0.00 0.00 234.00 114.00" xmlns="http://www.w3.org/2000/svg" xmlns:xlink="http://www.w3.org/1999/xlink">
<g id="graph0" class="graph" transform="scale(1 1) rotate(0) translate(36 78)">
<polygon fill="white" stroke="none" points="-36,36 -36,-78 198,-78 198,36 -36,36"/>
<!-- Foo -->
<g id="node1" class="node">
<title>Foo</title>
<polygon fill="none" stroke="black" points="0,-21 0,-42 58,-42 58,-21 0,-21"/>
<text text-anchor="start" x="8.5" y="-27.8" font-family="Times,serif" font-size="14.00"> Name </text>
<polygon fill="none" stroke="black" points="58,-21 58,-42 99,-42 99,-21 58,-21"/>
<text text-anchor="start" x="62.5" y="-27.8" font-family="Times,serif" font-size="14.00"> OP1 </text>
<polygon fill="none" stroke="black" points="99,-21 99,-42 162,-42 162,-21 99,-21"/>
<text text-anchor="start" x="114.5" y="-27.8" font-family="Times,serif" font-size="14.00"> OP2 </text>
<polygon fill="none" stroke="black" points="0,0 0,-21 58,-21 58,0 0,0"/>
<text text-anchor="start" x="3" y="-6.8" font-family="Times,serif" font-size="14.00"> XTIME </text>
<polygon fill="none" stroke="black" points="58,0 58,-21 99,-21 99,0 58,0"/>
<text text-anchor="start" x="61" y="-6.8" font-family="Times,serif" font-size="14.00"> REG </text>
<polygon fill="none" stroke="black" points="99,0 99,-21 162,-21 162,0 99,0"/>
<text text-anchor="start" x="102" y="-6.8" font-family="Times,serif" font-size="14.00"> STRING </text>
</g>
</g>
</svg>
