<?xml version="1.0" encoding="UTF-8" standalone="no"?>
<!DOCTYPE svg PUBLIC "-//W3C//DTD SVG 1.1//EN"
 "http://www.w3.org/Graphics/SVG/1.1/DTD/svg11.dtd">
<!-- Generated by graphviz version 12.2.1 (20241206.2353)
 -->
<!-- Pages: 1 -->
<svg width="232pt" height="117pt"
 viewBox="0.00 0.00 231.75 117.00" xmlns="http://www.w3.org/2000/svg" xmlns:xlink="http://www.w3.org/1999/xlink">
<g id="graph0" class="graph" transform="scale(1 1) rotate(0) translate(36 81)">
<polygon fill="white" stroke="none" points="-36,36 -36,-81 195.75,-81 195.75,36 -36,36"/>
<!-- Foo -->
<g id="node1" class="node">
<title>Foo</title>
<polygon fill="none" stroke="black" points="0,-22.5 0,-45 57,-45 57,-22.5 0,-22.5"/>
<text text-anchor="start" x="8.25" y="-28.7" font-family="Times,serif" font-size="14.00"> Name </text>
<polygon fill="none" stroke="black" points="57,-22.5 57,-45 97.5,-45 97.5,-22.5 57,-22.5"/>
<text text-anchor="start" x="61.5" y="-28.7" font-family="Times,serif" font-size="14.00"> OP1 </text>
<polygon fill="none" stroke="black" points="97.5,-22.5 97.5,-45 159.75,-45 159.75,-22.5 97.5,-22.5"/>
<text text-anchor="start" x="112.88" y="-28.7" font-family="Times,serif" font-size="14.00"> OP2 </text>
<polygon fill="none" stroke="black" points="0,0 0,-22.5 57,-22.5 57,0 0,0"/>
<text text-anchor="start" x="3" y="-6.2" font-family="Times,serif" font-size="14.00"> XTIME </text>
<polygon fill="none" stroke="black" points="57,0 57,-22.5 97.5,-22.5 97.5,0 57,0"/>
<text text-anchor="start" x="60" y="-6.2" font-family="Times,serif" font-size="14.00"> REG </text>
<polygon fill="none" stroke="black" points="97.5,0 97.5,-22.5 159.75,-22.5 159.75,0 97.5,0"/>
<text text-anchor="start" x="100.5" y="-6.2" font-family="Times,serif" font-size="14.00"> STRING </text>
</g>
</g>
</svg>
